<svg width="29" height="41" viewBox="0 0 29 41" fill="none" xmlns="http://www.w3.org/2000/svg">
<path d="M28.9911 14.4339C29.109 17.9578 28.0473 20.7525 26.5136 23.3043C22.8563 28.8938 19.1991 34.4833 15.5418 40.1944C14.834 41.288 14.2441 41.288 13.5362 40.0729C9.99697 34.6048 6.33972 29.1368 2.80045 23.6688C-2.74441 15.163 0.676887 6.41414 6.69365 2.52577C11.4127 -0.512021 16.3677 -0.876556 21.3226 1.7967C26.2776 4.59147 28.7551 9.0874 28.9911 14.4339ZM14.48 6.53565C9.99697 6.53565 6.57567 10.181 6.57567 14.7984C6.57567 19.2944 10.2329 23.0612 14.598 22.9397C18.9631 22.9397 22.6204 19.0514 22.5024 14.6769C22.5024 10.181 18.8451 6.53565 14.48 6.53565Z" fill="#DA2626"/>
</svg>
