<svg width="314" height="187" viewBox="0 0 314 187" fill="none" xmlns="http://www.w3.org/2000/svg">
<path d="M66.4439 32.532C78.8899 21.4471 88.0301 28.0594 94.8369 35.4491C100.262 41.3395 101.019 42.6455 105.501 48.7485C106.167 49.6543 106.678 50.6611 106.699 51.7845C106.825 58.5315 110.277 87.058 106.44 96.9017C101.967 108.375 46.8024 113.626 46.8024 113.626L66.4439 32.532Z" fill="#303C60"/>
<path d="M101.772 103.434C101.472 103.434 101.22 103.198 101.205 102.894C101.189 102.58 101.43 102.313 101.744 102.297C103.381 102.214 104.713 101.478 105.818 100.048C112.003 92.0339 108.525 65.2789 105.495 50.7333C105.431 50.4256 105.628 50.1249 105.935 50.0607C106.242 49.9957 106.544 50.1934 106.608 50.5011C107.27 53.6777 109.482 64.9545 110.173 76.6994C110.883 88.7628 109.72 96.8522 106.718 100.742C105.417 102.428 103.763 103.334 101.802 103.433C101.792 103.434 101.782 103.434 101.772 103.434Z" fill="#303C60"/>
<path d="M71.1107 29.2258C47.1911 42.45 61.7763 87.1781 31.4389 103.125C23.0343 107.542 -2.78755 129.961 14.1312 159.521C25.198 178.857 58.276 174.69 69.1661 157.576C80.0567 140.463 71.1107 29.2258 71.1107 29.2258Z" fill="#303C60"/>
<path d="M7.45543 130.919C7.43035 130.919 7.40527 130.917 7.3796 130.913C7.06842 130.872 6.84967 130.586 6.89108 130.275C6.91208 130.117 7.43266 126.353 9.81833 121.362C12.0162 116.763 16.2842 110.232 24.1329 105.238C38.1702 96.3047 47.4883 87.8864 58.5047 46.3876C58.5849 46.084 58.8972 45.9035 59.2 45.984C59.5033 46.0645 59.6841 46.3757 59.6036 46.6793C54.2802 66.7326 49.0017 80.2887 42.9926 89.342C37.4122 97.7487 31.6706 101.789 24.7437 106.197C10.1616 115.476 8.03812 130.276 8.01829 130.425C7.98009 130.711 7.736 130.919 7.45543 130.919Z" fill="#303C60"/>
<path d="M7.97827 119.336C7.87444 119.336 7.76914 119.307 7.67523 119.248C7.40983 119.08 7.33023 118.729 7.49822 118.464C10.9671 112.973 15.3849 108.469 20.629 105.078C40.342 92.3297 43.6038 85.001 59.8853 43.0222C59.999 42.7294 60.3288 42.5842 60.6208 42.6979C60.9136 42.8117 61.0586 43.1409 60.9451 43.4334C52.805 64.4215 47.94 76.7205 42.6189 85.4373C36.9038 94.7985 30.4546 100.078 21.2465 106.032C16.1412 109.334 11.8391 113.721 8.45921 119.071C8.35101 119.242 8.16638 119.336 7.97827 119.336Z" fill="#303C60"/>
<path d="M70.2849 57.1382C62.0494 74.2427 63.316 89.7635 63.316 89.7635C63.316 89.7635 64.2662 95.782 68.0675 97.0489C71.8682 98.3161 77.2533 94.5148 76.9365 89.4468C76.6198 84.3789 78.2037 72.0256 80.1038 67.5911C82.0047 63.1563 70.2849 57.1382 70.2849 57.1382Z" fill="#F09959"/>
<path d="M26.7717 175.986C27.2903 180.654 26.1234 180.265 30.2724 181.043C34.4211 181.82 41.8105 178.968 41.8105 178.968L33.5135 163.54L26.7717 175.986Z" fill="#6791C9"/>
<path d="M64.3096 80.5779C61.9764 88.1619 44.4747 82.3281 38.3492 84.0782C32.2238 85.8281 26.973 111.497 26.098 134.541C25.2231 157.584 26.3897 175.961 28.7232 178.877C31.0569 181.794 69.5601 182.961 73.0602 181.794C76.5605 180.628 43.8911 166.043 43.8911 166.043C43.8911 166.043 41.849 139.207 44.4744 125.498C47.0998 111.789 70.7267 93.7037 70.7267 93.7037L64.3096 80.5779Z" fill="#F09959"/>
<path d="M72.4772 82.9116C78.6027 92.2455 94.6455 91.0789 100.188 98.6629C105.73 106.247 117.398 147.958 117.398 147.958L129.649 105.664C129.649 105.664 139.584 103.994 136.358 110.914C130.619 123.22 128.48 162.924 122.257 168.564C115.336 174.835 108.449 169.731 104.563 158.751C100.804 148.13 91.4371 125.207 84.7284 116.456C78.0193 107.705 70.7271 93.704 70.7271 93.704L72.4772 82.9116Z" fill="#F09959"/>
<path d="M45.9332 84.0781C58.1841 98.3711 82.1029 97.7875 87.3531 96.0373C92.6034 94.2871 92.6037 94.2871 92.6037 94.2871C92.6037 94.2871 96.6873 92.8286 100.188 96.9125C103.688 100.996 112.147 126.665 113.605 132.499C115.064 138.333 117.397 147.959 117.397 147.959C117.397 147.959 111.139 155.47 111.139 163.054C111.139 170.638 113.797 170.703 113.797 170.703C113.797 170.703 106.021 168.96 104.271 164.293C102.521 159.626 86.7696 117.331 86.7696 117.331L43.3078 118.206L43.8914 166.044C43.8914 166.044 40.0994 162.543 34.8489 166.044C29.5984 169.544 27.8482 177.711 28.7231 178.878C29.5984 180.045 26.973 180.045 26.973 179.17C26.973 178.294 22.0144 157.001 25.5147 121.998C29.0151 86.9954 35.7238 83.2034 39.5161 82.9117C43.3078 82.6195 45.9332 84.0781 45.9332 84.0781Z" fill="#CCCCCC"/>
<path d="M112.017 170.099C112.099 170.127 112.147 170.127 112.147 170.127C112.147 170.127 112.1 170.118 112.017 170.099Z" fill="#6791C9"/>
<path d="M113.7 149.02C111.172 149.798 106.893 158.743 106.893 158.743C106.893 158.743 97.17 137.546 94.253 108.181L90.782 128.103C95.5738 140.967 103.094 161.152 104.272 164.294C105.872 168.563 112.329 170.344 113.214 170.542C112.972 170.46 112.437 170.136 111.994 168.855C111.739 168.622 110.278 167.94 110.005 167.689C107.672 165.55 108.644 160.494 110.2 154.854C111.756 149.214 116.229 148.242 113.7 149.02Z" fill="#6791C9"/>
<path d="M45.3998 118.164L40.5792 96.1235C35.3284 103.514 34.7451 128.795 36.8843 146.102C38.6389 160.297 41.2631 163.98 43.066 165.46C43.5989 165.774 43.8914 166.044 43.8914 166.044L43.3078 118.206L45.3998 118.164Z" fill="#6791C9"/>
<path d="M31.439 95.9294C40.3846 120.044 35.9119 124.906 47.6834 153.209C54.258 169.017 66.935 180.92 66.935 180.92C66.935 180.92 77.1444 183.545 89.9786 182.67C102.813 181.795 112.209 180.913 112.209 180.913C112.209 180.913 98.7294 172.753 98.1461 167.211C97.5625 161.668 95.0308 139.685 98.3369 124.128C100.919 111.979 90.2702 99.8299 90.2702 99.8299L72.4772 98.955L31.439 95.9294Z" fill="#CCCCCC"/>
<path opacity="0.5" d="M47.1913 132.878C45.6354 127.239 53.8033 134.629 67.2217 135.99C80.6403 137.351 95.6146 135.212 88.2248 137.546C80.8348 139.879 60.6097 136.379 64.3049 143.769C68.6531 152.466 73.7881 160.882 81.2236 165.939C86.0854 169.245 97.7535 172.356 86.4744 170.606C75.1952 168.855 63.1377 155.632 57.8872 147.075C52.6364 138.518 47.5381 134.136 47.1913 132.878Z" fill="#6791C9"/>
<path d="M76.904 87.2264C77.0221 81.4049 78.4419 71.4694 80.1042 67.591C81.4659 64.4136 75.8366 60.4241 72.5343 58.4167L69.7417 58.2971C69.3162 59.2246 68.917 60.1465 68.5448 61.0608C65.5963 80.4206 74.4203 88.4204 78.6308 90.0303C80.4481 90.7253 82.4847 90.8023 84.225 90.6448C81.6255 89.7206 79.0923 88.6692 76.904 87.2264Z" fill="#E38540"/>
<path d="M71.561 95.834C70.549 95.834 69.4988 95.7124 68.4562 95.4581C66.0224 94.8649 60.216 92.6099 58.8657 84.5085C58.8362 84.3327 58.9552 84.1667 59.1305 84.1376C59.3052 84.109 59.472 84.2271 59.5012 84.4024C60.7882 92.1252 66.2991 94.2688 68.6087 94.8322C72.1971 95.7069 76.0037 94.8973 77.4649 92.9485C78.637 91.3861 77.9336 88.0576 77.9266 88.0243C77.8887 87.8502 77.9992 87.6787 78.173 87.6411C78.3457 87.6032 78.5186 87.7134 78.5562 87.8879C78.5886 88.036 79.329 91.5372 77.9805 93.3355C76.7856 94.9282 74.32 95.834 71.561 95.834Z" fill="#F5CE5C"/>
<path d="M99.01 64.7478C97.0317 75.1961 92.4616 83.6249 84.7283 82.0363C76.9947 80.4477 68.8651 69.4112 71.0049 58.9948C73.1444 48.578 81.1484 41.4219 88.882 43.0105C96.6153 44.5994 101.646 50.8252 99.01 64.7478Z" fill="#F09959"/>
<path d="M126.535 116.348C126.535 116.348 112.241 154.756 111.561 158.743C110.88 162.73 112.241 165.258 112.631 165.258C113.02 165.258 125.174 144.449 125.174 144.449L126.535 116.348Z" fill="#F09959"/>
<path d="M127.119 114.663C128.286 110.774 126.47 105.847 126.47 105.847L131.656 106.496L127.119 114.663Z" fill="#F09959"/>
<path d="M132.817 108.029H118.347C117.468 108.029 116.838 107.183 117.089 106.341L126.223 75.7137C126.39 75.1575 126.901 74.7764 127.481 74.7764H141.951C142.83 74.7764 143.46 75.6221 143.209 76.4641L134.075 107.091C133.909 107.648 133.397 108.029 132.817 108.029Z" fill="#4381DB"/>
<path d="M134.632 108.029H120.162C119.283 108.029 118.653 107.182 118.904 106.341L128.039 75.7132C128.204 75.1571 128.716 74.7759 129.296 74.7759H143.766C144.645 74.7759 145.275 75.6217 145.024 76.4636L135.89 107.091C135.724 107.647 135.212 108.029 134.632 108.029Z" fill="#2E5B9A"/>
<path d="M124.155 85.829C122.613 91.3875 121.574 95.9524 121.836 96.025C122.098 96.0976 123.561 91.6506 125.103 86.0921C126.646 80.5339 127.684 75.969 127.422 75.8964C127.161 75.824 125.698 80.2708 124.155 85.829Z" fill="#9CBEED"/>
<path d="M133.99 117.126C134.418 112.076 138.793 107.341 140.457 105.831C140.963 105.372 141.249 104.72 141.243 104.037C141.218 101.52 141.107 95.5763 140.586 94.8819C139.923 93.9982 138.266 82.6188 137.493 83.0609C136.719 83.5027 137.714 93.4455 137.714 93.4455C137.714 93.4455 135.836 92.5619 134.841 92.12C133.847 91.6779 129.759 96.2077 129.759 96.2077C129.759 96.2077 127.842 101.05 133.083 98.976C139.305 96.5125 134.638 103.384 130.489 107.792C127.071 111.424 129.98 112.227 129.98 112.227L132.742 112.117L133.99 117.126Z" fill="#F09959"/>
<path d="M132.423 121.1C131.965 121.1 131.445 121.029 130.923 120.866C129.577 120.447 127.227 119.093 126.605 114.741C126.579 114.565 126.702 114.401 126.878 114.376C127.055 114.352 127.218 114.473 127.243 114.65C127.775 118.371 129.579 119.729 130.999 120.213C132.16 120.609 133.12 120.426 133.362 120.291C133.378 120.181 133.451 120.08 133.562 120.036C133.727 119.97 133.915 120.05 133.981 120.216C134.046 120.379 134.008 120.559 133.879 120.699C133.653 120.943 133.105 121.1 132.423 121.1Z" fill="#F5CE5C"/>
<path d="M131.88 119.85C131.45 119.85 131.002 119.818 130.576 119.756C128.075 119.393 126.399 118.124 125.978 116.275C125.938 116.101 126.046 115.928 126.22 115.889C126.394 115.85 126.567 115.958 126.606 116.131C127.008 117.896 128.612 118.646 129.887 118.965C131.674 119.411 133.352 119.136 133.553 118.904C133.64 118.749 133.833 118.698 133.989 118.786C134.144 118.874 134.196 119.075 134.109 119.23C133.868 119.656 132.93 119.85 131.88 119.85Z" fill="#F5CE5C"/>
<path d="M90.1344 70.1848C89.9763 70.1848 89.8173 70.1729 89.6581 70.1487C87.2042 69.7727 85.7217 66.6066 86.2834 62.9409C86.5442 61.2392 87.2182 59.6969 88.1821 58.5977C89.2081 57.4288 90.4432 56.8872 91.6608 57.0736C94.1144 57.4492 95.5969 60.6153 95.0352 64.2813C94.5102 67.7091 92.4113 70.1848 90.1344 70.1848ZM91.1948 58.1754C90.4633 58.1754 89.7071 58.5834 89.0369 59.3481C88.2145 60.2861 87.6355 61.6233 87.4072 63.1136C86.958 66.0478 88.0678 68.7552 89.8305 69.0253C91.5929 69.2971 93.4623 67.0441 93.9118 64.1099C94.3609 61.1753 93.2512 58.4682 91.4885 58.1982C91.3911 58.183 91.2931 58.1754 91.1948 58.1754Z" fill="white"/>
<path d="M98.2234 70.2002C98.1453 70.2002 98.0677 70.1944 97.9901 70.1824C96.3831 69.9363 95.5117 67.2146 96.006 63.9864C96.5004 60.7576 98.1505 58.4165 99.7534 58.6673C100.581 58.7942 101.233 59.5516 101.588 60.8007C101.911 61.9367 101.964 63.3797 101.737 64.8639C101.267 67.9358 99.7531 70.2002 98.2234 70.2002ZM99.5166 59.509C98.5702 59.509 97.2825 61.3303 96.8556 64.1164C96.4128 67.009 97.1665 69.1873 98.1202 69.3331C99.0797 69.4743 100.445 67.6258 100.888 64.7339C101.097 63.369 101.052 62.0557 100.762 61.0358C100.508 60.1428 100.093 59.5889 99.6236 59.5169C99.5883 59.5116 99.5524 59.509 99.5166 59.509Z" fill="white"/>
<path d="M87.4468 60.5206C87.3952 60.5206 87.343 60.5136 87.2905 60.4988L68.2322 55.0537C67.9304 54.9671 67.7557 54.6527 67.8418 54.3508C67.9278 54.049 68.2422 53.8746 68.5443 53.9603L87.6026 59.4056C87.9045 59.492 88.0794 59.8067 87.9934 60.1082C87.9219 60.3579 87.6944 60.5206 87.4468 60.5206Z" fill="white"/>
<path d="M101.059 48.673C71.5649 66.0458 69.9442 54.3776 69.9442 54.3776L71.6944 37.7832L89.1967 38.7553L101.059 48.673Z" fill="#303C60"/>
<path d="M72.2263 58.233C72.9128 61.1696 71.9758 63.8994 70.1334 64.3296C68.2911 64.7598 66.2414 62.7285 65.5554 59.7916C64.8689 56.8547 65.8063 54.1249 67.6486 53.6944C69.4906 53.2642 71.5403 55.2964 72.2263 58.233Z" fill="#F09959"/>
<path d="M70.2055 62.0906C70.2055 62.7319 69.6858 63.2516 69.0442 63.2516C68.4029 63.2516 67.8828 62.7319 67.8828 62.0906C67.8828 61.4489 68.4029 60.929 69.0442 60.929C69.6858 60.929 70.2055 61.4489 70.2055 62.0906Z" fill="#F5CE5C"/>
<path d="M297.742 186.206H2.70386C1.21062 186.206 0 184.996 0 183.502C0 182.009 1.21033 180.798 2.70386 180.798H297.742C299.236 180.798 300.446 182.009 300.446 183.502C300.446 184.996 299.236 186.206 297.742 186.206Z" fill="#2E5B9A"/>
<path d="M72.639 180.278C72.639 180.278 61.5167 180.419 61.3761 181.404C61.2356 182.39 61.7984 182.812 65.7406 183.516C69.6825 184.22 114.031 184.502 114.453 184.22C114.875 183.939 127.828 180.841 127.828 180.841L96.7136 180.278H72.639V180.278Z" fill="#DBE5EB"/>
<path d="M78.6953 172.875C78.6953 172.875 86.6686 169.374 89.0024 170.93C91.3358 172.486 98.0776 179.616 98.0776 179.616L78.6953 172.875Z" fill="#F09959"/>
<path d="M97.6384 180.252C97.4864 180.441 97.2607 180.521 97.1338 180.426L80.7272 168.212C79.8435 167.554 79.423 166.548 79.8479 166.017C80.2729 165.486 81.347 165.675 82.1829 166.393L97.6979 179.721C97.8181 179.824 97.7897 180.062 97.6384 180.252Z" fill="#2E5B9A"/>
<path d="M54.5811 171.384C54.5811 171.384 67.8052 176.635 69.3612 176.635C70.9168 176.635 79.603 170.8 82.52 171.578C85.4371 172.356 99.6983 179.552 99.3092 180.135C98.9204 180.718 94.8365 182.08 82.779 181.691C70.722 181.302 51.0804 179.552 51.0804 179.552L54.5811 171.384Z" fill="#F09959"/>
<path d="M220.063 181.023H166.164C165.366 181.023 164.714 180.37 164.714 179.573V171.07C164.714 170.272 165.366 169.619 166.164 169.619H220.063C222.064 169.619 223.702 171.257 223.702 173.258V177.384C223.702 179.385 222.064 181.023 220.063 181.023Z" fill="#F37168"/>
<path d="M215.895 171.549H164.721C164.362 172.144 164.152 172.838 164.152 173.579V177.064C164.152 177.805 164.363 178.498 164.721 179.093H215.895C217.712 179.093 219.199 177.607 219.199 175.79V174.853C219.199 173.036 217.712 171.549 215.895 171.549Z" fill="#F2E5DE"/>
<path d="M218.259 169.619H177.271C176.732 169.619 176.292 169.179 176.292 168.641V163.7C176.292 163.162 176.733 162.722 177.271 162.722H218.259C219.609 162.722 220.714 163.827 220.714 165.178V167.164C220.714 168.514 219.609 169.619 218.259 169.619Z" fill="#7BCEE8"/>
<path d="M214.835 163.888H176.297C176.027 164.248 175.869 164.667 175.869 165.116V167.224C175.869 167.673 176.027 168.092 176.297 168.452H214.835C216.203 168.452 217.323 167.553 217.323 166.454V165.887C217.323 164.787 216.204 163.888 214.835 163.888Z" fill="#F2E5DE"/>
<path d="M225.269 23.2297H181.554C180.161 23.2297 179.435 22.0893 179.943 20.6956L186.553 2.53414C187.06 1.14036 188.616 0 190.01 0H233.725C235.118 0 235.844 1.14036 235.336 2.53414L228.726 20.6956C228.219 22.0893 226.663 23.2297 225.269 23.2297Z" fill="#9EC8FF"/>
<path d="M223.787 21.3292H184.421C183.213 21.3292 182.585 20.3411 183.024 19.1343L188.498 4.09553C188.938 2.88811 190.285 1.90088 191.492 1.90088H230.859C232.066 1.90088 232.694 2.8884 232.255 4.09553L226.781 19.1343C226.341 20.3411 224.994 21.3292 223.787 21.3292Z" fill="white"/>
<path d="M198.904 22.1738C195.278 31.7471 189.697 34.7038 189.697 34.7038C189.697 34.7038 193.667 29.2133 193.092 26.5383C192.517 23.8633 190.392 22.7367 190.392 22.7367L198.904 22.1738Z" fill="#9EC8FF"/>
<path d="M226.949 7.25008H201.572C201.156 7.25008 200.94 6.90945 201.091 6.49327L201.104 6.45799C201.256 6.04181 201.72 5.70117 202.136 5.70117H227.513C227.929 5.70117 228.146 6.04181 227.994 6.45799L227.981 6.49327C227.83 6.90945 227.366 7.25008 226.949 7.25008Z" fill="#9EC8FF"/>
<path d="M225.771 10.4884H200.394C199.977 10.4884 199.761 10.148 199.913 9.73155L199.925 9.69627C200.077 9.28009 200.541 8.93945 200.957 8.93945H226.335C226.751 8.93945 226.967 9.28009 226.816 9.69627L226.803 9.73155C226.652 10.148 226.187 10.4884 225.771 10.4884Z" fill="#9EC8FF"/>
<path d="M224.439 14.1493H199.062C198.645 14.1493 198.429 13.8087 198.58 13.3925L198.593 13.3572C198.745 12.9407 199.209 12.6003 199.625 12.6003H225.003C225.419 12.6003 225.635 12.9407 225.484 13.3572L225.471 13.3925C225.319 13.8087 224.855 14.1493 224.439 14.1493Z" fill="#9EC8FF"/>
<path d="M197.615 9.85516C196.61 12.6153 193.968 14.8531 191.713 14.8531C189.458 14.8531 188.445 12.6153 189.449 9.85516C190.454 7.09472 193.097 4.85693 195.351 4.85693C197.606 4.85693 198.62 7.09472 197.615 9.85516Z" fill="#9EC8FF"/>
<path d="M200.422 70.4638H198.255C197.798 70.4638 197.562 70.0931 197.729 69.6355L198.378 67.8515C198.544 67.3939 199.05 67.0229 199.508 67.0229H201.674C202.132 67.0229 202.368 67.3937 202.201 67.8515L201.552 69.6355C201.386 70.0931 200.88 70.4638 200.422 70.4638Z" fill="#9EC8FF"/>
<path d="M207.373 70.4633H205.207C204.749 70.4633 204.513 70.0926 204.68 69.635L205.329 67.851C205.496 67.3935 206.002 67.0225 206.459 67.0225H208.626C209.083 67.0225 209.319 67.3932 209.153 67.851L208.503 69.635C208.337 70.0926 207.831 70.4633 207.373 70.4633Z" fill="#9EC8FF"/>
<path d="M214.324 70.4633H212.158C211.701 70.4633 211.465 70.0926 211.631 69.635L212.281 67.851C212.447 67.3935 212.953 67.0225 213.41 67.0225H215.577C216.034 67.0225 216.27 67.3932 216.104 67.851L215.454 69.635C215.288 70.0926 214.782 70.4633 214.324 70.4633Z" fill="#9EC8FF"/>
<path d="M172.879 56.737H129.164C127.77 56.737 127.045 55.5967 127.552 54.2029L134.162 36.0415C134.67 34.6477 136.225 33.5073 137.619 33.5073H181.334C182.727 33.5073 183.453 34.6477 182.945 36.0415L176.335 54.2029C175.828 55.5967 174.272 56.737 172.879 56.737Z" fill="#9EC8FF"/>
<path d="M171.396 54.8361H132.03C130.823 54.8361 130.194 53.8483 130.634 52.6414L136.108 37.6026C136.547 36.3952 137.894 35.4077 139.102 35.4077H178.468C179.676 35.4077 180.304 36.3955 179.864 37.6026L174.39 52.6414C173.951 53.8486 172.604 54.8361 171.396 54.8361Z" fill="white"/>
<path d="M131.379 55.6809C128.035 65.2545 131.464 68.2112 131.464 68.2112C131.464 68.2112 131.492 62.7207 134.014 60.0454C136.536 57.3704 139.48 56.2441 139.48 56.2441L131.379 55.6809Z" fill="#9EC8FF"/>
<path d="M160.713 42.0247H139.298C138.915 42.0247 138.716 41.7112 138.855 41.328L138.911 41.1731C139.051 40.7899 139.479 40.4761 139.862 40.4761H161.276C161.659 40.4761 161.858 40.7896 161.719 41.1731L161.663 41.328C161.523 41.7109 161.096 42.0247 160.713 42.0247Z" fill="#9EC8FF"/>
<path d="M159.534 45.2633H138.12C137.737 45.2633 137.537 44.9497 137.677 44.5662L137.733 44.4114C137.873 44.0285 138.3 43.7144 138.684 43.7144H160.097C160.48 43.7144 160.68 44.0282 160.541 44.4114L160.485 44.5662C160.345 44.9497 159.917 45.2633 159.534 45.2633Z" fill="#9EC8FF"/>
<path d="M158.202 48.923H136.788C136.405 48.923 136.205 48.6094 136.344 48.2259L136.401 48.0711C136.54 47.6881 136.968 47.374 137.351 47.374H158.765C159.148 47.374 159.348 47.6878 159.209 48.0711L159.152 48.2259C159.013 48.6094 158.585 48.923 158.202 48.923Z" fill="#9EC8FF"/>
<path d="M212.699 77.2918H170.507C169.751 77.2918 169.358 76.9783 169.633 76.5948L169.744 76.4402C170.019 76.0567 170.862 75.7432 171.617 75.7432H213.809C214.564 75.7432 214.958 76.0564 214.683 76.4402L214.571 76.5948C214.297 76.9783 213.454 77.2918 212.699 77.2918Z" fill="#9EC8FF"/>
<path d="M210.376 82.6419H168.184C167.429 82.6419 167.036 82.3284 167.311 81.9449L167.422 81.7903C167.697 81.4071 168.54 81.0933 169.295 81.0933H211.487C212.242 81.0933 212.635 81.4068 212.36 81.7903L212.249 81.9449C211.975 82.3284 211.131 82.6419 210.376 82.6419Z" fill="#9EC8FF"/>
<path d="M168.151 50.1905H165.054C163.66 50.1905 162.935 49.0504 163.442 47.6567L165.748 41.3212C166.256 39.9274 167.811 38.7871 169.205 38.7871H172.302C173.696 38.7871 174.422 39.9274 173.914 41.3212L171.608 47.6567C171.101 49.0504 169.545 50.1905 168.151 50.1905Z" fill="#9EC8FF"/>
<path d="M276.206 172.628C281.828 141.775 280.597 130.74 265.537 105.557C250.476 80.3738 249.039 33.5091 243.362 47.2544C237.685 60.9997 238.449 95.5172 256.241 112.268C274.033 129.019 276.428 136.52 277.484 143.338C278.541 150.156 274.944 171.111 274.944 171.111L276.206 172.628Z" fill="#9CD499"/>
<path d="M279.023 152.745C279.032 152.627 279.04 152.51 279.048 152.392C278.718 149.86 276.931 136.843 274.458 131.706C271.713 126.004 259.675 116.078 256.296 103.619C252.918 91.159 247.562 81.5017 244.048 73.6308C239.409 63.2388 241.945 49.4238 245.78 44.9362C245.687 44.8744 245.594 44.833 245.499 44.8076L244.225 45.5776C243.948 45.9771 243.661 46.5307 243.362 47.2543C237.685 60.9996 238.449 95.5171 256.24 112.268C274.033 129.019 276.428 136.519 277.484 143.338C277.77 145.177 277.715 148.046 277.485 151.253L279.023 152.745Z" fill="#74B570"/>
<path d="M268.52 167.184C272.704 130.928 271.309 118.377 263.221 89.3714C255.133 60.366 307.845 -5.73314 306.171 5.70174C304.498 17.1366 298.92 45.5841 284.417 63.4338C269.914 81.2832 268.799 95.7862 271.588 111.126C274.377 126.465 271.03 162.164 271.03 162.164L269.357 168.579L268.52 167.184Z" fill="#9CD499"/>
<path d="M270.446 152.118C270.441 152.118 270.437 152.118 270.432 152.118C270.239 152.111 270.088 151.949 270.096 151.755C270.1 151.643 270.515 140.466 270.307 131.292C270.098 122.109 267.609 106.373 266.096 100.968C264.717 96.0463 262.984 79.5399 271.399 62.4949C275.59 54.0048 278.936 48.6368 283.566 41.2074C288.142 33.8646 293.838 24.7255 302.873 8.6272C302.968 8.45863 303.181 8.39855 303.35 8.49363C303.518 8.58812 303.579 8.80133 303.484 8.9699C294.44 25.0822 288.74 34.2285 284.16 41.5777C279.54 48.9902 276.203 54.3457 272.026 62.805C263.709 79.6528 265.412 95.9296 266.77 100.779C268.293 106.218 270.797 122.044 271.007 131.276C271.216 140.472 270.799 151.669 270.795 151.782C270.788 151.97 270.633 152.118 270.446 152.118Z" fill="#74B570"/>
<path d="M269.915 180.21C272.424 155.946 272.845 167.912 262.42 134.944C250.49 97.211 293.063 63.7127 300.036 77.3787C307.009 91.0447 315.097 133.995 312.028 132.601C308.961 131.206 288.601 91.3238 288.043 92.997C287.485 94.6705 260.432 108.616 261.548 122.839C262.663 137.063 272.983 159.654 272.983 159.654L272.704 180.489L269.915 180.21Z" fill="#9CD499"/>
<path d="M272.704 180.205C272.692 180.205 272.68 180.205 272.669 180.204L269.88 179.925C269.787 179.916 269.702 179.87 269.643 179.797C269.584 179.725 269.557 179.633 269.566 179.54C269.856 176.737 270.124 174.376 270.339 172.479C271.507 162.178 271.507 162.178 268.31 153.353C266.865 149.365 264.886 143.904 262.087 135.05C259.993 128.428 259.452 121.566 260.479 114.654C261.384 108.56 263.475 102.552 266.695 96.7974C272.217 86.9284 280.908 78.452 288.835 75.2025C294.344 72.9443 298.541 73.6789 300.347 77.2192C303.306 83.0203 306.845 94.8974 309.812 108.991C311.525 117.125 314.042 131.29 312.613 132.785C312.419 132.988 312.146 133.038 311.883 132.919C310.209 132.158 304.667 122.379 297.022 108.647C293.188 101.763 289.232 94.6582 288.164 93.4333C287.734 93.9116 286.648 94.6599 284.396 96.187C276.818 101.327 261.05 112.022 261.896 122.811C262.994 136.81 273.198 159.283 273.301 159.508C273.322 159.555 273.333 159.606 273.332 159.658L273.053 179.86C273.052 179.958 273.01 180.051 272.937 180.116C272.872 180.174 272.789 180.205 272.704 180.205ZM270.299 179.263L272.359 179.469L272.631 159.727C271.988 158.303 262.275 136.59 261.199 122.867C260.321 111.672 276.317 100.822 284.004 95.6084C285.83 94.3698 287.555 93.1997 287.715 92.8771C287.765 92.7237 287.9 92.6132 288.063 92.5977C288.74 92.5345 290.077 94.737 297.633 108.307C303.056 118.046 310.467 131.356 312.136 132.264C312.264 132.055 312.644 130.911 311.906 125.022C311.372 120.764 310.394 115.161 309.152 109.247C306.192 95.1604 302.667 83.3067 299.724 77.5377C298.104 74.3622 294.232 73.7471 289.101 75.8505C275.199 81.5487 253.898 106.831 262.754 134.839C265.549 143.679 267.525 149.133 268.968 153.115C272.221 162.094 272.221 162.094 271.035 172.558C270.818 174.469 270.573 176.623 270.299 179.263Z" fill="#74B570"/>
<path d="M278.68 181.216H266.024C265.154 181.216 264.376 180.721 264.294 180.105L260.041 148.134C259.845 146.658 260.82 145.416 262.214 145.416H282.49C283.883 145.416 284.859 146.659 284.662 148.134L280.409 180.105C280.328 180.721 279.55 181.216 278.68 181.216Z" fill="#E87BE4"/>
<path d="M277.18 180.113H275.367C274.481 180.113 273.768 179.6 273.783 178.961L274.423 151.344C274.454 149.97 275.581 148.814 276.925 148.814H279.674C281.018 148.814 281.995 149.97 281.849 151.344L278.913 178.961C278.845 179.6 278.066 180.113 277.18 180.113Z" fill="#A2DFF2"/>
<path d="M263.688 135.367L263.911 134.977C263.092 132.017 262.406 129.069 261.969 126.314C262.421 131.524 263.688 135.367 263.688 135.367Z" fill="#74B570"/>
<path d="M263.689 111.996C262.866 114.053 262.365 116.195 262.09 118.311C265.826 106.047 286.63 94.975 287.981 93.1079L288.221 92.638C280.407 90.4556 267.912 101.437 263.689 111.996Z" fill="#74B570"/>
<path d="M312.048 131.845C311.89 131.845 311.748 131.738 311.708 131.579L307.928 116.2C304.976 104.148 301.302 89.1501 297.179 82.4738C296.499 81.3731 293.529 79.8845 289.323 80.1814C283.638 80.5839 272.68 84.5115 263.164 106.293C263.086 106.47 262.88 106.551 262.703 106.474C262.526 106.397 262.445 106.19 262.522 106.013C272.186 83.8935 283.431 79.8968 289.274 79.4829C293.819 79.1633 296.982 80.823 297.775 82.106C301.956 88.8763 305.49 103.304 308.608 116.033L312.388 131.411C312.434 131.599 312.32 131.789 312.132 131.835C312.104 131.842 312.075 131.845 312.048 131.845Z" fill="#74B570"/>
<path d="M300.962 111.782C300.948 111.782 300.934 111.782 300.92 111.78C300.729 111.758 300.591 111.584 300.613 111.392C300.628 111.266 302.044 98.6248 298.721 85.331C298.674 85.1434 298.788 84.9536 298.976 84.9066C299.164 84.8602 299.353 84.9737 299.4 85.1612C302.756 98.5834 301.324 111.346 301.309 111.473C301.288 111.651 301.137 111.782 300.962 111.782Z" fill="#74B570"/>
<path d="M297.055 103.969C297.041 103.969 297.027 103.968 297.013 103.966C296.821 103.944 296.684 103.77 296.706 103.578C296.72 103.462 298.063 91.8873 297.128 82.3237C297.109 82.1312 297.249 81.96 297.442 81.941C297.633 81.92 297.805 82.0629 297.825 82.2551C298.767 91.8958 297.415 103.543 297.401 103.66C297.381 103.838 297.23 103.969 297.055 103.969Z" fill="#74B570"/>
<path d="M283.75 41.8816C283.62 41.8816 283.494 41.8084 283.434 41.683C283.351 41.5086 283.424 41.2998 283.598 41.2158C283.698 41.1679 293.704 36.2744 299.491 25.5269C299.583 25.3569 299.796 25.2933 299.965 25.3849C300.135 25.4762 300.199 25.6885 300.107 25.8588C294.209 36.8137 284.003 41.7979 283.901 41.8469C283.852 41.8708 283.801 41.8816 283.75 41.8816Z" fill="#74B570"/>
<path d="M276.358 54.5527C276.195 54.5527 276.05 54.4387 276.016 54.273C275.977 54.0841 276.098 53.8992 276.288 53.8598C276.37 53.8432 284.566 52.0869 294.3 44.2165C294.451 44.0949 294.671 44.1185 294.792 44.2684C294.914 44.4189 294.89 44.6391 294.74 44.7607C284.863 52.7469 276.512 54.5288 276.429 54.546C276.405 54.5504 276.381 54.5527 276.358 54.5527Z" fill="#74B570"/>
<path d="M270.251 66.8072C270.107 66.8072 270.022 66.8019 269.997 66.8002C269.804 66.7859 269.66 66.6182 269.674 66.4254C269.688 66.2326 269.858 66.088 270.049 66.1023C270.105 66.1066 275.754 66.414 284.807 59.6245C284.962 59.509 285.181 59.5399 285.297 59.6945C285.413 59.849 285.382 60.0684 285.227 60.1847C276.914 66.4193 271.474 66.8072 270.251 66.8072Z" fill="#74B570"/>
</svg>
