<svg width="81" height="65" viewBox="0 0 81 65" fill="none" xmlns="http://www.w3.org/2000/svg">
<path d="M41.9295 20.4834L40.265 21.1728L40.4434 22.1321L41.0983 23.6209L40.265 24.6966L40.7045 25.3934L40.0865 27.5245L40.4433 28.2621L38.5177 28.8184L37.8428 28.3777C37.8428 28.3777 37.0844 28.8046 36.7176 28.9747C36.3508 29.1448 35.6023 28.203 35.6023 28.203L35.369 27.6652L34.1042 27.3657L33.6876 27.7106L32.7654 27.0211L32.1803 27.7382L30.0583 26.8695L29.8152 26.4139L28.5115 26.0424L27.8417 26.4139L27.2567 25.7014L26.4146 25.973L25.8145 25.8677L25.5315 24.865L26.1465 24.6072L25.943 23.233L25.0709 22.5158L24.3762 22.1526L24.5945 19.9687L24.5447 18.3968L23.5091 17.7295L24.2337 16.6086L24.7132 16.115L24.8069 15.2778L25.1527 15.0292L25.5694 15.4294H26.5691L27.0864 15.2981L27.5319 14.7122L26.7584 14.3019L26.9747 13.9775C26.9747 13.9775 27.8448 13.7668 27.8448 13.764C27.8338 13.764 27.8897 13.1504 27.8778 13.1504C27.8778 13.1494 28.5067 13.0986 28.5067 13.0986L28.8825 13.4673L29.0866 13.5255L29.6259 12.874L30.8419 13.1086L31.2367 13.5569L33.0437 13.567C33.0437 13.567 33.4563 13.908 33.4603 13.9183C33.4742 13.9183 34.0883 13.3185 34.0883 13.3185L34.6833 13.5708L34.7173 14.2704L36.1935 14.4497L36.6719 14.2556L36.8892 14.2778L37.5948 14.0947L38.1571 14.3563V15.553L38.7372 16.5189L39.7558 16.3877L40.7525 17.1464C40.7525 17.1464 41.6008 16.9217 41.6118 16.9217C41.6226 16.9217 41.7751 17.0493 41.7751 17.0493L41.9425 17.8598L42.5444 18.2942L41.3135 19.2008L41.9295 20.4834Z" fill="#AD2323"/>
<path d="M62.9754 6.1394C62.9305 5.76794 62.7711 5.17082 62.7711 5.17082C62.7711 5.17082 61.8671 4.64688 61.8781 4.40571C61.89 4.16455 62.0127 3.97789 62.2687 3.89182C62.5259 3.80586 63.8685 3.29841 63.9422 3.03322C64.017 2.76803 64.1017 2.79293 63.6742 2.08691C63.6742 2.08691 55.0804 5.10059 43.1118 3.20983C43.029 3.19684 42.9452 3.17008 42.8625 3.15992C42.7679 3.14878 42.6752 3.14332 42.5804 3.12475C42.5276 3.11372 42.5287 3.10902 42.5077 3.16265C42.4967 3.19126 42.4837 3.21628 42.4678 3.24402C42.433 3.30398 42.3901 3.33828 42.3173 3.36045C42.2656 3.37618 42.2097 3.35674 42.1578 3.36788C42.11 3.37803 42.0831 3.43254 42.0473 3.46214C41.9576 3.53979 41.836 3.42882 41.7731 3.56655C41.7521 3.61188 41.7621 3.67742 41.7512 3.72831C41.7364 3.79123 41.7292 3.8383 41.6734 3.87806C41.6207 3.91596 41.5678 3.90493 41.5129 3.92994C41.4572 3.95397 41.4223 4.02321 41.3933 4.07225C41.3305 4.17853 41.2617 4.27836 41.179 4.37447C41.1352 4.42625 41.0775 4.47048 41.0396 4.52422C41.0036 4.57588 40.9996 4.63049 40.9967 4.68969C40.9877 4.82458 40.9358 4.89667 40.7974 4.94473C40.7335 4.9669 40.6748 5.00207 40.6061 5.00939C40.4764 5.02424 40.3469 5.0261 40.2152 5.03713C40.1425 5.0427 40.0398 5.13041 39.9949 5.18502C39.9682 5.21833 39.9611 5.25994 39.9382 5.29413C39.9023 5.34678 39.8255 5.38653 39.7748 5.42345C39.7269 5.45676 39.6961 5.50111 39.6592 5.54447C39.6163 5.59624 39.5636 5.6443 39.5156 5.69323C39.4399 5.77089 39.3711 5.84843 39.2883 5.91877C39.2523 5.95023 39.2165 5.98158 39.1787 6.01391C39.1389 6.04733 39.1278 6.08796 39.094 6.12204C39.0761 6.14148 39.0502 6.1405 39.0302 6.15535C39.0123 6.16922 39.0032 6.19598 38.9913 6.21542C38.9693 6.25431 38.9523 6.28937 38.9384 6.33186C38.9105 6.42338 38.9275 6.51404 38.9074 6.60448C38.8954 6.66182 38.8587 6.68956 38.8039 6.71446C38.755 6.73663 38.6593 6.74952 38.6274 6.6877C38.5966 6.6332 38.6763 6.62304 38.7032 6.59716C38.7161 6.58503 38.7131 6.56199 38.7271 6.55085C38.7341 6.5444 38.7619 6.54156 38.7641 6.53883C38.7889 6.50836 38.7033 6.40667 38.6883 6.37248C38.6564 6.30411 38.5897 6.25704 38.5219 6.22088C38.3405 6.12291 38.1043 6.22744 37.9528 6.33175C37.9099 6.36134 37.886 6.40569 37.8422 6.43431C37.7962 6.46401 37.7314 6.49438 37.6756 6.50552C37.6318 6.51382 37.5969 6.50825 37.5639 6.49624L37.4953 7.97118C37.4953 7.97118 37.9189 9.03664 37.9298 9.03664C37.9408 9.03664 38.4839 9.03664 38.4839 9.03664L38.7032 9.63649L39.1686 10.1568L39.4955 9.61247L40.2879 9.71241L40.4554 9.83255L39.6999 11.4877L38.6583 11.4082L38.3502 11.9221L38.6185 12.484L37.8589 13.0496L37.4652 13.9331L36.6718 14.2556L36.8892 14.2778L37.5948 14.0947L38.157 14.3563V15.5531L38.7372 16.5189L39.7558 16.3878L40.7525 17.1464C40.7525 17.1464 41.6008 16.9218 41.6117 16.9218C41.6226 16.9218 41.7751 17.0493 41.7751 17.0493L41.9425 17.8599L42.5443 18.2942V18.9595C42.5443 18.9595 43.3369 19.2387 43.3437 19.0732C43.3517 18.9078 43.2473 18.7359 43.3437 18.674C43.4405 18.6112 43.597 18.6251 43.6639 18.5632C43.7306 18.5012 43.8164 18.4559 43.8164 18.4559L44.7572 18.9975C44.7572 18.9975 45.2745 18.6491 45.4749 18.7008C45.6762 18.7525 46.7058 18.8533 46.8025 18.8255C46.8993 18.7979 47.5541 18.7803 47.5541 18.7803C47.5541 18.7803 47.3798 17.991 47.5173 17.8636C47.6549 17.736 47.8402 17.5807 47.8513 17.5807C47.8632 17.5807 48.8041 17.6288 48.8041 17.6288C48.8041 17.6288 49.3095 17.2499 49.4769 17.029C49.6443 16.8082 49.6882 16.6944 49.7967 16.6806C49.9044 16.6667 50.7745 16.6769 50.8973 16.5846C51.0198 16.4912 51.2362 16.481 51.2062 16.2944C51.1762 16.1086 51.1762 15.836 51.4623 15.8083C51.7485 15.7806 52.3475 16.1428 52.3475 16.1428C52.3475 16.1428 53.5157 14.9257 53.5376 14.9257C53.5598 14.9257 54.348 14.9081 54.348 14.9081C54.348 14.9081 54.958 14.398 55.4712 14.226C55.881 14.0883 56.182 14.0163 56.3186 13.946C56.3186 13.9451 56.3186 13.9451 56.3186 13.9451C56.3534 13.9275 56.3771 13.9099 56.3902 13.8915C56.4529 13.7981 56.7321 13.5496 56.8288 13.581C56.9254 13.6115 57.993 14.0432 57.993 14.0432C57.993 14.0432 58.3827 14.0293 58.3678 14.033C58.3537 14.0358 58.4238 13.6291 58.5951 13.5496C58.7665 13.4711 59.9188 13.0848 60.1121 12.8878C60.3055 12.691 61.7857 11.1366 61.7857 11.1366L62.2172 11.0673C62.2172 11.0673 62.4624 10.729 62.4733 10.7226C62.4853 10.7162 64.0541 9.73654 64.0541 9.73654L64.6043 8.0093C64.604 8.00908 63.0204 6.51185 62.9754 6.1394ZM39.661 8.38611C39.5993 8.46738 39.4407 8.50626 39.387 8.41189C39.3211 8.29546 39.2583 8.16057 39.2264 8.033C39.2125 7.97948 39.2344 7.96736 39.2454 7.91941C39.2594 7.86665 39.2364 7.80854 39.2085 7.76223C39.1656 7.68731 39.1069 7.67813 39.0391 7.6375C38.9744 7.59774 38.8796 7.54783 38.8588 7.46657C38.8327 7.35931 39.0172 7.36772 39.08 7.39907C39.1617 7.44068 39.2026 7.53309 39.2833 7.57743C39.3501 7.61435 39.4089 7.63193 39.4319 7.70675C39.4538 7.77884 39.4448 7.84546 39.4528 7.91842C39.4628 8.00438 39.5574 8.04774 39.6023 8.11896C39.6461 8.18919 39.7199 8.30933 39.661 8.38611ZM41.3595 12.4367C41.3685 12.5449 41.3148 12.6197 41.2468 12.7029C41.1811 12.7852 41.1452 12.871 41.1082 12.9664C41.0723 13.0596 41.0117 13.1429 40.9508 13.2224C40.893 13.2991 40.858 13.3999 40.8192 13.4876C40.8053 13.5189 40.7953 13.5577 40.7763 13.5864C40.7215 13.6641 40.7035 13.5874 40.7035 13.5365C40.7035 13.4589 40.7026 13.3813 40.7026 13.3027C40.7035 13.2037 40.6965 13.0827 40.7573 12.9957C40.8041 12.9292 40.85 12.8617 40.8989 12.7962C40.9308 12.7536 40.9736 12.7112 40.9916 12.6613C41.0405 12.5319 40.9338 12.3665 40.856 12.2667C40.7852 12.1761 40.6996 12.0966 40.591 12.0458C40.5082 12.0061 40.4335 11.9728 40.3677 11.909C40.3188 11.8618 40.1842 11.7363 40.2132 11.6595C40.2431 11.58 40.4324 11.6456 40.4923 11.6521C40.6257 11.6697 40.589 11.5884 40.5551 11.5033C40.5231 11.4248 40.4883 11.3065 40.6268 11.3323C40.7334 11.3527 40.8559 11.4294 40.869 11.5366C40.8829 11.6375 40.8162 11.7446 40.867 11.8417C40.9637 12.0283 41.3454 11.74 41.3724 11.8832C41.3873 11.9626 41.3205 12.0505 41.3126 12.1299C41.3017 12.2342 41.3526 12.3332 41.3595 12.4367ZM57.2042 8.88515C57.2294 8.82508 57.2284 8.75299 57.2344 8.68932C57.2414 8.6181 57.2531 8.54514 57.2432 8.47393C57.2332 8.4037 57.1703 8.24751 57.2562 8.2059C57.3189 8.17444 57.3677 8.21332 57.4107 8.25669C57.4375 8.28355 57.4484 8.32047 57.4773 8.34636C57.5062 8.37224 57.5262 8.38437 57.5452 8.41845C57.6068 8.53673 57.6688 8.68462 57.6109 8.81492C57.5899 8.86211 57.5641 8.90176 57.5522 8.95265C57.5392 9.00628 57.5422 9.07837 57.5133 9.12643C57.5021 9.14489 57.5083 9.11059 57.4953 9.132C57.4724 9.1699 57.4683 9.20397 57.4386 9.23183C57.4036 9.26503 57.3958 9.25586 57.3538 9.24843C57.335 9.24472 57.3318 9.25946 57.3141 9.24657C57.3039 9.24013 57.2962 9.21238 57.288 9.20212C57.2143 9.10404 57.1536 9.00617 57.2042 8.88515ZM56.5544 7.08025C56.5965 7.04879 56.67 7.02662 56.721 7.04978C56.7878 7.08211 56.7996 7.17822 56.8196 7.23731C56.8734 7.39262 56.9939 7.4989 57.0769 7.63761C57.1067 7.68654 57.1355 7.74935 57.0957 7.8021C57.0578 7.85103 57.0001 7.84557 56.9453 7.86392C56.8856 7.88423 56.8256 7.92115 56.7689 7.94901C56.6772 7.99335 56.5186 8.05255 56.4657 8.14025C56.4211 8.21332 56.4379 8.30846 56.3751 8.37683C56.3482 8.40556 56.3225 8.46738 56.2925 8.50626C56.2515 8.55989 56.2185 8.61625 56.1499 8.63012C56.106 8.63842 56.0292 8.65054 55.9962 8.61625C55.9685 8.58577 55.9574 8.53029 55.9664 8.49239C55.9934 8.38437 56.104 8.30573 56.1589 8.21234C56.2096 8.12638 56.2496 8.01836 56.3154 7.9407C56.389 7.85387 56.4498 7.75219 56.5137 7.65705C56.5198 7.57011 56.5845 7.51834 56.5635 7.42681C56.5405 7.3307 56.4498 7.15791 56.5544 7.08025ZM54.9848 6.28729C55.0523 6.23279 55.2387 6.30957 55.2508 6.19314C55.2568 6.13951 55.2091 6.09145 55.1981 6.04154C55.186 5.9842 55.2159 5.93439 55.2647 5.9001C55.3085 5.86864 55.3543 5.86132 55.4083 5.8752C55.4541 5.88732 55.4961 5.90851 55.5428 5.88634C55.6785 5.82266 55.5318 5.7237 55.482 5.67018C55.4482 5.63316 55.4452 5.58149 55.4282 5.53606C55.4143 5.50001 55.3982 5.46496 55.3873 5.42706C55.3603 5.33826 55.3085 5.24301 55.3206 5.14974C55.3237 5.12844 55.3336 5.11085 55.3326 5.08879C55.3326 5.08322 55.4263 5.07481 55.4363 5.07765C55.4722 5.08508 55.4991 5.11271 55.5229 5.13587C55.5649 5.17661 55.5977 5.21997 55.6496 5.24968C55.7671 5.31707 55.8886 5.37626 56.0014 5.45206C56.13 5.53791 56.2326 5.65533 56.3082 5.78378C56.3761 5.89933 56.4198 6.06655 56.3602 6.19227C56.3162 6.28554 56.1876 6.29581 56.1359 6.38079C56.087 6.4603 56.2135 6.53064 56.2445 6.59803C56.2942 6.70703 56.2595 6.84378 56.2086 6.94743C56.1498 7.06758 56.037 7.14982 55.8906 7.11651C55.789 7.09248 55.6863 7.05087 55.6793 6.94186C55.6744 6.86421 55.6853 6.78382 55.6833 6.70518C55.6821 6.63593 55.6833 6.56843 55.6904 6.50006C55.6943 6.47231 55.7111 6.40678 55.6813 6.38548C55.6463 6.36058 55.6056 6.40864 55.5877 6.43158C55.5549 6.47232 55.5408 6.51939 55.5178 6.56559C55.4668 6.66815 55.4031 6.76613 55.2927 6.82434C55.198 6.87513 55.1271 6.78742 55.0883 6.71249C55.0505 6.63669 55.0505 6.57487 54.9787 6.51469C54.913 6.46008 54.9139 6.34551 54.9848 6.28729ZM54.5272 11.9349C54.5143 11.9847 54.4872 12.0106 54.4524 12.0485C54.4443 12.0577 54.4363 12.067 54.4285 12.0771C54.3886 12.126 54.3568 12.1806 54.3176 12.2295C54.3078 12.2341 54.3038 12.2314 54.3078 12.2213C54.2899 12.2324 54.2799 12.2406 54.2609 12.247C54.2181 12.2637 54.1763 12.2712 54.1305 12.2785C54.0868 12.2869 54.0437 12.3015 53.999 12.3052C53.9173 12.3118 53.8124 12.2581 53.7876 12.1815C53.7586 12.09 53.8564 11.9994 53.9191 11.9431C53.9849 11.8858 54.0467 11.8534 54.0668 11.762C54.0816 11.6908 54.0708 11.6131 54.0717 11.5401C54.0717 11.47 54.1395 11.4246 54.1854 11.3711C54.2124 11.3396 54.247 11.3147 54.288 11.3027C54.3249 11.2934 54.3795 11.2758 54.4176 11.2731C54.5151 11.2675 54.5581 11.3932 54.5611 11.4653C54.5692 11.6198 54.5651 11.7833 54.5272 11.9349ZM56.7589 12.1334C56.7598 12.1992 56.7568 12.2647 56.7489 12.3313C56.7429 12.396 56.7219 12.4671 56.7262 12.5328C56.7331 12.6483 56.7589 12.773 56.6662 12.871C56.5427 13.0023 56.2904 13.0262 56.116 13.0382C55.9435 13.0503 55.782 13.0336 55.6177 12.9837C55.4652 12.9365 55.218 12.8959 55.1333 12.7545C55.0844 12.6741 55.0924 12.5733 55.0983 12.4846C55.1043 12.3912 55.1074 12.2896 55.1363 12.1991C55.1591 12.1251 55.21 12.0761 55.2859 12.0438C55.3415 12.0206 55.4422 11.9846 55.505 12.0059C55.5676 12.0271 55.537 12.0954 55.5219 12.139C55.4971 12.212 55.4622 12.2896 55.471 12.3672C55.4852 12.4836 55.6267 12.5733 55.7174 12.6398C55.829 12.722 55.9824 12.7498 56.122 12.7489C56.2297 12.748 56.3035 12.6852 56.3563 12.6057C56.4041 12.5318 56.4339 12.4477 56.4399 12.3617C56.4441 12.3016 56.4251 12.2379 56.4399 12.1788C56.4571 12.1104 56.5138 12.0373 56.5845 12.0106C56.6283 11.9931 56.688 11.9902 56.727 12.0207C56.7678 12.0522 56.7589 12.0911 56.7589 12.1334ZM58.6058 11.4127C58.4761 11.4524 58.3378 11.408 58.2061 11.4395C58.0723 11.4727 58.0345 11.6105 57.9717 11.7094C57.7864 11.9987 57.3976 11.8535 57.3039 11.5736C57.2681 11.4636 57.2702 11.3361 57.1893 11.2417C57.1185 11.1576 57.0021 11.1235 56.9051 11.0708C56.8037 11.0153 56.7237 10.9359 56.6302 10.8694C56.5275 10.7972 56.4068 10.7418 56.2793 10.7215C56.1509 10.6992 56.0421 10.7317 55.9676 10.8352C55.9505 10.8583 55.8538 11.0995 55.8428 11.0995C55.8329 11.0987 55.8118 10.7807 55.8061 10.753C55.799 10.7244 55.785 10.6411 55.7413 10.6374C55.7004 10.6337 55.6764 10.6974 55.6664 10.7242C55.6454 10.777 55.6304 10.8379 55.6316 10.8933C55.6324 10.9349 55.6523 10.9673 55.6605 11.006C55.6821 11.1188 55.6863 11.2528 55.6664 11.3656C55.6614 11.3961 55.5798 11.3314 55.5748 11.3267C55.5398 11.287 55.512 11.2362 55.4851 11.1908C55.4312 11.0947 55.3934 10.9866 55.4232 10.8776C55.4633 10.7334 55.5579 10.617 55.5549 10.4635C55.5509 10.1529 55.3095 9.90158 55.1062 9.67986C55.0075 9.57347 54.9287 9.46086 54.865 9.33329C54.8041 9.21118 54.7354 9.10403 54.6348 9.00704C54.5521 8.92862 54.4524 8.84987 54.4754 8.72984C54.4861 8.66605 54.568 8.48769 54.6647 8.51631C54.7206 8.53291 54.7445 8.62171 54.7604 8.66507C54.7992 8.77047 54.831 8.87871 54.8759 8.98203C54.9657 9.19458 55.1034 9.35448 55.2915 9.50051C55.446 9.61967 55.5696 9.74812 55.6463 9.92288C55.6495 9.92932 55.6923 10.0393 55.6943 10.0393C55.7042 10.0357 55.6893 9.90082 55.6893 9.88869C55.6873 9.78624 55.6904 9.68084 55.7102 9.57915C55.7202 9.52563 55.7372 9.41925 55.8019 9.39435C55.9126 9.35274 55.9892 9.58942 56.0182 9.65037C56.0699 9.76221 56.1299 9.79083 56.2595 9.77608C56.4108 9.7585 56.5714 9.72617 56.7099 9.66609C56.7776 9.63551 56.8386 9.57085 56.9122 9.55512C57.012 9.53481 57.1157 9.54781 57.2173 9.52465C57.31 9.50346 57.4734 9.42209 57.563 9.48402C57.6668 9.55709 57.6109 9.74375 57.5741 9.8343C57.5193 9.96373 57.4174 10.0616 57.3419 10.179C57.2631 10.3019 57.2293 10.4433 57.1963 10.5809C57.1702 10.6909 57.1175 10.8445 57.1744 10.9525C57.2324 11.0588 57.3847 11.0605 57.4964 11.0486C57.6489 11.0319 57.7943 10.984 57.9508 10.9923C58.1193 11.0016 58.2827 11.0569 58.4451 11.0976C58.5299 11.1188 58.7113 11.1336 58.755 11.2204C58.8 11.3083 58.6826 11.3888 58.6058 11.4127ZM59.136 9.09213C59.1131 9.15963 59.0601 9.22243 59.0283 9.28622C58.9924 9.36103 58.9545 9.43957 58.8969 9.50335C58.8259 9.58188 58.7613 9.68357 58.6596 9.72977C58.5569 9.77597 58.4711 9.84249 58.3656 9.87853C58.3078 9.89786 58.2329 9.92386 58.1711 9.9007C58.1043 9.87569 58.0875 9.7787 58.0972 9.72049C58.1066 9.66872 58.1591 9.62153 58.1871 9.57719C58.2172 9.52913 58.2539 9.48577 58.2888 9.44044C58.3346 9.38223 58.3924 9.33406 58.4393 9.27682C58.4901 9.2149 58.543 9.18715 58.6048 9.1391C58.6566 9.09847 58.7033 9.07629 58.7701 9.06887C58.8269 9.0634 59.1889 8.93682 59.136 9.09213ZM62.4333 9.09945C62.3984 9.11419 62.3505 9.09486 62.3145 9.08841C62.2657 9.07826 62.2109 9.07826 62.166 9.05783C62.0894 9.02376 62.0175 8.99678 61.9279 8.99962C61.8651 9.0006 61.8053 9.00519 61.7425 8.98586C61.6848 8.9674 61.6559 8.95997 61.6576 8.89608C61.6589 8.86101 61.6678 8.84343 61.6957 8.8194C61.7314 8.78969 61.7583 8.76118 61.7913 8.72787C61.8232 8.69641 61.8638 8.67337 61.8948 8.64006C61.9218 8.61144 61.9467 8.58556 61.9846 8.56797C62.0554 8.53193 62.0722 8.59298 62.1103 8.63918C62.16 8.70111 62.2138 8.71214 62.2817 8.74906C62.3426 8.78139 62.3732 8.82945 62.417 8.88035C62.4551 8.92393 62.514 9.06439 62.4333 9.09945Z" fill="#AD2323"/>
<path d="M74.949 18.2919C74.949 18.2919 74.8344 21.13 74.8344 21.1531C74.8344 21.1762 71.917 22.4969 71.917 22.4969L70.036 26.039C70.036 26.039 70.1138 26.382 70.1727 26.6953C70.1586 26.6804 70.043 26.5584 69.9444 26.5658C69.8408 26.5723 69.6952 26.6038 69.5876 26.5206C69.5679 26.5059 69.5437 26.4855 69.5169 26.4633C69.4004 26.3673 69.2368 26.2324 69.186 26.2997C69.1221 26.3829 68.9407 26.6445 68.8879 26.503C68.8361 26.3616 68.7912 26.1583 68.6167 26.0724C68.4424 25.9864 67.959 25.6824 67.4456 25.6657C66.9324 25.6481 66.5376 25.5761 66.3743 25.6278C66.2106 25.6795 66.1478 25.7969 65.9426 25.7174C65.7381 25.638 65.4154 25.3654 65.2846 25.431C65.1541 25.4967 64.9759 25.759 64.9577 25.6038C64.9388 25.4486 65.0583 25.3412 64.9239 25.2276C64.7903 25.1139 64.5373 25.0484 64.582 24.8829C64.6268 24.7175 64.6785 24.3413 64.4475 24.1834C64.2173 24.0243 63.4697 23.2971 63.4697 23.2971C63.4697 23.2971 63.9382 22.6142 63.8644 22.3932C63.7898 22.1724 63.7418 21.8591 63.7337 21.7417C63.7267 21.6243 63.7009 21.1836 63.4698 21.1836C63.2395 21.1836 62.9943 21.2418 62.9534 21.3592C62.9126 21.4765 62.8785 21.5181 62.7112 21.4728C62.5437 21.4285 62.2765 21.4313 62.1908 21.2491C62.1051 21.0662 62.0684 20.9793 62.0794 20.9626C62.0902 20.945 62.518 20.676 62.4919 20.5005C62.4661 20.325 62.5558 20.2658 62.3544 20.252C62.1541 20.238 61.7673 20.2317 61.6775 20.3555C61.588 20.4793 61.4433 20.58 61.3357 20.5866C61.2281 20.5939 60.8674 20.7594 60.7298 20.6003C60.5922 20.4415 60.2235 19.997 60.1198 19.7733C60.0151 19.5486 59.9974 19.3731 59.8706 19.3316C59.7441 19.29 59.2538 19.1865 59.2538 19.1865C59.2538 19.1865 59.2377 18.6939 59.2538 18.704C59.2538 18.7013 58.3547 17.8594 58.1524 17.8113C57.948 17.7633 57.6201 17.6487 57.602 17.5008C57.5831 17.3529 57.5653 17.2937 57.4754 17.1486C57.3868 17.0045 57.3121 16.5322 57.1744 16.3798C57.037 16.2282 56.3791 15.8593 56.4868 15.5285C56.5944 15.1978 56.7539 14.8973 56.6951 14.7218C56.6362 14.5499 56.3332 13.9732 56.3185 13.9454C56.3185 13.9446 56.3185 13.9446 56.3185 13.9446C56.3533 13.927 56.3771 13.9094 56.3901 13.8909C56.4528 13.7975 56.732 13.5491 56.8287 13.5804C56.9253 13.611 57.9929 14.0426 57.9929 14.0426C57.9929 14.0426 58.3826 14.0288 58.3677 14.0325C58.3536 14.0352 58.4237 13.6286 58.595 13.5491C58.7664 13.4705 59.9187 13.0842 60.112 12.8873C60.3054 12.6905 61.7857 11.136 61.7857 11.136L62.2172 11.0668C62.2172 11.0668 62.4623 10.7285 62.4732 10.7221C62.4853 10.7156 64.054 9.73601 64.054 9.73601L64.6042 8.00877C64.6042 8.00877 63.0206 6.51155 62.9756 6.13911C62.9308 5.76764 62.7714 5.17052 62.7714 5.17052C62.7714 5.17052 61.8674 4.64659 61.8784 4.40542C61.8903 4.16426 62.013 3.9776 62.269 3.89153C62.5261 3.80558 63.8688 3.29813 63.9424 3.03294C64.0172 2.76775 64.1019 2.79265 63.6744 2.08664L63.9924 1.59863L64.404 1.67727L64.5524 2.008L64.955 1.7557L65.1586 2.16888L65.5263 2.20591L65.3818 2.63843L65.7884 2.76316L65.972 2.47765L66.1753 2.49142L66.4334 2.78992L66.6226 2.7992C66.6226 2.7992 66.7811 3.04867 66.7811 3.06167C66.7811 3.07641 68.2454 3.23259 68.2454 3.23259L68.9242 3.95062L69.1035 4.05045L69.5899 5.06797L69.4804 5.84519L69.6297 6.17242L70.3385 7.53464L70.4621 8.34889L70.7412 8.63341L73.0933 14.4584L73.6935 14.5545C73.6935 14.5545 73.6786 14.9371 73.6726 14.9501C73.6726 14.9665 73.9965 15.1995 73.9965 15.1995L73.9905 16.1744L74.731 17.0718L74.949 18.2919Z" fill="#AD2323"/>
<path d="M78.953 43.1733L80.0104 44.0522L80.0295 44.3782L80.2437 44.4977L79.782 46.4254L78.7495 46.9132L77.8127 47.0835L77.2455 48.3911L76.8487 48.892C75.6835 48.7321 75.2331 48.3736 75.0207 48.2147C74.7924 48.0446 74.054 47.7683 74.054 47.7683L73.4838 48.2333L72.5258 48.0122L71.3618 49.5473L70.2753 49.4698L69.7738 49.5114L68.9268 48.9411L67.295 49.2627C67.295 49.2627 66.8885 48.7155 66.7898 48.6285C66.6902 48.5408 67.0671 48.3117 67.2263 48.15C67.3849 47.989 67.8104 47.8237 68.0696 47.8237C68.3268 47.8237 68.1284 47.612 68.0398 47.5437C67.9499 47.4745 67.955 47.3322 67.7816 47.1897C67.6082 47.0467 67.7916 46.4312 67.6967 46.4265C67.6021 46.4219 66.4569 45.9303 66.1649 45.8101C65.8729 45.6909 65.3364 46.0957 65.3364 46.0957L64.608 45.5715L65.0195 44.6512L64.1614 44.0865C64.1614 44.0865 63.2993 44.5827 62.9374 44.7483C62.6962 44.8583 62.4968 44.8223 62.3283 44.6512C62.2437 44.5652 62.1659 44.4451 62.0941 44.2926C61.8808 43.8378 61.246 41.9304 61.246 41.9304C61.246 41.9304 61.1125 41.3232 61.1722 41.1236C61.2311 40.9231 61.1573 40.5997 61.1204 40.4267C61.0828 40.2539 61.0306 40.0339 61.1204 39.8196C61.2093 39.6061 61.3356 39.2753 61.3507 38.9508C61.3658 38.6266 61.5212 38.4471 61.1423 38.3371C60.7627 38.2272 60.6811 37.7717 60.8744 37.6681C61.0679 37.5646 61.3357 37.5998 61.291 37.3513C61.2461 37.1026 61.1673 37.025 61.1523 36.8457C61.1375 36.6664 61.0177 36.4131 61.0328 36.2245C61.0477 36.0359 61.0874 35.8845 60.9641 35.9307C60.8395 35.9769 60.1857 36.2245 59.9574 36.1239C59.729 36.0222 58.9805 35.5537 59.0055 35.439C59.0303 35.3236 59.1739 35.0712 59.3273 35.1442C59.4809 35.2184 59.9173 35.5075 60.1355 35.4297C60.3538 35.3513 60.681 35.2367 60.7705 35.1026C60.8592 34.9696 61.1422 34.464 61.2909 34.3724C61.4396 34.28 61.3108 34.3171 61.1722 34.1563C61.0327 33.9954 60.7207 33.807 60.9339 33.7144C61.1473 33.6229 61.3555 33.4344 61.3555 33.4344L60.7304 32.8181L60.7506 31.2554L62.0243 30.5429L64.4394 30.5244L65.3813 29.6419L66.2194 29.8396C66.2194 29.8396 66.3133 29.0531 66.4965 28.9431C66.68 28.8322 66.7995 28.8045 66.9431 28.8645C67.0867 28.9246 67.88 29.3932 68.0735 29.0854C68.2669 28.7767 68.193 28.506 68.4014 28.3266C68.6098 28.1474 69.2436 27.7518 69.3132 27.4995C69.3833 27.2463 69.5166 26.4634 69.5166 26.4634C69.5433 26.4857 69.5676 26.5061 69.5873 26.5207C69.695 26.604 69.8405 26.5725 69.9441 26.5659C70.0428 26.5585 70.1584 26.6805 70.1724 26.6954C70.1736 26.6962 70.1736 26.6972 70.1736 26.6972C70.1753 26.7084 70.1773 26.7185 70.1793 26.7287C70.2392 27.0511 70.8294 27.1519 71.0625 27.1335C71.2958 27.1159 71.3645 27.2313 71.5737 27.3543C71.782 27.4799 71.9365 27.3968 72.2038 27.3413C72.4719 27.2858 72.5417 27.6269 72.6066 27.8524C72.6703 28.0769 73.5144 28.1786 73.6532 28.2109C73.7915 28.2433 73.8166 28.3866 73.7966 28.5557C73.7776 28.7257 74.1594 29.0437 74.2342 29.1213C74.3078 29.1999 74.2383 29.2728 74.1594 29.3884C74.0796 29.5039 74.1145 29.6462 74.1494 29.7249C74.1833 29.8025 74.2143 29.8533 74.1594 29.9679C74.1046 30.0834 74.0548 30.051 74.0695 30.1565C74.0846 30.2628 74.0646 30.3182 73.9661 30.4014C73.8663 30.4837 74.0149 30.6454 74.1694 30.7646C74.3229 30.8837 74.0609 30.9023 73.9064 30.9624C73.7518 31.0225 74.0259 31.2017 74.1943 31.2748C74.3627 31.3487 74.2342 31.6933 74.2543 31.9096C74.2731 32.1258 73.986 32.2551 73.7667 32.4576C73.5484 32.66 73.7528 32.8624 73.8215 33.0232C73.8914 33.185 73.8366 33.3919 73.8615 33.658C73.8865 33.9252 74.0448 33.9714 74.1694 34.1091C74.293 34.2478 74.1833 34.3899 74.1893 34.6294C74.1943 34.8687 74.4525 34.7172 74.601 34.634C74.7496 34.5519 74.7596 34.7717 74.7155 34.9463C74.6708 35.121 74.7993 35.1441 75.0875 35.1857C75.3745 35.2273 75.1712 35.3289 75.0675 35.5027C74.9627 35.6774 75.2458 35.6736 75.4442 35.8575C75.6425 36.0416 75.3206 36.5618 75.2756 36.9665C75.2308 37.3714 75.6983 37.6419 75.9056 37.6984C76.114 37.7529 76.0642 37.8083 76.075 38.094C76.0849 38.3784 76.8434 38.6548 77.0917 38.7649C77.3398 38.8749 77.2511 38.8851 77.315 39.3358C77.3798 39.7869 77.7214 39.9015 77.8899 40.0208C78.0595 40.1408 77.9848 40.1003 78.0196 40.3294C78.0546 40.5596 78.2629 40.7158 78.4562 40.8497C78.6496 40.9828 78.6256 40.9227 78.7941 41.2361C78.9626 41.5484 79.7311 41.7138 79.8756 41.7369C80.0192 41.7599 80.2874 41.7647 80.3221 42.0363C80.3569 42.308 79.5378 42.2524 79.0922 42.3958C78.6449 42.5383 78.953 43.1733 78.953 43.1733Z" fill="#AD2323"/>
<path d="M76.8486 48.8919L76.3632 49.5038L74.9729 51.3908L73.2117 54.1504L72.2936 55.8988L70.8594 57.7259L71.0089 58.0891L70.7797 58.3654L70.8007 58.7702L71.321 59.2303L71.261 60.0714C71.261 60.0714 71.5691 61.1665 71.589 61.3421C71.6089 61.5167 71.6837 61.7608 71.6487 61.8846C71.6138 62.0083 71.7076 62.0732 71.7724 62.1054C71.8372 62.1377 71.8572 62.1655 71.8472 62.2533C71.8372 62.3411 71.9021 62.391 72.0306 62.4873C72.1604 62.5842 72.1193 62.7034 72.0107 62.8503C71.9021 62.9982 72.879 63.4399 73.2018 63.5547C73.5237 63.6701 73.385 64.0472 73.385 64.0472L73.0234 64.3188L70.8545 63.5925C70.8545 63.5925 69.5838 63.5963 69.5349 63.5963C69.485 63.5963 69.0087 63.1867 69.0087 63.1867C69.0087 63.1867 67.8973 63.2561 67.8823 63.2561C67.8674 63.2561 67.6742 62.9797 67.6742 62.9797C67.6742 62.9797 67.2375 63.0897 67.2226 63.0897C67.2077 63.0897 66.4133 62.819 66.4133 62.819L65.4903 61.7054L64.6122 61.3516L64.5633 61.1399C64.5633 61.1399 64.2206 60.993 64.2056 60.9882C64.1857 60.9882 63.7102 61.3931 63.6942 61.3966C63.6773 61.3966 63.4063 60.8265 63.3913 60.8265C63.3763 60.8265 62.6727 60.8634 62.6576 60.8634C62.6425 60.8634 62.3896 60.5594 62.3896 60.5594C62.3896 60.5594 62.0079 60.5373 61.9929 60.5373C61.977 60.5373 60.4887 61.0521 60.4739 61.0576C60.4717 61.0576 60.4659 61.0548 60.4568 61.0493C60.4568 61.0493 60.2696 59.2806 60.0712 59.1695C59.8739 59.0596 59.7344 59.0272 59.7394 58.8572C59.7443 58.6872 60.0513 58.3008 59.9128 58.1309C59.7743 57.9609 59.7344 58.0533 59.6298 57.6578C59.5262 57.2622 59.2241 56.936 59.2241 56.936L58.2913 56.7881L58.0639 56.2919C58.0639 56.2919 58.7229 56.0571 58.7926 55.7356C58.8624 55.414 58.9461 55.2901 58.9461 55.2901L58.0292 54.8715C58.0292 54.8715 57.9044 54.2096 57.9893 53.8697C58.0741 53.5295 58.2026 53.0739 58.1029 52.89C58.0043 52.7061 57.5977 51.7866 57.6813 51.5527C57.7661 51.3181 57.8996 51.2164 57.8748 50.9732C57.8567 50.794 57.8248 50.6867 57.736 50.6165C57.748 50.6054 57.9434 50.4171 58.078 50.2838C58.2175 50.1451 58.2126 50.0538 58.4556 49.9935C58.6978 49.9345 58.8862 49.663 59.0947 49.5344C59.3028 49.4049 59.3476 49.1712 59.3627 49.0104C59.3776 48.8496 60.4192 48.4354 60.6514 48.2841C60.8845 48.1324 61.048 47.5392 61.1179 47.2221C61.1877 46.9042 61.5933 46.5642 61.7179 46.4264C61.8415 46.2887 62.1047 45.8284 62.1932 45.6399C62.283 45.4514 62.3287 44.6511 62.3287 44.6511C62.4972 44.8222 62.6966 44.8582 62.9379 44.7482C63.2996 44.5826 64.1618 44.0864 64.1618 44.0864L65.0199 44.6511L64.6083 45.5714L65.3368 46.0956C65.3368 46.0956 65.8734 45.6908 66.1653 45.8101C66.4572 45.9303 67.6025 46.4219 67.6971 46.4264C67.792 46.4311 67.6085 47.0466 67.7819 47.1897C67.9555 47.3322 67.9504 47.4744 68.0402 47.5436C68.1287 47.612 68.3272 47.8236 68.07 47.8236C67.8108 47.8236 67.3853 47.9891 67.2266 48.1499C67.0674 48.3116 66.6906 48.5407 66.7902 48.6284C66.8889 48.7154 67.2954 49.2626 67.2954 49.2626L68.9272 48.941L69.7742 49.5113L70.2757 49.4697L71.3622 49.5472L72.5262 48.0121L73.4842 48.2332L74.0544 47.7682C74.0544 47.7682 74.7928 48.0445 75.0211 48.2146C75.233 48.3735 75.6834 48.732 76.8486 48.8919Z" fill="#AD2323"/>
<path d="M60.0709 59.1696C59.8736 59.0598 59.7342 59.0273 59.7391 58.8574C59.7441 58.6873 60.051 58.3009 59.9125 58.131C59.774 57.961 59.7342 58.0534 59.6296 57.6579C59.5259 57.2623 59.2239 56.9361 59.2239 56.9361L58.291 56.7883L58.0637 56.2921C58.0637 56.2921 58.7226 56.0572 58.7924 55.7357C58.8621 55.4141 58.9459 55.2903 58.9459 55.2903L58.0289 54.8716C58.0289 54.8716 57.9042 54.2097 57.989 53.8698C58.0738 53.5296 58.2023 53.074 58.1027 52.8901C58.0041 52.7062 57.5974 51.7867 57.681 51.5528C57.7659 51.3182 57.8993 51.2165 57.8745 50.9734C57.8565 50.7941 57.8245 50.6869 57.7357 50.6166H57.7348C57.7008 50.5916 57.662 50.5713 57.6121 50.5548C57.4237 50.491 57.1757 50.3895 57.1757 50.3895L54.602 51.2304L53.8087 52.5777L52.0634 52.5221C52.0634 52.5221 51.1116 50.2489 50.2396 49.3293L46.7022 49.7536L46.6693 49.7572C46.6693 49.7572 45.9737 50.2092 45.9516 50.2331C45.9288 50.2572 45.6795 50.4363 45.5241 50.4641C45.3676 50.4919 45.271 50.4807 45.1444 50.5536C45.0176 50.6257 44.4863 50.9158 44.3299 50.8568C44.1735 50.7986 44.0181 50.7126 43.7209 50.7634C43.423 50.8153 43.1109 50.9604 43.1109 50.9604L43.1737 51.9539L42.3853 51.9983C42.3853 51.9983 41.7454 52.5639 41.7684 52.5712C41.7904 52.5777 42.7721 53.0805 42.7721 53.0805C42.7721 53.0805 42.459 53.5359 42.4521 53.5914C42.4442 53.647 42.4299 53.9288 42.4071 53.9427C42.3852 53.9567 41.85 54.1016 41.85 54.2809C41.85 54.4604 41.9986 55.0601 41.7005 55.0397C41.4036 55.0184 41.0247 55.0323 40.9868 55.2254C40.9499 55.4186 40.8004 56.1976 40.8233 56.2123C40.8461 56.2253 41.8419 56.5839 41.8568 56.6052C41.8718 56.6256 41.8499 57.3224 41.8499 57.3224C41.8499 57.3224 42.5784 57.4813 42.6085 57.6189C42.6383 57.7566 42.7937 58.1282 42.7937 58.1282C42.7937 58.1282 43.2403 58.0533 43.3589 58.1152C43.4785 58.1772 44.0208 58.4119 43.7755 58.6115C43.5304 58.8112 43.1206 59.0662 43.1206 59.0662C43.1206 59.0662 43.4406 59.556 43.4635 59.556C43.4855 59.556 44.1782 59.2113 44.2808 59.3766C44.3856 59.5421 44.4912 59.4727 44.541 60.2879L45.2496 60.7538L45.3993 61.5169L46.3273 62.4644C46.3273 62.4644 47.5272 62.4412 47.5272 62.4689C47.5272 62.4978 47.5821 62.7685 47.5821 62.7685L47.4735 63.0807L47.7456 63.4078L47.567 63.6517L47.83 63.9318L47.3137 64.5668L47.538 64.8431L48.4011 64.8162L48.6933 64.4058H49.2644L49.3683 64.7468H49.5864L49.9492 65L50.1276 64.2135L50.2423 63.5732L50.7676 63.0214L51.85 62.5888L52.4552 62.6259C52.4552 62.6259 52.6784 62.2859 52.6932 62.2859C52.7073 62.2859 53.6311 62.258 53.6311 62.258L53.9341 61.8257C53.9341 61.8257 54.221 61.9216 54.2362 61.9216C54.2511 61.9216 54.6927 61.6362 54.6927 61.6362C54.6927 61.6362 55.9475 62.5982 55.9634 62.5982C55.9786 62.5982 56.4947 62.4688 56.4947 62.4688C56.4947 62.4688 56.6781 62.7034 56.6932 62.7034C56.7083 62.7034 57.1346 62.7034 57.1346 62.7034C57.1346 62.7034 57.4566 62.051 57.9082 61.8162L57.6948 61.3838L58.3597 61.1538L59.0097 61.5632L59.4173 60.6796L59.9576 60.7119C59.9576 60.7119 60.3652 60.9957 60.4567 61.0494C60.4565 61.0495 60.2694 59.2806 60.0709 59.1696ZM54.4575 59.3887C54.3915 59.3628 54.3796 59.2686 54.3688 59.214C54.3507 59.1318 54.3359 59.043 54.2979 58.9664C54.278 58.9238 54.2581 58.8786 54.2451 58.8342C54.2201 58.7389 54.23 58.6307 54.1893 58.5422C54.1265 58.4063 54.1553 58.2518 54.0956 58.1169C54.0597 58.0366 54.0048 57.9599 53.9431 57.8933C53.8942 57.8407 53.8343 57.7971 53.7893 57.7408C53.7427 57.6815 53.6997 57.6031 53.6988 57.5282C53.6977 57.4598 53.7436 57.4293 53.8023 57.3989C53.8662 57.3646 53.9269 57.3193 53.9948 57.2916C54.0756 57.2593 54.1512 57.286 54.22 57.3313C54.3527 57.4191 54.4732 57.5569 54.5389 57.6955C54.6257 57.8767 54.5291 58.0031 54.4313 58.1576C54.3935 58.2187 54.3567 58.288 54.3865 58.3599C54.4145 58.4274 54.4801 58.4792 54.5202 58.541C54.6157 58.6944 54.6247 58.9125 54.6247 59.0862C54.6247 59.1585 54.6117 59.4471 54.4575 59.3887Z" fill="#AD2323"/>
<path d="M46.7021 49.7534L46.6691 49.757C46.6691 49.757 45.9735 50.2091 45.9515 50.2329C45.9286 50.257 45.6793 50.4362 45.524 50.4639C45.3674 50.4918 45.2708 50.4805 45.1442 50.5535C45.0174 50.6256 44.4862 50.9157 44.3297 50.8567C44.1733 50.7985 44.0179 50.7125 43.7207 50.7633C43.4228 50.8152 43.1107 50.9602 43.1107 50.9602L43.1735 51.9537L42.3851 51.9982C42.3851 51.9982 41.7452 52.5637 41.7682 52.571C41.7902 52.5776 42.772 53.0803 42.772 53.0803C42.772 53.0803 42.4588 53.5358 42.4519 53.5913C42.444 53.6469 42.4297 53.9287 42.4069 53.9425C42.385 53.9565 41.8498 54.1015 41.8498 54.2808C41.8498 54.4603 41.9984 55.06 41.7003 55.0396C41.4034 55.0183 41.0245 55.0322 40.9866 55.2253C40.9497 55.4185 40.8002 56.1975 40.8231 56.2122C40.846 56.2252 41.8417 56.5838 41.8567 56.6051C41.8716 56.6255 41.8497 57.3222 41.8497 57.3222C41.8497 57.3222 42.5782 57.4812 42.6083 57.6188C42.6381 57.7565 42.7935 58.1281 42.7935 58.1281C42.7935 58.1281 43.2401 58.0531 43.3587 58.1151C43.4783 58.1771 44.0206 58.4117 43.7754 58.6114C43.5302 58.811 43.1204 59.0661 43.1204 59.0661C43.1204 59.0661 43.4405 59.5558 43.4633 59.5558C43.4853 59.5558 44.178 59.2111 44.2806 59.3765C44.3854 59.542 44.491 59.4726 44.5408 60.2877L43.567 61.296L43.1752 61.2498L42.675 61.5769L42.4905 62.6259L42.0888 63.0448C42.0888 63.0448 41.5676 62.7544 41.5526 62.7544C41.5377 62.7544 41.3842 63.1601 41.3842 63.1601H40.8728L40.8339 62.6205L40.5549 62.3219L40.6645 62.0419L40.2229 61.8017L39.6768 61.6595L39.7176 61.3692L39.26 60.9691L39.1764 60.1133L38.9572 59.7363L38.5404 60.0079L38.2973 59.5579L37.7321 59.5163L36.9626 58.3785L37.3055 57.7769L36.6946 57.1781L36.4364 57.4406L35.7916 57.2612L35.6131 56.9897L35.1617 56.9803L35.1168 57.376L34.75 57.5421L34.6164 56.9341H34.1191L33.9806 56.6033L33.5988 56.8241L33.1173 56.6487L33.0376 56.2901H32.8989C32.8989 56.2901 32.9489 55.0738 33.0236 54.9407C33.0974 54.8076 33.3356 54.7522 33.4602 54.7383C33.5838 54.7244 34.1091 54.5775 34.124 54.5775C34.1389 54.5775 35.2552 53.4879 35.2552 53.4879L35.2792 53.0554L34.8386 51.2208L35.5473 50.9131L35.6022 50.2921C35.6022 50.2921 36.4593 50.026 36.4006 49.8282C36.3406 49.6303 36.266 49.332 36.0088 49.1527C35.7508 48.9733 35.3341 48.5455 35.3341 48.5455L35.919 47.7959L35.6261 47.028L36.3059 46.8081C36.3059 46.8081 36.311 46.3026 36.3557 46.0908C36.4007 45.8792 36.4295 45.7959 36.3508 45.7277C36.271 45.6583 36.0527 45.2036 36.0527 45.1897C36.0527 45.176 36.4295 44.8672 36.4295 44.8672V44.1325C36.4305 44.1325 36.4305 44.1325 36.4305 44.1325C36.4445 44.1325 37.8479 44.1047 37.8479 44.1047C37.8479 44.1047 38.1309 43.6676 38.3194 43.7C38.5067 43.7323 38.5965 43.8285 38.8098 43.8609C39.023 43.8932 39.5932 43.9707 39.7368 44.0402C39.8813 44.1095 40.1246 44.1871 40.3567 44.1826C40.59 44.1778 41.0764 44.0542 41.3335 44.2241C41.5916 44.3942 41.6614 44.4911 41.7801 44.4911C41.8986 44.4911 41.9685 44.4857 42.0531 44.5919C42.1369 44.6982 42.4 45.3089 42.7021 45.3136C43.0051 45.3182 43.6888 45.1251 43.7236 45.2673C43.7585 45.4097 43.9867 45.8099 44.1354 45.7739C44.2839 45.7368 44.8539 45.626 44.8539 45.626C44.8539 45.626 45.4569 46.0335 45.2488 46.2193C45.0405 46.4051 44.8539 46.4606 44.892 46.7367C44.929 47.0121 44.854 47.1296 45.1223 47.4124C45.3903 47.6952 45.806 47.9781 45.8657 48.136C45.9255 48.295 46.1556 48.6813 46.2973 48.7848C46.4387 48.8883 46.6092 49.1294 46.6092 49.2467C46.6092 49.3644 46.7021 49.7534 46.7021 49.7534Z" fill="#AD2323"/>
<path d="M36.0529 45.1898C36.0529 45.2036 36.271 45.6583 36.3509 45.7277C36.4296 45.796 36.4007 45.8792 36.3558 46.0909C36.3111 46.3026 36.306 46.8081 36.306 46.8081L35.6262 47.028L35.9192 47.7959L35.3342 48.5455C35.3342 48.5455 35.7509 48.9734 36.0089 49.1527C36.2662 49.3322 36.3408 49.6305 36.4007 49.8283C36.4595 50.0261 35.6023 50.2921 35.6023 50.2921L35.5474 50.9132L34.8387 51.2209L35.2793 53.0555L35.2554 53.4879C35.2554 53.4879 34.139 54.5775 34.1241 54.5775C34.1093 54.5775 33.584 54.7244 33.4604 54.7384C33.3357 54.7523 33.0975 54.8076 33.0237 54.9408C32.949 55.0739 32.899 56.2901 32.899 56.2901H32.7795L32.6908 56.6487L32.1196 56.6626L31.8615 56.9667L31.3652 56.9897L31.1031 56.7234L30.7102 56.6679L30.3186 55.8345L29.8621 55.5267L29.3609 55.5358L28.974 55.1497L28.9492 54.9472L29.6688 54.767L30.1253 54.5091L30.1651 53.9908L29.8422 53.8835L29.8123 53.7515L30.1701 53.5065L29.7675 53.0659L29.5093 53.075L29.5492 53.488L28.9391 53.9122L28.651 53.7413L28.4777 53.8984L28.2155 53.7044L27.7081 53.991L27.3952 53.8745L27.3763 53.5622L26.8549 53.9309L26.8699 53.3598L26.3786 53.3875L25.5701 52.9364L25.619 52.601L25.2522 52.6472L24.4279 52.2749L23.808 52.3571L23.2418 52.153L23.5378 51.1299L23.9206 51.0096C23.9206 51.0096 24.3073 51.2905 24.6243 51.2536C24.9413 51.2166 25.1497 51.1298 25.1497 51.1298L24.9862 50.615L25.5663 49.7684C25.5663 49.7684 26.3597 49.7601 26.3946 49.5393C26.4285 49.3183 26.4982 48.9598 26.3946 48.8268C26.29 48.6927 26.1962 48.5228 26.25 48.3803C26.3048 48.238 26.3059 47.9063 26.4494 47.8009C26.5928 47.6955 26.7912 47.691 26.7314 47.5477C26.6726 47.4054 26.5231 47.1299 26.6666 47.0977C26.8111 47.0652 27.0633 47.0096 27.0493 46.8584C27.0343 46.7067 26.9057 46.1467 27.0493 46.0081C27.1929 45.8703 27.6692 45.4194 27.7581 45.4654C27.8476 45.5118 28.0052 45.6771 28.06 45.5618C28.1148 45.4471 28.1896 45.4794 28.2045 45.3648C28.2195 45.2502 28.1197 45.1301 28.2534 45.0294C28.388 44.9277 28.7048 44.7253 28.5663 44.6292C28.4278 44.533 28.0899 44.4776 28.1896 44.3529C28.2882 44.229 28.4427 43.6173 28.3332 43.5442C28.2235 43.4704 28.1647 43.3788 28.2047 43.2818C28.2435 43.1857 28.6801 42.9649 28.6801 42.9649L28.9433 43.1536L29.1853 43.0019H29.1864L29.7316 42.8271L30.1422 43.0979L29.9498 43.3788L30.0486 43.6958L31.0851 43.8936C31.0851 43.8936 31.9233 43.2503 32.2503 43.2088C32.5771 43.1672 32.9987 43.0978 33.0236 43.1071C33.0476 43.1164 33.1871 43.3142 33.5988 43.3142C34.0105 43.3142 34.1589 43.2228 34.2676 43.3327C34.3773 43.4436 34.3873 43.7143 34.6693 43.5618C34.9524 43.4103 34.8776 43.3327 35.1457 43.3604C35.4138 43.388 35.5076 43.3963 35.5076 43.3963C35.5076 43.3963 35.4786 43.7327 35.6511 43.8104C35.8234 43.8881 36.4035 44.1283 36.4295 44.1329V44.8677C36.4296 44.8672 36.0529 45.176 36.0529 45.1898Z" fill="#AD2323"/>
<path d="M29.1854 43.0015L28.9433 43.1532L28.6801 42.9644C28.6801 42.9644 28.2436 43.1854 28.2047 43.2814C28.1648 43.3785 28.2235 43.47 28.3332 43.5438C28.4429 43.6168 28.2883 44.2287 28.1896 44.3524C28.09 44.4773 28.4278 44.5325 28.5663 44.6288C28.7049 44.7249 28.388 44.9273 28.2535 45.029C28.1199 45.1297 28.2195 45.2497 28.2046 45.3644C28.1896 45.4789 28.1148 45.4466 28.06 45.5613C28.0051 45.6768 27.8477 45.5113 27.7581 45.465C27.6693 45.4189 27.1929 45.8699 27.0493 46.0076C26.9057 46.1463 27.0344 46.7062 27.0493 46.8579C27.0633 47.0093 26.8111 47.0647 26.6666 47.0972C26.5231 47.1294 26.6726 47.4049 26.7314 47.5472C26.7912 47.6905 26.5929 47.6951 26.4494 47.8004C26.3058 47.9057 26.3048 48.2375 26.2501 48.3798C26.1962 48.5223 26.29 48.6921 26.3946 48.8263C26.4983 48.9594 26.4285 49.3179 26.3946 49.5387C26.3597 49.7595 25.5664 49.7679 25.5664 49.7679L24.9862 50.6144L25.1497 51.1292C25.1497 51.1292 24.9413 51.216 24.6243 51.2531C24.3075 51.29 23.9206 51.0091 23.9206 51.0091L23.5379 51.1293L23.2418 52.1524L23.0146 52.0711L22.9148 52.4481L23.3813 52.7927L23.3523 53.1707L23.5159 53.3038L23.5845 53.5247L23.7729 53.3685L24.2642 53.8471L24.0509 54.1873L24.5223 54.5375L24.2692 54.7667L23.8775 54.4173L23.7878 54.762L23.5207 54.5827L23.1529 54.9793L22.5916 55.0523L22.478 55.5173L21.9767 56.1069H21.5551L20.4477 55.4758L20.3141 54.7309L19.6941 53.7456L19.1539 53.8197C19.1539 53.8197 18.7662 53.1385 18.7662 53.1247C18.7662 53.1108 18.2499 53.2264 18.2499 53.2264L17.8083 52.5221V52.0804L18.1911 52.0528L19.0044 51.4547L18.9207 50.7876H19.3612V50.4696L18.5578 49.7895L17.7984 49.7713L17.6847 50.1251L17.3069 50.2221L17.2631 49.9319L16.6322 49.8543L16.3649 50.0197L16.3989 50.3135L16.0022 50.5713L15.775 50.3181L15.9124 50.208L15.6055 49.49H15.2576L14.8809 49.845L14.5978 49.7341L14.6725 49.357L14.2361 48.8737L13.8882 49.1223H13.0748L12.8366 48.7767L11.7941 48.7406L11.3286 48.4366L10.8909 48.796L10.6328 48.5843L10.8909 48.1612L10.7025 47.8756L10.4564 47.9098C10.3686 47.8017 10.2919 47.6953 10.2251 47.5769C10.1724 47.4855 10.0835 47.429 10.0507 47.3246C10.0288 47.2553 10.0308 47.1536 10.0377 47.0825C10.0448 47.0123 10.1025 46.9605 10.1175 46.8932C10.1375 46.7952 10.1016 46.7378 10.0408 46.6621C10.0118 46.624 9.97988 46.6029 9.94207 46.5735C9.89024 46.5337 9.85925 46.4681 9.80248 46.4347C9.73074 46.3923 9.63708 46.3432 9.54826 46.3508C9.48147 46.3563 9.45862 46.3775 9.41774 46.418C9.39583 46.4392 9.35402 46.4654 9.31915 46.4635C9.26025 46.4635 9.20948 46.3885 9.1706 46.3544C9.13468 46.3239 9.09686 46.2841 9.05705 46.2592C8.97035 46.2037 8.8807 46.3129 8.85467 46.383C8.61141 46.2203 8.26956 45.9848 7.98543 46.2203C7.71438 46.4459 8.07319 46.664 8.0891 46.9024C8.09793 47.0264 7.98838 47.0984 7.89862 47.1723C7.79201 47.2602 7.76916 47.3535 7.77905 47.4838C7.78801 47.6187 7.82794 47.7999 7.73017 47.9163C7.63051 48.0355 7.44215 47.9801 7.31257 47.9431C7.15401 47.8978 7.00347 47.8562 6.83608 47.8656C6.75326 47.871 6.61379 47.909 6.59789 47.8008C6.57504 47.6456 6.70249 47.4485 6.77435 47.3176C6.87094 47.1418 6.98474 46.9755 7.08239 46.8017C7.15708 46.6659 7.21491 46.5225 7.23388 46.3701C7.25273 46.2278 7.23282 46.0864 7.23082 45.9431C7.22881 45.7889 7.26769 45.6466 7.33742 45.5071C7.41022 45.3609 7.50694 45.2224 7.54369 45.0635C7.57762 44.9156 7.54275 44.7705 7.53368 44.6217C7.52473 44.4463 7.57067 44.2835 7.64629 44.1227C7.72404 43.9574 7.82264 43.7956 7.85256 43.6136C7.88154 43.4443 7.84066 43.278 7.77387 43.1201C7.70708 42.9629 7.59246 42.8104 7.49375 42.6671C7.38019 42.5019 7.25768 42.3436 7.12892 42.1894C7.08911 42.1405 7.05825 42.087 7.03528 42.0305L8.27628 41.8264L9.16825 40.8957L9.33976 40.8689L10.3514 41.4067L10.463 40.3514L10.8347 40.2063L11.8165 40.6684H12.0168L12.1882 39.9929L13.207 39.5095L13.5787 38.0198L14.404 37.628L14.5166 37.1104L15.8772 37.4688C15.8772 37.4688 16.5529 38.1797 16.6587 38.3449C16.7613 38.5105 17.2378 38.1176 17.2378 38.1176L17.8627 37.0419V37.041L18.9711 36.8201L20.0046 37.2554L20.191 38.1924L21.0462 38.3857L21.9313 39.2617L22.4964 38.9372L23.3297 39.0545L23.835 38.6406L24.4002 38.6822L24.5635 38.062L25.2184 37.6758L27.3006 38.1794L27.4641 39.0961L26.7724 39.5028L27.3904 40.648L28.5058 40.744L28.7588 41.6266L28.707 42.0127L28.4608 42.3715L28.8256 42.5646L29.1854 43.0015Z" fill="#AD2323"/>
<path d="M17.8637 37.0407V37.0416L17.2388 38.1173C17.2388 38.1173 16.7623 38.5102 16.6597 38.3446C16.554 38.1793 15.8782 37.4686 15.8782 37.4686L14.5176 37.1101L14.405 37.6277L13.5797 38.0195L13.2079 39.5093L12.1892 39.9926L12.0178 40.6681H11.8175L10.8357 40.206L10.4639 40.3512L10.3524 41.4065L9.34074 40.8687L9.16923 40.8954L8.27726 41.8261L7.03626 42.0302C6.97842 41.8934 6.96451 41.7399 6.96546 41.594C6.96734 41.4646 6.96039 41.3353 6.97747 41.2059C6.99526 41.0709 6.98136 40.9434 6.92152 40.8177C6.84483 40.6522 6.76308 40.5339 6.58556 40.4515C6.46093 40.3944 6.32145 40.3731 6.19788 40.3149C6.09222 40.266 5.98161 40.2371 5.87288 40.1929C5.79313 40.1606 5.71939 40.1181 5.63975 40.0819C5.47425 40.021 5.29095 39.8888 5.25997 39.7159C5.22404 39.52 5.25597 39.2797 5.38755 39.1171C5.45929 39.0294 5.54104 38.9555 5.57096 38.8455C5.60194 38.7337 5.59393 38.6014 5.56801 38.4887C5.53503 38.337 5.43137 38.2224 5.27482 38.1689C5.15725 38.1283 5.02767 38.1329 4.91105 38.0886C4.80244 38.047 4.69478 37.9777 4.65095 37.8705C4.60113 37.7485 4.62198 37.6042 4.62009 37.4768C4.61903 37.3503 4.62009 37.2098 4.56131 37.0933C4.50654 36.9889 4.40476 36.9492 4.323 36.8714C4.16551 36.7237 4.16351 36.5064 4.22629 36.3208C4.321 36.049 4.66792 35.9732 4.82341 35.7365C4.90411 35.6136 4.96889 35.4658 4.96489 35.3188C4.95994 35.1636 4.86818 35.0277 4.84721 34.8744C4.83036 34.7543 4.86723 34.6646 4.95688 34.5788C5.0775 34.464 5.20508 34.3013 5.19707 34.1342C5.18906 33.9494 5.19212 33.7728 5.07644 33.6129C4.97784 33.4753 4.8094 33.4152 4.71174 33.2766C4.62598 33.1546 4.58817 32.9744 4.61703 32.8303C4.63305 32.7554 4.69984 32.7036 4.71362 32.6288C4.72965 32.542 4.70173 32.4633 4.64294 32.3951C4.58511 32.3303 4.48639 32.2739 4.46048 32.189C4.43857 32.1159 4.5043 32.0226 4.54718 31.9671C4.59111 31.9098 4.64377 31.8572 4.64377 31.7814C4.64377 31.7 4.50335 31.604 4.42349 31.5854C4.26104 31.5503 4.06373 31.5568 3.92614 31.4607C3.78361 31.361 3.70492 31.2038 3.68289 31.0448C3.67288 30.9727 3.67205 30.9116 3.677 30.8396C3.68489 30.7435 3.60114 30.6852 3.54448 30.6123C3.45978 30.5051 3.36307 30.3979 3.3322 30.2648C3.29922 30.1207 3.38309 29.9978 3.44376 29.8702C3.44282 29.8739 3.44082 29.8785 3.43787 29.8839C3.44788 29.8702 3.46484 29.8526 3.47168 29.8443C3.48864 29.8211 3.50761 29.7991 3.52363 29.7749C3.55049 29.7334 3.5784 29.6964 3.60232 29.6538C3.64814 29.5734 3.70998 29.5059 3.74992 29.4219C3.78278 29.3497 3.8127 29.2897 3.8676 29.2297C3.92838 29.1641 3.96018 29.0726 4.00306 28.9959C4.02698 28.9505 4.07386 28.8914 4.05985 28.8397C4.045 28.7898 3.98316 28.7315 3.94923 28.6899C3.89245 28.6206 3.85252 28.5495 3.81565 28.4701C3.78573 28.4026 3.76876 28.3619 3.79468 28.2916C3.8206 28.2232 3.85452 28.1817 3.90035 28.1252C3.97303 28.0403 4.01791 27.8009 3.91318 27.7205C3.86441 27.6826 3.80458 27.6881 3.7657 27.6382C3.71281 27.568 3.679 27.482 3.63612 27.4035L3.95512 26.9386C3.95512 26.9386 4.35375 26.983 4.43845 27.1041C4.43845 27.1041 4.80327 27.3213 4.89586 27.2001C4.98963 27.0792 5.00459 26.4868 5.05936 26.1587C5.1152 25.8315 5.17504 25.4553 5.6255 25.2077L5.24584 24.7835C5.24584 24.7835 5.79301 23.9869 5.81504 24.0044C5.83695 24.021 6.83765 24.7104 6.8486 24.7104C6.85956 24.7104 7.02306 24.5828 7.02306 24.5828L7.17549 24.8213L8.89782 23.8L8.77119 23.3832C8.77119 23.3832 10.2772 22.4831 10.2962 22.5007C10.3141 22.5173 11.4744 22.8177 11.4863 22.8177C11.4973 22.8177 12.9884 21.0728 12.9884 21.0728L13.9741 21.5183L13.7469 22.1662L13.5195 22.6625L13.996 23.4969L13.5195 24.9174L13.698 25.7999C13.698 25.7999 12.6345 26.2214 12.6276 26.2416C12.6195 26.262 12.471 27.2971 12.471 27.2971L13.416 28.8895L12.9844 29.4828L13.4897 30.0206L13.2336 33.2828L13.5496 33.6341L13.9443 33.4003L14.4795 33.7237L14.0628 34.2827L14.7696 34.8473L15.3646 34.6339L15.4692 34.682L15.521 35.6272L16.0782 35.9304L16.3382 35.8823L16.435 35.6754L17.4397 36.1032L17.8637 37.0407Z" fill="#AD2323"/>
<path d="M20.1423 12.7554C20.1472 12.7416 20.1272 12.3045 20.1272 12.3045L20.8409 12.176L20.807 11.7167L19.9588 11.3813C19.9588 11.3813 19.314 10.3102 19.314 10.2963C19.314 10.2824 19.2293 9.58384 19.2293 9.58384L19.017 8.95352C19.017 8.95352 18.6553 8.15772 18.6692 8.15772C18.6841 8.15772 19.3041 7.73536 19.3041 7.73536L19.349 7.5191L19.4775 7.24735L19.4577 7.07729L18.8038 6.45254L19.1059 6.00167L18.9473 4.87603L18.2386 4.60439L18.4032 3.96948C18.2507 3.99253 18.116 4.01852 17.9946 4.12283C17.9218 4.18574 17.8519 4.24854 17.7712 4.30403C17.7254 4.33461 17.6736 4.35951 17.6236 4.38267C17.5907 4.3984 17.5549 4.40954 17.521 4.42144C17.517 4.42232 17.507 4.42417 17.504 4.42417H17.5031C17.3555 4.48523 17.206 4.57665 17.0784 4.66905C17.0475 4.69133 16.9977 4.71066 16.9717 4.73655C16.9409 4.7679 16.927 4.82338 16.904 4.86041C16.8252 4.99344 16.7704 5.14319 16.6797 5.26792C16.572 5.41864 16.4664 5.56741 16.3598 5.71802C16.3139 5.78356 16.2761 5.84363 16.2203 5.90283C16.1823 5.94346 16.1555 5.99053 16.1265 6.03684C16.0538 6.15513 15.973 6.28357 15.8664 6.37783C15.7688 6.46379 15.7398 6.59868 15.6551 6.69665C15.5564 6.8121 15.4218 6.89446 15.3083 6.99516C15.2185 7.07555 15.1429 7.16806 15.065 7.2586C14.9055 7.44155 14.7213 7.56552 14.499 7.67813C14.3734 7.7418 14.2477 7.79172 14.1143 7.84262C14.0006 7.88423 13.894 7.95358 13.7764 7.98307C13.4594 8.06259 13.1485 8.16613 12.8245 8.21878C12.7537 8.23079 12.6809 8.26126 12.6281 8.30561C12.5245 8.39342 12.4477 8.49784 12.3213 8.56064C12.2005 8.61984 12.062 8.59483 11.9375 8.63644C11.8457 8.66604 11.754 8.67707 11.6623 8.70296C11.5636 8.72972 11.4857 8.77592 11.3802 8.78509C11.2347 8.80082 11.0871 8.80454 10.9397 8.80825C10.8221 8.81011 10.6865 8.78509 10.5779 8.83042C10.5132 8.85816 10.4563 8.90065 10.3994 8.94128C10.3366 8.98388 10.2778 9.03641 10.1971 9.04111C10.1285 9.0457 10.0746 9.03368 10.0108 9.06328C9.93597 9.09933 9.86023 9.13723 9.78248 9.16497C9.70073 9.19282 9.60602 9.17611 9.52132 9.18813C9.4186 9.20287 9.30504 9.19916 9.21222 9.24732C9.13353 9.2861 9.04989 9.31755 8.96402 9.33973C8.88627 9.35906 8.79863 9.38221 8.72477 9.41279C8.66905 9.43584 8.62511 9.45539 8.56233 9.46817C8.5006 9.48193 8.4397 9.49963 8.37797 9.51623C8.33615 9.52737 8.29233 9.52453 8.25051 9.53469C8.14779 9.56057 8.08395 9.6604 7.97934 9.68989C7.90159 9.71119 7.80983 9.70475 7.73114 9.71665C7.64845 9.72965 7.55374 9.73697 7.48106 9.77487C7.40826 9.81277 7.33946 9.84051 7.26077 9.87098C7.18291 9.90069 7.12212 9.9588 7.05639 10.0069C6.96969 10.0725 6.81915 10.1381 6.70653 10.1381C6.63679 10.1381 6.56105 10.1326 6.49119 10.1446C6.41145 10.1594 6.34371 10.1918 6.27586 10.2314C6.20907 10.2692 6.12838 10.2692 6.06253 10.3109C6.00469 10.347 5.97171 10.3783 5.90303 10.3987C5.84613 10.4152 5.7804 10.4487 5.71962 10.4487C5.65789 10.4487 5.60794 10.4347 5.5461 10.4541C5.47836 10.4753 5.42053 10.4966 5.34879 10.5133C5.26409 10.5317 5.29495 10.5594 5.27504 10.6196C5.26515 10.651 5.23028 10.6639 5.21732 10.6926C5.20637 10.7147 5.21144 10.7389 5.21144 10.7619C5.21144 10.8154 5.25019 10.8533 5.24831 10.9042C5.2423 10.9975 5.17657 10.9607 5.11566 10.9846C5.02696 11.0207 5.07384 11.2157 5.06984 11.285C5.06383 11.4301 5.02508 11.5835 4.95122 11.7119C4.91835 11.7674 4.87041 11.8007 4.81964 11.8405C4.7678 11.8802 4.72799 11.9282 4.67109 11.9652C4.54847 12.0447 4.42796 12.1297 4.31028 12.2166C4.26245 12.2517 4.21757 12.2803 4.18859 12.3303C4.15679 12.3839 4.12192 12.4356 4.08799 12.4894C3.98339 12.6556 3.97243 12.8636 3.95936 13.0502C3.95335 13.1317 3.95629 13.2083 3.93544 13.2878C3.90753 13.3986 3.89869 13.5142 3.87065 13.626C3.85169 13.7 3.82177 13.7794 3.79291 13.8496C3.76404 13.9199 3.68324 13.9403 3.6115 13.9503C3.5268 13.9633 3.46001 13.9781 3.4143 14.0549C3.3693 14.1269 3.36341 14.2369 3.37331 14.3182C3.37732 14.3552 3.39722 14.3857 3.40523 14.4226C3.4143 14.4596 3.40924 14.5012 3.40924 14.5382C3.41018 14.6195 3.41018 14.6989 3.41725 14.7803C3.4242 14.8624 3.44611 14.9281 3.499 14.9947C3.54482 15.0511 3.58476 15.0797 3.64248 15.1222C3.6823 15.1518 3.71528 15.1897 3.7571 15.2174C3.78808 15.2396 3.82094 15.247 3.8319 15.2849C3.85181 15.3506 3.78596 15.4152 3.78101 15.4789C3.77312 15.5501 3.79691 15.6213 3.79503 15.6934C3.79503 15.7256 3.81199 15.796 3.79102 15.8227C3.77005 15.8486 3.72918 15.8376 3.69926 15.8432C3.63659 15.8172 3.56768 15.7923 3.53787 15.7332C3.45412 15.5677 3.48204 15.3597 3.35246 15.211C3.29757 15.1482 3.22088 15.137 3.14019 15.123C3.06044 15.1093 2.99859 15.0834 2.93286 15.0382C2.87007 14.9947 2.81129 14.9642 2.73261 14.9495C2.6578 14.9356 2.57016 14.9356 2.50431 14.8968C2.42256 14.8498 2.38062 14.7471 2.33079 14.6751C2.26106 14.5743 2.17436 14.4736 2.05468 14.4228C1.97799 14.3895 1.89223 14.3841 1.81649 14.3499C1.74074 14.3147 1.67796 14.262 1.62412 14.2038C1.55333 14.128 1.48665 14.042 1.39182 13.9903C1.31207 13.945 1.24728 13.9616 1.25918 14.0558C1.26719 14.1243 1.29605 14.1807 1.28015 14.2499C1.26118 14.3266 1.2732 14.3755 1.30607 14.4486C1.33398 14.5105 1.38275 14.5938 1.29711 14.6317C1.22431 14.665 1.12065 14.6511 1.0429 14.6464C1.03489 14.7111 1.07471 14.762 1.12265 14.8073C1.1964 14.8784 1.28015 14.9496 1.36285 15.0124C1.43953 15.0688 1.52034 15.1151 1.58513 15.1862C1.69468 15.3072 1.8113 15.4727 1.83321 15.6307C1.85112 15.7619 1.85112 15.8803 1.92604 15.9949C2.02358 16.1446 2.1283 16.2814 2.19214 16.4476C2.21995 16.5215 2.25399 16.5936 2.26188 16.6721C2.26777 16.7359 2.25399 16.7988 2.25493 16.8615C2.25587 16.9235 2.25293 16.9808 2.24398 17.0409C2.23102 17.1324 2.24798 17.2313 2.24798 17.3228C2.24798 17.4725 2.26306 17.613 2.29581 17.7609C2.30971 17.8264 2.31171 17.8911 2.33268 17.955C2.35659 18.0289 2.37662 18.1083 2.38946 18.1841C2.41537 18.3347 2.44329 18.4956 2.49913 18.6397C2.5539 18.7829 2.59078 18.9309 2.61481 19.0805C2.62482 19.1489 2.63884 19.2053 2.63071 19.2736C2.62175 19.3532 2.60786 19.4317 2.59678 19.5102C2.57087 19.6978 2.52398 19.9112 2.40147 20.0713C2.37167 20.1109 2.33668 20.1461 2.30075 20.1793C2.25988 20.2163 2.22195 20.2282 2.17224 20.2542C2.12641 20.2764 2.08141 20.3078 2.03865 20.3364C2.01768 20.3513 1.99177 20.3633 1.97775 20.3789C1.90012 20.4612 1.95879 20.5925 1.99472 20.6774C2.04148 20.792 2.12135 20.891 2.17012 21.0054C2.18602 21.0433 2.21594 21.0904 2.22289 21.1293C2.22984 21.1728 2.20487 21.2236 2.19002 21.2652C2.16811 21.3262 2.13619 21.3835 2.11416 21.4454C2.09331 21.5055 2.08236 21.5221 2.02852 21.5664C1.96774 21.6153 1.9099 21.6645 1.84912 21.7124C1.80435 21.7476 1.76041 21.7864 1.71259 21.8187C1.66676 21.8502 1.64792 21.8889 1.60987 21.9287C1.573 21.9666 1.52517 21.997 1.4903 22.0368C1.45049 22.0802 1.41856 22.1301 1.38758 22.1791C1.32385 22.2744 1.30583 22.3825 1.28793 22.4924C1.27897 22.5413 1.27202 22.5912 1.26201 22.6403C1.25294 22.6939 1.26495 22.7474 1.25211 22.8012C1.22314 22.9279 1.13738 22.9934 1.01287 23.0368C0.952082 23.0572 0.892241 23.0645 0.829454 23.0784C0.756655 23.095 0.691865 23.1274 0.619065 23.1441C0.581134 23.1524 0.543321 23.1451 0.507393 23.1542C0.486425 23.1588 0.456622 23.1755 0.437657 23.1847C0.338942 23.23 0.244232 23.2827 0.150582 23.3372C0.0827306 23.376 -0.0218747 23.4195 0.0040409 23.51C0.0219463 23.5729 0.0677697 23.6264 0.110648 23.6755C0.176498 23.7494 0.237282 23.8363 0.255187 23.9325C0.283106 24.0767 0.202294 24.1386 0.133618 24.2494C0.0449158 24.3926 0.0887379 24.5785 0.146459 24.7226C0.155412 24.7476 0.168369 24.7744 0.17638 24.8003C0.19935 24.8696 0.250121 24.9592 0.323863 24.9915C0.355786 25.0054 0.390654 25.0072 0.421517 25.0211C0.467459 25.0424 0.501268 25.0793 0.544264 25.1043C0.601985 25.1357 0.649928 25.18 0.710712 25.2069C0.867149 25.2752 1.04361 25.3067 1.18815 25.3944C1.27685 25.449 1.37851 25.4777 1.47428 25.5211C1.54402 25.5516 1.59785 25.6061 1.64674 25.6606C1.89482 25.9342 2.07435 26.2668 2.37638 26.4923C2.44612 26.5432 2.49206 26.5886 2.53788 26.6578C2.58865 26.7346 2.65344 26.8038 2.73519 26.8537C2.80894 26.8971 2.85877 26.8888 2.93852 26.8952C3.06209 26.9064 3.18966 26.9868 3.28637 27.0533C3.41795 27.1448 3.52963 27.2298 3.61326 27.3638C3.62127 27.3767 3.62917 27.3906 3.63624 27.4036L3.95523 26.9387C3.95523 26.9387 4.35386 26.9831 4.43856 27.1042C4.43856 27.1042 4.80338 27.3213 4.89597 27.2002C4.98974 27.0793 5.0047 26.4869 5.05947 26.1588C5.11531 25.8315 5.17515 25.4554 5.62561 25.2078L5.24595 24.7835C5.24595 24.7835 5.79312 23.987 5.81515 24.0045C5.83706 24.0211 6.83776 24.7105 6.84871 24.7105C6.85967 24.7105 7.02317 24.5829 7.02317 24.5829L7.1756 24.8213L8.89793 23.8001L8.7713 23.3833C8.7713 23.3833 10.2774 22.4832 10.2963 22.5008C10.3142 22.5174 11.4745 22.8178 11.4864 22.8178C11.4974 22.8178 12.9885 21.0728 12.9885 21.0728L13.9742 21.5183L13.747 22.1663L14.6081 22.3595L16.3235 21.8493L16.3983 21.6147L16.4631 20.9483L16.8598 20.4557L17.7369 20.2403L17.9153 19.7024C17.9153 19.7024 18.5801 19.8356 18.6002 19.831C18.6201 19.8263 18.6251 19.5279 18.6251 19.5279L18.5503 19.2424L19.2252 18.6952L18.4567 17.9226C18.4567 17.9226 17.46 17.6749 17.3952 17.5964C17.3304 17.5187 17.1071 17.3163 17.147 17.1048C17.1868 16.8931 17.2855 16.6132 17.5985 16.5762C17.9105 16.5392 19.2541 16.2906 19.2541 16.2906L19.3388 14.9949L20.5039 14.7925L20.4242 14.0938L20.7371 13.2427C20.7373 13.2426 20.1423 12.773 20.1423 12.7554ZM6.19199 18.867C6.15818 19.0223 6.03956 19.1489 6.00268 19.3032C5.97783 19.4076 6.02059 19.5046 6.03555 19.6072C6.05652 19.7468 6.05758 19.8974 6.05145 20.0378C6.04863 20.1164 6.02259 20.2189 5.95486 20.2734C5.88712 20.3289 5.75154 20.2716 5.68074 20.2466C5.67874 20.2347 5.67167 20.2253 5.66084 20.2198C5.54822 20.1329 5.49639 19.9406 5.57413 19.8186C5.63586 19.7226 5.70265 19.6746 5.66885 19.5543C5.63492 19.435 5.59204 19.3343 5.64693 19.2142C5.69971 19.0978 5.7645 19.0035 5.78947 18.8779C5.81232 18.7669 5.84331 18.62 5.98985 18.6044C6.15418 18.5869 6.21908 18.7413 6.19199 18.867ZM18.3849 12.0568C18.3849 11.9201 18.5515 11.9783 18.6022 11.8748C18.6461 11.7834 18.645 11.6705 18.7697 11.6355C18.8982 11.5994 18.9679 11.7113 18.9869 11.8128C18.9989 11.8693 18.9769 11.9174 18.9619 11.9719C18.9371 12.0671 18.922 12.2675 18.8004 12.3064C18.7108 12.335 18.5562 12.2556 18.4845 12.2084C18.4368 12.1769 18.3849 12.115 18.3849 12.0568ZM19.603 13.4264C19.4933 13.5086 19.3887 13.5982 19.2841 13.6842C19.2323 13.7258 19.1784 13.7572 19.1246 13.7924C19.0668 13.8303 19.0348 13.8904 18.987 13.9356C18.9382 13.9809 18.8326 14.0401 18.8166 14.1056C18.703 14.0604 18.7606 13.9781 18.7767 13.8922C18.7997 13.773 18.6801 13.7887 18.6123 13.7259C18.5196 13.6399 18.7499 13.6289 18.7937 13.6306C18.8924 13.6352 19.0538 13.6732 19.0937 13.5576C19.1326 13.4513 19.0668 13.3127 19.0478 13.2073C19.0299 13.114 18.995 12.978 19.0359 12.8867C19.0777 12.7925 19.1943 12.8229 19.2621 12.8727C19.3378 12.9274 19.3787 13.0012 19.4763 13.0245C19.588 13.0512 19.6778 13.0834 19.7205 13.1935C19.7634 13.3007 19.6857 13.3653 19.603 13.4264Z" fill="#AD2323"/>
<path d="M42.092 1.66176C42.0353 1.63674 41.9407 1.71899 41.8998 1.74772C41.8299 1.79479 41.785 1.82253 41.7343 1.89276C41.7244 1.90489 41.6704 1.98429 41.6625 1.97042C41.6177 2.06184 41.5697 2.15249 41.522 2.24206C41.4791 2.3243 41.4522 2.4131 41.3994 2.49163C41.3486 2.56557 41.2857 2.6275 41.2399 2.70418C41.1194 2.9093 40.9918 3.13113 40.8103 3.29649C40.7395 3.36126 40.6568 3.41762 40.589 3.48687C40.5272 3.54792 40.4704 3.61345 40.4156 3.67997C40.3688 3.73731 40.3279 3.81027 40.2682 3.85833C40.1565 3.94888 40.0359 4.04128 39.9152 4.12363C39.6891 4.27982 39.4677 4.44802 39.2365 4.59777C39.1527 4.65129 39.065 4.69847 38.9753 4.74085C38.8158 4.81588 38.6494 4.8741 38.48 4.92674C38.3953 4.95252 38.3115 4.97753 38.2269 5.00243C38.1481 5.02461 38.0735 5.02646 37.9927 5.04034C37.8711 5.05978 37.7435 5.07835 37.6278 5.11898C37.55 5.14486 37.4981 5.2022 37.4236 5.23257C37.3278 5.27134 37.2181 5.28619 37.1175 5.30935C36.992 5.33796 36.8684 5.35926 36.7408 5.37117C36.6361 5.38133 36.5315 5.40448 36.4259 5.40918C36.2774 5.4165 36.1348 5.42021 35.9872 5.4461C35.8558 5.46827 35.7191 5.46827 35.5886 5.49415C35.482 5.51447 35.49 5.59398 35.4501 5.67251C35.4382 5.69469 35.4103 5.7529 35.3743 5.74002C35.3365 5.728 35.3434 5.63647 35.3424 5.60971C35.3405 5.56351 35.3475 5.49798 35.3116 5.45909C35.2806 5.42491 35.2238 5.42294 35.1799 5.41475C35.0743 5.39717 34.9765 5.37488 34.8699 5.39531C34.8053 5.40634 34.6745 5.41475 34.7104 5.50071C34.7532 5.59857 34.8689 5.68638 34.9436 5.76317C34.9645 5.78534 35.1071 5.91368 35.0194 5.91193C34.9496 5.91008 34.8618 5.81669 34.8141 5.77879C34.7413 5.72155 34.6904 5.66148 34.6386 5.58754C34.5549 5.46652 34.3993 5.29275 34.2359 5.27243C34.1344 5.25954 34.0397 5.22153 33.939 5.20777C33.7775 5.1856 33.6449 5.0719 33.5473 4.96006C33.4915 4.89638 33.362 4.72905 33.2613 4.82429C33.2124 4.87137 33.1934 4.95077 33.1057 4.89168C33.0689 4.86678 33.041 4.82877 33.0071 4.80103C32.9473 4.75297 32.8795 4.71332 32.8168 4.66887C32.7331 4.60978 32.6225 4.54414 32.5756 4.45348C32.5247 4.35464 32.5157 4.25109 32.5217 4.14395C32.5247 4.09775 32.5376 4.04226 32.5277 3.99606C32.5208 3.96002 32.4948 3.935 32.4749 3.90464C32.423 3.82698 32.424 3.7419 32.421 3.65321C32.4171 3.55993 32.4729 3.46841 32.459 3.37786C32.448 3.29835 32.4022 3.20125 32.3194 3.16717C32.2566 3.04888 32.2885 2.901 32.1997 2.79101C32.1648 2.74754 32.1438 2.68845 32.1269 2.63668C32.105 2.57016 32.123 2.50179 32.086 2.438C32.0013 2.40939 31.9115 2.38164 31.8349 2.33446C31.6834 2.23845 31.7003 2.08117 31.6803 1.93154C31.6544 1.74214 31.5528 1.61075 31.3892 1.5C31.2487 1.40476 31.1231 1.3235 31.1321 1.14601C31.137 1.05732 31.1569 0.96765 31.1909 0.885296C31.2327 0.78645 31.2995 0.733803 31.3962 0.677444C31.4241 0.693173 31.473 0.680176 31.5069 0.690334C31.5487 0.703222 31.5867 0.73009 31.6275 0.749532C31.7182 0.792019 31.8069 0.849362 31.8996 0.887153C32.073 0.95924 32.2583 1.03875 32.4099 1.14415C32.4877 1.19866 32.5593 1.22727 32.6471 1.26244C32.7288 1.29674 32.7896 1.35856 32.8603 1.40476C32.9999 1.49716 33.1773 1.53047 33.3258 1.60442C33.4215 1.65149 33.5003 1.70796 33.574 1.77819C33.61 1.81336 33.6297 1.8411 33.6558 1.88359C33.6846 1.93154 33.7355 1.96114 33.7724 2.00275C33.8073 2.04251 33.8272 2.09614 33.85 2.14321C33.8999 2.24391 33.9508 2.35117 34.0504 2.41954C34.1949 2.51839 34.2767 2.40851 34.2497 2.27166C34.168 1.86786 33.7504 1.64242 33.3956 1.46308C32.8712 1.19876 32.381 0.883655 31.8426 0.643366C31.5864 0.528682 31.3333 0.41411 31.0892 0.278347C30.8678 0.156236 30.6446 0.0501798 30.3865 0.0150101C29.8852 -0.0524893 29.3888 0.127728 28.8914 0.159075C28.7011 0.172072 28.5137 0.180375 28.3284 0.222862C28.0373 0.288505 27.7422 0.368782 27.4582 0.458563C27.3675 0.487179 27.2728 0.494606 27.183 0.528684C26.9229 0.623926 26.6796 0.769083 26.4106 0.843791C26.2631 0.884422 26.1037 0.878087 25.9551 0.925272C25.9113 0.93816 25.8654 0.953885 25.8205 0.9659C25.7866 0.974201 25.7528 0.975185 25.7179 0.979773C25.6122 0.995501 25.5106 1.02783 25.4088 1.05459C25.3181 1.07873 25.2205 1.07316 25.1287 1.09719C25.0749 1.11106 25.0251 1.12952 24.9732 1.14623C24.8685 1.17856 24.7699 1.17026 24.6712 1.22662C24.5794 1.27741 24.4808 1.29958 24.3772 1.31814C24.2746 1.3366 24.1669 1.32459 24.0622 1.34032C24.0094 1.34774 23.9566 1.34687 23.9028 1.34687C23.7942 1.34687 23.7354 1.39209 23.6456 1.44014C23.5589 1.48635 23.4323 1.48449 23.3346 1.48449C23.2609 1.48449 23.1992 1.47804 23.1364 1.5178C23.0506 1.57329 23.0027 1.66012 22.907 1.70534C22.7894 1.76082 22.6469 1.76082 22.5203 1.78026C22.4435 1.79141 22.3727 1.79686 22.3 1.82275C22.2442 1.84405 22.1874 1.87081 22.1365 1.90041C22.0898 1.92728 22.0608 1.96332 22.019 1.99379C21.971 2.02798 21.8943 2.10739 21.8365 2.10935C21.675 2.21377 21.5246 2.32375 21.3771 2.44466C21.3391 2.47426 21.3123 2.51489 21.2754 2.54635C21.2356 2.58064 21.1838 2.60741 21.1399 2.63788C21.081 2.68037 21.0064 2.71652 20.9724 2.77921C20.9416 2.83743 20.9286 2.9022 20.8987 2.95856C20.8658 3.02234 20.8179 3.0787 20.7582 3.12315C20.6744 3.18497 20.5778 3.21829 20.4881 3.27093C20.4153 3.31527 20.3515 3.36606 20.2777 3.40954C20.159 3.47802 20.0594 3.57129 19.9437 3.64163C19.9078 3.66381 19.8689 3.68499 19.8371 3.7099C19.7953 3.74507 19.7783 3.77543 19.7253 3.79585C19.6796 3.81344 19.6338 3.83561 19.5878 3.85134C19.4931 3.88356 19.3785 3.88542 19.2779 3.90399C19.1782 3.92059 19.0755 3.93348 18.9749 3.93348C18.8901 3.93533 18.8064 3.93435 18.7218 3.93435C18.6311 3.93435 18.5503 3.94822 18.4616 3.96122C18.4415 3.96395 18.4218 3.96679 18.4028 3.96952L18.2382 4.60443L18.9469 4.87607L19.1055 6.00171L18.8034 6.45258L19.4573 7.07733L19.4771 7.24739L19.3486 7.51914L19.3037 7.7354C19.3037 7.7354 18.6837 8.15776 18.6688 8.15776C18.6549 8.15776 19.0166 8.95356 19.0166 8.95356L19.2289 9.58388C19.2289 9.58388 19.3136 10.2825 19.3136 10.2963C19.3136 10.3101 19.9584 11.3814 19.9584 11.3814L20.8066 11.7168L20.8405 12.1761L20.1268 12.3045C20.1268 12.3045 20.1467 12.7416 20.1418 12.7555C20.1418 12.7731 20.7368 13.2425 20.7368 13.2425L20.4238 14.0937L20.5036 14.7924L21.2252 16.1629L21.7127 16.5214L21.9429 16.5427L22.2997 16.3117L23.6641 16.2285L24.2332 16.6083L24.7128 16.1147L24.8064 15.2775L25.1523 15.0289L25.5689 15.4291H26.5687L27.0859 15.2979L27.5314 14.712L26.758 14.3016L26.9743 13.9772C26.9743 13.9772 27.8443 13.7666 27.8443 13.7637C27.8334 13.7637 27.8892 13.1501 27.8773 13.1501C27.8773 13.1491 28.5062 13.0983 28.5062 13.0983L28.882 13.4671L29.0862 13.5253L29.6254 12.8738L30.8415 13.1084L31.2362 13.5566L33.0432 13.5668C33.0432 13.5668 33.4559 13.9078 33.4599 13.918C33.4738 13.918 34.0879 13.3182 34.0879 13.3182L34.6829 13.5705L34.7168 14.2702L36.193 14.4494L36.6714 14.2553L37.4648 13.9328L37.8585 13.0493L38.618 12.4837L38.3498 11.9218L38.6579 11.4079L39.6994 11.4874L40.455 9.83225L40.2875 9.71211L39.495 9.61217L39.1682 10.1565L38.7027 9.6362L38.4835 9.03635C38.4835 9.03635 37.9403 9.03635 37.9294 9.03635C37.9183 9.03635 37.4948 7.97088 37.4948 7.97088L37.5635 6.49594C37.5217 6.48218 37.4838 6.46088 37.4329 6.4516C37.417 6.37405 37.5854 6.37208 37.6353 6.33801C37.715 6.28263 37.6732 6.1994 37.6901 6.11902C37.704 6.0478 37.7559 5.97943 37.7887 5.91379C37.8227 5.84454 37.8316 5.78906 37.7887 5.72079C37.7628 5.68104 37.7399 5.64128 37.696 5.61812C37.6632 5.60054 37.6104 5.60239 37.5834 5.57836C37.5166 5.52102 37.6272 5.43135 37.6731 5.39815C37.7957 5.3076 37.9352 5.35479 38.0738 5.37696C38.2483 5.40459 38.3817 5.35107 38.5044 5.23551C38.619 5.1264 38.7177 4.96847 38.8821 4.91855C39.0167 4.87891 39.1552 4.93799 39.2908 4.91123C39.4713 4.87606 39.5848 4.70699 39.6865 4.57942C39.802 4.43535 39.9247 4.28375 40.1061 4.20795C40.2196 4.15902 40.3551 4.15618 40.4628 4.09338C40.5635 4.03516 40.6232 3.93249 40.687 3.84195C40.7538 3.74681 40.8297 3.65987 40.9033 3.5702C40.9911 3.46393 41.0658 3.34935 41.1485 3.24024C41.2362 3.12479 41.3368 3.02409 41.4476 2.92797C41.5363 2.85217 41.612 2.77637 41.6529 2.6701C41.6998 2.54439 41.7207 2.41135 41.7755 2.28749C41.8323 2.15817 41.922 2.04545 41.9767 1.91603C42.0013 1.86142 42.1918 1.70621 42.092 1.66176ZM24.7271 1.52883C24.6315 1.53987 24.5706 1.58137 24.5249 1.65903C24.488 1.72008 24.4601 1.79392 24.3833 1.8198C24.3166 1.84285 24.2369 1.81795 24.1721 1.85039C24.1103 1.88086 24.0864 1.95764 24.0675 2.01586C24.0426 2.09439 24.0385 2.17652 24.0027 2.25232C23.9947 2.26903 23.9778 2.2911 23.9609 2.30038C23.9101 2.33173 23.8722 2.29481 23.8402 2.25789C23.8063 2.21999 23.7676 2.19411 23.7256 2.16451C23.629 2.09624 23.5283 2.02678 23.4086 1.99827C23.3169 1.97599 23.1036 1.97053 23.1345 1.83553C23.1694 1.68764 23.3897 1.66831 23.5182 1.66077C23.6518 1.65335 23.7574 1.59055 23.8859 1.57121C24.0215 1.54991 24.1541 1.60256 24.2896 1.58781C24.4511 1.56935 24.6066 1.50284 24.7572 1.45008C24.8149 1.43064 25.139 1.31235 25.1598 1.42966C25.1817 1.54718 24.789 1.52042 24.7271 1.52883ZM28.2685 9.83695C28.1898 9.86458 28.0542 9.86928 28.0224 9.95982C28.0015 10.018 28.0493 10.0808 28.0741 10.1308C28.109 10.2057 28.1339 10.2814 28.108 10.3637C28.0782 10.4561 27.9216 10.5411 27.8181 10.4995C27.7503 10.4717 27.7632 10.3499 27.7642 10.2962C27.7653 10.1585 27.7801 10.0208 27.7781 9.88413C27.7772 9.79905 27.7781 9.75656 27.7322 9.68262C27.6924 9.61697 27.6615 9.55701 27.6765 9.48023C27.7372 9.46909 27.7511 9.51354 27.7861 9.54685C27.8181 9.57831 27.8619 9.6042 27.9046 9.62167C27.9874 9.65597 28.072 9.68546 28.1647 9.67617C28.2136 9.67159 28.3759 9.61053 28.4129 9.66044C28.463 9.72794 28.3185 9.81936 28.2685 9.83695Z" fill="#AD2323"/>
<path d="M1.35519 13.1464C1.35519 13.1464 0.889183 12.7695 0.89413 12.4293C0.89896 12.0891 0.839589 11.9558 1.03796 11.9648C1.23622 11.9741 2.00473 12.2039 2.12878 12.0891C2.25282 11.9741 2.47074 12.0337 3.08577 11.5787C3.70056 11.1236 4.12204 11.0271 4.28566 10.9535C4.44928 10.88 5.16326 10.7053 4.86075 10.9765C4.55836 11.2477 4.45423 11.2477 4.43927 11.4592C4.42443 11.6707 4.25586 12.02 4.13688 12.1764C4.01791 12.3328 3.81965 12.4983 3.7948 12.7511C3.77006 13.004 3.86913 13.289 3.68583 13.4683C3.5023 13.6478 3.40312 13.7901 3.5122 13.404C3.6214 13.0178 3.6512 12.8984 3.45777 12.8524C3.26435 12.8064 2.51068 12.8616 2.49595 12.7099C2.48111 12.5581 2.67936 12.2776 2.53541 12.2776C2.3917 12.2776 2.352 12.4432 2.21323 12.4156C2.07435 12.3881 1.96527 12.4202 1.96527 12.5213C1.96527 12.6226 2.0495 12.742 1.92074 12.6869C1.79187 12.6316 1.69752 12.572 1.59338 12.6501C1.48925 12.7283 1.29594 12.8663 1.31573 12.6869C1.33564 12.5076 1.37522 12.4339 1.26119 12.3696C1.14716 12.3053 0.938894 12.2087 1.02312 12.3329C1.10758 12.457 1.18191 12.457 1.18686 12.5948C1.19181 12.733 1.10252 12.7421 1.26614 12.8707C1.42952 12.9994 1.65263 13.3304 1.35519 13.1464Z" fill="#AD2323"/>
<path d="M1.86348 12.9621C1.86348 13.0294 1.78561 13.084 1.68996 13.084C1.59396 13.084 1.51633 13.0294 1.51633 12.9621C1.51633 12.8948 1.59396 12.8403 1.68996 12.8403C1.7855 12.8403 1.86348 12.8948 1.86348 12.9621Z" fill="#AD2323"/>
<path d="M2.3394 12.8934C2.3394 12.9428 2.29381 12.9829 2.23762 12.9829C2.18155 12.9829 2.13608 12.9428 2.13608 12.8934C2.13608 12.8438 2.18155 12.8037 2.23762 12.8037C2.29393 12.8037 2.3394 12.8438 2.3394 12.8934Z" fill="#AD2323"/>
<path d="M4.6598 11.365C4.6671 11.3665 4.92272 11.4454 4.87301 11.5879C4.82365 11.7303 4.79138 11.7074 4.68972 11.6889C4.58806 11.6705 4.55083 11.7028 4.55331 11.6316C4.55578 11.5603 4.55071 11.3419 4.6598 11.365Z" fill="#AD2323"/>
<path d="M5.03047 10.7609C5.03047 10.7989 4.97958 10.8298 4.91703 10.8298C4.85436 10.8298 4.80371 10.7989 4.80371 10.7609C4.80371 10.7229 4.85448 10.6919 4.91703 10.6919C4.97958 10.692 5.03047 10.7229 5.03047 10.7609Z" fill="#AD2323"/>
<path d="M69.1861 26.2999C69.1222 26.3831 68.9408 26.6447 68.888 26.5033C68.8362 26.3619 68.7913 26.1586 68.6167 26.0726C68.4425 25.9867 67.9591 25.6827 67.4457 25.666C66.9325 25.6484 66.5377 25.5763 66.3743 25.6281C66.2107 25.6798 66.1479 25.7972 65.9427 25.7177C65.7382 25.6382 65.4155 25.3656 65.2847 25.4313C65.1542 25.4969 64.9759 25.7593 64.9578 25.6041C64.9388 25.4489 65.0584 25.3415 64.924 25.2279C64.7904 25.1142 64.5374 25.0487 64.582 24.8832C64.6269 24.7177 64.6786 24.3415 64.4476 24.1836C64.2173 24.0246 63.4698 23.2974 63.4698 23.2974C63.4698 23.2974 63.9383 22.6144 63.8645 22.3934C63.7898 22.1726 63.7419 21.8593 63.7338 21.7419C63.7268 21.6245 63.701 21.1838 63.4699 21.1838C63.2396 21.1838 62.9943 21.242 62.9535 21.3594C62.9127 21.4767 62.8786 21.5183 62.7113 21.473C62.5438 21.4287 62.2766 21.4315 62.1908 21.2493C62.1052 21.0664 62.0684 20.9795 62.0795 20.9628C62.0902 20.9452 62.5181 20.6762 62.4919 20.5007C62.4661 20.3252 62.5559 20.266 62.3545 20.2522C62.1542 20.2382 61.7674 20.2319 61.6776 20.3557C61.5881 20.4795 61.4434 20.5802 61.3357 20.5868C61.2282 20.5941 60.8675 20.7596 60.7299 20.6005C60.5923 20.4417 60.2236 19.9972 60.1198 19.7735C60.0152 19.5488 59.9974 19.3733 59.8707 19.3318C59.7442 19.2902 59.2539 19.1866 59.2539 19.1866C59.2539 19.1866 59.2378 18.694 59.2539 18.7042C59.2539 18.7015 58.3547 17.8596 58.1525 17.8115C57.9481 17.7635 57.6201 17.6489 57.6021 17.501C57.5832 17.3531 57.5654 17.2939 57.4755 17.1488C57.3869 17.0047 57.3122 16.5324 57.1745 16.3799C57.037 16.2283 56.3791 15.8595 56.4869 15.5286C56.5945 15.1979 56.754 14.8974 56.6952 14.7219C56.6363 14.55 56.3333 13.9733 56.3186 13.9456C56.182 14.0158 55.8809 14.0879 55.4712 14.2256C54.9579 14.3975 54.3479 14.9077 54.3479 14.9077C54.3479 14.9077 53.5598 14.9253 53.5376 14.9253C53.5157 14.9253 52.3475 16.1424 52.3475 16.1424C52.3475 16.1424 51.7485 15.7801 51.4622 15.8079C51.1762 15.8357 51.1762 16.1083 51.2061 16.294C51.2362 16.4807 51.0198 16.4908 50.8973 16.5842C50.7745 16.6765 49.9044 16.6663 49.7967 16.6802C49.6882 16.6939 49.6443 16.8078 49.4769 17.0286C49.3095 17.2495 48.8041 17.6284 48.8041 17.6284C48.8041 17.6284 47.8632 17.5803 47.8513 17.5803C47.8402 17.5803 47.6549 17.7355 47.5173 17.8632C47.3798 17.9906 47.554 18.7799 47.554 18.7799C47.554 18.7799 46.8993 18.7975 46.8025 18.8251C46.7059 18.8529 45.6762 18.7522 45.4749 18.7004C45.2747 18.6487 44.7572 18.9971 44.7572 18.9971L43.8164 18.4555C43.8164 18.4555 43.7307 18.5008 43.6639 18.5628C43.5971 18.6247 43.4405 18.6108 43.3437 18.6736C43.2473 18.7355 43.3517 18.9075 43.3437 19.0728C43.3369 19.2383 42.5443 18.9591 42.5443 18.9591V18.2938L41.3134 19.2004L41.9294 20.4831L40.2649 21.1725L40.4434 22.1319L41.0982 23.6207L40.2649 24.6964L40.7044 25.3931L40.0865 27.5243L40.4433 28.2619H41.6334L43.3368 29.1999L45.1887 28.297L46.2453 29.041L46.684 30.2968L48.1043 30.6138L47.6208 31.489L48.5061 32.7791L49.5246 32.5L51.1315 33.5101L50.8046 33.9991L51.4215 34.3723L51.25 35.5508L50.061 35.1857L49.7032 35.4408L50.321 37.3787L50.8563 37.1579L51.2281 37.9093L50.5363 38.5238L50.4398 39.5996L50.9161 39.3649L51.4215 40.1236L52.6415 40.5856L52.6785 41.0062L54.054 41.1994L55.7505 40.7299L56.449 41.3925H57.7288L58.7394 42.4745C58.7394 42.4745 58.7624 41.5579 59.1422 41.4747C59.5211 41.3925 59.7741 41.3093 59.9077 41.4194C60.0413 41.5302 60.8746 41.8814 61.2462 41.9303C61.2462 41.9303 61.1128 41.3231 61.1725 41.1235C61.2314 40.923 61.1575 40.5996 61.1206 40.4265C61.0831 40.2538 61.0309 40.0338 61.1206 39.8195C61.2096 39.6059 61.3359 39.2752 61.3509 38.9507C61.366 38.6264 61.5214 38.447 61.1426 38.337C60.7629 38.2271 60.6814 37.7715 60.8747 37.668C61.0681 37.5645 61.336 37.5996 61.2912 37.3511C61.2463 37.1024 61.1675 37.0249 61.1526 36.8455C61.1377 36.6663 61.0179 36.413 61.033 36.2244C61.048 36.0358 61.0877 35.8844 60.9643 35.9306C60.8397 35.9768 60.1859 36.2244 59.9576 36.1238C59.7292 36.0221 58.9807 35.5535 59.0057 35.4389C59.0305 35.3235 59.1741 35.0711 59.3275 35.1441C59.4811 35.2182 59.9176 35.5073 60.1357 35.4296C60.354 35.3512 60.6813 35.2366 60.7708 35.1025C60.8595 34.9694 61.1424 34.4638 61.2911 34.3723C61.4399 34.2799 61.311 34.3169 61.1725 34.1561C61.0329 33.9953 60.721 33.8068 60.9342 33.7142C61.1475 33.6228 61.3558 33.4343 61.3558 33.4343L60.7306 32.8179L60.7509 31.2553L62.0245 30.5427L64.4396 30.5242L65.3815 29.6417L66.2197 29.8394C66.2197 29.8394 66.3136 29.0529 66.4967 28.9429C66.6803 28.832 66.7997 28.8043 66.9433 28.8644C67.0869 28.9244 67.8803 29.393 68.0737 29.0852C68.2671 28.7766 68.1933 28.5058 68.4016 28.3265C68.61 28.1472 69.2438 27.7516 69.3134 27.4993C69.3835 27.2461 69.5168 26.4632 69.5168 26.4632C69.4003 26.3674 69.2368 26.2325 69.1861 26.2999ZM54.6699 25.0515C54.6507 25.1771 54.4713 25.1974 54.3648 25.2094C54.0877 25.239 53.8254 25.3204 53.7557 25.6013C53.7227 25.7335 53.7128 25.8638 53.6242 25.9765C53.5294 26.0985 53.3819 26.1853 53.2315 26.2361C52.9494 26.3341 52.6112 26.261 52.3494 26.1418C52.2396 26.0919 52.1181 26.0124 52.0881 25.895C52.0554 25.7676 52.1819 25.7324 52.2955 25.7361C52.3674 25.7388 52.4341 25.7564 52.5048 25.7583C52.5844 25.761 52.6643 25.762 52.7421 25.7767C52.7829 25.7852 52.8209 25.7998 52.8626 25.8026C52.9902 25.8109 53.1088 25.7925 53.1986 25.7065C53.2862 25.6243 53.3899 25.5845 53.4248 25.4616C53.4665 25.3139 53.4029 25.1614 53.363 25.019C53.3233 24.8729 53.3233 24.7306 53.349 24.5827C53.3749 24.4385 53.4179 24.2972 53.4208 24.1503C53.4237 23.9793 53.388 23.8083 53.394 23.6355C53.398 23.533 53.4099 23.2678 53.5762 23.2705C53.7228 23.2724 53.8446 23.4636 53.9026 23.5662C53.9802 23.7039 54.001 23.8426 53.9523 23.9923C53.9103 24.1188 53.7838 24.2806 53.8207 24.4183C53.8378 24.4886 53.9066 24.5302 53.9704 24.5634C54.0719 24.6152 54.1806 24.6511 54.2852 24.6974C54.4166 24.7557 54.6957 24.8786 54.6699 25.0515Z" fill="#AD2323"/>
<path d="M62.3284 44.651C62.3284 44.651 62.2826 45.4513 62.1929 45.6398C62.1043 45.8284 61.8412 46.2886 61.7176 46.4263C61.593 46.5641 61.1874 46.904 61.1175 47.222C61.0477 47.539 60.8842 48.1323 60.6511 48.284C60.4188 48.4355 59.3773 48.8497 59.3623 49.0103C59.3473 49.1711 59.3024 49.4047 59.0944 49.5344C58.8859 49.6629 58.6975 49.9345 58.4553 49.9934C58.2123 50.0537 58.2172 50.1452 58.0776 50.2838C57.943 50.417 57.7477 50.6053 57.7357 50.6165H57.7347C57.7008 50.5914 57.6619 50.5711 57.6121 50.5546C57.4236 50.4908 57.1757 50.3893 57.1757 50.3893L54.602 51.2302L53.8086 52.5776L52.0633 52.522C52.0633 52.522 51.1115 50.2487 50.2396 49.3291L46.7022 49.7534C46.7022 49.7534 46.6095 49.3643 46.6095 49.2467C46.6095 49.1295 46.4389 48.8883 46.2976 48.7848C46.1559 48.6812 45.9258 48.2949 45.866 48.136C45.8061 47.978 45.3905 47.6952 45.1225 47.4124C44.8543 47.1295 44.9291 47.0122 44.8922 46.7366C44.8543 46.4605 45.0408 46.405 45.249 46.2192C45.4573 46.0335 44.8542 45.6259 44.8542 45.6259L45.6946 45.3024L46.5358 44.7571V43.2812L47.8214 43.5096L47.8744 42.785L47.2424 42.1574L47.7029 41.0401L48.7296 40.8812L49.0714 40.1918L49.9496 40.3573L50.44 39.5995L50.9163 39.3647L51.4217 40.1234L52.6417 40.5854L52.6787 41.0061L54.0542 41.1993L55.7507 40.7297L56.4492 41.3924H57.729L58.7396 42.4744C58.7396 42.4744 58.7626 41.5577 59.1424 41.4745C59.5213 41.3924 59.7743 41.3092 59.9079 41.4192C60.0415 41.5301 60.8748 41.8813 61.2464 41.9302C61.2464 41.9302 61.8814 43.8376 62.0946 44.2924C62.166 44.4449 62.2438 44.565 62.3284 44.651Z" fill="#AD2323"/>
<path d="M51.2498 35.5511L51.4213 34.3725L50.8044 33.9993L51.1313 33.5103L49.5244 32.5003L48.5059 32.7793L47.6207 31.4893L48.1041 30.6141L46.6838 30.2971L46.2451 29.0413L45.1885 28.2973L43.3366 29.2002L41.6332 28.2622H40.4431L38.5174 28.8185L39.0227 30.421L37.4828 30.6687L37.6621 31.738L36.5837 32.6761L37.0293 33.7518L36.472 35.1379L36.2617 35.1315C36.2389 35.2055 36.2068 35.2785 36.2 35.3542C36.188 35.4679 36.1741 35.563 36.1113 35.6628C36.0425 35.772 36.0047 35.8726 35.9797 35.9974C35.9598 36.0945 35.9298 36.2543 35.8023 36.2793C35.6089 36.3172 35.6479 36.001 35.6787 35.9105C35.7614 35.6722 35.7793 35.4014 35.7803 35.1518C35.7803 35.1399 35.7803 35.1278 35.7793 35.1159L35.1704 35.0964L34.2703 36.9233L34.969 39.3308L34.3072 40.0267L33.9135 39.6061L33.4002 39.8685C33.4002 39.8685 33.6084 40.7789 33.5936 40.7992C33.5786 40.8196 32.9616 41.0884 32.9616 41.0884L33.3255 42.082L33.0234 43.1069C33.0475 43.1162 33.187 43.314 33.5987 43.314C34.0104 43.314 34.1588 43.2226 34.2675 43.3326C34.3772 43.4435 34.3872 43.7141 34.6692 43.5616C34.9523 43.4101 34.8775 43.3326 35.1456 43.3602C35.4137 43.3879 35.5075 43.3962 35.5075 43.3962C35.5075 43.3962 35.4785 43.7326 35.6509 43.8102C35.8233 43.888 36.4034 44.1282 36.4294 44.1328C36.4304 44.1328 36.4304 44.1328 36.4304 44.1328C36.4444 44.1328 37.8478 44.105 37.8478 44.105C37.8478 44.105 38.1308 43.6679 38.3193 43.7002C38.5066 43.7326 38.5964 43.8288 38.8097 43.8612C39.0229 43.8934 39.5931 43.971 39.7367 44.0405C39.8812 44.1098 40.1245 44.1874 40.3566 44.1829C40.5899 44.1781 41.0763 44.0544 41.3334 44.2244C41.5915 44.3945 41.6612 44.4913 41.78 44.4913C41.8985 44.4913 41.9683 44.486 42.053 44.5921C42.1368 44.6985 42.3998 45.3092 42.702 45.3139C43.005 45.3185 43.6887 45.1254 43.7235 45.2676C43.7584 45.41 43.9866 45.8102 44.1353 45.7742C44.2838 45.7371 44.8538 45.6263 44.8538 45.6263L45.6942 45.3027L46.5354 44.7575V43.2816L47.821 43.51L47.874 42.7854L47.2421 42.1578L47.7025 41.0406L48.7293 40.8816L49.071 40.1922L49.9492 40.3577L50.4396 39.5999L50.5362 38.5241L51.2279 37.9096L50.8561 37.1583L50.3208 37.379L49.703 35.4412L50.0609 35.186L51.2498 35.5511ZM46.8782 37.9039C46.8595 37.9676 46.8604 38.0388 46.8504 38.1017C46.8333 38.1987 46.8226 38.2495 46.7408 38.3189C46.6959 38.3569 46.6341 38.3964 46.5813 38.4289C46.4666 38.4991 46.4039 38.5823 46.37 38.707C46.3341 38.843 46.2873 38.9723 46.2444 39.1025C46.2106 39.2061 46.1517 39.3002 46.0849 39.388C46.068 39.4102 45.8916 39.596 45.8725 39.5822C45.79 39.5212 45.7441 39.4325 45.6274 39.4343C45.5657 39.4343 45.4978 39.4389 45.437 39.4316C45.4182 39.3298 45.5228 39.2968 45.6024 39.2552C45.6841 39.2126 45.7232 39.1608 45.7799 39.0915C46.0183 38.8023 46.1796 38.4667 46.3979 38.1636C46.4357 38.1119 46.4737 38.0528 46.5105 37.9992C46.5683 37.9141 46.642 37.8411 46.698 37.7553C46.7447 37.6812 46.8234 37.6563 46.9192 37.6711C46.9291 37.7513 46.9002 37.8263 46.8782 37.9039Z" fill="#AD2323"/>
<path d="M37.6625 31.738L36.584 32.6761L37.0297 33.7518L36.4724 35.1378L36.2621 35.1315C36.2711 35.1056 36.278 35.0796 36.2831 35.0529C36.292 35.0021 36.293 34.9494 36.274 34.8967C36.2541 34.8421 36.2322 34.7978 36.2331 34.7396C36.2341 34.6481 36.259 34.5584 36.2572 34.467C36.2552 34.4023 36.2322 34.3182 36.1455 34.3745C36.1017 34.4031 36.0778 34.4595 36.0348 34.4928C35.9561 34.5539 35.8604 34.6185 35.8256 34.7129C35.7936 34.7997 35.7887 34.9004 35.7807 34.9929C35.7777 35.0325 35.7797 35.075 35.7797 35.1158L35.1708 35.0962L34.2707 36.9232L34.9694 39.3307L34.3076 40.0265L33.9139 39.606L33.4006 39.8684C33.4006 39.8684 33.6088 40.7787 33.594 40.7991C33.579 40.8195 32.962 41.0883 32.962 41.0883L33.3259 42.0819L33.0238 43.1068C32.999 43.0975 32.5774 43.1669 32.2506 43.2085C31.9236 43.25 31.0853 43.8933 31.0853 43.8933L30.0488 43.6955L29.9501 43.3786L30.1425 43.0976L29.7318 42.8269L29.1867 43.0016H29.1856L28.8268 42.5645L28.462 42.3714L28.7082 42.0126L28.76 41.6265L28.507 40.7439L27.3915 40.6479L26.7736 39.5027L27.4653 39.0961L27.3018 38.1794L25.2196 37.6757L24.5647 38.0619L24.4013 38.6821L23.8362 38.6405L23.3309 39.0544L22.4976 38.9371L21.9325 39.2616L21.0474 38.3856L20.1922 38.1924L20.0058 37.2553L18.9723 36.82L17.8639 37.0409L17.4403 36.1037L16.4356 35.6759L16.3388 35.8828L16.0788 35.9309L15.5216 35.6277L15.4698 34.6825L15.3652 34.6344L14.7702 34.8479L14.0634 34.2832L14.48 33.7242L13.9449 33.4008L13.5501 33.6346L13.2342 33.2834L13.4903 30.0211L12.9849 29.4833L13.4165 28.89L12.4716 27.2976C12.4716 27.2976 12.6201 26.2625 12.6281 26.2421C12.6351 26.2219 13.6985 25.8004 13.6985 25.8004L13.5201 24.9179L13.9966 23.4975L13.5201 22.663L13.7474 22.1667L14.6085 22.3599L16.3239 21.8497L16.3987 21.6151L16.4635 20.9487L16.8603 20.4562L17.7374 20.2408L17.9157 19.7028C17.9157 19.7028 18.5806 19.836 18.6006 19.8314C18.6205 19.8267 18.6256 19.5283 18.6256 19.5283L18.5508 19.2428L19.2256 18.6956L18.4571 17.9231C18.4571 17.9231 17.4604 17.6753 17.3956 17.5968C17.3309 17.5192 17.1075 17.3168 17.1474 17.1052C17.1873 16.8935 17.286 16.6136 17.599 16.5767C17.9109 16.5397 19.2545 16.2911 19.2545 16.2911L19.3392 14.9954L20.5043 14.793L21.226 16.1635L21.7134 16.522L21.9436 16.5433L22.3004 16.3123L23.6649 16.2291L24.234 16.6089L23.5094 17.7299L24.5449 18.3971L24.5948 19.969L24.3765 22.1529L25.0711 22.5161L25.9433 23.2332L26.1468 24.6075L25.5317 24.8652L25.8148 25.868L26.4149 25.9733L27.257 25.7017L27.842 26.4141L28.5118 26.0427L29.8155 26.4141L30.0586 26.8698L32.1806 27.7385L32.7657 27.0214L33.6879 27.7108L34.1045 27.366L35.3693 27.6655L35.6026 28.2033C35.6026 28.2033 36.351 29.145 36.7179 28.975C37.0847 28.8049 37.8431 28.3779 37.8431 28.3779L38.5179 28.8187L39.0232 30.4212L37.4833 30.6689L37.6625 31.738Z" fill="#AD2323"/>
<path d="M53.0584 26.5459L53.4565 27.294L54.347 27.4139L53.7025 27.9963L53.8547 28.8186L53.0584 28.4303L52.262 28.8186L52.414 27.9963L51.7697 27.4139L52.6603 27.294L53.0584 26.5459Z" fill="#AD2323"/>
<path d="M15.0752 14.4997C15.0752 14.7212 14.8815 14.9007 14.6426 14.9007C14.4036 14.9007 14.2099 14.7212 14.2099 14.4997C14.2099 14.2781 14.4036 14.0986 14.6426 14.0986C14.8815 14.0987 15.0752 14.2783 15.0752 14.4997Z" fill="#AD2323"/>
<path d="M18.5384 46.0868C18.5384 46.3083 18.3448 46.4879 18.1059 46.4879C17.8669 46.4879 17.6732 46.3085 17.6732 46.0868C17.6732 45.8651 17.8669 45.6855 18.1059 45.6855C18.3448 45.6855 18.5384 45.865 18.5384 46.0868Z" fill="#AD2323"/>
<path d="M67.8724 15.6135C67.8724 15.8351 67.6787 16.0146 67.4398 16.0146C67.2008 16.0146 67.0071 15.8351 67.0071 15.6135C67.0071 15.392 67.2008 15.2124 67.4398 15.2124C67.6787 15.2124 67.8724 15.392 67.8724 15.6135Z" fill="#AD2323"/>
<path d="M48.2236 60.8318C48.2236 61.0533 48.0301 61.2329 47.7909 61.2329C47.552 61.2329 47.3584 61.0534 47.3584 60.8318C47.3584 60.6102 47.552 60.4307 47.7909 60.4307C48.0299 60.4307 48.2236 60.6101 48.2236 60.8318Z" fill="#AD2323"/>
<path d="M58.6135 46.742C58.6135 46.9635 58.4198 47.143 58.1808 47.143C57.9418 47.143 57.7481 46.9636 57.7481 46.742C57.7481 46.5204 57.9419 46.3408 58.1808 46.3408C58.4197 46.3408 58.6135 46.5203 58.6135 46.742Z" fill="#AD2323"/>
</svg>
