<svg width="30" height="39" viewBox="0 0 30 39" fill="none" xmlns="http://www.w3.org/2000/svg">
<path d="M28.2658 37.8364C26.806 38.723 24.9052 38.2573 24.0208 36.7998L16.1778 23.8856L21.4595 20.6772L29.3024 33.5914C30.189 35.0489 29.7256 36.9498 28.2658 37.8364Z" fill="#B74E74"/>
<path d="M24.9475 6.47633C21.0966 0.117766 12.8125 -1.89727 6.47634 1.9537C0.117778 5.80466 -1.89727 14.0887 1.95369 20.4249C5.80466 26.7834 14.0887 28.7985 20.4249 24.9475C26.7834 21.0742 28.7985 12.8125 24.9475 6.47633ZM18.2083 21.2981C13.8872 23.9176 8.2451 22.5519 5.60316 18.2083C2.98361 13.8872 4.34934 8.2227 8.69286 5.60315C13.014 2.96121 18.6785 4.34935 21.2981 8.67049C23.94 13.014 22.5519 18.6561 18.2083 21.2981Z" fill="#DD7070"/>
</svg>
