<svg width="67" height="71" viewBox="0 0 67 71" fill="none" xmlns="http://www.w3.org/2000/svg">
<path d="M55.2569 34.431C55.2569 22.3538 45.4677 12.561 33.3869 12.561C21.3097 12.561 11.4752 22.4304 11.5169 34.5077C11.5378 40.5045 13.9721 45.9337 17.9004 49.8724C20.958 52.9404 23.1937 51.8086 24.3256 55.9911L26.0877 62.5138H40.4251L42.0967 56.3358C43.2494 52.0663 45.5652 53.1285 48.7203 50.0256C52.7565 46.0556 55.2569 40.5358 55.2569 34.431Z" fill="#F7ABAB"/>
<path d="M27.665 35.0063C25.5442 35.0063 23.8168 36.7337 23.8168 38.8545C23.8168 40.9753 25.5442 42.7026 27.665 42.7026C28.4834 42.7026 29.246 42.4449 29.8694 42.0061V66.2616H31.5131V38.8545C31.5131 36.7302 29.7893 35.0063 27.665 35.0063ZM27.665 41.0589C26.4496 41.0589 25.4606 40.0699 25.4606 38.8545C25.4606 37.6391 26.4496 36.6501 27.665 36.6501C28.8804 36.6501 29.8694 37.6391 29.8694 38.8545C29.8694 40.0699 28.8804 41.0589 27.665 41.0589Z" fill="white"/>
<path d="M39.1091 38.355C36.9883 38.355 35.261 40.0823 35.261 42.2031L35.0764 66.2601H36.7201L36.9048 45.3548C37.5281 45.7935 38.2908 46.0513 39.1091 46.0513C41.23 46.0513 42.9573 44.3239 42.9573 42.2031C42.9573 40.0823 41.2335 38.355 39.1091 38.355ZM39.1091 44.4075C37.8938 44.4075 36.9048 43.4185 36.9048 42.2031C36.9048 40.9877 37.8938 39.9987 39.1091 39.9987C40.3245 39.9987 41.3135 40.9877 41.3135 42.2031C41.3135 43.4185 40.328 44.4075 39.1091 44.4075Z" fill="white"/>
<path d="M33.2959 70.7244C29.1726 70.7244 25.8295 67.3812 25.8295 63.2579V61.5132H40.7623V63.2579C40.7623 67.3812 37.4192 70.7244 33.2959 70.7244Z" fill="#B74E74"/>
<path d="M40.8008 64.9764H25.7426C25.4257 64.9764 25.168 64.7187 25.168 64.4018C25.168 64.0849 25.4257 63.8271 25.7426 63.8271H40.8008C41.1177 63.8271 41.3755 64.0849 41.3755 64.4018C41.379 64.7187 41.1212 64.9764 40.8008 64.9764Z" fill="#DD7070"/>
<path d="M40.9198 67.408H25.858C25.5411 67.408 25.2834 67.1503 25.2834 66.8334C25.2834 66.5165 25.5411 66.2588 25.858 66.2588H40.9198C41.2367 66.2588 41.4944 66.5165 41.4944 66.8334C41.4909 67.1503 41.2367 67.408 40.9198 67.408Z" fill="#DD7070"/>
<path d="M6.84307 33.4637H1.10395C0.494517 33.4637 0 32.9692 0 32.3598C0 31.7504 0.494517 31.2559 1.10395 31.2559H6.84307C7.4525 31.2559 7.94702 31.7504 7.94702 32.3598C7.94702 32.9692 7.4525 33.4637 6.84307 33.4637Z" fill="#F7ABAB"/>
<path d="M8.60116 23.1925L3.5132 20.5354C2.97342 20.2533 2.76451 19.5882 3.0466 19.0449C3.32868 18.5051 3.99381 18.2962 4.53708 18.5783L9.62498 21.2354C10.1648 21.5175 10.3737 22.1826 10.0916 22.7259C9.80956 23.2622 9.14095 23.4746 8.60116 23.1925Z" fill="#F7ABAB"/>
<path d="M8.97102 41.3908L3.88312 44.0479C3.34333 44.33 3.13438 44.9986 3.41646 45.5384C3.69854 46.0782 4.36372 46.2871 4.90699 46.0051L9.9949 43.3479C10.5347 43.0658 10.7436 42.4007 10.4616 41.8574C10.176 41.3176 9.51081 41.1087 8.97102 41.3908Z" fill="#F7ABAB"/>
<path d="M14.7935 14.6823L10.7364 10.6252C10.3045 10.1934 10.3045 9.49343 10.7364 9.06508C11.1682 8.63325 11.8647 8.63325 12.2965 9.06508L16.3536 13.1222C16.7855 13.554 16.7855 14.254 16.3536 14.6823C15.9253 15.1142 15.2253 15.1142 14.7935 14.6823Z" fill="#F7ABAB"/>
<path d="M21.8141 9.28043L19.8361 3.89303C19.6271 3.32191 19.9196 2.68462 20.4907 2.47567C21.0619 2.26672 21.6957 2.55924 21.9081 3.13036L23.8897 8.51778C24.0986 9.08891 23.8061 9.72271 23.235 9.93515C22.6603 10.1441 22.0265 9.85155 21.8141 9.28043Z" fill="#F7ABAB"/>
<path d="M60.1568 32.7279H65.8959C66.5054 32.7279 66.9999 32.2334 66.9999 31.6239C66.9999 31.0145 66.5054 30.52 65.8959 30.52H60.1568C59.5473 30.52 59.0529 31.0145 59.0529 31.6239C59.0563 32.2334 59.5473 32.7279 60.1568 32.7279Z" fill="#F7ABAB"/>
<path d="M58.3982 22.4558L63.4861 19.7986C64.0259 19.5165 64.2348 18.8514 63.9528 18.3081C63.6707 17.7683 63.0055 17.5594 62.4622 17.8414L57.3743 20.4986C56.8345 20.7807 56.6256 21.4458 56.9077 21.9891C57.1932 22.5289 57.8584 22.7378 58.3982 22.4558Z" fill="#F7ABAB"/>
<path d="M58.0321 40.6549L63.12 43.3121C63.6598 43.5941 63.8687 44.2593 63.5866 44.8026C63.3045 45.3424 62.6359 45.5513 62.0961 45.2692L57.0082 42.6121C56.4685 42.33 56.2595 41.6614 56.5416 41.1216C56.8237 40.5818 57.4923 40.3728 58.0321 40.6549Z" fill="#F7ABAB"/>
<path d="M52.2059 13.9436L56.2629 9.88646C56.6948 9.45463 56.6948 8.75466 56.2629 8.32631C55.8311 7.89448 55.1346 7.89448 54.7028 8.32631L50.6457 12.3869C50.2139 12.8187 50.2139 13.5152 50.6457 13.947C51.0741 14.3754 51.774 14.3754 52.2059 13.9436Z" fill="#F7ABAB"/>
<path d="M45.1848 8.54654L47.1663 3.15915C47.3753 2.58802 47.0827 1.95422 46.5116 1.74178C45.9405 1.53284 45.3067 1.82535 45.0942 2.39648L43.1127 7.78387C42.9037 8.355 43.1963 8.98883 43.7674 9.20126C44.342 9.41021 44.9758 9.11767 45.1848 8.54654Z" fill="#F7ABAB"/>
<path d="M32.2826 6.84307V1.10393C32.2826 0.494491 32.7771 0 33.3865 0C33.996 0 34.4905 0.494491 34.4905 1.10393V6.84307C34.4905 7.4525 33.996 7.94702 33.3865 7.94702C32.7771 7.94702 32.2826 7.4525 32.2826 6.84307Z" fill="#F7ABAB"/>
</svg>
