<svg width="37" height="37" viewBox="0 0 37 37" fill="none" xmlns="http://www.w3.org/2000/svg">
<path d="M31.1383 37H5.8616C2.62463 37 0 34.3753 0 31.1384V5.86167C0 2.6247 2.62463 0 5.8616 0H31.1383C34.3753 0 37 2.6247 37 5.86167V31.1384C37 34.3753 34.3753 37 31.1383 37Z" fill="#F7ABAB"/>
<path d="M28.7812 5.89648L28.9411 6.05631C28.8353 7.12104 28.7812 8.97813 28.7812 11.6276L28.6395 11.7694H27.8043L27.6625 11.6096L27.4667 9.97759C27.3721 9.10195 27.2979 8.56619 27.2438 8.37261C27.1898 8.17677 27.1042 8.03496 26.9872 7.94717C26.8679 7.85938 26.4852 7.7851 25.8347 7.72657C25.1841 7.66805 24.4571 7.63878 23.6535 7.63878H20.2994C20.2048 10.313 20.1576 11.8549 20.1576 12.2691V22.6126L20.1936 26.0724C20.2049 27.4095 20.2386 28.2762 20.2904 28.6723C20.3444 29.0685 20.4255 29.3296 20.538 29.4534C20.6506 29.5772 20.8667 29.6853 21.1863 29.7731C21.506 29.8609 22.2983 29.9306 23.5634 29.9779L23.6872 30.0837V30.9706L23.5634 31.1124C20.5358 31.0179 18.843 30.9706 18.4896 30.9706C18.1114 30.9706 16.4254 31.0179 13.4338 31.1124L13.292 30.9706V30.0837L13.4338 29.9779C14.5458 29.9306 15.2819 29.8721 15.642 29.8001C16.0022 29.7281 16.2453 29.638 16.3691 29.5255C16.4929 29.4129 16.5965 29.1743 16.6797 28.8074C16.763 28.4405 16.8036 27.6256 16.8036 26.3583L16.8396 22.6148V12.2714C16.8396 12.0823 16.7924 10.5381 16.6978 7.64103H14.0551C12.9678 7.64103 12.0269 7.66354 11.2346 7.71081C10.4422 7.75808 9.98295 7.87964 9.85915 8.07548C9.73534 8.27132 9.62056 8.90611 9.51251 9.98209L9.33466 11.6141L9.17487 11.7739H8.35773L8.21595 11.6321C8.19344 8.7823 8.13938 6.9252 8.05609 6.0608L8.21595 5.90098C10.2734 5.99553 13.6994 6.04281 18.4896 6.04281C23.3743 6.0383 26.8049 5.99103 28.7812 5.89648Z" fill="#B74E74"/>
</svg>
