<svg width="145" height="136" viewBox="0 0 145 136" fill="none" xmlns="http://www.w3.org/2000/svg">
<path d="M45.6253 20.3865C45.1986 20.3865 44.777 20.2316 44.4993 19.942C44.034 19.4486 44.16 18.7493 44.7795 18.3803C47.5739 16.7166 49.3066 15.9194 49.3786 15.8867C50.0521 15.5809 50.9082 15.7644 51.2964 16.2965C51.6846 16.8287 51.4532 17.5117 50.7796 17.8196C50.7616 17.8257 49.1061 18.5903 46.4634 20.1622C46.214 20.3131 45.9184 20.3865 45.6253 20.3865Z" fill="#DD7070"/>
<path d="M51.6436 135.225C50.3942 135.225 49.1088 135.193 47.7901 135.131C47.0163 135.097 46.425 134.569 46.4687 133.955C46.515 133.341 47.2065 132.862 47.9546 132.909C49.2502 132.97 50.4893 133.007 51.7413 132.997C54.0935 132.997 56.3763 132.887 58.528 132.668C59.289 132.587 60.0011 133.021 60.0987 133.631C60.199 134.242 59.654 134.801 58.8828 134.879C56.5871 135.111 54.1706 135.26 51.6436 135.225ZM37.124 133.982C37.0238 133.982 36.9209 133.973 36.8181 133.955C33.0391 133.292 29.4838 132.363 26.2472 131.192C25.5403 130.935 25.2292 130.275 25.5532 129.714C25.8745 129.154 26.71 128.909 27.4169 129.162C30.4735 130.269 33.8412 131.147 37.4274 131.778C38.1832 131.912 38.6639 132.505 38.4968 133.107C38.3503 133.627 37.7693 133.982 37.124 133.982ZM69.1838 132.752C68.6311 132.752 68.1066 132.491 67.8829 132.059C67.5873 131.49 67.9318 130.838 68.6516 130.605C71.9113 129.547 74.8908 128.112 77.5078 126.344C78.0991 125.946 78.986 126.001 79.4873 126.47C79.9911 126.939 79.9192 127.643 79.3279 128.042C76.4847 129.963 73.2507 131.521 69.7133 132.671C69.5411 132.726 69.3611 132.752 69.1838 132.752ZM17.6353 126.766C17.3216 126.766 17.0054 126.682 16.7432 126.511C13.864 124.631 11.3112 122.431 9.1544 119.97C8.71223 119.465 8.86905 118.77 9.50659 118.419C10.1441 118.07 11.0208 118.195 11.4629 118.698C13.4707 120.992 15.8486 123.039 18.5299 124.788C19.1289 125.18 19.2163 125.881 18.7227 126.358C18.4425 126.627 18.0414 126.766 17.6353 126.766ZM85.4823 121.816C85.2226 121.816 84.9604 121.759 84.7239 121.638C84.0709 121.306 83.8807 120.617 84.2997 120.099C86.0812 117.895 87.6339 115.369 88.9142 112.592C89.1815 112.013 89.9836 111.709 90.7163 111.927C91.4438 112.139 91.8217 112.777 91.5543 113.356C90.2047 116.288 88.5594 118.963 86.6674 121.304C86.3974 121.634 85.945 121.816 85.4823 121.816ZM5.28801 112.834C4.72245 112.834 4.18773 112.561 3.97436 112.117C2.71212 109.487 1.73525 106.626 1.07457 103.607C0.94346 103.001 1.45504 102.422 2.21855 102.318C2.97949 102.22 3.70957 102.618 3.84324 103.225C4.47308 106.102 5.39854 108.828 6.59907 111.324C6.87671 111.899 6.51168 112.543 5.78674 112.763C5.62478 112.812 5.45511 112.834 5.28801 112.834ZM93.125 105.79C93.0351 105.79 92.9399 105.782 92.8474 105.768C92.0865 105.645 91.5929 105.06 91.7471 104.455C92.4078 101.843 92.9168 99.013 93.2587 96.0423C93.3307 95.4286 94.0223 94.9678 94.7858 95.0331C95.5596 95.0902 96.1277 95.6325 96.0583 96.2462C95.7061 99.2943 95.1842 102.204 94.503 104.893C94.3667 105.423 93.7806 105.79 93.125 105.79ZM1.42933 95.9648C0.668392 95.9648 0.0436885 95.4816 0.0256933 94.8761C0.0076981 94.3174 0 93.7506 0 93.1818C0 90.9085 0.141379 88.5373 0.413878 86.1416C0.483288 85.5279 1.18253 85.0732 1.9409 85.1324C2.71469 85.1874 3.28284 85.7297 3.21343 86.3434C2.94607 88.6739 2.80981 90.9757 2.80981 93.1838C2.80981 93.7343 2.81752 94.2807 2.83552 94.8231C2.85351 95.4368 2.23912 95.9485 1.46275 95.9628C1.45247 95.9649 1.44218 95.9648 1.42933 95.9648ZM95.2099 88.6535C95.2022 88.6535 95.1971 88.6535 95.1894 88.6535C94.413 88.6433 93.7934 88.1376 93.8037 87.5239C93.8166 86.8715 93.8217 86.2211 93.8217 85.5687C93.8217 83.4584 93.76 81.2381 93.6392 78.9709C93.6058 78.3572 94.2073 77.8373 94.9837 77.8108C95.7935 77.8251 96.4156 78.2614 96.449 78.8771C96.5724 81.1749 96.6341 83.4278 96.6341 85.5687C96.6341 86.2313 96.629 86.8939 96.6161 87.5545C96.6058 88.1641 95.9786 88.6535 95.2099 88.6535ZM3.3214 78.8261C3.23656 78.8261 3.14914 78.82 3.06174 78.8057C2.29823 78.6936 1.79437 78.1125 1.93576 77.507C2.58359 74.7443 3.40365 71.8879 4.37282 69.0233C4.57591 68.4279 5.34713 68.0813 6.09521 68.2342C6.84587 68.3933 7.29061 69.0049 7.08752 69.5982C6.13635 72.4078 5.33427 75.2071 4.6993 77.9148C4.57591 78.451 3.98465 78.8261 3.3214 78.8261ZM94.3384 71.4373C93.6161 71.4373 93.0017 70.9969 92.94 70.4158C92.8243 69.3434 92.7034 68.2832 92.5723 67.2393C92.3975 65.8182 92.3076 64.3624 92.3076 62.9087C92.3076 62.503 92.3153 62.0993 92.3281 61.6956C92.3513 61.0799 92.9991 60.5171 93.7729 60.6109C94.5492 60.6272 95.1611 61.141 95.1405 61.7547C95.1277 62.138 95.1199 62.5213 95.1199 62.9067C95.1199 64.289 95.2048 65.6714 95.3719 67.0191C95.503 68.0732 95.6264 69.1436 95.7421 70.2262C95.8089 70.8399 95.2331 71.3782 94.4593 71.4312C94.4182 71.4353 94.377 71.4373 94.3384 71.4373ZM8.91017 62.187C8.7585 62.187 8.60425 62.1666 8.45515 62.1258C7.72249 61.9239 7.32917 61.2919 7.58111 60.7088C7.93587 59.8871 8.30349 59.0634 8.68139 58.2418C9.55544 56.3375 10.5169 54.4352 11.5375 52.5859C11.8485 52.0212 12.6737 51.7643 13.3884 52.011C14.1005 52.2597 14.4218 52.9162 14.1108 53.479C13.1133 55.2834 12.175 57.1428 11.3215 59.0043C10.9488 59.8137 10.5889 60.6231 10.2392 61.4305C10.0413 61.8954 9.49373 62.187 8.91017 62.187ZM95.0762 54.3027C94.9734 54.3027 94.8706 54.2925 94.7652 54.2741C94.0094 54.1375 93.5338 53.5422 93.7035 52.9428C94.5492 49.9742 95.7498 47.1585 97.2794 44.5671C97.611 44.0105 98.4491 43.7658 99.1483 44.0288C99.8527 44.2898 100.153 44.9545 99.827 45.5111C98.3848 47.9557 97.2485 50.6225 96.449 53.43C96.2999 53.952 95.7189 54.3027 95.0762 54.3027ZM17.6404 46.4306C17.4091 46.4306 17.1751 46.3858 16.9592 46.2899C16.2805 45.9923 16.0363 45.3133 16.4116 44.775C18.1931 42.2305 20.1392 39.735 22.1983 37.3617C22.6405 36.8541 23.5146 36.7236 24.1547 37.0763C24.7922 37.4249 24.9542 38.1182 24.5146 38.6258C22.5042 40.942 20.6045 43.3743 18.8692 45.8597C18.6147 46.2226 18.134 46.4306 17.6404 46.4306ZM104.413 38.9317C104.082 38.9317 103.747 38.8379 103.48 38.6503C102.899 38.2405 102.848 37.5371 103.362 37.0763C106.159 34.5787 109.267 32.7865 112.596 31.7548C113.313 31.5326 114.133 31.814 114.416 32.3869C114.699 32.9619 114.341 33.6082 113.619 33.8325C110.706 34.7377 107.961 36.326 105.462 38.5586C105.184 38.8053 104.799 38.9317 104.413 38.9317ZM133.162 37.6451C132.84 37.6451 132.514 37.5554 132.249 37.378C129.334 35.4024 126.352 34.0751 123.39 33.4328C122.642 33.2697 122.2 32.6581 122.406 32.0627C122.611 31.4714 123.383 31.1208 124.133 31.2818C127.498 32.0118 130.843 33.492 134.077 35.6837C134.668 36.0834 134.738 36.7868 134.231 37.2557C133.954 37.5126 133.558 37.6451 133.162 37.6451ZM29.9466 32.2585C29.6278 32.2585 29.3039 32.1708 29.0416 31.9934C28.4478 31.5958 28.3732 30.8924 28.8745 30.4214C31.2628 28.1807 33.795 26.0379 36.4017 24.0541C36.9621 23.6279 37.8516 23.6422 38.3889 24.0867C38.9261 24.5311 38.9081 25.2366 38.3477 25.6627C35.8104 27.5935 33.3451 29.6813 31.0211 31.8629C30.7461 32.1218 30.3476 32.2585 29.9466 32.2585Z" fill="#DD7070"/>
<path d="M143.594 47.7351C143.124 47.7351 142.663 47.5475 142.399 47.205C141.427 45.9613 140.435 44.7828 139.445 43.7042C138.99 43.2067 139.126 42.5094 139.756 42.1486C140.381 41.7877 141.262 41.8937 141.72 42.3953C142.748 43.5167 143.782 44.74 144.789 46.0326C145.198 46.5546 144.995 47.2417 144.334 47.5658C144.103 47.678 143.848 47.7351 143.594 47.7351Z" fill="#DD7070"/>
<path d="M83.0185 1.45167L69.0568 8.86499C69.612 10.0149 69.0979 11.3809 67.7508 12.0966C66.1698 12.9366 64.0284 12.588 62.9693 11.3341C61.9101 10.0801 62.3317 8.39198 63.9127 7.55196C65.1338 6.9036 66.6814 6.94846 67.8177 7.58458L82.1033 0L47.3135 2.74431L52.3778 8.7447L42.6398 13.9153L51.8662 24.8456L61.6042 19.6751L67.0182 26.0873L83.0185 1.45167Z" fill="#DD7070"/>
<path d="M55.77 24.8382L43.8416 10.7061L38.9004 13.3295L50.8288 27.4617L55.77 24.8382Z" fill="#B74E74"/>
</svg>
