<svg width="277" height="297" viewBox="0 0 277 297" fill="none" xmlns="http://www.w3.org/2000/svg">
<path d="M222.573 256.449C223.239 256.645 223.937 256.49 224.253 256.042C224.628 255.508 224.317 254.755 223.562 254.363C223.479 254.321 221.46 253.28 217.905 251.871C217.103 251.565 216.237 251.771 215.967 252.352C215.697 252.936 216.131 253.664 216.929 253.981C220.269 255.302 222.187 256.289 222.205 256.299C222.322 256.362 222.447 256.412 222.573 256.449Z" fill="#DD7070"/>
<path d="M87.0317 256.082C89.3984 256.781 91.8031 257.406 94.1842 257.943C95.0305 258.133 95.7939 257.768 95.8903 257.124C95.9866 256.481 95.3673 255.791 94.5347 255.616C90.6526 254.739 86.7274 253.628 82.9535 252.314C82.1139 252.023 81.286 252.287 81.0621 252.895C80.8387 253.501 81.3233 254.225 82.1408 254.509C83.7322 255.063 85.3779 255.593 87.0317 256.082ZM70.9144 249.853C71.6047 250.057 72.3268 249.885 72.6284 249.407C72.9776 248.854 72.6331 248.098 71.8562 247.72C68.2039 245.943 64.7573 243.971 61.6115 241.861C60.9121 241.386 59.9531 241.399 59.4695 241.876C58.9886 242.355 59.1653 243.124 59.8664 243.592C63.1636 245.803 66.7701 247.867 70.5883 249.725C70.6937 249.776 70.804 249.82 70.9144 249.853ZM106.066 259.902C106.184 259.938 106.309 259.961 106.437 259.976C110.558 260.417 114.658 260.6 118.624 260.521C119.458 260.505 119.999 259.949 119.829 259.277C119.661 258.605 118.854 258.078 118.014 258.093C114.21 258.17 110.275 257.994 106.318 257.573C105.469 257.482 104.806 257.947 104.839 258.61C104.863 259.173 105.387 259.701 106.066 259.902ZM51.2699 236.571C51.7475 236.713 52.2634 236.682 52.6396 236.454C53.2575 236.086 53.2854 235.333 52.6989 234.773C49.9491 232.146 47.6262 229.389 45.7972 226.583C45.3861 225.95 44.4462 225.612 43.7021 225.831C42.9585 226.049 42.6908 226.74 43.1019 227.373C45.0535 230.373 47.529 233.314 50.4586 236.112C50.6889 236.328 50.9717 236.483 51.2699 236.571ZM129.545 259.394C129.826 259.478 130.127 259.502 130.415 259.456C134.269 258.815 137.968 257.881 141.419 256.681C142.139 256.43 142.36 255.721 141.91 255.101C141.459 254.481 140.51 254.177 139.787 254.43C136.501 255.573 132.972 256.462 129.296 257.073C128.505 257.205 128.111 257.845 128.422 258.504C128.614 258.923 129.048 259.247 129.545 259.394ZM150.142 252.668C150.528 252.783 150.948 252.787 151.301 252.652C154.629 251.398 158.085 250.352 161.576 249.546C162.344 249.367 162.674 248.699 162.309 248.053C161.943 247.406 161.023 247.029 160.255 247.203C156.632 248.044 153.048 249.126 149.6 250.425C148.89 250.693 148.697 251.408 149.166 252.025C149.402 252.329 149.755 252.554 150.142 252.668ZM39.8789 218.834C40.0859 218.896 40.3049 218.925 40.5219 218.918C41.3537 218.889 41.8772 218.321 41.6937 217.653C40.8946 214.75 40.6037 211.802 40.8266 208.896L40.8519 208.598C40.9057 207.946 40.2581 207.284 39.4125 207.134C38.5632 206.976 37.8321 207.376 37.7778 208.029L37.7535 208.335C37.5114 211.462 37.8273 214.635 38.6896 217.763C38.8179 218.252 39.3018 218.664 39.8789 218.834ZM171.827 247.683C172.068 247.754 172.325 247.783 172.58 247.758C176.337 247.397 180.215 247.279 184.095 247.401C184.939 247.427 185.53 246.908 185.416 246.236C185.302 245.566 184.521 244.997 183.682 244.974C179.639 244.847 175.606 244.972 171.694 245.346C170.878 245.423 170.414 246.027 170.661 246.692C170.826 247.154 171.289 247.523 171.827 247.683ZM195.581 248.423C195.672 248.45 195.765 248.471 195.863 248.485C199.774 249.08 203.726 249.911 207.61 250.953C208.449 251.18 209.245 250.85 209.389 250.219C209.532 249.589 208.945 248.913 208.128 248.669C204.094 247.584 199.987 246.721 195.923 246.105C195.072 245.973 194.369 246.404 194.352 247.062C194.338 247.645 194.866 248.212 195.581 248.423ZM40.8337 200.468C41.6426 200.708 42.4452 200.427 42.6409 199.825C43.5253 197.108 44.7454 194.344 46.2651 191.608C46.5801 191.038 46.198 190.289 45.4081 189.936C44.6176 189.586 43.7222 189.759 43.4045 190.328C41.8304 193.164 40.5637 196.033 39.6475 198.853C39.4462 199.466 39.9536 200.183 40.7817 200.451C40.8005 200.458 40.8171 200.463 40.8337 200.468ZM49.6221 184.341C50.2764 184.535 50.9635 184.392 51.2952 183.957C53.0249 181.663 54.9847 179.314 57.2866 176.773C57.7371 176.275 57.5207 175.51 56.7995 175.06C56.08 174.615 55.1263 174.652 54.6758 175.15C52.3326 177.731 50.3372 180.123 48.5706 182.465C48.1713 182.994 48.4576 183.755 49.2094 184.17C49.3417 184.242 49.4813 184.299 49.6221 184.341ZM62.2794 170.181C62.8703 170.356 63.5056 170.26 63.8651 169.898C65.3456 168.412 66.8339 166.941 68.3087 165.487L70.6834 163.138C71.1643 162.66 70.9876 161.891 70.2865 161.422C69.5871 160.947 68.6253 160.959 68.1445 161.438L65.7715 163.78C64.2916 165.242 62.7973 166.713 61.3123 168.205C60.8336 168.686 61.0164 169.454 61.7181 169.921C61.8982 170.037 62.0862 170.124 62.2794 170.181ZM75.7968 156.563C76.4042 156.743 77.0517 156.636 77.4074 156.254C79.8722 153.599 81.8926 151.215 83.5794 148.968C83.9787 148.439 83.6896 147.677 82.9372 147.264C82.1876 146.853 81.2535 146.949 80.8541 147.478C79.2081 149.674 77.2319 152.007 74.8106 154.613C74.3523 155.106 74.5621 155.874 75.2794 156.328C75.4413 156.434 75.6173 156.51 75.7968 156.563ZM86.7398 141.471C87.4908 141.694 88.2548 141.467 88.5087 140.924C89.234 139.361 89.8183 137.79 90.2408 136.254C90.6433 134.791 90.9126 133.312 91.0439 131.857C91.1038 131.205 90.4522 130.546 89.6123 130.387C88.7635 130.227 88.0276 130.623 87.9683 131.273C87.8482 132.621 87.5957 133.996 87.2209 135.358C86.8241 136.801 86.2741 138.279 85.5871 139.757C85.3146 140.346 85.7449 141.083 86.5522 141.405C86.6134 141.432 86.6763 141.453 86.7398 141.471ZM88.0844 123.306C88.3108 123.373 88.5535 123.402 88.7937 123.386C89.6164 123.326 90.1036 122.738 89.8814 122.069C88.8258 118.884 87.1278 115.776 84.6885 112.573C84.2192 111.956 83.264 111.673 82.5538 111.943C81.8443 112.211 81.6484 112.923 82.115 113.539C84.3695 116.502 85.9357 119.361 86.9052 122.285C87.0623 122.755 87.5322 123.142 88.0844 123.306ZM75.4386 105.941C75.9218 106.084 76.4449 106.049 76.8256 105.816C77.4341 105.438 77.4482 104.681 76.854 104.127C74.7771 102.191 72.6213 100.313 70.5369 98.5018L68.1505 96.4201C67.5351 95.8784 66.5577 95.7632 65.9706 96.1609C65.3835 96.5586 65.4047 97.3173 66.0173 97.8581L68.4185 99.951C70.4809 101.745 72.6132 103.6 74.6444 105.496C74.8709 105.704 75.1487 105.855 75.4386 105.941ZM58.5948 90.3136C59.0117 90.437 59.4643 90.4304 59.8324 90.2647C60.5129 89.9616 60.6486 89.2294 60.1377 88.6338C57.5362 85.5976 56.0129 82.8202 55.48 80.1441C55.3475 79.4753 54.5617 78.9234 53.7147 78.9093C52.8753 78.8997 52.3017 79.4331 52.4336 80.104C53.0495 83.1842 54.7632 86.3327 57.6737 89.7328C57.9108 90.0106 58.2414 90.209 58.5948 90.3136Z" fill="#DD7070"/>
<path d="M57.9442 72.0182C58.6731 72.2335 59.4272 72.0297 59.7029 71.5094C60.3425 70.3131 61.177 69.0754 62.1855 67.8286C62.609 67.3071 62.3457 66.5378 61.5972 66.1101C60.852 65.6811 59.9048 65.756 59.4818 66.2754C58.3975 67.6121 57.4971 68.947 56.8043 70.2489C56.4947 70.8266 56.8958 71.576 57.6962 71.9247C57.7785 71.9647 57.8608 71.9935 57.9442 72.0182Z" fill="#DD7070"/>
<path d="M92.3722 56.5334L80.2497 59.7894C78.0842 60.3716 76.9286 62.1698 77.4213 64.1915L81.7458 81.9104C82.0543 83.1748 83.7677 84.0207 85.0456 83.5398L144.005 61.3357C145.566 60.7459 145.189 58.7457 143.386 58.0681L73.3589 31.8221C71.8214 31.2477 70.376 32.1056 70.6715 33.4269L73.5949 46.667C73.9696 48.3775 75.4649 49.9458 77.4509 50.721L92.3722 56.5334Z" fill="#DD7070"/>
</svg>
