<svg width="25" height="25" viewBox="0 0 25 25" fill="none" xmlns="http://www.w3.org/2000/svg">
<path d="M17.6603 9.76408V7.76044V7.46094L17.3608 7.46195L15.3572 7.46906L15.3648 9.77169L17.6603 9.76408Z" fill="#9B9B9B"/>
<path d="M12.4381 15.0818C13.7569 15.0818 14.8306 14.0092 14.8306 12.6903C14.8306 12.17 14.661 11.6878 14.3773 11.2954C13.9432 10.6933 13.2361 10.2979 12.4381 10.2979C11.6401 10.2979 10.934 10.6933 10.4989 11.2954C10.2152 11.6878 10.0466 12.17 10.0466 12.6903C10.0466 14.0092 11.1193 15.0818 12.4381 15.0818Z" fill="#9B9B9B"/>
<path d="M12.5005 0C5.59667 0 0 5.59566 0 12.4995C0 19.4033 5.59667 25 12.5005 25C19.4033 25 25 19.4033 25 12.4995C25 5.59566 19.4028 0 12.5005 0ZM19.2333 11.2954V16.8596C19.2333 18.3073 18.0545 19.4851 16.6068 19.4851H8.26886C6.82058 19.4851 5.64287 18.3073 5.64287 16.8596V11.2954V8.52167C5.64287 7.07338 6.82058 5.89567 8.26886 5.89567H16.6068C18.0545 5.89567 19.2333 7.07338 19.2333 8.52167V11.2954Z" fill="#9B9B9B"/>
<path d="M16.1538 12.6909C16.1538 14.7392 14.4873 16.4068 12.4379 16.4068C10.3886 16.4068 8.72307 14.7392 8.72307 12.6909C8.72307 12.1969 8.82105 11.7274 8.99567 11.2959H6.96716V16.8601C6.96716 17.5779 7.55094 18.1617 8.26874 18.1617H16.6066C17.3244 18.1617 17.9082 17.5779 17.9082 16.8601V11.2959H15.8787C16.0548 11.7274 16.1538 12.1975 16.1538 12.6909Z" fill="#9B9B9B"/>
</svg>
