<?xml version="1.0" encoding="utf-8"?>
<!-- Generator: Adobe Illustrator 21.0.0, SVG Export Plug-In . SVG Version: 6.00 Build 0)  -->
<svg version="1.1" id="Слой_1" xmlns="http://www.w3.org/2000/svg" xmlns:xlink="http://www.w3.org/1999/xlink" x="0px" y="0px"
	 viewBox="0 0 800.3 741.4" style="enable-background:new 0 0 800.3 741.4;" xml:space="preserve">
<style type="text/css">
	.st0{fill:#FAF8F8;}
	.st1{fill:#ECECEC;}
</style>
<path class="st0" d="M700.4,714c-1.3,0.9-2.6,1.8-3.9,2.6c-63.8,41.8-149.4,29.9-210.2-27.8c-22.6-21.4-37.9-47.3-59-72.6
	c-1.8-2.2-3.7-4.3-5.6-6.5c-30.5-34.5-73.9-66.9-164.1-83.2C117.3,501.2,9.4,459.9,0.6,356.8c-0.1-1.3-0.2-2.5-0.3-3.8
	c-0.9-14.5,0.1-30.1,3.2-47.1c8.9-49.1,48.6-89.1,103.6-118c1.7-0.9,3.5-1.8,5.3-2.7c38.7-19.6,84.6-33.9,132.4-42.4
	c5.1-0.9,10.2-2,15.3-3.3c1.5-0.3,3-0.7,4.6-1.2c28.6-7.8,54.7-20.8,79.1-35.7c1.1-0.7,2.3-1.4,3.4-2.1
	c45.4-28.3,84.9-62.8,123.1-82.2c3.1-1.6,6.2-3.1,9.4-4.4c1.3-0.6,2.7-1.2,4.1-1.7c11.1-4.5,22.4-7.7,33.8-9.6
	c1.3-0.3,2.7-0.5,4-0.7c30.5-4.5,61.4,0,91.1,12.6c1.5,0.7,3,1.3,4.4,1.9c45.4,20.6,87.6,60.4,119.9,116.5c0.9,1.5,1.7,2.9,2.5,4.4
	c20.9,37.3,37.5,81.6,48,132c0.3,1.5,0.7,3.1,1,4.7c9.1,45.8,13.3,96.6,11,151.7c0,1.3-0.1,2.7-0.2,4c-0.9,19.1-2.5,38.6-4.9,58.7
	c-0.2,1.3-0.3,2.5-0.5,3.8c-2,15.5-4.4,31.2-7.3,47.3c-0.2,1.2-0.5,2.5-0.7,3.7c-3.3,17.7-7.2,35.8-11.8,54.2
	C760.7,652.1,733.7,690.6,700.4,714z"/>
<path class="st1" d="M786.5,543.1c-36.7-7.1-75.1-19.6-109.5-38.7c-31.8-17.6-60.1-40.8-80.3-70.5c-37.5-55-43.3-124.8-17.3-207.4
	C612.2,122.1,616.9,55.7,612,14.3c1.5,0.7,3,1.3,4.5,1.9c4.3,42.2-1,108.6-33.4,211.5c-25.6,81.4-19.9,150.1,16.9,204.1
	c41.4,60.7,117.6,94,187.2,107.6C787,540.6,786.7,541.9,786.5,543.1z"/>
<path class="st1" d="M793.9,492.1c-27.4-7.2-50.6-16.1-69.7-26.6c-25.5-14.1-43.7-31.3-54.8-51.6c-22.9-42-16.4-98.1,19.8-171.4
	c21-42.6,36.1-79.1,46.8-109.7c0.9,1.5,1.7,2.9,2.6,4.4c-10.8,30.1-25.6,65.8-45.9,107c-35.6,72.1-42.1,127-19.9,167.9
	c18.7,34.5,58.7,59.6,121.5,76.2C794.2,489.5,794.1,490.8,793.9,492.1z"/>
<path class="st1" d="M798.7,429.5c-14.4-4.1-26.6-8.9-36.7-14.4c-19.1-10.5-30.3-23.8-33.6-39.6c-7.2-34.8,25-75.3,58.1-106.4
	c0.3,1.5,0.7,3.1,1,4.7c-31.7,30.3-62,68.8-55.3,101c4.7,22.5,27.1,39.5,66.6,50.7C798.8,426.9,798.8,428.2,798.7,429.5z"/>
<path class="st1" d="M698,713.9c-1.3,0.9-2.6,1.8-3.9,2.6c-14.6-5.9-30.3-13.2-46.7-22.4c-70.3-39.2-155.1-112.2-232-247.7
	c-99.5-175.2-217.3-236.1-298.6-256.3c-3.3-0.8-6.6-1.6-9.9-2.3c1.7-0.9,3.5-1.9,5.3-2.7c1.8,0.4,3.7,0.9,5.5,1.3
	c82.1,20.4,201,81.8,301.1,258.1C514.2,612.7,621.6,683.9,698,713.9z"/>
<path class="st1" d="M425.4,616.2c-1.8-2.2-3.7-4.3-5.6-6.5c-18.6-71.4-60-152.9-150.5-200C168.9,357.5,73.1,350.3,0.7,356.9
	c-0.1-1.3-0.2-2.5-0.3-3.8c73-6.6,169.6,0.7,270.7,53.3C366,455.8,407.6,542.3,425.4,616.2z"/>
<path class="st1" d="M493.1,214.7c-22.4,33.1-52,46.5-85.5,38.7c-12.1-2.8-24.3-7.9-36.5-14.6c-38.1-21.1-75.9-59.1-109-99.5
	c1.5-0.3,3.1-0.7,4.6-1.2c43.1,52.4,93.9,100.4,141.8,111.5c40.2,9.3,66.5-15.1,81.5-37.1c34.5-51,45.3-143.5,30.2-210.2
	c1.3-0.3,2.7-0.5,4-0.7C539.8,69.4,528.8,162,493.1,214.7z"/>
<path class="st1" d="M422.3,182.4c-5.1-0.2-10.3-1.9-15.5-4.8c-21.1-11.6-42.7-42.8-60.8-75.2c1.1-0.7,2.3-1.4,3.4-2.1
	c22,39.6,49.1,77.2,73,78.2c38.1,1.5,54.4-110.9,60-164.9c1.4-0.6,2.7-1.2,4.2-1.7C481.1,66,464.5,184.1,422.3,182.4z"/>
</svg>
