<svg width="26" height="28" viewBox="0 0 26 28" fill="none" xmlns="http://www.w3.org/2000/svg">
<path d="M13 27.0493C9.52758 27.0493 6.26295 25.6442 3.80758 23.0928C1.3522 20.5414 0 17.149 0 13.5408C0 9.93251 1.35225 6.54023 3.80758 3.98875C6.2629 1.43727 9.52758 0.0322266 13 0.0322266C16.4724 0.0322266 19.737 1.43733 22.1924 3.98875C24.6478 6.54018 26 9.93251 26 13.5408C26 17.149 24.6477 20.5413 22.1924 23.0928C19.7371 25.6443 16.4724 27.0493 13 27.0493ZM13 1.72079C6.7278 1.72079 1.625 7.02322 1.625 13.5408C1.625 20.0583 6.7278 25.3607 13 25.3607C19.2722 25.3607 24.375 20.0583 24.375 13.5408C24.375 7.02322 19.2722 1.72079 13 1.72079Z" fill="black"/>
<path d="M16.25 19.0287H14.625C12.7591 19.0287 11.1162 18.018 10.1765 16.4958H13.8125C14.2613 16.4958 14.625 16.1178 14.625 15.6515C14.625 15.1852 14.2613 14.8072 13.8125 14.8072H9.48594C9.39311 14.4005 9.34375 13.9765 9.34375 13.5408C9.34375 13.105 9.39316 12.681 9.48594 12.2743H13.8125C14.2613 12.2743 14.625 11.8963 14.625 11.43C14.625 10.9638 14.2613 10.5857 13.8125 10.5857H10.1765C11.1162 9.06352 12.7591 8.05285 14.625 8.05285H15.8438C16.2925 8.05285 16.6562 7.67482 16.6562 7.20855C16.6562 6.74229 16.2925 6.36426 15.8438 6.36426H14.625C11.8301 6.36426 9.41764 8.09849 8.33173 10.5857H7.3125C6.86375 10.5857 6.5 10.9638 6.5 11.43C6.5 11.8963 6.86375 12.2743 7.3125 12.2743H7.82646C7.75572 12.6856 7.71875 13.1088 7.71875 13.5408C7.71875 13.9728 7.75572 14.396 7.82646 14.8072H7.3125C6.86375 14.8072 6.5 15.1852 6.5 15.6515C6.5 16.1178 6.86375 16.4958 7.3125 16.4958H8.33173C9.41759 18.983 11.8301 20.7173 14.625 20.7173H16.25C16.6988 20.7173 17.0625 20.3393 17.0625 19.873C17.0625 19.4067 16.6988 19.0287 16.25 19.0287Z" fill="black"/>
</svg>
