<svg width="854" height="790" viewBox="0 0 854 790" fill="none" xmlns="http://www.w3.org/2000/svg">
<g opacity="0.6">
<path d="M730.815 668.988C729.866 670.249 728.882 671.468 727.899 672.686C680.075 732.369 594.577 748.178 518.322 712.899C490.033 699.805 467.221 680.146 439.192 662.977C436.786 661.482 434.329 660.056 431.832 658.618C391.897 635.592 340.263 618.793 248.986 631.899C107.049 652.256 -8.93711 647.371 -49.7511 552.644C-50.2857 551.496 -50.7719 550.315 -51.2157 549.11C-56.6328 535.742 -60.5669 520.628 -62.9136 503.591C-69.7869 454.302 -44.3957 404.034 -0.938641 359.248C0.439905 357.83 1.85703 356.382 3.27106 354.976C34.1361 324.225 73.4272 296.204 116.423 273.025C121.046 270.539 125.548 267.874 129.961 265.036C131.291 264.27 132.647 263.393 133.969 262.473C158.829 246.085 179.739 225.502 198.354 203.682C199.217 202.677 200.081 201.667 200.944 200.662C235.44 159.541 262.3 114.445 292.712 83.9981C295.202 81.5058 297.707 79.1318 300.316 76.8556C301.414 75.8526 302.552 74.8571 303.724 73.9094C312.911 66.1266 322.711 59.502 332.99 54.0985C334.184 53.4277 335.414 52.7958 336.631 52.2077C364.332 38.3655 395.284 32.826 427.594 35.3498C429.227 35.4951 430.822 35.6381 432.454 35.7834C482.304 40.9371 535.051 65.2089 583.58 107.983C584.877 109.079 586.125 110.207 587.409 111.374C619.085 139.988 648.844 176.604 674.691 220.931C675.501 222.287 676.305 223.679 677.108 225.072C700.184 265.465 720.086 312.152 735.262 364.999C735.654 366.278 736.006 367.545 736.358 368.817C741.513 387.11 746.097 406.115 750.1 425.873C750.338 427.123 750.577 428.369 750.851 429.626C753.815 444.869 756.462 460.525 758.668 476.64C758.865 477.883 759.023 479.156 759.184 480.392C761.579 498.215 763.53 516.497 764.905 535.338C769.047 591.47 755.353 636.366 730.815 668.988Z" fill="#FAF8F8"/>
<path d="M756.458 479.89C719.259 485.043 678.726 485.574 640.029 478.628C604.272 472.21 570.106 459.362 541.644 437.819C488.902 397.822 461.829 333.667 461.155 247.035C460.307 137.537 444.277 73.2152 426.863 35.5405C428.494 35.6754 430.087 35.8084 431.718 35.9433C448.882 74.5104 464.196 139.056 465.032 246.988C465.671 332.361 492.268 395.535 544.047 434.774C602.266 478.914 685.275 485.812 755.958 476.129C756.154 477.376 756.303 478.651 756.458 479.89Z" fill="#ECECEC"/>
<path d="M747.632 429.51C719.275 431.524 694.446 430.62 673.025 426.78C644.314 421.633 621.715 411.227 604.904 395.582C570.157 363.19 559.032 308.091 570.919 227.134C577.793 180.096 580.894 140.726 581.71 108.275C583.003 109.364 584.247 110.486 585.525 111.647C584.565 143.604 581.44 182.076 574.773 227.63C563.098 307.299 573.834 361.318 607.613 392.794C636.101 419.345 681.989 430.264 746.892 425.753C747.129 427.005 747.358 428.251 747.632 429.51Z" fill="#ECECEC"/>
<path d="M733.055 369.037C718.089 369.826 704.97 369.227 693.667 367.202C672.246 363.362 657.45 354.472 649.471 340.568C631.869 310.006 650.119 261.344 672.011 221.252C672.816 222.606 673.613 223.996 674.411 225.386C653.511 264.256 636.541 310.375 652.837 338.678C664.23 358.422 690.799 367.313 731.97 365.218C732.362 366.498 732.708 367.769 733.055 369.037Z" fill="#ECECEC"/>
<path d="M727.888 670.151C726.939 671.458 725.956 672.72 724.972 673.983C709.208 673.221 691.956 671.398 673.378 668.053C594.09 653.778 490.614 611.768 375.478 506.558C226.599 370.534 95.1826 351.312 11.1683 359.125C7.72895 359.465 4.32568 359.812 0.985448 360.247C2.36275 358.775 3.77855 357.272 5.19113 355.811C7.07676 355.59 8.95916 355.411 10.8379 355.226C95.654 347.32 228.187 366.662 378.075 503.586C520.987 634.141 645.604 666.849 727.888 670.151Z" fill="#ECECEC"/>
<path d="M438.462 664.241C436.075 662.726 433.638 661.283 431.16 659.828C391.491 596.65 326.97 531.437 225.967 516.402C113.855 499.685 19.9506 525.232 -47.342 556.228C-47.8692 555.048 -48.3481 553.834 -48.7848 552.594C19.0574 521.378 113.699 495.681 226.576 512.498C332.455 528.331 398.75 598.36 438.462 664.241Z" fill="#ECECEC"/>
<path d="M375.199 261.542C364.004 300.101 339.93 322.303 305.575 325.735C293.167 326.983 279.98 326.138 266.278 323.681C223.483 316.004 175.653 292.252 131.594 264.729C132.927 263.953 134.287 263.065 135.612 262.135C192.902 297.841 256.118 326.811 305.207 321.927C346.452 317.778 363.991 286.252 371.489 260.524C388.67 201.198 370.491 110.178 335.483 51.9438C336.68 51.2636 337.912 50.622 339.131 50.0245C375.016 109.043 393 200.222 375.199 261.542Z" fill="#ECECEC"/>
<path d="M297.522 253.745C292.626 255.167 287.159 255.239 281.316 254.193C257.679 249.96 227.428 227.428 200.213 202.678C201.081 201.665 201.949 200.648 202.816 199.636C235.982 229.975 273.418 256.834 296.45 250.082C333.223 239.284 314.05 127.756 302.73 74.937C303.832 73.9249 304.975 72.92 306.151 71.9628C317.661 124.82 338.272 241.787 297.522 253.745Z" fill="#ECECEC"/>
</g>
</svg>
