<svg width="58" height="52" viewBox="0 0 58 52" fill="none" xmlns="http://www.w3.org/2000/svg">
<path d="M30.2766 16.2509L29.0747 16.7978L29.2035 17.5589L29.6764 18.7401L29.0747 19.5935L29.392 20.1463L28.9458 21.8371L29.2035 22.4223L27.813 22.8636L27.3257 22.514C27.3257 22.514 26.778 22.8527 26.5132 22.9876C26.2483 23.1225 25.7078 22.3754 25.7078 22.3754L25.5394 21.9487L24.6261 21.7111L24.3253 21.9847L23.6594 21.4377L23.2369 22.0066L21.7046 21.3174L21.5291 20.9559L20.5877 20.6612L20.1041 20.9559L19.6817 20.3907L19.0736 20.6062L18.6403 20.5227L18.4359 19.7271L18.88 19.5226L18.7331 18.4323L18.1033 17.8633L17.6017 17.5752L17.7593 15.8426L17.7233 14.5954L16.9756 14.0661L17.4988 13.1767L17.845 12.7851L17.9127 12.1209L18.1624 11.9237L18.4633 12.2412H19.1852L19.5587 12.1371L19.8804 11.6723L19.3219 11.3467L19.478 11.0893C19.478 11.0893 20.1063 10.9222 20.1063 10.9199C20.0984 10.9199 20.1387 10.4331 20.1301 10.4331C20.1301 10.4323 20.5842 10.392 20.5842 10.392L20.8556 10.6846L21.003 10.7308L21.3924 10.2139L22.2705 10.4L22.5555 10.7556L23.8603 10.7637C23.8603 10.7637 24.1583 11.0342 24.1612 11.0424C24.1712 11.0424 24.6146 10.5665 24.6146 10.5665L25.0443 10.7666L25.0688 11.3217L26.1347 11.4639L26.4802 11.31L26.6371 11.3275L27.1466 11.1823L27.5526 11.3898V12.3393L27.9715 13.1056L28.707 13.0015L29.4267 13.6034C29.4267 13.6034 30.0393 13.4252 30.0472 13.4252C30.055 13.4252 30.1651 13.5264 30.1651 13.5264L30.286 14.1694L30.7206 14.5141L29.8318 15.2333L30.2766 16.2509Z" fill="#CDCBCB"/>
<path d="M45.4734 4.87041C45.441 4.5757 45.326 4.10196 45.326 4.10196C45.326 4.10196 44.6732 3.68628 44.6811 3.49495C44.6897 3.30361 44.7783 3.15552 44.9632 3.08724C45.1489 3.01904 46.1184 2.61644 46.1715 2.40605C46.2255 2.19565 46.2867 2.21541 45.978 1.65527C45.978 1.65527 39.7726 4.04624 31.1303 2.54617C31.0705 2.53585 31.01 2.51462 30.9503 2.50657C30.882 2.49773 30.815 2.4934 30.7466 2.47866C30.7084 2.46991 30.7092 2.46618 30.6941 2.50873C30.6862 2.53144 30.6767 2.55128 30.6652 2.57329C30.6401 2.62086 30.6092 2.64807 30.5566 2.66566C30.5193 2.67814 30.4789 2.66272 30.4414 2.67155C30.4069 2.67961 30.3875 2.72285 30.3617 2.74634C30.2968 2.80795 30.2091 2.71991 30.1636 2.82918C30.1485 2.86514 30.1557 2.91713 30.1478 2.95752C30.1371 3.00743 30.1319 3.04478 30.0917 3.07632C30.0536 3.10639 30.0154 3.09764 29.9757 3.11748C29.9355 3.13654 29.9103 3.19148 29.8894 3.23039C29.8441 3.3147 29.7944 3.39391 29.7347 3.47016C29.703 3.51124 29.6614 3.54633 29.634 3.58896C29.608 3.62995 29.6051 3.67328 29.603 3.72025C29.5965 3.82727 29.559 3.88446 29.4591 3.92258C29.413 3.94017 29.3705 3.96808 29.3209 3.97388C29.2273 3.98567 29.1338 3.98714 29.0387 3.99589C28.9862 4.00031 28.9121 4.0699 28.8797 4.11322C28.8603 4.13965 28.8552 4.17267 28.8387 4.19979C28.8128 4.24156 28.7573 4.2731 28.7207 4.30239C28.6861 4.32882 28.6639 4.364 28.6372 4.3984C28.6063 4.43948 28.5682 4.4776 28.5335 4.51643C28.4788 4.57804 28.4292 4.63956 28.3694 4.69537C28.3434 4.72032 28.3176 4.74519 28.2903 4.77084C28.2615 4.79736 28.2535 4.82959 28.2291 4.85663C28.2162 4.87205 28.1975 4.87128 28.183 4.88306C28.1701 4.89407 28.1635 4.9153 28.1549 4.93072C28.139 4.96157 28.1268 4.98939 28.1167 5.02309C28.0966 5.09571 28.1088 5.16763 28.0944 5.23938C28.0857 5.28488 28.0592 5.30689 28.0196 5.32664C27.9843 5.34423 27.9152 5.35446 27.8922 5.30541C27.8699 5.26217 27.9275 5.25411 27.9469 5.23358C27.9562 5.22396 27.954 5.20568 27.9641 5.19684C27.9693 5.19172 27.9893 5.18947 27.9909 5.1873C28.0088 5.16313 27.947 5.08245 27.9362 5.05533C27.9131 5.00108 27.865 4.96373 27.816 4.93505C27.685 4.85732 27.5144 4.94025 27.405 5.02301C27.3741 5.04649 27.3568 5.08167 27.3252 5.10438C27.292 5.12795 27.2452 5.15204 27.2049 5.16087C27.1733 5.16746 27.1481 5.16304 27.1243 5.15351L27.0747 6.32369C27.0747 6.32369 27.3806 7.169 27.3885 7.169C27.3964 7.169 27.7886 7.169 27.7886 7.169L27.9469 7.64491L28.283 8.05773L28.519 7.62584L29.0912 7.70513L29.2122 7.80045L28.6666 9.11361L27.9145 9.05053L27.692 9.45823L27.8857 9.90407L27.3373 10.3528L27.053 11.0537L26.4801 11.3096L26.637 11.3272L27.1466 11.182L27.5525 11.3895V12.339L27.9715 13.1053L28.707 13.0012L29.4267 13.6031C29.4267 13.6031 30.0392 13.4248 30.0471 13.4248C30.0549 13.4248 30.1651 13.526 30.1651 13.526L30.2859 14.1691L30.7205 14.5137V15.0415C30.7205 15.0415 31.2928 15.263 31.2977 15.1318C31.3035 15.0005 31.2282 14.8642 31.2977 14.815C31.3677 14.7652 31.4806 14.7762 31.5289 14.7271C31.5771 14.6779 31.6391 14.642 31.6391 14.642L32.3184 15.0717C32.3184 15.0717 32.692 14.7953 32.8367 14.8363C32.982 14.8773 33.7254 14.9572 33.7953 14.9352C33.8652 14.9133 34.338 14.8993 34.338 14.8993C34.338 14.8993 34.2122 14.2732 34.3114 14.1721C34.4108 14.0708 34.5446 13.9476 34.5526 13.9476C34.5612 13.9476 35.2406 13.9857 35.2406 13.9857C35.2406 13.9857 35.6055 13.6851 35.7264 13.5099C35.8473 13.3347 35.879 13.2444 35.9573 13.2335C36.0351 13.2225 36.6634 13.2306 36.7521 13.1573C36.8405 13.0832 36.9968 13.0752 36.9751 12.9271C36.9535 12.7797 36.9535 12.5634 37.16 12.5415C37.3667 12.5195 37.7992 12.8068 37.7992 12.8068C37.7992 12.8068 38.6428 11.8412 38.6586 11.8412C38.6746 11.8412 39.2437 11.8273 39.2437 11.8273C39.2437 11.8273 39.6842 11.4225 40.0548 11.2861C40.3507 11.1769 40.568 11.1197 40.6667 11.0639C40.6667 11.0632 40.6667 11.0632 40.6667 11.0632C40.6918 11.0493 40.709 11.0353 40.7184 11.0207C40.7637 10.9466 40.9653 10.7495 41.0351 10.7743C41.1048 10.7986 41.8757 11.1411 41.8757 11.1411C41.8757 11.1411 42.1571 11.1301 42.1464 11.133C42.1362 11.1352 42.1868 10.8126 42.3105 10.7495C42.4342 10.6872 43.2663 10.3807 43.4059 10.2244C43.5456 10.0683 44.6144 8.83502 44.6144 8.83502L44.926 8.78008C44.926 8.78008 45.103 8.51171 45.1109 8.5066C45.1196 8.50148 46.2523 7.72428 46.2523 7.72428L46.6497 6.35393C46.6494 6.35376 45.5059 5.1659 45.4734 4.87041ZM28.6385 6.65289C28.5939 6.71736 28.4794 6.74821 28.4407 6.67334C28.3931 6.58096 28.3478 6.47395 28.3247 6.37273C28.3147 6.33027 28.3305 6.32066 28.3384 6.28262C28.3485 6.24076 28.3319 6.19466 28.3118 6.15792C28.2808 6.09847 28.2384 6.09119 28.1895 6.05896C28.1428 6.02742 28.0743 5.98782 28.0592 5.92334C28.0404 5.83825 28.1737 5.84492 28.219 5.86979C28.278 5.90281 28.3075 5.97612 28.3658 6.0113C28.414 6.04059 28.4565 6.05454 28.4731 6.1139C28.4889 6.17109 28.4824 6.22395 28.4882 6.28184C28.4954 6.35003 28.5637 6.38443 28.5961 6.44093C28.6278 6.49665 28.681 6.59197 28.6385 6.65289ZM29.865 9.86655C29.8715 9.95234 29.8327 10.0117 29.7836 10.0777C29.7361 10.143 29.7103 10.2111 29.6836 10.2867C29.6576 10.3607 29.6138 10.4268 29.5698 10.4899C29.5282 10.5507 29.5029 10.6307 29.4748 10.7003C29.4648 10.7251 29.4576 10.7559 29.4439 10.7787C29.4043 10.8403 29.3913 10.7795 29.3913 10.7391C29.3913 10.6775 29.3906 10.6159 29.3906 10.5535C29.3913 10.475 29.3863 10.379 29.4302 10.31C29.4639 10.2573 29.4971 10.2037 29.5324 10.1517C29.5555 10.1179 29.5863 10.0843 29.5993 10.0447C29.6346 9.94203 29.5576 9.81083 29.5014 9.73163C29.4503 9.65979 29.3885 9.59671 29.3101 9.55642C29.2503 9.52487 29.1963 9.49844 29.1488 9.44784C29.1135 9.4104 29.0163 9.31084 29.0373 9.24992C29.0589 9.18683 29.1956 9.23891 29.2388 9.24403C29.3351 9.25798 29.3086 9.19351 29.2841 9.126C29.2611 9.0637 29.2359 8.96985 29.3359 8.9903C29.4129 9.00651 29.5014 9.06734 29.5108 9.15243C29.5208 9.23241 29.4727 9.31742 29.5094 9.39446C29.5792 9.54246 29.8548 9.31378 29.8743 9.42739C29.8851 9.49038 29.8368 9.56014 29.8311 9.62314C29.8232 9.70589 29.86 9.7844 29.865 9.86655ZM41.3062 7.04881C41.3244 7.00115 41.3236 6.94396 41.328 6.89344C41.3331 6.83694 41.3415 6.77906 41.3343 6.72256C41.3271 6.66684 41.2817 6.54292 41.3437 6.50991C41.389 6.48495 41.4242 6.5158 41.4553 6.5502C41.4746 6.57152 41.4825 6.60081 41.5033 6.62135C41.5243 6.64188 41.5386 6.6515 41.5524 6.67854C41.5969 6.77239 41.6417 6.88971 41.5998 6.99309C41.5847 7.03053 41.566 7.06198 41.5574 7.10236C41.5481 7.14491 41.5502 7.2021 41.5294 7.24023C41.5213 7.25488 41.5257 7.22767 41.5164 7.24465C41.4999 7.27472 41.4969 7.30176 41.4754 7.32385C41.4502 7.3502 41.4445 7.34292 41.4142 7.33703C41.4006 7.33408 41.3983 7.34578 41.3855 7.33555C41.3781 7.33044 41.3726 7.30843 41.3667 7.30028C41.3135 7.22247 41.2696 7.14482 41.3062 7.04881ZM40.837 5.61685C40.8674 5.59189 40.9204 5.5743 40.9573 5.59267C41.0055 5.61832 41.014 5.69458 41.0285 5.74146C41.0673 5.86468 41.1543 5.949 41.2142 6.05905C41.2357 6.09787 41.2566 6.14769 41.2278 6.18955C41.2004 6.22837 41.1588 6.22403 41.1192 6.23859C41.0761 6.25471 41.0328 6.284 40.9919 6.3061C40.9256 6.34128 40.8111 6.38824 40.7729 6.45783C40.7407 6.5158 40.7529 6.59128 40.7075 6.64552C40.688 6.66831 40.6695 6.71736 40.6478 6.74821C40.6182 6.79076 40.5944 6.83547 40.5449 6.84647C40.5132 6.85306 40.4577 6.86268 40.4339 6.83547C40.4139 6.81129 40.4059 6.76727 40.4124 6.7372C40.4318 6.6515 40.5117 6.58911 40.5514 6.51502C40.588 6.44682 40.6168 6.36112 40.6644 6.29951C40.7176 6.23062 40.7615 6.14995 40.8076 6.07447C40.812 6.00549 40.8587 5.96442 40.8435 5.8918C40.8269 5.81555 40.7615 5.67846 40.837 5.61685ZM39.7036 4.98774C39.7523 4.9445 39.8869 5.00542 39.8956 4.91304C39.9 4.87049 39.8655 4.83237 39.8576 4.79277C39.8488 4.74727 39.8704 4.70776 39.9057 4.68055C39.9373 4.65559 39.9704 4.64979 40.0093 4.66079C40.0424 4.67041 40.0728 4.68722 40.1065 4.66963C40.2045 4.61911 40.0986 4.5406 40.0626 4.49814C40.0382 4.46877 40.0361 4.42778 40.0237 4.39173C40.0137 4.36313 40.0021 4.33532 39.9942 4.30525C39.9747 4.2348 39.9373 4.15924 39.9461 4.08524C39.9483 4.06834 39.9554 4.05439 39.9547 4.03688C39.9547 4.03246 40.0224 4.02579 40.0296 4.02804C40.0555 4.03394 40.0749 4.05586 40.0921 4.07423C40.1225 4.10655 40.1461 4.14095 40.1836 4.16452C40.2684 4.21799 40.3562 4.26495 40.4376 4.32509C40.5305 4.3932 40.6046 4.48636 40.6592 4.58826C40.7082 4.67994 40.7398 4.81261 40.6967 4.91235C40.665 4.98635 40.5721 4.9945 40.5348 5.06192C40.4995 5.125 40.5908 5.1808 40.6132 5.23427C40.6491 5.32075 40.624 5.42924 40.5872 5.51148C40.5448 5.6068 40.4633 5.67205 40.3577 5.64562C40.2843 5.62655 40.2101 5.59354 40.2051 5.50706C40.2015 5.44545 40.2094 5.38167 40.208 5.31928C40.2071 5.26434 40.208 5.21079 40.2131 5.15654C40.2159 5.13453 40.228 5.08254 40.2065 5.06564C40.1813 5.04588 40.1518 5.08401 40.1389 5.10221C40.1152 5.13453 40.105 5.17188 40.0885 5.20853C40.0516 5.2899 40.0056 5.36763 39.9259 5.41382C39.8575 5.45411 39.8063 5.38453 39.7783 5.32508C39.751 5.26495 39.751 5.2159 39.6991 5.16815C39.6518 5.12483 39.6524 5.03392 39.7036 4.98774ZM39.3732 9.46837C39.3638 9.50789 39.3443 9.52842 39.3192 9.55849C39.3133 9.56586 39.3075 9.57322 39.3019 9.5812C39.2731 9.62002 39.2501 9.66334 39.2218 9.70217C39.2147 9.7058 39.2118 9.70364 39.2147 9.69558C39.2018 9.70442 39.1946 9.71092 39.1809 9.71603C39.15 9.72929 39.1198 9.73518 39.0867 9.74099C39.0551 9.74766 39.024 9.75927 38.9918 9.76222C38.9327 9.76742 38.857 9.72478 38.8391 9.66404C38.8182 9.59142 38.8888 9.51959 38.934 9.47487C38.9816 9.42947 39.0262 9.40373 39.0407 9.3312C39.0514 9.2747 39.0436 9.21309 39.0443 9.15521C39.0443 9.09957 39.0932 9.06352 39.1263 9.02106C39.1458 8.99611 39.1708 8.97635 39.2004 8.96682C39.227 8.95945 39.2665 8.9455 39.294 8.94333C39.3644 8.93892 39.3955 9.03866 39.3976 9.09585C39.4035 9.21838 39.4005 9.3481 39.3732 9.46837ZM40.9846 9.62591C40.9852 9.67808 40.9831 9.73007 40.9774 9.78293C40.9731 9.83423 40.9579 9.89064 40.961 9.94272C40.966 10.0344 40.9846 10.1334 40.9177 10.2111C40.8285 10.3152 40.6464 10.3342 40.5204 10.3438C40.3959 10.3533 40.2792 10.3401 40.1606 10.3005C40.0504 10.2631 39.872 10.2308 39.8108 10.1186C39.7755 10.0548 39.7813 9.97487 39.7856 9.9045C39.7899 9.83042 39.7921 9.74983 39.8129 9.67799C39.8294 9.61932 39.8662 9.58042 39.921 9.55477C39.9611 9.5364 40.0338 9.5078 40.0792 9.5247C40.1244 9.54151 40.1023 9.59576 40.0914 9.63033C40.0735 9.68822 40.0483 9.74983 40.0547 9.81135C40.0649 9.90372 40.1671 9.97487 40.2325 10.0276C40.3132 10.0929 40.4239 10.1149 40.5247 10.1142C40.6025 10.1135 40.6558 10.0637 40.6939 10.0006C40.7284 9.94194 40.75 9.87522 40.7543 9.80702C40.7573 9.75936 40.7436 9.70875 40.7543 9.66187C40.7667 9.60763 40.8076 9.54966 40.8587 9.52843C40.8903 9.51456 40.9334 9.51231 40.9616 9.53648C40.991 9.56144 40.9846 9.59229 40.9846 9.62591ZM42.3182 9.05408C42.2246 9.08562 42.1247 9.05035 42.0296 9.07539C41.933 9.10174 41.9057 9.21101 41.8603 9.28952C41.7265 9.51898 41.4458 9.40382 41.3781 9.18172C41.3523 9.09446 41.3538 8.99334 41.2954 8.91847C41.2443 8.85174 41.1602 8.82462 41.0902 8.78285C41.017 8.73883 40.9592 8.67583 40.8917 8.62306C40.8175 8.56578 40.7304 8.52185 40.6383 8.50573C40.5456 8.48805 40.4671 8.51379 40.4132 8.59594C40.4009 8.61422 40.331 8.80564 40.3231 8.80564C40.316 8.80495 40.3008 8.5527 40.2966 8.53069C40.2915 8.50798 40.2814 8.44195 40.2498 8.43901C40.2203 8.43606 40.2029 8.48658 40.1957 8.5079C40.1806 8.54975 40.1698 8.5981 40.1706 8.64204C40.1712 8.67505 40.1856 8.7007 40.1915 8.73146C40.2071 8.82089 40.2101 8.92722 40.1957 9.01673C40.1921 9.04091 40.1332 8.98961 40.1296 8.98588C40.1044 8.95434 40.0843 8.91405 40.0648 8.87808C40.0259 8.80183 39.9986 8.71604 40.0202 8.62956C40.0491 8.51518 40.1174 8.4228 40.1152 8.30105C40.1124 8.05461 39.9381 7.85522 39.7913 7.67931C39.72 7.59491 39.6631 7.50557 39.6171 7.40435C39.5731 7.30747 39.5235 7.22247 39.4508 7.14552C39.3911 7.0833 39.3192 7.02082 39.3358 6.92559C39.3435 6.87498 39.4026 6.73348 39.4724 6.75618C39.5128 6.76935 39.53 6.8398 39.5415 6.8742C39.5696 6.95783 39.5926 7.0437 39.625 7.12567C39.6898 7.2943 39.7892 7.42116 39.9251 7.53702C40.0366 7.63156 40.1259 7.73347 40.1813 7.87211C40.1836 7.87723 40.2144 7.96449 40.2159 7.96449C40.223 7.96163 40.2123 7.85461 40.2123 7.84499C40.2109 7.76371 40.2131 7.68009 40.2274 7.59941C40.2346 7.55695 40.2468 7.47255 40.2936 7.4528C40.3735 7.41978 40.4289 7.60756 40.4498 7.65591C40.4871 7.74465 40.5304 7.76735 40.624 7.75565C40.7333 7.7417 40.8492 7.71605 40.9493 7.66839C40.9981 7.64413 41.0422 7.59283 41.0953 7.58035C41.1674 7.56423 41.2423 7.57454 41.3156 7.55617C41.3826 7.53936 41.5005 7.4748 41.5653 7.52394C41.6402 7.58191 41.5998 7.73 41.5733 7.80184C41.5337 7.90452 41.4601 7.98217 41.4056 8.07532C41.3487 8.1728 41.3243 8.28502 41.3005 8.39421C41.2816 8.48147 41.2436 8.6033 41.2847 8.689C41.3265 8.77332 41.4365 8.77471 41.5171 8.76526C41.6273 8.752 41.7322 8.71396 41.8453 8.72055C41.9669 8.72791 42.0849 8.77185 42.2022 8.80408C42.2634 8.82089 42.3944 8.83268 42.426 8.90157C42.4585 8.97124 42.3737 9.0351 42.3182 9.05408ZM42.7011 7.21302C42.6846 7.26657 42.6463 7.3164 42.6233 7.36701C42.5974 7.42636 42.57 7.48867 42.5284 7.53927C42.4772 7.60158 42.4305 7.68225 42.3571 7.71891C42.2829 7.75556 42.221 7.80834 42.1448 7.83693C42.103 7.85227 42.049 7.87289 42.0044 7.85452C41.9561 7.83468 41.944 7.75773 41.951 7.71154C41.9577 7.67047 41.9957 7.63303 42.0159 7.59785C42.0376 7.55972 42.0641 7.52532 42.0893 7.48936C42.1224 7.44318 42.1642 7.40496 42.198 7.35955C42.2347 7.31042 42.2729 7.28841 42.3175 7.25028C42.3549 7.21805 42.3887 7.20046 42.4369 7.19456C42.4779 7.19023 42.7393 7.0898 42.7011 7.21302ZM45.082 7.21883C45.0568 7.23053 45.0222 7.21519 44.9963 7.21007C44.961 7.20202 44.9214 7.20202 44.889 7.18581C44.8337 7.15877 44.7817 7.13737 44.7171 7.13963C44.6718 7.14041 44.6285 7.14404 44.5832 7.12871C44.5415 7.11406 44.5207 7.10817 44.5219 7.05748C44.5228 7.02966 44.5293 7.01571 44.5494 6.99665C44.5752 6.97308 44.5946 6.95046 44.6184 6.92403C44.6415 6.89907 44.6708 6.88079 44.6932 6.85436C44.7127 6.83166 44.7306 6.81112 44.758 6.79717C44.8091 6.76857 44.8213 6.81701 44.8488 6.85367C44.8847 6.9028 44.9235 6.91155 44.9725 6.94084C45.0165 6.96649 45.0386 7.00462 45.0703 7.045C45.0977 7.07957 45.1403 7.19101 45.082 7.21883Z" fill="#CDCBCB"/>
<path d="M54.1194 14.5125C54.1194 14.5125 54.0366 16.7642 54.0366 16.7826C54.0366 16.8008 51.93 17.8487 51.93 17.8487L50.5718 20.6591C50.5718 20.6591 50.6279 20.9312 50.6705 21.1797C50.6603 21.1679 50.5768 21.0711 50.5056 21.077C50.4308 21.0821 50.3257 21.1072 50.248 21.0411C50.2338 21.0294 50.2163 21.0133 50.1969 20.9956C50.1128 20.9195 49.9947 20.8124 49.958 20.8658C49.9119 20.9318 49.7809 21.1394 49.7428 21.0272C49.7054 20.9149 49.673 20.7537 49.5469 20.6855C49.4211 20.6173 49.072 20.3761 48.7013 20.3629C48.3307 20.3489 48.0457 20.2917 47.9277 20.3328C47.8095 20.3738 47.7642 20.4669 47.616 20.4039C47.4684 20.3409 47.2353 20.1246 47.1409 20.1766C47.0466 20.2287 46.9179 20.4369 46.9049 20.3137C46.8912 20.1906 46.9775 20.1054 46.8804 20.0153C46.784 19.9251 46.6013 19.8731 46.6335 19.7418C46.6659 19.6105 46.7033 19.3121 46.5365 19.1868C46.3702 19.0606 45.8304 18.4836 45.8304 18.4836C45.8304 18.4836 46.1687 17.9418 46.1154 17.7665C46.0615 17.5912 46.0269 17.3427 46.021 17.2495C46.016 17.1564 45.9973 16.8067 45.8305 16.8067C45.6642 16.8067 45.4871 16.8529 45.4576 16.9461C45.4281 17.0391 45.4035 17.0722 45.2827 17.0362C45.1617 17.001 44.9688 17.0033 44.9069 16.8587C44.845 16.7136 44.8185 16.6447 44.8265 16.6314C44.8342 16.6175 45.1432 16.404 45.1243 16.2648C45.1057 16.1255 45.1705 16.0786 45.025 16.0676C44.8804 16.0565 44.6011 16.0515 44.5363 16.1497C44.4716 16.248 44.3672 16.3279 44.2894 16.3331C44.2118 16.3389 43.9513 16.4702 43.852 16.344C43.7526 16.218 43.4864 15.8653 43.4114 15.6878C43.3359 15.5096 43.3231 15.3703 43.2315 15.3374C43.1402 15.3044 42.7862 15.2222 42.7862 15.2222C42.7862 15.2222 42.7745 14.8314 42.7862 14.8395C42.7862 14.8373 42.1369 14.1693 41.9908 14.1312C41.8433 14.0931 41.6065 14.0022 41.5934 13.8848C41.5798 13.7675 41.5669 13.7205 41.502 13.6054C41.438 13.4911 41.3841 13.1164 41.2847 12.9954C41.1854 12.8751 40.7103 12.5825 40.7882 12.32C40.8658 12.0576 40.981 11.8192 40.9386 11.68C40.896 11.5436 40.6773 11.086 40.6666 11.064C40.6666 11.0633 40.6666 11.0633 40.6666 11.0633C40.6917 11.0494 40.7089 11.0354 40.7183 11.0208C40.7636 10.9467 40.9652 10.7495 41.035 10.7744C41.1048 10.7987 41.8757 11.1411 41.8757 11.1411C41.8757 11.1411 42.1571 11.1301 42.1463 11.1331C42.1361 11.1352 42.1867 10.8126 42.3104 10.7495C42.4342 10.6872 43.2662 10.3807 43.4058 10.2245C43.5455 10.0683 44.6143 8.83501 44.6143 8.83501L44.9259 8.78007C44.9259 8.78007 45.1029 8.5117 45.1108 8.50658C45.1195 8.50147 46.2523 7.72425 46.2523 7.72425L46.6496 6.35386C46.6496 6.35386 45.5061 5.16597 45.4736 4.87047C45.4412 4.57575 45.3261 4.102 45.3261 4.102C45.3261 4.102 44.6734 3.68631 44.6813 3.49497C44.6899 3.30363 44.7785 3.15554 44.9634 3.08725C45.149 3.01905 46.1186 2.61645 46.1717 2.40604C46.2257 2.19564 46.2869 2.2154 45.9782 1.65525L46.2078 1.26807L46.505 1.33046L46.6122 1.59286L46.9029 1.39268L47.0499 1.7205L47.3154 1.74988L47.2111 2.09304L47.5047 2.192L47.6372 1.96548L47.784 1.9764L47.9704 2.21323L48.107 2.2206C48.107 2.2206 48.2215 2.41852 48.2215 2.42883C48.2215 2.44053 49.2788 2.56445 49.2788 2.56445L49.769 3.13413L49.8985 3.21333L50.2497 4.02063L50.1706 4.63728L50.2784 4.8969L50.7902 5.97768L50.8795 6.62371L51.081 6.84945L52.7794 11.471L53.2128 11.5472C53.2128 11.5472 53.202 11.8508 53.1977 11.8611C53.1977 11.8741 53.4316 12.059 53.4316 12.059L53.4273 12.8325L53.9619 13.5445L54.1194 14.5125Z" fill="#CDCBCB"/>
<path d="M57.0106 34.2529L57.7742 34.9502L57.7879 35.2089L57.9426 35.3037L57.6092 36.8331L56.8637 37.2201L56.1872 37.3552L55.7776 38.3927L55.4911 38.7901C54.6497 38.6632 54.3245 38.3788 54.1712 38.2527C54.0063 38.1178 53.4731 37.8986 53.4731 37.8986L53.0614 38.2675L52.3696 38.0921L51.5291 39.3101L50.7446 39.2485L50.3824 39.2815L49.7708 38.8291L48.5926 39.0842C48.5926 39.0842 48.299 38.6501 48.2278 38.5811C48.1558 38.5115 48.428 38.3297 48.5429 38.2014C48.6575 38.0737 48.9647 37.9425 49.1519 37.9425C49.3376 37.9425 49.1943 37.7746 49.1303 37.7204C49.0654 37.6655 49.0691 37.5525 48.9439 37.4395C48.8187 37.326 48.9511 36.8377 48.8826 36.834C48.8143 36.8303 47.9874 36.4403 47.7765 36.345C47.5657 36.2503 47.1783 36.5715 47.1783 36.5715L46.6523 36.1556L46.9495 35.4254L46.3298 34.9774C46.3298 34.9774 45.7074 35.3711 45.446 35.5025C45.2718 35.5897 45.1278 35.5612 45.0062 35.4254C44.9451 35.3572 44.8889 35.2619 44.8371 35.1409C44.6831 34.7801 44.2247 33.2668 44.2247 33.2668C44.2247 33.2668 44.1283 32.785 44.1714 32.6266C44.214 32.4675 44.1606 32.2109 44.134 32.0737C44.1069 31.9366 44.0692 31.762 44.134 31.592C44.1982 31.4226 44.2894 31.1602 44.3003 30.9027C44.3112 30.6455 44.4234 30.5031 44.1498 30.4158C43.8757 30.3286 43.8168 29.9672 43.9564 29.885C44.0961 29.8029 44.2895 29.8308 44.2572 29.6336C44.2248 29.4363 44.1678 29.3748 44.157 29.2325C44.1463 29.0903 44.0598 28.8893 44.0707 28.7397C44.0815 28.59 44.1102 28.4699 44.0211 28.5066C43.9311 28.5432 43.459 28.7397 43.2942 28.6599C43.1293 28.5792 42.5888 28.2074 42.6068 28.1164C42.6248 28.0249 42.7285 27.8246 42.8392 27.8825C42.9501 27.9414 43.2653 28.1708 43.4228 28.1091C43.5804 28.0468 43.8167 27.9559 43.8814 27.8495C43.9454 27.744 44.1497 27.3428 44.2571 27.2702C44.3645 27.1969 44.2715 27.2263 44.1714 27.0987C44.0706 26.9711 43.8454 26.8216 43.9993 26.7481C44.1534 26.6756 44.3038 26.526 44.3038 26.526L43.8524 26.037L43.867 24.7972L44.7867 24.2318L46.5306 24.2172L47.2107 23.517L47.8159 23.6738C47.8159 23.6738 47.8837 23.0498 48.016 22.9625C48.1485 22.8746 48.2347 22.8525 48.3384 22.9002C48.4421 22.9479 49.015 23.3196 49.1547 23.0754C49.2943 22.8305 49.241 22.6157 49.3915 22.4734C49.542 22.3312 49.9996 22.0173 50.0498 21.8172C50.1005 21.6163 50.1967 20.9951 50.1967 20.9951C50.2161 21.0128 50.2336 21.029 50.2478 21.0406C50.3255 21.1066 50.4307 21.0817 50.5054 21.0765C50.5767 21.0706 50.6602 21.1674 50.6703 21.1792C50.6711 21.1799 50.6711 21.1807 50.6711 21.1807C50.6724 21.1895 50.6738 21.1976 50.6753 21.2056C50.7185 21.4614 51.1447 21.5414 51.313 21.5268C51.4815 21.5128 51.5311 21.6044 51.6821 21.702C51.8325 21.8016 51.9441 21.7357 52.1371 21.6917C52.3307 21.6477 52.3811 21.9183 52.428 22.0972C52.474 22.2753 53.0835 22.356 53.1837 22.3816C53.2836 22.4073 53.3017 22.521 53.2872 22.6551C53.2735 22.7901 53.5492 23.0423 53.6032 23.1039C53.6564 23.1663 53.6062 23.2241 53.5492 23.3158C53.4916 23.4075 53.5168 23.5204 53.542 23.5828C53.5665 23.6444 53.5889 23.6847 53.5492 23.7756C53.5097 23.8672 53.4737 23.8416 53.4843 23.9253C53.4952 24.0096 53.4807 24.0535 53.4096 24.1196C53.3376 24.1848 53.4448 24.3132 53.5564 24.4077C53.6673 24.5023 53.4781 24.517 53.3665 24.5647C53.2549 24.6123 53.4528 24.7545 53.5744 24.8125C53.696 24.8712 53.6032 25.1446 53.6178 25.3162C53.6313 25.4877 53.424 25.5903 53.2656 25.751C53.108 25.9116 53.2556 26.0722 53.3053 26.1997C53.3557 26.3281 53.3162 26.4923 53.3341 26.7034C53.3521 26.9153 53.4665 26.952 53.5564 27.0613C53.6457 27.1713 53.5665 27.2841 53.5708 27.4741C53.5744 27.664 53.7608 27.5438 53.8681 27.4778C53.9754 27.4126 53.9826 27.587 53.9508 27.7255C53.9185 27.8642 54.0113 27.8824 54.2194 27.9155C54.4266 27.9485 54.2798 28.0291 54.2049 28.1669C54.1292 28.3056 54.3337 28.3026 54.477 28.4485C54.6201 28.5945 54.3877 29.0073 54.3552 29.3283C54.3228 29.6496 54.6604 29.8642 54.8102 29.909C54.9606 29.9523 54.9246 29.9962 54.9325 30.2229C54.9396 30.4486 55.4873 30.6679 55.6666 30.7553C55.8458 30.8425 55.7817 30.8506 55.8278 31.2082C55.8746 31.5661 56.1213 31.657 56.243 31.7516C56.3654 31.8469 56.3115 31.8147 56.3366 31.9965C56.3619 32.1791 56.5123 32.3031 56.6519 32.4093C56.7915 32.5149 56.7742 32.4673 56.8958 32.7159C57.0175 32.9636 57.5725 33.0949 57.6768 33.1132C57.7805 33.1315 57.9741 33.1353 57.9992 33.3508C58.0243 33.5664 57.4329 33.5222 57.1111 33.636C56.7881 33.749 57.0106 34.2529 57.0106 34.2529Z" fill="#CDCBCB"/>
<path d="M55.4911 38.7892L55.1406 39.2746L54.1367 40.7718L52.8649 42.9613L52.202 44.3485L51.1664 45.7981L51.2743 46.0862L51.1088 46.3054L51.1239 46.6266L51.4996 46.9917L51.4563 47.6589C51.4563 47.6589 51.6788 48.5278 51.6932 48.6671C51.7075 48.8056 51.7615 48.9993 51.7363 49.0975C51.7111 49.1957 51.7788 49.2472 51.8256 49.2727C51.8724 49.2984 51.8868 49.3204 51.8796 49.39C51.8724 49.4597 51.9192 49.4993 52.012 49.5757C52.1058 49.6526 52.0761 49.7472 51.9977 49.8637C51.9192 49.981 52.6246 50.3315 52.8578 50.4226C53.0902 50.5142 52.9901 50.8133 52.9901 50.8133L52.7289 51.0288L51.1628 50.4525C51.1628 50.4525 50.2453 50.4556 50.21 50.4556C50.1739 50.4556 49.83 50.1306 49.83 50.1306C49.83 50.1306 49.0275 50.1856 49.0167 50.1856C49.0059 50.1856 48.8664 49.9664 48.8664 49.9664C48.8664 49.9664 48.551 50.0537 48.5403 50.0537C48.5295 50.0537 47.9559 49.8388 47.9559 49.8388L47.2894 48.9554L46.6554 48.6746L46.6201 48.5067C46.6201 48.5067 46.3726 48.3901 46.3618 48.3863C46.3474 48.3863 46.0041 48.7075 45.9925 48.7103C45.9803 48.7103 45.7846 48.2581 45.7737 48.2581C45.7629 48.2581 45.2549 48.2873 45.244 48.2873C45.2331 48.2873 45.0505 48.0461 45.0505 48.0461C45.0505 48.0461 44.7749 48.0286 44.764 48.0286C44.7525 48.0286 43.6779 48.437 43.6671 48.4414C43.6656 48.4414 43.6614 48.4392 43.6548 48.4348C43.6548 48.4348 43.5196 47.0315 43.3764 46.9434C43.2339 46.8562 43.1332 46.8305 43.1368 46.6956C43.1404 46.5607 43.362 46.2541 43.262 46.1194C43.162 45.9845 43.1332 46.0578 43.0577 45.744C42.9828 45.4301 42.7647 45.1714 42.7647 45.1714L42.0912 45.054L41.927 44.6603C41.927 44.6603 42.4028 44.474 42.4532 44.2189C42.5035 43.9638 42.564 43.8655 42.564 43.8655L41.9019 43.5334C41.9019 43.5334 41.8118 43.0082 41.8731 42.7386C41.9343 42.4686 42.0271 42.1072 41.9551 41.9613C41.8839 41.8153 41.5903 41.0858 41.6507 40.9002C41.7119 40.7141 41.8083 40.6334 41.7904 40.4405C41.7774 40.2983 41.7543 40.2132 41.6902 40.1575C41.6989 40.1487 41.84 39.9993 41.9371 39.8935C42.0379 39.7835 42.0343 39.711 42.2098 39.6632C42.3847 39.6164 42.5207 39.401 42.6713 39.299C42.8216 39.1962 42.8539 39.0108 42.8648 38.8832C42.8756 38.7557 43.6277 38.427 43.7953 38.3069C43.9637 38.1866 44.0817 37.716 44.1322 37.4644C44.1826 37.2121 44.4755 36.9425 44.5655 36.8331C44.6547 36.7238 44.8447 36.3586 44.9087 36.2091C44.9735 36.0595 45.0065 35.4246 45.0065 35.4246C45.1281 35.5603 45.2721 35.5889 45.4463 35.5016C45.7076 35.3702 46.3301 34.9766 46.3301 34.9766L46.9498 35.4246L46.6526 36.1547L47.1786 36.5706C47.1786 36.5706 47.566 36.2495 47.7768 36.3441C47.9876 36.4395 48.8146 36.8295 48.8829 36.8331C48.9514 36.8368 48.819 37.3251 48.9442 37.4386C49.0695 37.5517 49.0658 37.6646 49.1306 37.7195C49.1946 37.7737 49.3379 37.9416 49.1522 37.9416C48.965 37.9416 48.6578 38.0729 48.5432 38.2005C48.4282 38.3288 48.1561 38.5106 48.2281 38.5802C48.2993 38.6492 48.5929 39.0833 48.5929 39.0833L49.7711 38.8282L50.3827 39.2806L50.7449 39.2476L51.5294 39.3091L52.3699 38.0912L53.0617 38.2666L53.4734 37.8977C53.4734 37.8977 54.0066 38.1169 54.1715 38.2518C54.3245 38.3779 54.6497 38.6623 55.4911 38.7892Z" fill="#CDCBCB"/>
<path d="M43.3762 46.9438C43.2337 46.8566 43.133 46.8309 43.1366 46.696C43.1401 46.5611 43.3618 46.2545 43.2618 46.1198C43.1617 45.9848 43.133 46.0581 43.0575 45.7443C42.9826 45.4305 42.7645 45.1717 42.7645 45.1717L42.0909 45.0544L41.9268 44.6607C41.9268 44.6607 42.4026 44.4743 42.4529 44.2192C42.5033 43.9641 42.5638 43.8658 42.5638 43.8658L41.9017 43.5336C41.9017 43.5336 41.8116 43.0085 41.8728 42.7388C41.9341 42.4688 42.0269 42.1074 41.9549 41.9614C41.8837 41.8155 41.5901 41.086 41.6505 40.9004C41.7117 40.7142 41.8081 40.6335 41.7902 40.4406C41.7771 40.2984 41.7541 40.2133 41.6899 40.1576H41.6893C41.6648 40.1378 41.6367 40.1216 41.6007 40.1086C41.4646 40.0579 41.2856 39.9774 41.2856 39.9774L39.4272 40.6446L38.8543 41.7136L37.5941 41.6695C37.5941 41.6695 36.9068 39.8658 36.2772 39.1362L33.7229 39.4728L33.6991 39.4757C33.6991 39.4757 33.1968 39.8344 33.1809 39.8533C33.1644 39.8724 32.9844 40.0145 32.8722 40.0365C32.7591 40.0586 32.6894 40.0497 32.598 40.1076C32.5064 40.1648 32.1228 40.395 32.0099 40.3482C31.8969 40.302 31.7847 40.2338 31.5701 40.2741C31.355 40.3152 31.1296 40.4303 31.1296 40.4303L31.175 41.2186L30.6057 41.2539C30.6057 41.2539 30.1436 41.7026 30.1602 41.7084C30.1761 41.7136 30.885 42.1125 30.885 42.1125C30.885 42.1125 30.6589 42.4739 30.6539 42.5179C30.6482 42.562 30.6379 42.7856 30.6214 42.7966C30.6056 42.8077 30.2192 42.9227 30.2192 43.065C30.2192 43.2074 30.3264 43.6832 30.1112 43.667C29.8968 43.6501 29.6232 43.6611 29.5958 43.8143C29.5692 43.9676 29.4613 44.5857 29.4778 44.5974C29.4943 44.6077 30.2133 44.8922 30.2241 44.9091C30.2349 44.9253 30.2191 45.4781 30.2191 45.4781C30.2191 45.4781 30.7451 45.6042 30.7669 45.7134C30.7884 45.8227 30.9006 46.1175 30.9006 46.1175C30.9006 46.1175 31.223 46.0581 31.3087 46.1072C31.395 46.1564 31.7867 46.3426 31.6096 46.501C31.4325 46.6594 31.1366 46.8617 31.1366 46.8617C31.1366 46.8617 31.3677 47.2503 31.3842 47.2503C31.4001 47.2503 31.9003 46.9768 31.9744 47.108C32.0501 47.2393 32.1263 47.1843 32.1623 47.831L32.6739 48.2007L32.782 48.8062L33.4521 49.558C33.4521 49.558 34.3186 49.5395 34.3186 49.5616C34.3186 49.5844 34.3582 49.7993 34.3582 49.7993L34.2798 50.0469L34.4763 50.3065L34.3473 50.5L34.5372 50.7223L34.1644 51.226L34.3264 51.4453L34.9496 51.424L35.1606 51.0983H35.5729L35.648 51.3689H35.8055L36.0675 51.5698L36.1963 50.9458L36.2791 50.4377L36.6584 49.9999L37.44 49.6567L37.877 49.6861C37.877 49.6861 38.0382 49.4163 38.0489 49.4163C38.059 49.4163 38.7261 49.3942 38.7261 49.3942L38.9449 49.0512C38.9449 49.0512 39.152 49.1273 39.163 49.1273C39.1738 49.1273 39.4927 48.9009 39.4927 48.9009C39.4927 48.9009 40.3987 49.6642 40.4102 49.6642C40.4212 49.6642 40.7938 49.5615 40.7938 49.5615C40.7938 49.5615 40.9263 49.7476 40.9372 49.7476C40.9481 49.7476 41.2559 49.7476 41.2559 49.7476C41.2559 49.7476 41.4884 49.23 41.8145 49.0437L41.6604 48.7006L42.1405 48.5181L42.6099 48.843L42.9042 48.1419L43.2944 48.1675C43.2944 48.1675 43.5887 48.3927 43.6548 48.4352C43.6546 48.4353 43.5195 47.0319 43.3762 46.9438ZM39.3228 47.1176C39.2752 47.0971 39.2666 47.0223 39.2588 46.979C39.2457 46.9138 39.235 46.8434 39.2076 46.7825C39.1932 46.7487 39.1788 46.7129 39.1695 46.6777C39.1514 46.602 39.1586 46.5162 39.1291 46.4459C39.0838 46.3381 39.1046 46.2156 39.0615 46.1086C39.0356 46.0448 38.9959 45.984 38.9514 45.9311C38.9161 45.8894 38.8728 45.8548 38.8404 45.8101C38.8067 45.7631 38.7756 45.7008 38.7749 45.6415C38.7742 45.5871 38.8073 45.563 38.8497 45.5389C38.8958 45.5117 38.9397 45.4757 38.9887 45.4537C39.047 45.4281 39.1017 45.4493 39.1513 45.4852C39.2471 45.5549 39.3341 45.6642 39.3816 45.7742C39.4443 45.9179 39.3745 46.0183 39.3039 46.1408C39.2766 46.1893 39.25 46.2443 39.2715 46.3013C39.2918 46.3549 39.3391 46.396 39.3681 46.445C39.437 46.5668 39.4435 46.7398 39.4435 46.8776C39.4435 46.935 39.4342 47.1639 39.3228 47.1176Z" fill="#CDCBCB"/>
<path d="M33.7227 39.4732L33.6989 39.4761C33.6989 39.4761 33.1966 39.8348 33.1807 39.8537C33.1642 39.8728 32.9843 40.0149 32.8721 40.037C32.759 40.0591 32.6893 40.0501 32.5978 40.108C32.5063 40.1652 32.1227 40.3954 32.0097 40.3486C31.8968 40.3024 31.7846 40.2342 31.57 40.2745C31.3548 40.3157 31.1295 40.4307 31.1295 40.4307L31.1749 41.219L30.6055 41.2543C30.6055 41.2543 30.1435 41.703 30.1601 41.7088C30.176 41.714 30.8849 42.1129 30.8849 42.1129C30.8849 42.1129 30.6588 42.4743 30.6538 42.5183C30.6481 42.5624 30.6378 42.786 30.6213 42.797C30.6055 42.8081 30.219 42.9231 30.219 43.0654C30.219 43.2077 30.3263 43.6836 30.1111 43.6674C29.8967 43.6505 29.6231 43.6615 29.5957 43.8147C29.5691 43.968 29.4611 44.5861 29.4776 44.5978C29.4941 44.6081 30.2132 44.8926 30.224 44.9095C30.2348 44.9257 30.2189 45.4785 30.2189 45.4785C30.2189 45.4785 30.745 45.6046 30.7667 45.7138C30.7883 45.823 30.9005 46.1179 30.9005 46.1179C30.9005 46.1179 31.2229 46.0584 31.3086 46.1075C31.3949 46.1568 31.7865 46.3429 31.6094 46.5013C31.4324 46.6597 31.1365 46.8621 31.1365 46.8621C31.1365 46.8621 31.3676 47.2507 31.3841 47.2507C31.4 47.2507 31.9002 46.9772 31.9742 47.1084C32.05 47.2397 32.1262 47.1846 32.1621 47.8314L31.459 48.6313L31.176 48.5947L30.8149 48.8542L30.6817 49.6865L30.3916 50.0188C30.3916 50.0188 30.0152 49.7885 30.0044 49.7885C29.9936 49.7885 29.8828 50.1104 29.8828 50.1104H29.5135L29.4855 49.6823L29.284 49.4453L29.3632 49.2231L29.0443 49.0326L28.6499 48.9197L28.6794 48.6894L28.349 48.372L28.2886 47.693L28.1303 47.3938L27.8294 47.6094L27.6538 47.2523L27.2457 47.2193L26.6901 46.3166L26.9377 45.8393L26.4965 45.3641L26.3101 45.5724L25.8445 45.43L25.7156 45.2146L25.3897 45.2072L25.3573 45.5211L25.0924 45.6529L24.9959 45.1705H24.6368L24.5368 44.9081L24.2611 45.0832L23.9134 44.9441L23.8559 44.6596H23.7557C23.7557 44.6596 23.7918 43.6945 23.8457 43.589C23.8991 43.4833 24.0711 43.4394 24.1611 43.4284C24.2503 43.4173 24.6296 43.3007 24.6404 43.3007C24.6511 43.3007 25.4572 42.4362 25.4572 42.4362L25.4745 42.0931L25.1563 40.6375L25.6681 40.3934L25.7077 39.9006C25.7077 39.9006 26.3266 39.6895 26.2842 39.5326C26.2409 39.3756 26.187 39.1389 26.0013 38.9966C25.815 38.8543 25.5141 38.5149 25.5141 38.5149L25.9365 37.9201L25.725 37.3108L26.2158 37.1364C26.2158 37.1364 26.2195 36.7353 26.2518 36.5673C26.2843 36.3993 26.3051 36.3333 26.2483 36.2791C26.1907 36.2241 26.0331 35.8633 26.0331 35.8523C26.0331 35.8414 26.3051 35.5964 26.3051 35.5964V35.0135C26.3058 35.0135 26.3058 35.0135 26.3058 35.0135C26.316 35.0135 27.3293 34.9915 27.3293 34.9915C27.3293 34.9915 27.5337 34.6446 27.6698 34.6703C27.805 34.696 27.8698 34.7723 28.0239 34.798C28.1778 34.8236 28.5895 34.8851 28.6932 34.9402C28.7976 34.9953 28.9732 35.0568 29.1409 35.0532C29.3093 35.0494 29.6605 34.9513 29.8462 35.0862C30.0326 35.2211 30.0829 35.298 30.1687 35.298C30.2542 35.298 30.3047 35.2937 30.3658 35.378C30.4263 35.4624 30.6163 35.9469 30.8344 35.9506C31.0532 35.9542 31.5469 35.801 31.5721 35.9139C31.5973 36.0269 31.762 36.3444 31.8694 36.3158C31.9766 36.2864 32.3882 36.1985 32.3882 36.1985C32.3882 36.1985 32.8237 36.5218 32.6734 36.6692C32.523 36.8166 32.3882 36.8606 32.4157 37.0797C32.4424 37.2983 32.3883 37.3914 32.582 37.6159C32.7755 37.8402 33.0757 38.0647 33.1188 38.19C33.162 38.3161 33.3282 38.6226 33.4305 38.7047C33.5325 38.7868 33.6557 38.9782 33.6557 39.0712C33.6557 39.1646 33.7227 39.4732 33.7227 39.4732Z" fill="#CDCBCB"/>
<path d="M26.0332 35.8525C26.0332 35.8635 26.1907 36.2242 26.2484 36.2793C26.3052 36.3334 26.2844 36.3995 26.252 36.5674C26.2196 36.7354 26.216 37.1365 26.216 37.1365L25.7251 37.3109L25.9366 37.9202L25.5142 38.5149C25.5142 38.5149 25.8152 38.8543 26.0015 38.9966C26.1872 39.139 26.2411 39.3757 26.2844 39.5326C26.3268 39.6895 25.7078 39.9006 25.7078 39.9006L25.6682 40.3933L25.1565 40.6374L25.4746 42.093L25.4573 42.4361C25.4573 42.4361 24.6512 43.3006 24.6405 43.3006C24.6298 43.3006 24.2505 43.4171 24.1612 43.4282C24.0712 43.4392 23.8992 43.4831 23.8459 43.5888C23.7919 43.6944 23.7559 44.6593 23.7559 44.6593H23.6695L23.6055 44.9438L23.193 44.9548L23.0067 45.1961L22.6483 45.2144L22.459 45.0031L22.1754 44.9591L21.8925 44.2978L21.5629 44.0536L21.201 44.0609L20.9217 43.7545L20.9037 43.5939L21.4234 43.4509L21.753 43.2463L21.7817 42.835L21.5486 42.75L21.527 42.6452L21.7854 42.4508L21.4946 42.1012L21.3082 42.1085L21.337 42.4362L20.8965 42.7727L20.6884 42.6371L20.5633 42.7617L20.374 42.6078L20.0076 42.8352L19.7816 42.7428L19.768 42.495L19.3915 42.7876L19.4023 42.3344L19.0475 42.3564L18.4638 41.9986L18.4991 41.7324L18.2342 41.7691L17.639 41.4737L17.1914 41.5389L16.7826 41.377L16.9963 40.5653L17.2727 40.4699C17.2727 40.4699 17.5519 40.6927 17.7808 40.6634C18.0097 40.6341 18.1602 40.5652 18.1602 40.5652L18.0421 40.1568L18.4611 39.4851C18.4611 39.4851 19.0339 39.4785 19.0591 39.3033C19.0836 39.128 19.134 38.8436 19.0591 38.738C18.9836 38.6316 18.9159 38.4969 18.9547 38.3838C18.9943 38.2709 18.9951 38.0077 19.0987 37.9241C19.2023 37.8405 19.3455 37.8369 19.3023 37.7232C19.2599 37.6103 19.1519 37.3918 19.2555 37.3662C19.3599 37.3405 19.542 37.2963 19.5319 37.1763C19.5211 37.056 19.4282 36.6117 19.5319 36.5017C19.6356 36.3924 19.9795 36.0346 20.0437 36.0712C20.1083 36.1079 20.2221 36.2391 20.2617 36.1476C20.3012 36.0566 20.3553 36.0823 20.3661 35.9914C20.3769 35.9004 20.3048 35.8052 20.4014 35.7253C20.4985 35.6446 20.7273 35.484 20.6273 35.4078C20.5272 35.3314 20.2833 35.2875 20.3553 35.1885C20.4264 35.0903 20.538 34.6049 20.4589 34.5469C20.3798 34.4883 20.3373 34.4157 20.3661 34.3388C20.3942 34.2625 20.7094 34.0873 20.7094 34.0873L20.8995 34.237L21.0743 34.1167H21.075L21.4687 33.978L21.7652 34.1928L21.6263 34.4157L21.6976 34.6672L22.446 34.8241C22.446 34.8241 23.0513 34.3137 23.2874 34.2808C23.5234 34.2478 23.8278 34.1928 23.8458 34.2001C23.8631 34.2075 23.9638 34.3644 24.2611 34.3644C24.5584 34.3644 24.6656 34.2919 24.7441 34.3792C24.8233 34.4671 24.8305 34.6818 25.0342 34.5609C25.2386 34.4407 25.1845 34.3792 25.3781 34.4011C25.5717 34.423 25.6394 34.4296 25.6394 34.4296C25.6394 34.4296 25.6185 34.6965 25.743 34.7581C25.8675 34.8198 26.2864 35.0104 26.3051 35.014V35.5969C26.3052 35.5966 26.0332 35.8416 26.0332 35.8525Z" fill="#CDCBCB"/>
<path d="M21.0743 34.1161L20.8995 34.2365L20.7095 34.0867C20.7095 34.0867 20.3942 34.262 20.3662 34.3382C20.3373 34.4152 20.3798 34.4879 20.459 34.5463C20.5381 34.6043 20.4265 35.0898 20.3553 35.1879C20.2833 35.287 20.5273 35.3308 20.6273 35.4072C20.7273 35.4834 20.4985 35.644 20.4014 35.7247C20.3049 35.8046 20.3769 35.8998 20.3661 35.9908C20.3553 36.0817 20.3013 36.056 20.2617 36.147C20.2221 36.2386 20.1083 36.1073 20.0437 36.0706C19.9796 36.034 19.6356 36.3918 19.5319 36.5011C19.4282 36.6112 19.5211 37.0553 19.5319 37.1757C19.542 37.2958 19.3599 37.3398 19.2555 37.3656C19.1519 37.3911 19.2599 37.6097 19.3023 37.7226C19.3455 37.8363 19.2023 37.8399 19.0987 37.9234C18.995 38.0071 18.9943 38.2702 18.9548 38.3831C18.9159 38.4962 18.9836 38.631 19.0591 38.7374C19.134 38.843 19.0836 39.1274 19.0591 39.3026C19.0339 39.4778 18.4611 39.4844 18.4611 39.4844L18.0421 40.1561L18.1602 40.5645C18.1602 40.5645 18.0097 40.6334 17.7808 40.6628C17.552 40.692 17.2727 40.4692 17.2727 40.4692L16.9963 40.5646L16.7826 41.3763L16.6185 41.3118L16.5464 41.6108L16.8833 41.8842L16.8624 42.1841L16.9804 42.2898L17.03 42.465L17.166 42.3411L17.5208 42.7208L17.3668 42.9907L17.7072 43.2685L17.5244 43.4504L17.2416 43.1732L17.1768 43.4467L16.9839 43.3044L16.7183 43.6191L16.313 43.677L16.231 44.0459L15.869 44.5137H15.5646L14.7649 44.013L14.6685 43.422L14.2208 42.6403L13.8307 42.699C13.8307 42.699 13.5508 42.1586 13.5508 42.1477C13.5508 42.1367 13.178 42.2283 13.178 42.2283L12.8591 41.6696V41.3192L13.1355 41.2972L13.7228 40.8227L13.6623 40.2934H13.9804V40.0412L13.4003 39.5016L12.8519 39.4871L12.7699 39.7679L12.4971 39.8448L12.4654 39.6146L12.0098 39.553L11.8168 39.6843L11.8414 39.9174L11.5549 40.1219L11.3909 39.921L11.4901 39.8336L11.2685 39.264H11.0173L10.7453 39.5456L10.5409 39.4577L10.5948 39.1584L10.2796 38.775L10.0285 38.9722H9.44111L9.26912 38.698L8.51634 38.6694L8.18018 38.4282L7.86418 38.7134L7.67782 38.5454L7.86418 38.2097L7.72809 37.9831L7.5504 38.0103C7.48703 37.9245 7.43165 37.8401 7.38342 37.7461C7.34532 37.6736 7.28118 37.6288 7.25745 37.546C7.24163 37.491 7.24307 37.4104 7.24809 37.3539C7.2532 37.2982 7.29487 37.2572 7.30568 37.2037C7.32014 37.126 7.29419 37.0805 7.2503 37.0204C7.22938 36.9902 7.20633 36.9734 7.17902 36.9501C7.1416 36.9185 7.11923 36.8664 7.07823 36.84C7.02643 36.8063 6.9588 36.7674 6.89467 36.7734C6.84644 36.7778 6.82994 36.7946 6.80042 36.8267C6.7846 36.8436 6.7544 36.8643 6.72923 36.8628C6.6867 36.8628 6.65003 36.8033 6.62196 36.7762C6.59602 36.752 6.56872 36.7205 6.53997 36.7007C6.47736 36.6567 6.41263 36.7433 6.39383 36.7989C6.21818 36.6699 5.97134 36.483 5.76617 36.6699C5.57045 36.8488 5.82954 37.0219 5.84103 37.2111C5.84741 37.3094 5.7683 37.3665 5.70348 37.4252C5.62651 37.4949 5.61001 37.5689 5.61715 37.6723C5.62361 37.7793 5.65245 37.9231 5.58185 38.0155C5.50989 38.11 5.37388 38.0661 5.28031 38.0367C5.16582 38.0007 5.05711 37.9677 4.93624 37.9752C4.87645 37.9795 4.77573 38.0097 4.76425 37.9238C4.74775 37.8007 4.83978 37.6443 4.89167 37.5404C4.96142 37.401 5.04359 37.269 5.1141 37.1312C5.16803 37.0234 5.2098 36.9096 5.22349 36.7887C5.2371 36.6758 5.22272 36.5637 5.22128 36.45C5.21983 36.3276 5.2479 36.2147 5.29826 36.104C5.35082 35.988 5.42066 35.8781 5.4472 35.7521C5.4717 35.6347 5.44652 35.5197 5.43997 35.4015C5.4335 35.2624 5.46668 35.1333 5.52129 35.0057C5.57743 34.8745 5.64862 34.7462 5.67023 34.6017C5.69115 34.4674 5.66164 34.3355 5.61341 34.2102C5.56518 34.0855 5.48242 33.9646 5.41113 33.8509C5.32914 33.7198 5.24067 33.5942 5.1477 33.4718C5.11895 33.433 5.09667 33.3906 5.08008 33.3458L5.97619 33.1838L6.62026 32.4454L6.74411 32.4242L7.47461 32.8509L7.55516 32.0136L7.82361 31.8985L8.5325 32.2651H8.67719L8.80095 31.7291L9.53655 31.3457L9.805 30.1637L10.4009 29.8529L10.4822 29.4422L11.4647 29.7266C11.4647 29.7266 11.9526 30.2906 12.029 30.4217C12.1031 30.5531 12.4471 30.2414 12.4471 30.2414L12.8984 29.3879V29.3872L13.6987 29.2119L14.445 29.5573L14.5796 30.3007L15.1971 30.454L15.8363 31.1491L16.2443 30.8916L16.846 30.9847L17.2108 30.6563L17.619 30.6893L17.7369 30.1973L18.2098 29.8909L19.7133 30.2904L19.8314 31.0177L19.3319 31.3403L19.7781 32.2489L20.5836 32.3251L20.7663 33.0253L20.7289 33.3316L20.5511 33.6163L20.8145 33.7695L21.0743 34.1161Z" fill="#CDCBCB"/>
<path d="M12.8991 29.3871V29.3878L12.4478 30.2413C12.4478 30.2413 12.1038 30.553 12.0297 30.4216C11.9534 30.2904 11.4654 29.7265 11.4654 29.7265L10.4829 29.4421L10.4016 29.8528L9.80569 30.1636L9.53724 31.3456L8.80164 31.7291L8.67788 32.265H8.53319L7.8243 31.8984L7.55585 32.0135L7.4753 32.8508L6.7448 32.4241L6.62095 32.4453L5.97687 33.1837L5.08076 33.3457C5.039 33.2371 5.02896 33.1154 5.02964 32.9996C5.031 32.8969 5.02598 32.7943 5.03832 32.6917C5.05116 32.5846 5.04112 32.4834 4.99791 32.3837C4.94254 32.2524 4.88351 32.1585 4.75532 32.0932C4.66533 32.0479 4.56462 32.031 4.47539 31.9848C4.39909 31.9459 4.31922 31.9231 4.24071 31.888C4.18312 31.8623 4.12987 31.8286 4.07237 31.7999C3.95286 31.7516 3.82051 31.6467 3.79814 31.5096C3.77219 31.3541 3.79525 31.1634 3.89026 31.0344C3.94206 30.9648 4.00109 30.9063 4.0227 30.819C4.04507 30.7303 4.03928 30.6253 4.02057 30.5359C3.99675 30.4155 3.9219 30.3246 3.80886 30.2822C3.72397 30.2499 3.6304 30.2536 3.54619 30.2185C3.46776 30.1854 3.39002 30.1304 3.35837 30.0454C3.32239 29.9486 3.33745 29.8341 3.33609 29.733C3.33532 29.6327 3.33609 29.5212 3.29365 29.4288C3.25409 29.3459 3.1806 29.3145 3.12157 29.2528C3.00784 29.1355 3.0064 28.9632 3.05173 28.8159C3.12012 28.6003 3.37063 28.5401 3.4829 28.3523C3.54117 28.2548 3.58795 28.1375 3.58506 28.021C3.58149 27.8978 3.51523 27.7899 3.50009 27.6684C3.48792 27.573 3.51455 27.5019 3.57928 27.4338C3.66638 27.3427 3.7585 27.2137 3.75272 27.0811C3.74693 26.9345 3.74914 26.7943 3.66561 26.6675C3.59442 26.5583 3.47278 26.5106 3.40227 26.4007C3.34034 26.3039 3.31304 26.1609 3.33388 26.0466C3.34545 25.9871 3.39368 25.9461 3.40363 25.8867C3.4152 25.8178 3.39504 25.7554 3.35259 25.7013C3.31083 25.6499 3.23955 25.6052 3.22083 25.5377C3.20501 25.4798 3.25248 25.4058 3.28344 25.3617C3.31517 25.3163 3.35319 25.2745 3.35319 25.2143C3.35319 25.1498 3.25179 25.0736 3.19412 25.0589C3.07683 25.0311 2.93435 25.0362 2.835 24.9599C2.73208 24.8808 2.67526 24.7561 2.65935 24.6299C2.65212 24.5728 2.65153 24.5243 2.6551 24.4672C2.6608 24.3909 2.60032 24.3447 2.55941 24.2869C2.49825 24.2018 2.42841 24.1168 2.40613 24.0111C2.38231 23.8968 2.44287 23.7993 2.48668 23.698C2.486 23.701 2.48455 23.7046 2.48243 23.709C2.48966 23.698 2.5019 23.6841 2.50684 23.6775C2.51909 23.6591 2.53278 23.6416 2.54435 23.6225C2.56374 23.5896 2.5839 23.5602 2.60117 23.5264C2.63426 23.4626 2.67891 23.409 2.70775 23.3424C2.73148 23.2851 2.75309 23.2375 2.79272 23.1899C2.83662 23.1378 2.85958 23.0653 2.89054 23.0044C2.90781 22.9684 2.94167 22.9215 2.93154 22.8804C2.92083 22.8408 2.87617 22.7947 2.85167 22.7616C2.81067 22.7066 2.78184 22.6502 2.75521 22.5872C2.73361 22.5337 2.72136 22.5014 2.74007 22.4456C2.75879 22.3914 2.78328 22.3584 2.81637 22.3136C2.86885 22.2462 2.90126 22.0563 2.82564 21.9925C2.79043 21.9624 2.74722 21.9668 2.71915 21.9272C2.68096 21.8715 2.65654 21.8033 2.62558 21.741L2.85593 21.3722C2.85593 21.3722 3.14377 21.4074 3.20493 21.5035C3.20493 21.5035 3.46836 21.6758 3.53522 21.5797C3.60292 21.4837 3.61373 21.0137 3.65328 20.7534C3.6936 20.4938 3.73681 20.1953 4.06208 19.9989L3.78793 19.6623C3.78793 19.6623 4.18304 19.0303 4.19894 19.0442C4.21476 19.0574 4.93735 19.6043 4.94526 19.6043C4.95317 19.6043 5.07124 19.5031 5.07124 19.5031L5.1813 19.6923L6.42497 18.8821L6.33353 18.5514C6.33353 18.5514 7.42103 17.8372 7.43472 17.8512C7.44765 17.8644 8.28549 18.1027 8.29408 18.1027C8.30199 18.1027 9.37869 16.7183 9.37869 16.7183L10.0905 17.0717L9.92639 17.5858L9.76223 17.9795L10.1063 18.6416L9.76223 19.7685L9.89109 20.4687C9.89109 20.4687 9.12317 20.8031 9.11815 20.8192C9.11237 20.8354 9.0051 21.6566 9.0051 21.6566L9.68746 22.92L9.3758 23.3907L9.74071 23.8174L9.55578 26.4056L9.78392 26.6843L10.069 26.4988L10.4554 26.7554L10.1545 27.1989L10.6649 27.6469L11.0945 27.4775L11.1701 27.5157L11.2075 28.2656L11.6098 28.5061L11.7975 28.468L11.8675 28.3038L12.5929 28.6432L12.8991 29.3871Z" fill="#CDCBCB"/>
<path d="M14.5444 10.1196C14.5479 10.1086 14.5335 9.76178 14.5335 9.76178L15.0489 9.65987L15.0244 9.29549L14.4119 9.02937C14.4119 9.02937 13.9463 8.17954 13.9463 8.16853C13.9463 8.15753 13.8852 7.60328 13.8852 7.60328L13.7319 7.10319C13.7319 7.10319 13.4707 6.47182 13.4807 6.47182C13.4915 6.47182 13.9392 6.13672 13.9392 6.13672L13.9716 5.96514L14.0644 5.74954L14.0501 5.61462L13.5779 5.11895L13.796 4.76124L13.6815 3.86817L13.1698 3.65265L13.2886 3.14893C13.1785 3.16721 13.0812 3.18783 12.9936 3.27059C12.941 3.3205 12.8905 3.37033 12.8323 3.41435C12.7992 3.43861 12.7618 3.45837 12.7257 3.47674C12.702 3.48922 12.6761 3.49806 12.6516 3.50751C12.6487 3.5082 12.6415 3.50967 12.6394 3.50967H12.6387C12.5321 3.55811 12.4242 3.63064 12.332 3.70395C12.3097 3.72163 12.2738 3.73697 12.255 3.75751C12.2327 3.78238 12.2227 3.8264 12.2061 3.85577C12.1492 3.96132 12.1096 4.08013 12.0441 4.17909C11.9664 4.29867 11.8901 4.4167 11.8131 4.53619C11.78 4.58819 11.7527 4.63585 11.7124 4.68281C11.685 4.71505 11.6656 4.7524 11.6447 4.78914C11.5922 4.88299 11.5338 4.98489 11.4569 5.05968C11.3863 5.12788 11.3654 5.2349 11.3043 5.31263C11.233 5.40422 11.1358 5.46956 11.0538 5.54946C10.989 5.61323 10.9344 5.68663 10.8782 5.75847C10.763 5.90362 10.63 6.00197 10.4695 6.09131C10.3788 6.14183 10.288 6.18143 10.1917 6.22182C10.1096 6.25483 10.0326 6.30986 9.94772 6.33325C9.71882 6.39634 9.49426 6.47849 9.26035 6.52026C9.20923 6.52979 9.15666 6.55397 9.11855 6.58915C9.0437 6.65882 8.98824 6.74166 8.89697 6.79149C8.80978 6.83846 8.70975 6.81861 8.61985 6.85163C8.55358 6.87511 8.48732 6.88386 8.42115 6.9044C8.34986 6.92563 8.29364 6.96229 8.21743 6.96957C8.11238 6.98204 8.0058 6.98499 7.89939 6.98794C7.81441 6.98941 7.71651 6.96956 7.63808 7.00553C7.59138 7.02754 7.5503 7.06125 7.50922 7.09348C7.46388 7.12728 7.42143 7.16896 7.36317 7.17269C7.31358 7.17633 7.2747 7.16679 7.2286 7.19028C7.17459 7.21887 7.1199 7.24894 7.06376 7.27095C7.00472 7.29305 6.93634 7.27979 6.87518 7.28933C6.801 7.30102 6.71901 7.29808 6.65198 7.33629C6.59516 7.36705 6.53477 7.39201 6.47276 7.4096C6.41662 7.42494 6.35333 7.44331 6.3 7.46757C6.25977 7.48586 6.22804 7.50137 6.1827 7.51151C6.13813 7.52243 6.09416 7.53647 6.04958 7.54964C6.01939 7.55848 5.98775 7.55622 5.95755 7.56428C5.88338 7.58482 5.83727 7.66402 5.76174 7.68742C5.7056 7.70432 5.63934 7.6992 5.58252 7.70865C5.52281 7.71896 5.45442 7.72477 5.40194 7.75484C5.34937 7.78491 5.2997 7.80692 5.24288 7.83109C5.18665 7.85466 5.14276 7.90077 5.0953 7.9389C5.03269 7.99097 4.92398 8.04305 4.84267 8.04305C4.79231 8.04305 4.73762 8.03863 4.68718 8.04817C4.62959 8.05995 4.58068 8.0856 4.53169 8.11706C4.48346 8.14704 4.42519 8.14704 4.37764 8.18014C4.33588 8.20874 4.31206 8.23361 4.26247 8.24981C4.22139 8.2629 4.17392 8.28942 4.13003 8.28942C4.08546 8.28942 4.0494 8.27832 4.00474 8.29375C3.95583 8.31056 3.91407 8.32746 3.86226 8.34072C3.80111 8.35527 3.82339 8.37728 3.80902 8.42503C3.80187 8.44999 3.77669 8.46021 3.76734 8.48292C3.75943 8.50051 3.76309 8.51966 3.76309 8.53794C3.76309 8.58041 3.79107 8.61047 3.78971 8.65085C3.78537 8.72486 3.73791 8.69566 3.69393 8.71463C3.62988 8.74323 3.66373 8.898 3.66084 8.95294C3.6565 9.0681 3.62852 9.18977 3.57519 9.29167C3.55145 9.33569 3.51683 9.36212 3.48017 9.39367C3.44275 9.42521 3.414 9.46325 3.37291 9.49263C3.28437 9.55571 3.19735 9.62313 3.11237 9.69211C3.07784 9.71992 3.04543 9.74263 3.02451 9.78232C3.00154 9.82478 2.97636 9.86585 2.95187 9.90849C2.87633 10.0404 2.86842 10.2054 2.85898 10.3535C2.85464 10.4181 2.85677 10.4789 2.84171 10.5419C2.82155 10.6299 2.81517 10.7216 2.79493 10.8103C2.78123 10.869 2.75963 10.932 2.73879 10.9877C2.71795 11.0434 2.6596 11.0596 2.6078 11.0676C2.54664 11.0779 2.49841 11.0896 2.46541 11.1505C2.43291 11.2077 2.42866 11.295 2.43581 11.3594C2.4387 11.3888 2.45307 11.413 2.45886 11.4423C2.46541 11.4717 2.46175 11.5047 2.46175 11.534C2.46243 11.5985 2.46243 11.6615 2.46753 11.7261C2.47255 11.7913 2.48837 11.8433 2.52657 11.8962C2.55965 11.9409 2.58849 11.9636 2.63017 11.9973C2.65892 12.0208 2.68274 12.0509 2.71293 12.0729C2.7353 12.0905 2.75904 12.0964 2.76695 12.1264C2.78132 12.1785 2.73377 12.2298 2.7302 12.2803C2.7245 12.3368 2.74168 12.3933 2.74032 12.4505C2.74032 12.4761 2.75257 12.5319 2.73743 12.5531C2.72229 12.5737 2.69277 12.5649 2.67117 12.5693C2.62592 12.5487 2.57616 12.5289 2.55464 12.4821C2.49416 12.3508 2.51432 12.1858 2.42075 12.0678C2.38111 12.0179 2.32574 12.0091 2.26747 11.998C2.20989 11.9871 2.16523 11.9666 2.11777 11.9307C2.07243 11.8962 2.02999 11.872 1.97317 11.8603C1.91915 11.8493 1.85587 11.8493 1.80832 11.8185C1.74929 11.7812 1.71901 11.6997 1.68302 11.6426C1.63267 11.5627 1.57007 11.4828 1.48364 11.4425C1.42827 11.416 1.36635 11.4117 1.31165 11.3846C1.25696 11.3567 1.21162 11.3149 1.17275 11.2687C1.12163 11.2086 1.07348 11.1403 1.00501 11.0993C0.947424 11.0633 0.900642 11.0765 0.909233 11.1513C0.915017 11.2056 0.935856 11.2503 0.924373 11.3053C0.910679 11.3661 0.919355 11.4049 0.943087 11.4629C0.963246 11.512 0.99846 11.5781 0.936622 11.6081C0.884055 11.6346 0.809203 11.6236 0.753063 11.6198C0.747279 11.6711 0.776029 11.7115 0.810649 11.7475C0.863896 11.8039 0.924374 11.8604 0.984086 11.9102C1.03946 11.9549 1.09781 11.9917 1.14459 12.0481C1.2237 12.1441 1.30791 12.2754 1.32373 12.4008C1.33666 12.5049 1.33666 12.5988 1.39076 12.6897C1.46119 12.8085 1.53681 12.917 1.58291 13.0489C1.60298 13.1075 1.62757 13.1647 1.63327 13.227C1.63752 13.2777 1.62756 13.3276 1.62825 13.3773C1.62893 13.4264 1.6268 13.4719 1.62034 13.5196C1.61098 13.5922 1.62323 13.6706 1.62323 13.7433C1.62323 13.8621 1.63412 13.9735 1.65776 14.0908C1.6678 14.1428 1.66924 14.1941 1.68439 14.2448C1.70165 14.3035 1.71611 14.3665 1.72538 14.4266C1.7441 14.5461 1.76426 14.6738 1.80457 14.7881C1.84413 14.9017 1.87075 15.0191 1.88811 15.1378C1.89534 15.192 1.90546 15.2368 1.89959 15.291C1.89312 15.3542 1.88309 15.4164 1.87509 15.4787C1.85638 15.6276 1.82252 15.7969 1.73406 15.9239C1.71254 15.9553 1.68728 15.9832 1.66133 16.0096C1.63182 16.0389 1.60443 16.0484 1.56853 16.069C1.53544 16.0866 1.50295 16.1115 1.47207 16.1342C1.45693 16.146 1.43822 16.1556 1.4281 16.168C1.37204 16.2332 1.41441 16.3374 1.44035 16.4048C1.47412 16.4957 1.53179 16.5742 1.567 16.665C1.57848 16.6951 1.60009 16.7324 1.60511 16.7633C1.61013 16.7978 1.59209 16.8381 1.58138 16.8711C1.56556 16.9195 1.54251 16.9649 1.5266 17.0141C1.51154 17.0617 1.50363 17.0749 1.46476 17.1101C1.42087 17.1489 1.37911 17.1879 1.33521 17.2259C1.30289 17.2538 1.27116 17.2846 1.23663 17.3103C1.20354 17.3352 1.18993 17.366 1.16246 17.3975C1.13583 17.4276 1.1013 17.4517 1.07612 17.4833C1.04737 17.5177 1.02432 17.5573 1.00195 17.5962C0.955931 17.6718 0.942917 17.7576 0.929988 17.8447C0.923523 17.8836 0.918505 17.9232 0.911275 17.9621C0.904725 18.0046 0.913401 18.0471 0.90413 18.0897C0.883205 18.1902 0.821281 18.2422 0.731372 18.2766C0.687481 18.2928 0.644271 18.2986 0.598934 18.3096C0.546367 18.3228 0.499583 18.3486 0.447016 18.3618C0.419627 18.3684 0.392323 18.3626 0.366379 18.3698C0.351239 18.3734 0.329719 18.3867 0.316024 18.3941C0.244744 18.4299 0.176356 18.4718 0.108733 18.515C0.0597383 18.5458 -0.0157954 18.5803 0.00291786 18.6521C0.015847 18.702 0.0489353 18.7445 0.0798972 18.7834C0.127446 18.8421 0.171337 18.911 0.184266 18.9873C0.204426 19.1017 0.146073 19.1508 0.0964832 19.2388C0.0324329 19.3524 0.064076 19.4999 0.105755 19.6142C0.11222 19.634 0.121576 19.6552 0.127361 19.6758C0.143947 19.7308 0.180608 19.8019 0.233856 19.8275C0.256907 19.8385 0.282084 19.84 0.30437 19.851C0.337544 19.8679 0.361956 19.8972 0.393003 19.917C0.434683 19.9419 0.469302 19.9771 0.513193 19.9984C0.626153 20.0526 0.753573 20.0776 0.857942 20.1472C0.921992 20.1905 0.995399 20.2132 1.06455 20.2477C1.11491 20.2719 1.15378 20.3151 1.18908 20.3584C1.36822 20.5754 1.49785 20.8393 1.71594 21.0182C1.7663 21.0586 1.79947 21.0946 1.83256 21.1495C1.86922 21.2104 1.916 21.2654 1.97503 21.305C2.02828 21.3394 2.06426 21.3328 2.12185 21.3379C2.21108 21.3468 2.3032 21.4105 2.37303 21.4633C2.46804 21.5359 2.54868 21.6033 2.60907 21.7097C2.61486 21.7199 2.62056 21.7309 2.62566 21.7412L2.856 21.3724C2.856 21.3724 3.14385 21.4076 3.20501 21.5037C3.20501 21.5037 3.46844 21.676 3.53529 21.5799C3.603 21.4839 3.6138 21.0139 3.65336 20.7536C3.69368 20.494 3.73689 20.1955 4.06216 19.9991L3.78801 19.6625C3.78801 19.6625 4.18311 19.0305 4.19902 19.0444C4.21484 19.0576 4.93742 19.6045 4.94533 19.6045C4.95324 19.6045 5.07131 19.5033 5.07131 19.5033L5.18138 19.6925L6.42504 18.8823L6.3336 18.5516C6.3336 18.5516 7.42109 17.8375 7.43479 17.8514C7.44772 17.8646 8.28556 18.1029 8.29415 18.1029C8.30206 18.1029 9.37875 16.7185 9.37875 16.7185L10.0905 17.0719L9.92645 17.586L10.5482 17.7393L11.7869 17.3345L11.8409 17.1484L11.8877 16.6197L12.1742 16.2289L12.8075 16.058L12.9363 15.6312C12.9363 15.6312 13.4164 15.7368 13.4308 15.7332C13.4452 15.7295 13.4489 15.4927 13.4489 15.4927L13.3949 15.2662L13.8822 14.8321L13.3272 14.2192C13.3272 14.2192 12.6075 14.0226 12.5608 13.9603C12.514 13.8987 12.3527 13.7381 12.3815 13.5703C12.4103 13.4024 12.4816 13.1803 12.7076 13.151C12.9328 13.1216 13.903 12.9244 13.903 12.9244L13.9642 11.8964L14.8055 11.7358L14.7479 11.1815L14.9739 10.5061C14.974 10.5061 14.5444 10.1335 14.5444 10.1196ZM4.47112 14.9684C4.44671 15.0916 4.36106 15.192 4.33443 15.3145C4.31648 15.3973 4.34736 15.4743 4.35817 15.5557C4.37331 15.6664 4.37407 15.7859 4.36965 15.8973C4.36761 15.9596 4.34881 16.041 4.2999 16.0843C4.25099 16.1283 4.15308 16.0828 4.10196 16.0629C4.10052 16.0535 4.09542 16.046 4.08759 16.0417C4.00627 15.9727 3.96884 15.8202 4.02498 15.7234C4.06955 15.6472 4.11779 15.6091 4.09337 15.5137C4.06888 15.4191 4.03791 15.3392 4.07755 15.2439C4.11566 15.1515 4.16244 15.0767 4.18047 14.9771C4.19698 14.889 4.21935 14.7725 4.32516 14.7601C4.44382 14.7462 4.49069 14.8686 4.47112 14.9684ZM13.2754 9.56533C13.2754 9.45684 13.3957 9.50303 13.4323 9.42088C13.464 9.34835 13.4633 9.25883 13.5532 9.23101C13.646 9.20242 13.6964 9.29115 13.7101 9.37174C13.7188 9.41654 13.7029 9.45467 13.6921 9.49791C13.6741 9.57348 13.6632 9.73249 13.5754 9.76334C13.5107 9.78604 13.3991 9.72304 13.3473 9.68561C13.3129 9.66056 13.2754 9.61143 13.2754 9.56533ZM14.155 10.6519C14.0758 10.7172 14.0002 10.7882 13.9247 10.8564C13.8873 10.8894 13.8484 10.9144 13.8095 10.9423C13.7678 10.9724 13.7447 11.02 13.7102 11.0559C13.675 11.0919 13.5987 11.1388 13.5871 11.1908C13.5051 11.1549 13.5467 11.0896 13.5583 11.0215C13.5749 10.9269 13.4886 10.9393 13.4396 10.8895C13.3727 10.8213 13.539 10.8126 13.5706 10.8139C13.6419 10.8176 13.7584 10.8477 13.7872 10.756C13.8153 10.6717 13.7678 10.5617 13.7541 10.4781C13.7411 10.4041 13.716 10.2962 13.7455 10.2237C13.7757 10.149 13.8599 10.1731 13.9088 10.2126C13.9635 10.256 13.993 10.3146 14.0635 10.333C14.1442 10.3542 14.209 10.3798 14.2399 10.4672C14.2708 10.5522 14.2147 10.6035 14.155 10.6519Z" fill="#CDCBCB"/>
<path d="M30.3939 1.31836C30.3529 1.29852 30.2846 1.36377 30.2551 1.38656C30.2046 1.42391 30.1722 1.44592 30.1356 1.50163C30.1284 1.51125 30.0895 1.57425 30.0838 1.56324C30.0514 1.63577 30.0167 1.70769 29.9823 1.77875C29.9513 1.844 29.9318 1.91444 29.8937 1.97675C29.8571 2.03541 29.8117 2.08454 29.7786 2.14537C29.6915 2.3081 29.5994 2.48409 29.4683 2.61528C29.4172 2.66667 29.3575 2.71138 29.3086 2.76632C29.2639 2.81476 29.2229 2.86675 29.1834 2.91952C29.1495 2.96501 29.12 3.0229 29.0769 3.06102C28.9963 3.13286 28.9092 3.20617 28.8221 3.2715C28.6587 3.39541 28.4989 3.52886 28.3319 3.64766C28.2715 3.69012 28.2081 3.72755 28.1434 3.76117C28.0282 3.8207 27.908 3.86689 27.7857 3.90865C27.7245 3.9291 27.6641 3.94895 27.603 3.9687C27.5461 3.98629 27.4921 3.98777 27.4338 3.99877C27.346 4.0142 27.2539 4.02893 27.1704 4.06116C27.1141 4.0817 27.0767 4.12719 27.0229 4.15128C26.9537 4.18204 26.8745 4.19383 26.8019 4.2122C26.7112 4.2349 26.622 4.2518 26.5299 4.26124C26.4542 4.2693 26.3787 4.28767 26.3025 4.2914C26.1952 4.2972 26.0923 4.30015 25.9857 4.32068C25.8908 4.33828 25.7921 4.33828 25.6979 4.35881C25.6209 4.37493 25.6267 4.43801 25.5979 4.50031C25.5893 4.51791 25.5691 4.56409 25.5432 4.55387C25.5159 4.54433 25.5208 4.47172 25.5201 4.45049C25.5187 4.41384 25.5238 4.36184 25.4978 4.331C25.4755 4.30387 25.4345 4.30232 25.4027 4.29582C25.3265 4.28187 25.2559 4.26419 25.1789 4.28039C25.1322 4.28914 25.0378 4.29582 25.0638 4.36401C25.0946 4.44165 25.1782 4.51132 25.2321 4.57223C25.2472 4.58983 25.3502 4.69164 25.2869 4.69026C25.2364 4.68878 25.1731 4.61469 25.1386 4.58463C25.0861 4.53922 25.0493 4.49156 25.0119 4.4329C24.9515 4.33689 24.8391 4.19903 24.7211 4.18291C24.6478 4.17268 24.5794 4.14253 24.5067 4.13161C24.3901 4.11402 24.2944 4.02381 24.2239 3.93508C24.1836 3.88456 24.0901 3.75181 24.0174 3.82738C23.9821 3.86472 23.9684 3.92772 23.905 3.88084C23.8785 3.86108 23.8583 3.83093 23.8338 3.80892C23.7907 3.77079 23.7417 3.73934 23.6964 3.70407C23.6359 3.65719 23.5561 3.60511 23.5222 3.53319C23.4855 3.45477 23.479 3.37262 23.4833 3.28762C23.4855 3.25097 23.4948 3.20695 23.4877 3.17029C23.4827 3.1417 23.4639 3.12185 23.4495 3.09776C23.4121 3.03615 23.4127 2.96865 23.4106 2.89829C23.4078 2.82429 23.448 2.75167 23.438 2.67984C23.4301 2.61676 23.397 2.53972 23.3372 2.51269C23.2919 2.41885 23.3149 2.30152 23.2508 2.21426C23.2256 2.17977 23.2105 2.13289 23.1982 2.09182C23.1824 2.03905 23.1954 1.98481 23.1687 1.9342C23.1076 1.9115 23.0427 1.88949 22.9874 1.85205C22.878 1.77588 22.8902 1.65111 22.8758 1.53239C22.857 1.38214 22.7837 1.2779 22.6656 1.19003C22.5641 1.11447 22.4734 1.05 22.4799 0.909192C22.4835 0.83883 22.4978 0.76769 22.5223 0.702354C22.5525 0.623934 22.6008 0.582166 22.6706 0.537454C22.6908 0.549932 22.7261 0.539621 22.7506 0.54768C22.7808 0.557904 22.8081 0.57922 22.8377 0.594644C22.9032 0.628352 22.9672 0.673845 23.0341 0.703827C23.1594 0.761017 23.2932 0.8241 23.4026 0.907719C23.4588 0.950958 23.5105 0.973662 23.5739 1.00156C23.6329 1.02877 23.6768 1.07782 23.7278 1.11447C23.8286 1.18778 23.9567 1.21421 24.064 1.27287C24.133 1.31022 24.1899 1.35502 24.2432 1.41073C24.2691 1.43864 24.2834 1.46064 24.3022 1.49435C24.3231 1.53239 24.3598 1.55588 24.3864 1.58889C24.4116 1.62043 24.426 1.66298 24.4425 1.70033C24.4785 1.78022 24.5152 1.86531 24.5872 1.91956C24.6915 1.99798 24.7506 1.9108 24.7311 1.80223C24.6721 1.48188 24.3705 1.30302 24.1143 1.16074C23.7357 0.951044 23.3817 0.701052 22.993 0.510417C22.808 0.419432 22.6252 0.328536 22.4489 0.220828C22.2891 0.12395 22.1279 0.0398103 21.9415 0.0119084C21.5795 -0.0416426 21.2211 0.101333 20.862 0.126203C20.7245 0.136514 20.5892 0.143101 20.4554 0.176809C20.2452 0.228887 20.0321 0.292575 19.827 0.363803C19.7615 0.386506 19.6932 0.392398 19.6283 0.419433C19.4405 0.494994 19.2649 0.610156 19.0706 0.669426C18.9641 0.70166 18.849 0.696635 18.7417 0.734068C18.71 0.744293 18.6769 0.756769 18.6445 0.766301C18.62 0.772887 18.5956 0.773668 18.5704 0.777307C18.4941 0.789785 18.4207 0.815434 18.3472 0.836664C18.2818 0.855814 18.2112 0.851396 18.145 0.870459C18.1061 0.881464 18.0701 0.896106 18.0327 0.909364C17.9571 0.935013 17.8859 0.928429 17.8146 0.973142C17.7483 1.01344 17.6771 1.03102 17.6023 1.04575C17.5282 1.0604 17.4505 1.05087 17.3748 1.06335C17.3367 1.06924 17.2986 1.06854 17.2598 1.06854C17.1813 1.06854 17.1389 1.10442 17.0741 1.14255C17.0115 1.1792 16.92 1.17773 16.8495 1.17773C16.7963 1.17773 16.7517 1.17261 16.7063 1.20415C16.6444 1.24817 16.6098 1.31706 16.5407 1.35294C16.4558 1.39696 16.3529 1.39696 16.2615 1.41238C16.206 1.42122 16.1549 1.42555 16.1024 1.44609C16.0621 1.46298 16.0211 1.48421 15.9844 1.5077C15.9506 1.52901 15.9297 1.55761 15.8995 1.58178C15.8649 1.60891 15.8095 1.6719 15.7677 1.67346C15.6511 1.7563 15.5425 1.84356 15.436 1.93948C15.4086 1.96297 15.3892 1.9952 15.3626 2.02016C15.3338 2.04737 15.2964 2.0686 15.2648 2.09277C15.2222 2.12648 15.1683 2.15516 15.1438 2.2049C15.1215 2.25109 15.1122 2.30247 15.0905 2.34718C15.0668 2.39779 15.0322 2.4425 14.9891 2.47777C14.9286 2.52681 14.8588 2.55324 14.794 2.59501C14.7415 2.63019 14.6954 2.67048 14.6421 2.70497C14.5565 2.7593 14.4845 2.8333 14.401 2.88911C14.375 2.9067 14.347 2.92351 14.324 2.94326C14.2938 2.97117 14.2815 2.99525 14.2433 3.01146C14.2103 3.02541 14.1772 3.043 14.144 3.05548C14.0756 3.08104 13.9928 3.08251 13.9202 3.09724C13.8482 3.11042 13.7741 3.12064 13.7014 3.12064C13.6402 3.12211 13.5797 3.12133 13.5186 3.12133C13.4531 3.12133 13.3948 3.13234 13.3307 3.14265C13.3163 3.14482 13.302 3.14707 13.2883 3.14923L13.1695 3.65294L13.6812 3.86845L13.7957 4.76148L13.5776 5.11918L14.0498 5.61483L14.064 5.74975L13.9712 5.96534L13.9388 6.13691C13.9388 6.13691 13.4912 6.472 13.4804 6.472C13.4703 6.472 13.7315 7.10334 13.7315 7.10334L13.8848 7.60341C13.8848 7.60341 13.946 8.15764 13.946 8.16865C13.946 8.17956 14.4116 9.02945 14.4116 9.02945L15.024 9.29556L15.0485 9.65993L14.5331 9.76183C14.5331 9.76183 14.5475 10.1086 14.544 10.1196C14.544 10.1336 14.9737 10.506 14.9737 10.506L14.7477 11.1813L14.8053 11.7356L15.3263 12.8229L15.6783 13.1073L15.8445 13.1242L16.1022 12.9409L17.0874 12.875L17.4983 13.1763L17.8446 12.7847L17.9122 12.1205L18.162 11.9233L18.4628 12.2408H19.1847L19.5582 12.1366L19.8799 11.6718L19.3214 11.3463L19.4776 11.0889C19.4776 11.0889 20.1059 10.9218 20.1059 10.9195C20.098 10.9195 20.1383 10.4327 20.1297 10.4327C20.1297 10.4319 20.5838 10.3916 20.5838 10.3916L20.8552 10.6842L21.0026 10.7303L21.392 10.2135L22.27 10.3996L22.5551 10.7552L23.8599 10.7633C23.8599 10.7633 24.1579 11.0338 24.1608 11.0419C24.1708 11.0419 24.6142 10.566 24.6142 10.566L25.0439 10.7662L25.0684 11.3213L26.1343 11.4635L26.4798 11.3095L27.0526 11.0536L27.3369 10.3527L27.8854 9.90403L27.6917 9.4582L27.9141 9.0505L28.6662 9.11359L29.2118 7.80046L29.0909 7.70514L28.5187 7.62586L28.2826 8.05773L27.9465 7.64492L27.7882 7.16903C27.7882 7.16903 27.396 7.16903 27.3881 7.16903C27.3801 7.16903 27.0743 6.32373 27.0743 6.32373L27.1239 5.15358C27.0937 5.14267 27.0663 5.12577 27.0296 5.1184C27.0181 5.05688 27.1397 5.05532 27.1757 5.02829C27.2333 4.98435 27.2031 4.91833 27.2154 4.85455C27.2254 4.79805 27.2628 4.74381 27.2866 4.69173C27.3111 4.63679 27.3175 4.59277 27.2866 4.53862C27.2678 4.50707 27.2513 4.47553 27.2196 4.45716C27.1959 4.44321 27.1578 4.44468 27.1383 4.42562C27.0901 4.38013 27.1699 4.30899 27.203 4.28265C27.2916 4.21081 27.3923 4.24824 27.4924 4.26583C27.6184 4.28776 27.7148 4.2453 27.8033 4.15362C27.8861 4.06705 27.9573 3.94176 28.0761 3.90216C28.1732 3.8707 28.2733 3.91758 28.3712 3.89635C28.5015 3.86845 28.5835 3.73431 28.6569 3.6331C28.7403 3.51881 28.8289 3.39853 28.9599 3.3384C29.0419 3.29958 29.1397 3.29732 29.2174 3.2475C29.2901 3.20131 29.3333 3.11986 29.3794 3.04802C29.4276 2.97255 29.4824 2.90358 29.5355 2.83244C29.5989 2.74812 29.6528 2.65722 29.7126 2.57066C29.7759 2.47907 29.8486 2.39917 29.9285 2.32292C29.9926 2.26278 30.0473 2.20265 30.0768 2.11834C30.1106 2.0186 30.1258 1.91306 30.1653 1.81479C30.2063 1.7122 30.2711 1.62277 30.3106 1.52009C30.3284 1.47676 30.4659 1.35363 30.3939 1.31836ZM17.855 1.21291C17.7859 1.22166 17.742 1.25459 17.709 1.3162C17.6823 1.36463 17.6622 1.42321 17.6067 1.44375C17.5586 1.46203 17.501 1.44228 17.4542 1.46801C17.4096 1.49219 17.3924 1.5531 17.3787 1.59929C17.3607 1.66159 17.3577 1.72675 17.3319 1.78689C17.3261 1.80015 17.3139 1.81765 17.3017 1.82502C17.265 1.84989 17.2376 1.8206 17.2146 1.79131C17.1901 1.76124 17.1621 1.7407 17.1318 1.71722C17.0621 1.66306 16.9893 1.60796 16.9029 1.58534C16.8367 1.56766 16.6827 1.56333 16.705 1.45623C16.7302 1.3389 16.8892 1.32356 16.982 1.31758C17.0785 1.31169 17.1548 1.26187 17.2476 1.24653C17.3455 1.22963 17.4412 1.2714 17.5391 1.2597C17.6557 1.24505 17.768 1.19228 17.8767 1.15043C17.9184 1.13501 18.1524 1.04116 18.1674 1.13423C18.1832 1.22746 17.8997 1.20624 17.855 1.21291ZM20.4122 7.80419C20.3553 7.82611 20.2574 7.82983 20.2345 7.90167C20.2193 7.94785 20.2539 7.99768 20.2718 8.03728C20.297 8.09672 20.3149 8.15677 20.2962 8.22211C20.2747 8.29542 20.1617 8.36283 20.0869 8.32982C20.038 8.30781 20.0473 8.21111 20.048 8.16856C20.0488 8.05929 20.0595 7.95002 20.0581 7.84162C20.0574 7.77412 20.0581 7.74041 20.0249 7.68175C19.9961 7.62967 19.9739 7.5821 19.9847 7.52118C20.0285 7.51234 20.0386 7.54761 20.0638 7.57404C20.0869 7.599 20.1185 7.61953 20.1494 7.6334C20.2092 7.6606 20.2703 7.684 20.3372 7.67663C20.3725 7.673 20.4897 7.62456 20.5164 7.66416C20.5526 7.71771 20.4482 7.79023 20.4122 7.80419Z" fill="#CDCBCB"/>
<path d="M0.978549 10.4302C0.978549 10.4302 0.642052 10.1311 0.645625 9.86112C0.649112 9.59125 0.606241 9.48543 0.749482 9.49263C0.892638 9.49999 1.44757 9.68234 1.53714 9.59125C1.62671 9.49999 1.78407 9.54731 2.22816 9.18627C2.67209 8.82514 2.97643 8.74862 3.09458 8.69021C3.21273 8.63188 3.72828 8.4933 3.50984 8.70849C3.2915 8.92368 3.2163 8.92368 3.2055 9.09146C3.19478 9.25924 3.07306 9.53639 2.98715 9.6605C2.90124 9.7846 2.75809 9.9159 2.74014 10.1165C2.72228 10.3172 2.79381 10.5433 2.66146 10.6856C2.52893 10.8279 2.45731 10.9409 2.53608 10.6345C2.61493 10.3281 2.63645 10.2333 2.49678 10.1969C2.35711 10.1604 1.8129 10.2041 1.80227 10.0838C1.79155 9.96339 1.93471 9.74084 1.83076 9.74084C1.72699 9.74084 1.69832 9.87222 1.59812 9.85029C1.49784 9.82845 1.41907 9.85393 1.41907 9.93418C1.41907 10.0145 1.47989 10.1092 1.38692 10.0656C1.29387 10.0217 1.22573 9.97439 1.15054 10.0364C1.07535 10.0984 0.935763 10.2079 0.950053 10.0656C0.964428 9.92326 0.993009 9.86485 0.910671 9.8138C0.828333 9.76276 0.677947 9.68615 0.738765 9.78469C0.799753 9.88314 0.853426 9.88314 0.856998 9.99251C0.860571 10.1021 0.796096 10.1093 0.914244 10.2114C1.03222 10.3135 1.19333 10.5761 0.978549 10.4302Z" fill="#CDCBCB"/>
<path d="M1.34558 10.2834C1.34558 10.3365 1.28936 10.3794 1.22029 10.3794C1.15096 10.3794 1.09491 10.3365 1.09491 10.2834C1.09491 10.2304 1.15096 10.1875 1.22029 10.1875C1.28927 10.1875 1.34558 10.2304 1.34558 10.2834Z" fill="#CDCBCB"/>
<path d="M1.68924 10.2295C1.68924 10.2689 1.65632 10.3008 1.61574 10.3008C1.57525 10.3008 1.54242 10.2689 1.54242 10.2295C1.54242 10.1901 1.57525 10.1582 1.61574 10.1582C1.6564 10.1582 1.68924 10.1901 1.68924 10.2295Z" fill="#CDCBCB"/>
<path d="M3.36473 9.016C3.37 9.01721 3.55458 9.08002 3.51869 9.19338C3.48305 9.30665 3.45974 9.28841 3.38633 9.27373C3.31293 9.25905 3.28605 9.28476 3.28783 9.22813C3.28962 9.1714 3.28596 8.99767 3.36473 9.016Z" fill="#CDCBCB"/>
<path d="M3.63245 8.53687C3.63245 8.56666 3.5957 8.59082 3.55052 8.59082C3.50527 8.59082 3.46869 8.56666 3.46869 8.53687C3.46869 8.50716 3.50535 8.48291 3.55052 8.48291C3.5957 8.483 3.63245 8.50716 3.63245 8.53687Z" fill="#CDCBCB"/>
<path d="M49.958 20.8655C49.9119 20.9315 49.781 21.139 49.7428 21.0268C49.7054 20.9146 49.673 20.7533 49.5469 20.6851C49.4211 20.6169 49.0721 20.3758 48.7014 20.3625C48.3308 20.3486 48.0457 20.2914 47.9278 20.3324C47.8096 20.3734 47.7643 20.4666 47.6161 20.4035C47.4684 20.3405 47.2354 20.1242 47.1409 20.1763C47.0467 20.2284 46.918 20.4365 46.9049 20.3134C46.8912 20.1903 46.9775 20.1051 46.8805 20.0149C46.784 19.9247 46.6013 19.8728 46.6336 19.7415C46.666 19.6102 46.7033 19.3118 46.5365 19.1865C46.3702 19.0603 45.8304 18.4833 45.8304 18.4833C45.8304 18.4833 46.1687 17.9415 46.1155 17.7662C46.0615 17.591 46.0269 17.3425 46.021 17.2493C46.016 17.1562 45.9974 16.8065 45.8305 16.8065C45.6642 16.8065 45.4871 16.8527 45.4576 16.9459C45.4282 17.0389 45.4035 17.0719 45.2827 17.036C45.1618 17.0008 44.9688 17.003 44.9069 16.8585C44.8451 16.7134 44.8185 16.6445 44.8265 16.6312C44.8343 16.6173 45.1432 16.4038 45.1243 16.2646C45.1057 16.1253 45.1705 16.0784 45.0251 16.0674C44.8805 16.0563 44.6011 16.0513 44.5363 16.1495C44.4717 16.2478 44.3672 16.3277 44.2895 16.3329C44.2118 16.3387 43.9514 16.4699 43.852 16.3438C43.7527 16.2178 43.4864 15.8651 43.4115 15.6876C43.3359 15.5094 43.3231 15.3701 43.2316 15.3372C43.1402 15.3042 42.7862 15.222 42.7862 15.222C42.7862 15.222 42.7746 14.8312 42.7862 14.8393C42.7862 14.8371 42.1369 14.1692 41.9909 14.1311C41.8433 14.0929 41.6065 14.002 41.5935 13.8847C41.5798 13.7674 41.567 13.7204 41.5021 13.6053C41.4381 13.491 41.3842 13.1163 41.2847 12.9953C41.1855 12.875 40.7104 12.5824 40.7882 12.3199C40.8659 12.0575 40.9811 11.8192 40.9386 11.6799C40.8961 11.5435 40.6773 11.086 40.6667 11.064C40.568 11.1197 40.3506 11.1769 40.0548 11.2861C39.6841 11.4225 39.2437 11.8273 39.2437 11.8273C39.2437 11.8273 38.6746 11.8412 38.6586 11.8412C38.6428 11.8412 37.7992 12.8068 37.7992 12.8068C37.7992 12.8068 37.3667 12.5194 37.16 12.5415C36.9535 12.5635 36.9535 12.7798 36.9751 12.9271C36.9968 13.0753 36.8405 13.0833 36.752 13.1573C36.6634 13.2306 36.0351 13.2225 35.9573 13.2335C35.879 13.2444 35.8473 13.3347 35.7264 13.5099C35.6055 13.6852 35.2406 13.9858 35.2406 13.9858C35.2406 13.9858 34.5612 13.9476 34.5526 13.9476C34.5446 13.9476 34.4108 14.0708 34.3114 14.1721C34.2121 14.2732 34.338 14.8993 34.338 14.8993C34.338 14.8993 33.8652 14.9133 33.7953 14.9352C33.7255 14.9572 32.982 14.8773 32.8366 14.8363C32.692 14.7953 32.3184 15.0717 32.3184 15.0717L31.6391 14.642C31.6391 14.642 31.5772 14.6779 31.5289 14.7271C31.4807 14.7762 31.3677 14.7652 31.2977 14.815C31.2282 14.8642 31.3035 15.0006 31.2977 15.1318C31.2928 15.263 30.7205 15.0415 30.7205 15.0415V14.5137L29.8317 15.233L30.2765 16.2506L29.0746 16.7976L29.2035 17.5587L29.6763 18.7398L29.0746 19.5933L29.392 20.1461L28.9457 21.8368L29.2034 22.422H30.0628L31.2927 23.1662L32.6299 22.4498L33.3929 23.0401L33.7097 24.0365L34.7353 24.2879L34.3862 24.9823L35.0254 26.0058L35.7608 25.7844L36.9211 26.5857L36.6851 26.9737L37.1306 27.2698L37.0067 28.2048L36.1482 27.9151L35.8898 28.1175L36.3359 29.6549L36.7224 29.4798L36.9909 30.0759L36.4914 30.5634L36.4217 31.4169L36.7657 31.2307L37.1306 31.8326L38.0115 32.1992L38.0382 32.5329L39.0315 32.6862L40.2564 32.3136L40.7608 32.8394H41.6849L42.4147 33.6978C42.4147 33.6978 42.4313 32.9706 42.7056 32.9045C42.9791 32.8394 43.1618 32.7733 43.2583 32.8607C43.3548 32.9486 43.9565 33.2272 44.2248 33.266C44.2248 33.266 44.1285 32.7842 44.1716 32.6259C44.2141 32.4668 44.1608 32.2103 44.1342 32.073C44.107 31.9359 44.0693 31.7614 44.1342 31.5914C44.1984 31.422 44.2896 31.1596 44.3004 30.9021C44.3113 30.6449 44.4235 30.5025 44.15 30.4152C43.8758 30.328 43.817 29.9666 43.9565 29.8845C44.0962 29.8023 44.2896 29.8302 44.2573 29.6331C44.2249 29.4358 44.168 29.3743 44.1572 29.232C44.1465 29.0898 44.06 28.8888 44.0709 28.7392C44.0817 28.5895 44.1103 28.4694 44.0213 28.5061C43.9313 28.5427 43.4592 28.7392 43.2944 28.6594C43.1294 28.5787 42.589 28.2069 42.607 28.1159C42.6249 28.0244 42.7286 27.8242 42.8394 27.8821C42.9503 27.9409 43.2654 28.1703 43.423 28.1086C43.5806 28.0464 43.8169 27.9555 43.8815 27.8491C43.9456 27.7435 44.1499 27.3424 44.2572 27.2698C44.3647 27.1965 44.2716 27.2258 44.1716 27.0983C44.0708 26.9707 43.8455 26.8212 43.9995 26.7477C44.1535 26.6752 44.3039 26.5256 44.3039 26.5256L43.8525 26.0366L43.8671 24.7969L44.7868 24.2315L46.5307 24.2169L47.2109 23.5167L47.8161 23.6736C47.8161 23.6736 47.8839 23.0496 48.0161 22.9623C48.1487 22.8744 48.2349 22.8523 48.3386 22.9C48.4423 22.9477 49.0152 23.3194 49.1548 23.0752C49.2945 22.8303 49.2412 22.6155 49.3916 22.4732C49.5421 22.331 49.9997 22.0172 50.05 21.817C50.1006 21.6161 50.1969 20.995 50.1969 20.995C50.1128 20.919 49.9947 20.812 49.958 20.8655ZM39.4762 19.875C39.4623 19.9747 39.3328 19.9908 39.2559 20.0003C39.0558 20.0238 38.8664 20.0883 38.816 20.3112C38.7922 20.4161 38.7851 20.5194 38.7211 20.6089C38.6526 20.7057 38.5461 20.7746 38.4375 20.8149C38.2339 20.8926 37.9897 20.8346 37.8006 20.74C37.7213 20.7004 37.6336 20.6374 37.6119 20.5442C37.5883 20.4431 37.6796 20.4152 37.7617 20.4182C37.8136 20.4203 37.8617 20.4343 37.9128 20.4357C37.9703 20.4379 38.0279 20.4387 38.0842 20.4504C38.1136 20.4571 38.1411 20.4687 38.1712 20.4709C38.2633 20.4775 38.349 20.4629 38.4138 20.3947C38.4771 20.3294 38.5519 20.2979 38.5771 20.2004C38.6072 20.0831 38.5613 19.9622 38.5325 19.8492C38.5039 19.7333 38.5039 19.6204 38.5224 19.5031C38.5411 19.3887 38.5722 19.2766 38.5742 19.16C38.5763 19.0243 38.5506 18.8887 38.5549 18.7516C38.5578 18.6703 38.5664 18.4599 38.6865 18.462C38.7923 18.4635 38.8802 18.6152 38.9221 18.6966C38.9782 18.8059 38.9932 18.9159 38.958 19.0346C38.9277 19.1351 38.8364 19.2634 38.863 19.3727C38.8753 19.4284 38.925 19.4614 38.9711 19.4878C39.0444 19.5288 39.1228 19.5573 39.1984 19.5941C39.2933 19.6403 39.4948 19.7378 39.4762 19.875Z" fill="#CDCBCB"/>
<path d="M45.0063 35.4251C45.0063 35.4251 44.9732 36.06 44.9084 36.2095C44.8445 36.3592 44.6544 36.7242 44.5652 36.8335C44.4752 36.9428 44.1824 37.2125 44.1319 37.4647C44.0815 37.7162 43.9634 38.1868 43.7951 38.3072C43.6273 38.4274 42.8753 38.756 42.8645 38.8834C42.8536 39.011 42.8212 39.1963 42.671 39.2992C42.5205 39.4011 42.3844 39.6166 42.2096 39.6633C42.0341 39.7112 42.0377 39.7837 41.9369 39.8937C41.8396 39.9994 41.6986 40.1488 41.6899 40.1576H41.6892C41.6647 40.1378 41.6367 40.1216 41.6007 40.1086C41.4646 40.0579 41.2856 39.9774 41.2856 39.9774L39.4272 40.6445L38.8543 41.7134L37.594 41.6693C37.594 41.6693 36.9067 39.8658 36.2771 39.1363L33.7229 39.4729C33.7229 39.4729 33.6559 39.1643 33.6559 39.0709C33.6559 38.978 33.5327 38.7866 33.4307 38.7045C33.3283 38.6223 33.1622 38.3159 33.119 38.1898C33.0758 38.0645 32.7757 37.8401 32.5822 37.6157C32.3885 37.3913 32.4425 37.2983 32.4159 37.0796C32.3885 36.8606 32.5232 36.8166 32.6735 36.6692C32.8239 36.5219 32.3884 36.1985 32.3884 36.1985L32.9952 35.9419L33.6027 35.5093V34.3384L34.531 34.5196L34.5693 33.9448L34.1129 33.4469L34.4454 32.5606L35.1868 32.4345L35.4336 31.8875L36.0677 32.0188L36.4218 31.4177L36.7658 31.2314L37.1307 31.8333L38.0117 32.1998L38.0384 32.5335L39.0316 32.6868L40.2566 32.3143L40.761 32.84H41.6851L42.4148 33.6983C42.4148 33.6983 42.4315 32.9712 42.7057 32.9052C42.9793 32.84 43.162 32.774 43.2584 32.8613C43.3549 32.9493 43.9566 33.2278 44.225 33.2667C44.225 33.2667 44.6835 34.7798 44.8374 35.1406C44.889 35.2616 44.9452 35.3569 45.0063 35.4251Z" fill="#CDCBCB"/>
<path d="M37.0066 28.2055L37.1305 27.2705L36.685 26.9744L36.921 26.5865L35.7607 25.7851L35.0253 26.0065L34.3861 24.9831L34.7352 24.2887L33.7096 24.0373L33.3928 23.0409L32.6298 22.4507L31.2926 23.167L30.0626 22.4229H29.2033L27.8128 22.8642L28.1776 24.1355L27.0657 24.3321L27.1952 25.1804L26.4165 25.9246L26.7382 26.7781L26.3358 27.8777L26.184 27.8727C26.1675 27.9313 26.1443 27.9893 26.1394 28.0494C26.1307 28.1396 26.1207 28.2149 26.0754 28.2941C26.0257 28.3808 25.9984 28.4606 25.9803 28.5596C25.966 28.6367 25.9443 28.7635 25.8523 28.7833C25.7126 28.8134 25.7407 28.5625 25.763 28.4907C25.8227 28.3016 25.8357 28.0868 25.8363 27.8888C25.8363 27.8793 25.8363 27.8697 25.8357 27.8603L25.396 27.8448L24.746 29.2942L25.2505 31.2042L24.7727 31.7562L24.4884 31.4226L24.1177 31.6308C24.1177 31.6308 24.2681 32.353 24.2574 32.3691C24.2466 32.3853 23.801 32.5986 23.801 32.5986L24.0638 33.3869L23.8457 34.2C23.863 34.2074 23.9637 34.3643 24.261 34.3643C24.5583 34.3643 24.6655 34.2918 24.744 34.379C24.8232 34.467 24.8304 34.6817 25.0341 34.5607C25.2385 34.4406 25.1844 34.379 25.378 34.401C25.5716 34.4229 25.6393 34.4295 25.6393 34.4295C25.6393 34.4295 25.6184 34.6964 25.7429 34.758C25.8674 34.8197 26.2863 35.0102 26.305 35.0138C26.3058 35.0138 26.3058 35.0138 26.3058 35.0138C26.3159 35.0138 27.3292 34.9918 27.3292 34.9918C27.3292 34.9918 27.5336 34.6451 27.6697 34.6707C27.805 34.6964 27.8698 34.7727 28.0238 34.7984C28.1778 34.824 28.5895 34.8855 28.6932 34.9406C28.7975 34.9956 28.9732 35.0572 29.1408 35.0536C29.3093 35.0498 29.6605 34.9517 29.8462 35.0865C30.0325 35.2215 30.0829 35.2983 30.1686 35.2983C30.2542 35.2983 30.3046 35.2941 30.3658 35.3783C30.4263 35.4627 30.6162 35.9472 30.8344 35.9509C31.0532 35.9545 31.5469 35.8013 31.572 35.9142C31.5972 36.0272 31.762 36.3447 31.8693 36.3161C31.9766 36.2867 32.3882 36.1987 32.3882 36.1987L32.995 35.9421L33.6024 35.5095V34.3386L34.5308 34.5198L34.569 33.9449L34.1127 33.447L34.4452 32.5606L35.1866 32.4346L35.4333 31.8876L36.0675 32.0189L36.4216 31.4177L36.4913 30.5642L36.9908 30.0767L36.7223 29.4806L36.3358 29.6557L35.8897 28.1183L36.1481 27.9159L37.0066 28.2055ZM33.8499 30.0722C33.8364 30.1227 33.8371 30.1792 33.8299 30.2291C33.8175 30.306 33.8098 30.3463 33.7508 30.4014C33.7184 30.4315 33.6737 30.4629 33.6356 30.4887C33.5527 30.5443 33.5075 30.6104 33.483 30.7093C33.4571 30.8172 33.4233 30.9198 33.3923 31.0231C33.3679 31.1052 33.3254 31.1799 33.2772 31.2496C33.2649 31.2672 33.1376 31.4146 33.1238 31.4037C33.0642 31.3552 33.0311 31.2849 32.9468 31.2863C32.9022 31.2863 32.8532 31.29 32.8093 31.2842C32.7957 31.2034 32.8712 31.1772 32.9287 31.1442C32.9877 31.1104 33.0159 31.0694 33.0569 31.0143C33.229 30.7849 33.3455 30.5187 33.5032 30.2782C33.5305 30.2371 33.5579 30.1903 33.5845 30.1477C33.6262 30.0802 33.6794 30.0223 33.7198 29.9542C33.7536 29.8955 33.8104 29.8757 33.8795 29.8874C33.8867 29.9511 33.8659 30.0106 33.8499 30.0722Z" fill="#CDCBCB"/>
<path d="M27.1954 25.1798L26.4167 25.9241L26.7385 26.7776L26.3361 27.8772L26.1843 27.8722C26.1907 27.8517 26.1957 27.831 26.1994 27.8098C26.2059 27.7695 26.2065 27.7277 26.1928 27.6859C26.1785 27.6426 26.1626 27.6075 26.1633 27.5613C26.164 27.4887 26.182 27.4175 26.1807 27.345C26.1792 27.2937 26.1626 27.227 26.1 27.2716C26.0684 27.2943 26.0511 27.339 26.0201 27.3654C25.9633 27.414 25.8942 27.4652 25.869 27.54C25.846 27.6089 25.8424 27.6888 25.8366 27.7622C25.8345 27.7937 25.8359 27.8274 25.8359 27.8597L25.3963 27.8442L24.7463 29.2937L25.2508 31.2038L24.7729 31.7559L24.4887 31.4222L24.118 31.6304C24.118 31.6304 24.2684 32.3527 24.2576 32.3688C24.2468 32.385 23.8013 32.5982 23.8013 32.5982L24.064 33.3865L23.8459 34.1997C23.828 34.1924 23.5236 34.2474 23.2876 34.2804C23.0515 34.3133 22.4462 34.8237 22.4462 34.8237L21.6978 34.6668L21.6265 34.4153L21.7654 34.1924L21.4689 33.9776L21.0752 34.1163H21.0744L20.8153 33.7695L20.5519 33.6163L20.7297 33.3316L20.7671 33.0253L20.5844 32.325L19.779 32.2488L19.3327 31.3403L19.8322 31.0176L19.7141 30.2903L18.2106 29.8908L17.7378 30.1972L17.6198 30.6892L17.2117 30.6562L16.8469 30.9846L16.2451 30.8915L15.8371 31.149L15.198 30.4539L14.5804 30.3006L14.4459 29.5572L13.6995 29.2118L12.8992 29.3871L12.5933 28.6435L11.8679 28.3041L11.7979 28.4683L11.6102 28.5064L11.2079 28.2659L11.1704 27.516L11.0949 27.4778L10.6653 27.6472L10.1549 27.1991L10.4558 26.7556L10.0693 26.499L9.7843 26.6846L9.55617 26.4059L9.74109 23.8177L9.37619 23.391L9.68785 22.9203L9.00549 21.6569C9.00549 21.6569 9.11275 20.8357 9.11854 20.8195C9.12356 20.8034 9.89148 20.469 9.89148 20.469L9.76261 19.7688L10.1067 18.6419L9.76261 17.9798L9.92678 17.5861L10.5486 17.7394L11.7872 17.3346L11.8412 17.1485L11.888 16.6198L12.1745 16.2289L12.8079 16.0581L12.9366 15.6313C12.9366 15.6313 13.4167 15.7369 13.4312 15.7333C13.4456 15.7295 13.4492 15.4928 13.4492 15.4928L13.3952 15.2663L13.8825 14.8321L13.3276 14.2192C13.3276 14.2192 12.6079 14.0227 12.5611 13.9604C12.5143 13.8988 12.353 13.7382 12.3819 13.5703C12.4106 13.4024 12.4819 13.1803 12.7079 13.151C12.9331 13.1216 13.9033 12.9244 13.9033 12.9244L13.9645 11.8964L14.8058 11.7358L15.3269 12.8232L15.6789 13.1076L15.8451 13.1245L16.1027 12.9412L17.088 12.8753L17.4989 13.1766L16.9757 14.0659L17.7235 14.5953L17.7595 15.8425L17.6018 17.5751L18.1034 17.8633L18.7332 18.4323L18.8801 19.5226L18.436 19.7271L18.6404 20.5227L19.0737 20.6062L19.6818 20.3907L20.1042 20.9559L20.5879 20.6612L21.5292 20.9559L21.7048 21.3175L23.2371 22.0066L23.6596 21.4377L24.3254 21.9847L24.6263 21.7111L25.5396 21.9488L25.708 22.3754C25.708 22.3754 26.2485 23.1226 26.5133 22.9877C26.7782 22.8527 27.3258 22.514 27.3258 22.514L27.8132 22.8637L28.178 24.1351L27.0661 24.3316L27.1954 25.1798Z" fill="#CDCBCB"/>
<path d="M38.3126 21.061L38.6 21.6544L39.243 21.7495L38.7777 22.2115L38.8876 22.8638L38.3126 22.5558L37.7375 22.8638L37.8472 22.2115L37.382 21.7495L38.0251 21.6544L38.3126 21.061Z" fill="#CDCBCB"/>
</svg>
