<svg width="32" height="32" viewBox="0 0 32 32" fill="none" xmlns="http://www.w3.org/2000/svg">
<path fill-rule="evenodd" clip-rule="evenodd" d="M15.9999 0C10.3 0 4.58644 1.02009 2.51331 3.0533C0.793281 4.7401 0.219911 7.72003 0.0266358 9.60678C0.0266358 9.60678 0 9.79323 0 9.87343C0 10.6133 0.599858 11.2067 1.33326 11.2067C1.41992 11.2067 4.62658 10.9467 6.55984 10.7867C6.60637 10.7799 6.65325 10.7733 6.69978 10.7601C7.41983 10.7402 7.99995 10.1534 7.99995 9.42679L8.0064 6.80002C8.0064 5.98671 8.66665 5.33329 9.48004 5.33329H22.5197C23.3332 5.33329 23.9935 5.98664 23.9935 6.80002L24.0001 9.42679C24.0001 10.1534 24.5801 10.7402 25.3001 10.7601C25.3463 10.7734 25.3932 10.7799 25.4402 10.7867C27.3736 10.9466 30.5802 11.2067 30.6666 11.2067C31.3997 11.2067 32 10.6133 32 9.87343C32 9.79323 31.9734 9.60678 31.9734 9.60678C31.7799 7.72003 31.2072 4.74018 29.4871 3.0533C27.4133 1.02009 21.6998 0 15.9999 0ZM15.9999 17.3334C14.5266 17.3334 13.3332 18.5267 13.3332 20C13.3332 21.4734 14.5266 22.6666 15.9999 22.6666C17.4732 22.6666 18.6665 21.4734 18.6665 20C18.6665 18.5267 17.4732 17.3334 15.9999 17.3334ZM13.9999 11.3333V9.66666C13.9999 8.74673 13.2532 8.00004 12.3333 8.00004C11.4135 8.00004 10.6667 8.7468 10.6667 9.66666V11.3333L1.673 20.9401C1.05326 21.5468 0.666485 22.3932 0.666485 23.3268V26.0002C0.666485 27.4735 1.85989 28.6667 3.33316 28.6667H3.99986V30.3335C3.99986 31.2534 4.7467 32 5.66655 32C6.58641 32 7.33317 31.2534 7.33317 30.3335V28.6667H24.6666V30.3335C24.6666 31.2534 25.4132 32 26.3334 32C27.2532 32 27.9998 31.2534 27.9998 30.3335V28.6667H28.6665C30.1399 28.6667 31.3331 27.4735 31.3331 26.0002V23.3268C31.3331 22.3931 30.9464 21.5467 30.3266 20.9401L21.3333 11.3333V9.66666C21.3333 8.74673 20.5864 8.00004 19.6665 8.00004C18.7467 8.00004 18 8.7468 18 9.66666V11.3333H13.9999ZM15.9999 14.6667C18.9466 14.6667 21.3333 17.0534 21.3333 20C21.3333 22.9467 18.9466 25.3335 15.9999 25.3335C13.0532 25.3335 10.6666 22.9468 10.6666 20C10.6666 17.0533 13.0532 14.6667 15.9999 14.6667Z" fill="#4D4F4A"/>
</svg>
