<svg width="70" height="48" viewBox="0 0 70 48" fill="none" xmlns="http://www.w3.org/2000/svg">
<g opacity="0.2" clip-path="url(#clip0)">
<path d="M31.8054 35.447C31.8054 39.2351 30.4012 42.2706 27.5885 44.5535C24.7757 46.8383 21.2736 47.9807 17.0948 47.9807C11.7557 47.9807 7.57481 46.4466 4.54572 43.3785C1.51663 40.3122 -3.05176e-05 36.2303 -3.05176e-05 31.1385C-3.05176e-05 25.918 0.899361 21.477 2.70451 17.8214C4.50755 14.1676 6.66906 11.134 9.19754 8.7148C11.7175 6.29944 14.3521 4.40632 17.0948 3.03544C19.8333 1.66456 22.2133 0.656559 24.2327 -8.01086e-05L31.1585 10.5753C28.2736 11.6217 25.8194 13.2863 23.8021 15.5711C21.7806 17.8559 20.6288 20.3039 20.3382 22.9132C23.2209 22.9132 25.8575 24.0594 28.2375 26.3423C30.6175 28.6271 31.8054 31.6626 31.8054 35.447ZM69.2385 35.447C69.2385 39.2351 67.8321 42.2706 65.0194 44.5535C62.2066 46.8402 58.7066 47.9807 54.5257 47.9807C49.1845 47.9807 45.0057 46.4466 41.9766 43.3785C38.9454 40.3122 37.4309 36.2303 37.4309 31.1385C37.4309 25.918 38.3303 21.477 40.1354 17.8214C41.9385 14.1676 44.1 11.134 46.6263 8.7148C49.1463 6.29944 51.783 4.40632 54.5257 3.03544C57.2642 1.66456 59.6421 0.656559 61.6636 -8.01086e-05L68.5873 10.5753C65.7024 11.6217 63.2503 13.2863 61.233 15.5711C59.2115 17.8559 58.0576 20.3039 57.7691 22.9132C60.6518 22.9132 63.2885 24.0594 65.6663 26.3423C68.0485 28.6271 69.2385 31.6626 69.2385 35.447Z" fill="#A7A7A7"/>
</g>
<defs>
<clipPath id="clip0">
<rect width="70" height="48" fill="white" transform="translate(70 48) rotate(-180)"/>
</clipPath>
</defs>
</svg>
