<svg width="55" height="38" viewBox="0 0 55 38" fill="none" xmlns="http://www.w3.org/2000/svg">
<g clip-path="url(#clip0)">
<path d="M30.01 9.93769C30.01 6.93874 31.1134 4.53562 33.3234 2.72834C35.5334 0.919536 38.285 0.0151367 41.5684 0.0151367C45.7634 0.0151367 49.0484 1.22962 51.4284 3.65858C53.8084 6.08602 55 9.31753 55 13.3486C55 17.4815 54.2934 20.9972 52.875 23.8913C51.4584 26.7839 49.76 29.1855 47.7734 31.1007C45.7934 33.0128 43.7234 34.5115 41.5684 35.5968C39.4167 36.6821 37.5467 37.4801 35.96 37.9999L30.5184 29.6278C32.785 28.7994 34.7134 27.4815 36.2984 25.6727C37.8867 23.8639 38.7917 21.9259 39.02 19.8603C36.755 19.8603 34.6834 18.9528 32.8134 17.1455C30.9434 15.3367 30.01 12.9336 30.01 9.93769ZM0.598358 9.93769C0.598358 6.93874 1.70336 4.53562 3.91336 2.72834C6.12336 0.918017 8.87336 0.0151367 12.1584 0.0151367C16.355 0.0151367 19.6384 1.22962 22.0184 3.65858C24.4 6.08602 25.59 9.31753 25.59 13.3486C25.59 17.4815 24.8834 20.9972 23.465 23.8913C22.0484 26.7839 20.35 29.1855 18.365 31.1007C16.385 33.0128 14.3134 34.5115 12.1584 35.5968C10.0067 36.6821 8.13836 37.4801 6.55003 37.9999L1.11002 29.6278C3.37669 28.7994 5.30336 27.4815 6.88836 25.6727C8.47669 23.8639 9.38336 21.9259 9.61003 19.8603C7.34503 19.8603 5.27336 18.9528 3.40503 17.1455C1.53336 15.3367 0.598358 12.9336 0.598358 9.93769Z" fill="#403D3D" fill-opacity="0.89"/>
</g>
<defs>
<clipPath id="clip0">
<rect width="55" height="38" fill="white"/>
</clipPath>
</defs>
</svg>
