<svg width="17" height="14" viewBox="0 0 17 14" fill="none" xmlns="http://www.w3.org/2000/svg">
<path d="M1.36942 8.52197L11.7579 8.52197L8.61777 11.6621C8.08233 12.1975 8.08233 13.063 8.61777 13.5984C9.15321 14.1339 10.0187 14.1339 10.5541 13.5984L17 7.15255L10.5541 0.706682C10.2871 0.439646 9.93652 0.305443 9.58595 0.305443C9.23538 0.305443 8.88481 0.439646 8.61777 0.706682C8.08233 1.24213 8.08233 2.1076 8.61777 2.64305L11.7579 5.78313L1.36942 5.78313C0.613503 5.78313 1.90735e-06 6.39663 1.90735e-06 7.15255C1.90735e-06 7.90847 0.613503 8.52197 1.36942 8.52197Z" fill="white"/>
</svg>
