<svg width="26" height="26" viewBox="0 0 26 26" fill="none" xmlns="http://www.w3.org/2000/svg">
<circle cx="13" cy="13" r="13" transform="rotate(-90 13 13)" fill="#838480"/>
<path d="M12.1006 8.4908L12.1006 14.6294L10.2451 12.7739C9.92867 12.4575 9.41725 12.4575 9.10085 12.7739C8.78446 13.0903 8.78446 13.6017 9.10085 13.9181L12.9098 17.7271L16.7187 13.9181C16.8765 13.7603 16.9558 13.5532 16.9558 13.346C16.9558 13.1389 16.8765 12.9317 16.7187 12.7739C16.4023 12.4575 15.8909 12.4575 15.5745 12.7739L13.719 14.6294L13.719 8.4908C13.719 8.04412 13.3565 7.6816 12.9098 7.6816C12.4631 7.6816 12.1006 8.04412 12.1006 8.4908Z" fill="white"/>
</svg>
