<?xml version="1.0" encoding="utf-8"?>
<!-- Generator: Adobe Illustrator 21.0.0, SVG Export Plug-In . SVG Version: 6.00 Build 0)  -->
<svg version="1.1" id="Слой_1" xmlns="http://www.w3.org/2000/svg" xmlns:xlink="http://www.w3.org/1999/xlink" x="0px" y="0px"
	 viewBox="0 0 210 210" style="enable-background:new 0 0 210 210;" xml:space="preserve">
<style type="text/css">
	.st0{clip-path:url(#SVGID_2_);}
	.st1{opacity:0.4;fill:#87888A;enable-background:new    ;}
	.st2{fill:#E3E3E3;}
	.st3{opacity:0.4;fill:#B2B3B5;enable-background:new    ;}
	.st4{fill:#FFFFFF;}
	.st5{fill:#ECECF0;}
	.st6{fill:#88BA34;}
	.st7{fill:#B0B1B3;}
	.st8{fill:#BDBEC0;}
	.st9{fill:#D1D2D4;}
	.st10{fill:none;stroke:#B0B1B3;stroke-linecap:round;stroke-linejoin:round;stroke-miterlimit:10;}
	.st11{fill:#DA2626;}
	.st12{fill:#C42424;}
	.st13{fill:#B4B3B3;}
	.st14{fill:#D2D2D2;}
	.st15{fill:#DDDDE0;}
	.st16{fill:#FDFFFE;}
	.st17{fill:#543823;}
	.st18{fill:#FCB040;}
	.st19{fill:#E6A03A;}
</style>
<g>
	<defs>
		<rect id="SVGID_1_" x="-0.5" y="6.5" width="211" height="197"/>
	</defs>
	<clipPath id="SVGID_2_">
		<use xlink:href="#SVGID_1_"  style="overflow:visible;"/>
	</clipPath>
	<g class="st0">
		<path class="st1" d="M62.8,100l-2.1-2c-0.3-0.2-0.7-0.2-0.9,0l-0.7,0.6c-0.3,0.2-0.3,0.6,0,0.9l0.3,0.3l-0.3,0.3
			c-0.2,0.2-0.3,0.5-0.1,0.8l-1.1,1.1c-2.5-2.3-5.8-3.8-9.5-4v-0.7c0.6,0,1.1-0.4,1.1-1v-0.6h0.4c0.6,0,1.1-0.4,1.1-1v-1.4
			c0-0.6-0.5-1-1.1-1H45c-0.6,0-1.1,0.4-1.1,1v1.4c0,0.6,0.5,1,1.1,1h0.6v0.6c0,0.5,0.4,0.9,0.9,1v0.8c-3.7,0.2-6.9,1.8-9.3,4.1
			l-1.2-1.1c0.2-0.2,0.1-0.6-0.1-0.8l-0.3-0.3l0.3-0.3c0.3-0.2,0.3-0.6,0-0.9L35.2,98c-0.3-0.2-0.7-0.2-0.9,0l-2.1,2
			c-0.3,0.2-0.3,0.6,0,0.9l0.7,0.6c0.3,0.2,0.7,0.2,0.9,0l0.2-0.2l0.3,0.3c0.3,0.2,0.7,0.2,0.9,0l1.2,1.2c-2.1,2.3-3.3,5.3-3.3,8.6
			c0,7.5,6.5,13.5,14.5,13.5c8,0,14.5-6,14.5-13.5c0-3.4-1.4-6.6-3.6-8.9l0.3,0.3l1.1-1.1c0.3,0.2,0.7,0.2,0.9,0l0.3-0.3l0.2,0.2
			c0.3,0.2,0.7,0.2,0.9,0l0.7-0.6C63.1,100.6,63.1,100.3,62.8,100z"/>
		<path class="st2" d="M150.1,70.2c-3.3,0-6.1-2-6.1-4.5c0-2.5,1.8-4.5,4.1-4.5c2.2,0,4.1-2,4.1-4.5c0-2.5-2.7-4.5-6.1-4.5h-20.4
			c-3.3,0-6.1-2-6.1-4.5s-2.7-4.5-6.1-4.5h-7.2c-3.3,0-6.1-2-6.1-4.5c0-2.5-2.7-4.5-6.1-4.5H67.8c-3.3,0-6.1,2-6.1,4.5
			c0,2.5-2.7,4.5-6.1,4.5H45.4c-3.3,0-6.1,2-6.1,4.5s2.7,4.5,6.1,4.5h11.8c3.3,0,6.1,2,6.1,4.5s-2.7,4.5-6,4.5c-3.3,0-6,2-6,4.5
			c0,2.5-2.7,4.5-6,4.5c-3.3,0-6,2-6,4.5c0,2.5,2.7,4.5,6.1,4.5h113.7c3.3,0,6.1-2,6.1-4.5c0-2.5-2.7-4.5-6.1-4.5H150.1z M80.4,47.4
			c0,2.2-2.7,4-6,4h-1.8c-3.3,0-6.1-1.8-6.1-4c0-2.2,2.7-4,6.1-4l1.7,0C77.6,43.4,80.3,45.2,80.4,47.4z"/>
		<path class="st2" d="M63.1,150c-3.2,0-5.8,2.4-5.8,5.4v0.4c0,3-2.6,5.4-5.8,5.4h-2.3c-3.2,0-5.8,2.4-5.8,5.4v0.4
			c0,3,2.6,5.4,5.8,5.4h71.3c3.2,0,5.8-2.4,5.8-5.4v-0.4c0-3,2.6-5.4,5.8-5.4h20.2c3.2,0,5.8-2.4,5.8-5.4v-0.4c0-3,2.6-5.4,5.8-5.4
			h10.9c3.2,0,5.8-2.4,5.8-5.4v-0.4c0-3-2.6-5.4-5.8-5.4h-5.5c-3.2,0-5.8-2.4-5.8-5.4v-0.4c0-3-2.6-5.4-5.8-5.4h-101
			c-3.2,0-5.8,2.4-5.8,5.4v0.4c0,3,2.6,5.4,5.8,5.4h9c3.2,0,5.8,2.4,5.8,5.4v0.4c0,3-2.6,5.4-5.8,5.4H63.1z"/>
		<path class="st3" d="M140,76l-26.4,57.2l50,20.1L190.1,96L140,76z"/>
		<path class="st3" d="M139.4,70.3h-12.6c-0.3-1.5-1.7-2.5-3.4-2.5h-10.7c-0.8-1.9-2.7-3.3-5-3.3s-4.2,1.4-5,3.3H92
			c-1.7,0-3,1.1-3.4,2.5H76c-1.3,0-2.3,0.9-2.3,2.1v0.1v74v2.7c0,1.2,1,2.2,2.3,2.2h63.4c1.3,0,2.3-1,2.3-2.2v-2.7v-74v-0.1
			C141.8,71.2,140.7,70.3,139.4,70.3z"/>
		<path class="st4" d="M138.1,73.1l-26.4,57.2l50,20.1l26.4-57.2L138.1,73.1z"/>
		<path class="st5" d="M175.5,100.2c-0.1,0.2-0.4,0.3-0.7,0.2L141.6,87c-0.3-0.1-0.4-0.4-0.3-0.6c0.1-0.2,0.4-0.3,0.7-0.2l33.3,13.4
			C175.5,99.7,175.6,100,175.5,100.2z"/>
		<path class="st5" d="M163.1,96.9c-0.1,0.2-0.4,0.3-0.7,0.2l-21.5-8.6c-0.3-0.1-0.4-0.4-0.3-0.6c0.1-0.2,0.4-0.3,0.7-0.2l21.5,8.6
			C163.1,96.4,163.2,96.7,163.1,96.9z"/>
		<path class="st5" d="M157.1,96.2c-0.1,0.2-0.4,0.3-0.7,0.2l-16.2-6.5c-0.3-0.1-0.4-0.4-0.3-0.6c0.1-0.2,0.4-0.3,0.7-0.2l16.2,6.5
			C157,95.7,157.2,96,157.1,96.2z"/>
		<path class="st5" d="M172.3,107.2c-0.1,0.2-0.4,0.3-0.7,0.2L138.3,94c-0.3-0.1-0.4-0.4-0.3-0.6c0.1-0.2,0.4-0.3,0.7-0.2l33.3,13.4
			C172.3,106.7,172.4,107,172.3,107.2z"/>
		<path class="st5" d="M159.9,103.9c-0.1,0.2-0.4,0.3-0.7,0.2l-21.5-8.6c-0.3-0.1-0.4-0.4-0.3-0.6c0.1-0.2,0.4-0.3,0.7-0.2l21.5,8.6
			C159.9,103.4,160,103.7,159.9,103.9z"/>
		<path class="st5" d="M153.8,103.2c-0.1,0.2-0.4,0.3-0.7,0.2L137,96.9c-0.3-0.1-0.4-0.4-0.3-0.6c0.1-0.2,0.4-0.3,0.7-0.2l16.2,6.5
			C153.8,102.7,153.9,103,153.8,103.2z"/>
		<path class="st5" d="M168.5,115.3c-0.1,0.2-0.4,0.3-0.7,0.2l-33.3-13.4c-0.3-0.1-0.4-0.4-0.3-0.6c0.1-0.2,0.4-0.3,0.7-0.2
			l33.3,13.4C168.5,114.9,168.6,115.1,168.5,115.3z"/>
		<path class="st5" d="M156.1,112c-0.1,0.2-0.4,0.3-0.7,0.2l-21.5-8.6c-0.3-0.1-0.4-0.4-0.3-0.6c0.1-0.2,0.4-0.3,0.7-0.2l21.5,8.6
			C156.1,111.6,156.2,111.8,156.1,112z"/>
		<path class="st5" d="M150.1,111.3c-0.1,0.2-0.4,0.3-0.7,0.2l-16.2-6.5c-0.3-0.1-0.4-0.4-0.3-0.6c0.1-0.2,0.4-0.3,0.7-0.2l16.2,6.5
			C150.1,110.8,150.2,111.1,150.1,111.3z"/>
		<path class="st5" d="M160.4,133.1c-0.1,0.2-0.4,0.3-0.7,0.2l-33.3-13.4c-0.3-0.1-0.4-0.4-0.3-0.6c0.1-0.2,0.4-0.3,0.7-0.2
			l33.3,13.4C160.3,132.6,160.5,132.9,160.4,133.1z"/>
		<path class="st5" d="M148,129.8c-0.1,0.2-0.4,0.3-0.7,0.2l-21.5-8.6c-0.3-0.1-0.4-0.4-0.3-0.6c0.1-0.2,0.4-0.3,0.7-0.2l21.5,8.6
			C147.9,129.3,148.1,129.6,148,129.8z"/>
		<path class="st5" d="M141.9,129.1c-0.1,0.2-0.4,0.3-0.7,0.2l-16.2-6.5c-0.3-0.1-0.4-0.4-0.3-0.6c0.1-0.2,0.4-0.3,0.7-0.2l16.2,6.5
			C141.9,128.6,142,128.9,141.9,129.1z"/>
		<path class="st5" d="M165.3,122.3c-0.1,0.2-0.4,0.3-0.7,0.2l-33.3-13.4c-0.3-0.1-0.4-0.4-0.3-0.6c0.1-0.2,0.4-0.3,0.7-0.2
			l33.3,13.4C165.3,121.8,165.4,122.1,165.3,122.3z"/>
		<path class="st5" d="M152.9,119c-0.1,0.2-0.4,0.3-0.7,0.2l-21.5-8.6c-0.3-0.1-0.4-0.4-0.3-0.6c0.1-0.2,0.4-0.3,0.7-0.2l21.5,8.6
			C152.9,118.5,153,118.8,152.9,119z"/>
		<path class="st5" d="M150.9,123.5c-0.1,0.2-0.4,0.3-0.7,0.2l-21.5-8.6c-0.3-0.1-0.4-0.4-0.3-0.6c0.1-0.2,0.4-0.3,0.7-0.2l21.5,8.6
			C150.8,123,151,123.3,150.9,123.5z"/>
		<path class="st5" d="M146.9,118.3c-0.1,0.2-0.4,0.3-0.7,0.2l-16.2-6.5c-0.3-0.1-0.4-0.4-0.3-0.6c0.1-0.2,0.4-0.3,0.7-0.2l16.2,6.5
			C146.9,117.8,147,118.1,146.9,118.3z"/>
		<path class="st5" d="M143.3,118.6c-0.1,0.2-0.4,0.3-0.7,0.2l-13.2-5.3c-0.3-0.1-0.4-0.4-0.3-0.6c0.1-0.2,0.4-0.3,0.7-0.2L143,118
			C143.2,118.1,143.4,118.4,143.3,118.6z"/>
		<path class="st6" d="M170.9,104C170.9,104,170.9,104,170.9,104c-0.1,0-0.2-0.1-0.2-0.1l-0.6-2.3c0-0.1,0-0.2,0.1-0.2
			c0,0,0.1,0,0.1,0c0.1,0,0.1,0,0.2,0.1l0.9,1.3l3.2-1c0,0,0,0,0.1,0c0.1,0,0.1,0,0.2,0.1c0,0.1,0,0.2-0.1,0.2L170.9,104
			C171,104,171,104,170.9,104z"/>
		<path class="st6" d="M170.4,101.6l0.9,1.4l3.3-1l-3.7,1.9L170.4,101.6z M174.6,102L174.6,102L174.6,102z M170.4,101.2
			c0,0-0.1,0-0.1,0c-0.2,0.1-0.3,0.3-0.2,0.4l0.6,2.3c0,0.1,0.1,0.2,0.2,0.3c0.1,0,0.1,0,0.2,0c0.1,0,0.1,0,0.2,0l3.7-1.9
			c0.1-0.1,0.2-0.2,0.2-0.3c0-0.2-0.2-0.4-0.4-0.4c0,0,0,0,0,0c0,0,0,0-0.1,0c0,0-0.1,0-0.1,0l-3,0.9l-0.8-1.2
			C170.6,101.3,170.5,101.2,170.4,101.2z"/>
		<path class="st6" d="M156,136.4C156,136.4,156,136.4,156,136.4c-0.1,0-0.2-0.1-0.2-0.1l-0.6-2.3c0-0.1,0-0.2,0.1-0.2
			c0,0,0.1,0,0.1,0c0.1,0,0.1,0,0.2,0.1l0.9,1.3l3.2-1c0,0,0,0,0.1,0c0.1,0,0.1,0,0.2,0.1c0,0.1,0,0.2-0.1,0.2L156,136.4
			C156.1,136.4,156.1,136.4,156,136.4z"/>
		<path class="st6" d="M155.4,134l0.9,1.4l3.3-1l-3.7,1.9L155.4,134z M159.7,134.4L159.7,134.4L159.7,134.4z M155.4,133.6
			c-0.1,0-0.1,0-0.2,0c-0.2,0.1-0.3,0.3-0.2,0.4l0.6,2.3c0,0.1,0.1,0.2,0.2,0.3c0.1,0,0.1,0,0.2,0c0.1,0,0.1,0,0.2,0l3.7-1.9
			c0.1-0.1,0.2-0.2,0.2-0.3c0-0.2-0.2-0.4-0.4-0.4c0,0,0,0,0,0c0,0,0,0-0.1,0c0,0-0.1,0-0.1,0l-3,0.9l-0.8-1.2
			C155.7,133.7,155.6,133.6,155.4,133.6z"/>
		<path class="st6" d="M163.8,119.6C163.7,119.6,163.7,119.6,163.8,119.6c-0.1,0-0.2-0.1-0.2-0.1l-0.6-2.3c0-0.1,0-0.2,0.1-0.2
			c0,0,0.1,0,0.1,0c0.1,0,0.1,0,0.2,0.1l0.9,1.3l3.2-1c0,0,0,0,0.1,0c0.1,0,0.1,0,0.2,0.1c0,0.1,0,0.2-0.1,0.2L163.8,119.6
			C163.8,119.6,163.8,119.6,163.8,119.6z"/>
		<path class="st6" d="M163.2,117.2l0.9,1.4l3.3-1l-3.7,1.9L163.2,117.2z M167.4,117.6L167.4,117.6L167.4,117.6z M163.2,116.8
			c-0.1,0-0.1,0-0.2,0c-0.2,0.1-0.3,0.3-0.2,0.4l0.6,2.3c0,0.1,0.1,0.2,0.2,0.3c0.1,0,0.1,0,0.2,0c0.1,0,0.1,0,0.2,0l3.7-1.9
			c0.1-0.1,0.2-0.2,0.2-0.3c0-0.2-0.2-0.4-0.4-0.4c0,0,0,0,0,0c0,0,0,0-0.1,0c0,0-0.1,0-0.1,0l-3,0.9l-0.8-1.2
			C163.5,116.9,163.3,116.8,163.2,116.8z"/>
		<path class="st7" d="M47.4,97.9h-1.8v-2.2h1.8V97.9z"/>
		<path class="st7" d="M57.7,102l-0.8-0.7l1.5-1.4l0.8,0.7L57.7,102z"/>
		<path class="st7" d="M35.7,102.3l0.8-0.7l-1.8-1.7l-0.8,0.7L35.7,102.3z"/>
		<path class="st8" d="M48.5,95.5c0,0.6-0.5,1-1.1,1h-1.6c-0.6,0-1.1-0.4-1.1-1v-0.7c0-0.6,0.5-1,1.1-1h1.6c0.6,0,1.1,0.4,1.1,1
			V95.5z"/>
		<path class="st8" d="M59.8,101c-0.3,0.2-0.7,0.2-0.9,0l-0.7-0.7c-0.3-0.2-0.3-0.6,0-0.9l0.3-0.3c0.3-0.2,0.7-0.2,0.9,0l0.7,0.7
			c0.3,0.2,0.3,0.6,0,0.9L59.8,101z"/>
		<path class="st8" d="M33.3,101c0.3,0.2,0.7,0.2,0.9,0l0.7-0.7c0.3-0.2,0.3-0.6,0-0.9l-0.3-0.3c-0.3-0.2-0.7-0.2-0.9,0L33,99.8
			c-0.3,0.2-0.3,0.6,0,0.9L33.3,101z"/>
		<path class="st9" d="M50,93.9c0,0.6-0.5,1-1.1,1h-4.8c-0.6,0-1.1-0.4-1.1-1v-1.4c0-0.6,0.5-1,1.1-1h4.8c0.6,0,1.1,0.4,1.1,1V93.9z
			"/>
		<path class="st9" d="M61.2,100.9c-0.3,0.2-0.7,0.2-0.9,0l-2.1-2c-0.3-0.2-0.3-0.6,0-0.9l0.7-0.6c0.3-0.2,0.7-0.2,0.9,0l2.1,2
			c0.3,0.2,0.3,0.6,0,0.9L61.2,100.9z"/>
		<path class="st9" d="M31.9,100.9c0.3,0.2,0.7,0.2,0.9,0l2.1-2c0.3-0.2,0.3-0.6,0-0.9l-0.7-0.6c-0.3-0.2-0.7-0.2-0.9,0l-2.1,2
			c-0.3,0.2-0.3,0.6,0,0.9L31.9,100.9z"/>
		<path class="st9" d="M52.1,123.2c7.4-2.8,10.9-10.7,7.8-17.6c-3-6.9-11.5-10.2-18.9-7.3s-10.9,10.7-7.8,17.6
			C36.3,122.8,44.8,126,52.1,123.2z"/>
		<path class="st8" d="M46.6,121.4c6.3,0,11.5-4.8,11.5-10.7c0-5.9-5.1-10.7-11.5-10.7s-11.5,4.8-11.5,10.7
			C35.2,116.6,40.3,121.4,46.6,121.4z"/>
		<path class="st4" d="M50.6,119.4c5.1-2,7.5-7.5,5.3-12.3c-2.2-4.8-8.1-7-13.2-5c-5.1,2-7.5,7.5-5.3,12.3
			C39.6,119.2,45.5,121.4,50.6,119.4z"/>
		<path class="st7" d="M46.9,103.9C46.9,104,46.9,104,46.9,103.9l-0.3,0.1c-0.1,0-0.1,0-0.1-0.1v-1.2c0-0.1,0-0.1,0.1-0.1h0.3
			c0.1,0,0.1,0,0.1,0.1V103.9z"/>
		<path class="st7" d="M46.9,118.5C46.9,118.5,46.9,118.6,46.9,118.5l-0.3,0.1c-0.1,0-0.1,0-0.1-0.1v-1.2c0-0.1,0-0.1,0.1-0.1h0.3
			c0.1,0,0.1,0,0.1,0.1V118.5z"/>
		<path class="st7" d="M50.6,105c0,0-0.1,0.1-0.1,0l-0.2-0.1c0,0-0.1-0.1,0-0.1l0.7-1c0,0,0.1-0.1,0.1,0l0.2,0.1c0,0,0.1,0.1,0,0.1
			L50.6,105z"/>
		<path class="st7" d="M42.5,117.5c0,0-0.1,0.1-0.1,0l-0.2-0.1c0,0-0.1-0.1,0-0.1l0.7-1c0,0,0.1-0.1,0.1,0l0.2,0.1
			c0,0,0.1,0.1,0,0.1L42.5,117.5z"/>
		<path class="st7" d="M53,107.5c0,0-0.1,0-0.1,0l-0.1-0.2c0,0,0-0.1,0-0.1l1.1-0.6c0,0,0.1,0,0.1,0l0.1,0.2c0,0,0,0.1,0,0.1
			L53,107.5z"/>
		<path class="st7" d="M39.5,114.7c0,0-0.1,0-0.1,0l-0.1-0.2c0,0,0-0.1,0-0.1l1.1-0.6c0,0,0.1,0,0.1,0l0.1,0.2c0,0,0,0.1,0,0.1
			L39.5,114.7z"/>
		<path class="st7" d="M53.8,110.8C53.8,110.8,53.7,110.8,53.8,110.8l-0.1-0.3c0-0.1,0-0.1,0.1-0.1l1.3,0c0.1,0,0.1,0,0.1,0.1l0,0.2
			c0,0.1,0,0.1-0.1,0.1L53.8,110.8z"/>
		<path class="st7" d="M38.2,110.8C38.2,110.8,38.2,110.8,38.2,110.8l-0.1-0.3c0-0.1,0-0.1,0.1-0.1l1.3,0c0.1,0,0.1,0,0.1,0.1l0,0.2
			c0,0,0,0.1-0.1,0.1L38.2,110.8z"/>
		<path class="st7" d="M52.8,114.1c0,0-0.1-0.1,0-0.1l0.1-0.2c0,0,0.1-0.1,0.1,0l1.1,0.6c0,0,0.1,0.1,0,0.1l-0.1,0.2
			c0,0-0.1,0.1-0.1,0L52.8,114.1z"/>
		<path class="st7" d="M39.3,106.8c0,0-0.1-0.1,0-0.1l0.1-0.2c0,0,0.1-0.1,0.1,0l1.1,0.6c0,0,0.1,0.1,0,0.1l-0.1,0.2
			c0,0-0.1,0.1-0.1,0L39.3,106.8z"/>
		<path class="st7" d="M52.8,114.1c0,0-0.1-0.1,0-0.1l0.1-0.2c0,0,0.1-0.1,0.1,0l1.1,0.6c0,0,0.1,0.1,0,0.1l-0.1,0.2
			c0,0-0.1,0.1-0.1,0L52.8,114.1z"/>
		<path class="st7" d="M39.3,106.8c0,0-0.1-0.1,0-0.1l0.1-0.2c0,0,0.1-0.1,0.1,0l1.1,0.6c0,0,0.1,0.1,0,0.1l-0.1,0.2
			c0,0-0.1,0.1-0.1,0L39.3,106.8z"/>
		<path class="st7" d="M50.1,116.5c0,0,0-0.1,0-0.1l0.2-0.1c0,0,0.1,0,0.1,0l0.7,1.1c0,0,0,0.1,0,0.1l-0.2,0.1c0,0-0.1,0-0.1,0
			L50.1,116.5z"/>
		<path class="st7" d="M42.2,103.9c0,0,0-0.1,0-0.1l0.2-0.1c0,0,0.1,0,0.1,0l0.7,1.1c0,0,0,0.1,0,0.1L43,105c0,0-0.1,0-0.1,0
			L42.2,103.9z"/>
		<path class="st7" d="M47.5,110.6c0,0.3-0.3,0.6-0.7,0.6c-0.4,0-0.7-0.3-0.7-0.6c0-0.3,0.3-0.6,0.7-0.6
			C47.2,110,47.5,110.2,47.5,110.6z"/>
		<path class="st10" d="M45,111.7l7.5-4.2"/>
		<path class="st11" d="M140.4,147.8c0,1.2-1,2.2-2.3,2.2H74.7c-1.3,0-2.3-1-2.3-2.2V71.2c0-1.2,1-2.2,2.3-2.2h63.4
			c1.3,0,2.3,1,2.3,2.2V147.8z"/>
		<path class="st12" d="M140.4,145.2c0,1.2-1,2.1-2.3,2.1H74.7c-1.3,0-2.3-0.9-2.3-2.1v-74c0-1.2,1-2.1,2.3-2.1h63.4
			c1.3,0,2.3,0.9,2.3,2.1V145.2z"/>
		<path class="st4" d="M136.5,73.4H76.3v68.9h60.2V73.4z"/>
		<path class="st13" d="M125.5,69.7c0-1.8-1.5-3.2-3.4-3.2H90.7c-1.9,0-3.4,1.4-3.4,3.2v5.7h38.3V69.7L125.5,69.7z"/>
		<path class="st13" d="M110.7,71.2c1.7-2.2,1.2-5.3-1.1-7c-2.4-1.6-5.7-1.2-7.5,1.1c-1.7,2.2-1.2,5.3,1.1,7
			C105.6,73.9,108.9,73.4,110.7,71.2z"/>
		<path class="st4" d="M108,66.7c0,0.8-0.7,1.5-1.6,1.5c-0.9,0-1.6-0.7-1.6-1.5c0-0.8,0.7-1.5,1.6-1.5S108,65.9,108,66.7z"/>
		<path class="st14" d="M125.5,71.4H87.2v3.9h38.3V71.4z"/>
		<path class="st5" d="M125.9,88.3c0,0.3-0.2,0.5-0.5,0.5H85.3c-0.3,0-0.5-0.2-0.5-0.5s0.2-0.5,0.5-0.5h40.2
			C125.7,87.9,125.9,88.1,125.9,88.3z"/>
		<path class="st5" d="M111.8,90c0,0.3-0.2,0.5-0.5,0.5h-26c-0.3,0-0.5-0.2-0.5-0.5c0-0.3,0.2-0.5,0.5-0.5h26
			C111.6,89.6,111.8,89.8,111.8,90z"/>
		<path class="st5" d="M105.3,91.8c0,0.3-0.2,0.5-0.5,0.5H85.3c-0.3,0-0.5-0.2-0.5-0.5c0-0.3,0.2-0.5,0.5-0.5h19.6
			C105.1,91.3,105.3,91.5,105.3,91.8z"/>
		<path class="st5" d="M126.2,100.4c0,0.3-0.2,0.5-0.5,0.5H94c-0.3,0-0.5-0.2-0.5-0.5v-0.5c0-0.3,0.2-0.5,0.5-0.5h31.7
			c0.3,0,0.5,0.2,0.5,0.5V100.4z"/>
		<path class="st5" d="M126.2,107.7c0,0.3-0.2,0.5-0.5,0.5H94c-0.3,0-0.5-0.2-0.5-0.5v-0.5c0-0.3,0.2-0.5,0.5-0.5h31.7
			c0.3,0,0.5,0.2,0.5,0.5V107.7z"/>
		<path class="st5" d="M126.2,115.1c0,0.3-0.2,0.5-0.5,0.5H94c-0.3,0-0.5-0.2-0.5-0.5v-0.5c0-0.3,0.2-0.5,0.5-0.5h31.7
			c0.3,0,0.5,0.2,0.5,0.5V115.1z"/>
		<path class="st5" d="M126.2,122.1c0,0.3-0.2,0.5-0.5,0.5H94c-0.3,0-0.5-0.2-0.5-0.5v-0.5c0-0.3,0.2-0.5,0.5-0.5h31.7
			c0.3,0,0.5,0.2,0.5,0.5V122.1z"/>
		<path class="st5" d="M90.2,97.5v4.6h-4.9v-4.6H90.2z M90.9,96.9h-6.1v5.7h6.1V96.9z"/>
		<path class="st5" d="M90.2,104.9v4.6h-4.9v-4.6H90.2z M90.9,104.4h-6.1v5.7h6.1V104.4z"/>
		<path class="st5" d="M90.2,112.3v4.6h-4.9v-4.6H90.2z M90.9,111.8h-6.1v5.7h6.1V111.8z"/>
		<path class="st5" d="M90.2,119.8v4.6h-4.9v-4.6H90.2z M90.9,119.3h-6.1v5.7h6.1V119.3z"/>
		<path class="st6" d="M87.8,101.4c-0.1,0-0.1,0-0.2-0.1l-2-2.5c-0.1-0.1-0.1-0.2,0-0.2c0,0,0.1-0.1,0.1-0.1c0,0,0.1,0,0.1,0
			l1.9,1.2l3.4-2.8c0,0,0.1,0,0.1,0c0,0,0.1,0,0.1,0c0.1,0.1,0.1,0.2,0,0.2l-3.5,4.2C87.9,101.3,87.9,101.4,87.8,101.4
			C87.8,101.4,87.8,101.4,87.8,101.4z"/>
		<path class="st6" d="M91.3,97L91.3,97L91.3,97z M91.3,97l-3.5,4.2l-2-2.5l2,1.3L91.3,97z M91.3,96.7
			C91.3,96.7,91.3,96.7,91.3,96.7c-0.1,0-0.2,0-0.3,0.1l-3.3,2.7L86,98.3c-0.1,0-0.1-0.1-0.2-0.1c-0.1,0-0.2,0-0.3,0.1
			c-0.1,0.1-0.2,0.3,0,0.5l2,2.5c0.1,0.1,0.2,0.1,0.3,0.1c0,0,0,0,0,0c0.1,0,0.2-0.1,0.3-0.1l3.5-4.1c0.1-0.1,0.1-0.1,0.1-0.2
			C91.7,96.8,91.5,96.7,91.3,96.7L91.3,96.7L91.3,96.7z"/>
		<path class="st6" d="M87.8,108.2c-0.1,0-0.1,0-0.2-0.1l-2-2.5c-0.1-0.1-0.1-0.2,0-0.2c0,0,0.1-0.1,0.1-0.1c0,0,0.1,0,0.1,0
			l1.9,1.2l3.4-2.8c0,0,0.1,0,0.1,0c0,0,0.1,0,0.1,0c0.1,0.1,0.1,0.2,0,0.2l-3.5,4.2C87.9,108.2,87.9,108.2,87.8,108.2
			C87.8,108.2,87.8,108.2,87.8,108.2z"/>
		<path class="st6" d="M91.3,103.9L91.3,103.9L91.3,103.9z M91.3,103.9l-3.5,4.2l-2-2.5l2,1.3L91.3,103.9z M91.3,103.5
			C91.3,103.5,91.3,103.5,91.3,103.5c-0.1,0-0.2,0-0.3,0.1l-3.3,2.7l-1.7-1.2c-0.1,0-0.1-0.1-0.2-0.1c-0.1,0-0.2,0-0.3,0.1
			c-0.1,0.1-0.2,0.3,0,0.5l2,2.5c0.1,0.1,0.2,0.1,0.3,0.1c0,0,0,0,0,0c0.1,0,0.2-0.1,0.3-0.1l3.5-4.1c0.1-0.1,0.1-0.1,0.1-0.2
			C91.7,103.7,91.5,103.5,91.3,103.5L91.3,103.5C91.3,103.5,91.3,103.5,91.3,103.5z"/>
		<path class="st15" d="M76.3,125.4v16.8H85C84.7,142.2,76.8,133.8,76.3,125.4z"/>
		<path class="st5" d="M86.2,134.2c-2.6-0.7-4.5-1.7-5.9-2.9c-3.3-2.6-3.9-5.8-4-7.2v1.1c0.5,8.4,8.4,16.9,8.8,16.9
			c-0.4-0.4-0.6-1.1-0.6-1.7C84.4,138.9,85.3,136.8,86.2,134.2z"/>
		<path class="st3" d="M81.5,134.4l-5.9,2.6l0,0l0,0l-31.7,29.7l0,0l-2.1,1.9l0,0l-0.8,0.7c-1.2,1.1-1.2,2.9,0,4
			c1.2,1.1,3.1,1.1,4.3,0l0.8-0.7l0,0l2.1-1.9l0,0h0l31.7-29.7l0,0l2.9-5.5l0,0l1.3-2.4L81.5,134.4L81.5,134.4z"/>
		<path class="st4" d="M44.4,171.7c-1.2,1.1-3.1,1.1-4.3,0c-1.2-1.1-1.2-2.9,0-4l4.2-4c1.2-1.1,3.1-1.1,4.3,0c1.2,1.1,1.2,2.9,0,4
			L44.4,171.7z"/>
		<path class="st14" d="M42.9,165l-2.1,1.9l4.4,4.1l2.1-1.9L42.9,165z"/>
		<path class="st16" d="M74.6,135.3l4.4,4.1l4.1-7.8L74.6,135.3z"/>
		<path class="st17" d="M83.1,131.4l-2.6,1.2l1.4,1.3L83.1,131.4z"/>
		<path class="st18" d="M74.6,135.3L42.9,165l4.4,4.1l31.7-29.7L74.6,135.3z"/>
		<path class="st19" d="M75.8,136.4l-31.7,29.7l1.9,1.8l31.7-29.7L75.8,136.4z"/>
		<path class="st5" d="M84.4,138.1C84.4,138.1,84.4,138.1,84.4,138.1L84.4,138.1z"/>
	</g>
</g>
</svg>
