<?xml version="1.0" encoding="utf-8"?>
<!-- Generator: Adobe Illustrator 21.0.0, SVG Export Plug-In . SVG Version: 6.00 Build 0)  -->
<svg version="1.1" id="Слой_1" xmlns="http://www.w3.org/2000/svg" xmlns:xlink="http://www.w3.org/1999/xlink" x="0px" y="0px"
	 viewBox="0 0 210 210" style="enable-background:new 0 0 210 210;" xml:space="preserve">
<style type="text/css">
	.st0{fill:#E3E3E3;}
	.st1{opacity:0.1;fill:#171717;enable-background:new    ;}
	.st2{fill:#989A9E;}
	.st3{fill:#161F29;}
	.st4{fill:#FFFFFF;}
	.st5{fill:#E0E0E0;}
	.st6{fill:#253747;}
	.st7{fill:url(#SVGID_1_);}
	.st8{fill:#8EBAE8;}
	.st9{fill:#B7BABF;}
	.st10{fill:#B8A58F;}
	.st11{fill:#D0BAA2;}
	.st12{fill:#F3F0E9;}
	.st13{fill:#E8E6E4;}
	.st14{fill:#F2EFE8;}
	.st15{opacity:0.2;fill:#B8A58F;enable-background:new    ;}
	.st16{opacity:0.1;fill:#253747;enable-background:new    ;}
	.st17{fill:#131C2B;}
	.st18{fill:#696A6E;}
	.st19{fill:#92263E;}
	.st20{fill:#F3585E;}
	.st21{fill:#1B2435;}
	.st22{fill:#28364F;}
	.st23{fill:#222E45;}
	.st24{fill:#1F5255;}
	.st25{fill:#915E1F;}
	.st26{opacity:0.2;fill:#261908;enable-background:new    ;}
	.st27{fill:#006486;}
	.st28{fill:#7F8185;}
	.st29{fill:#C02727;}
	.st30{fill:#FFFEFE;}
</style>
<path class="st0" d="M186.4,159c0,0,15.5-22.5,6.2-43.9c-9.3-21.4-26.9-16.3-51.7-38.1c-30.1-26.4-51.2-27.8-78-16.3
	c-15.2,6.5-17.6,33.3-41.8,50c-21.8,15-4,40.6,7.4,44.6c11.5,4,19.2,4,19.2,4L186.4,159z"/>
<path class="st1" d="M105,169.7c48.2,0,87.2-1.1,87.2-2.4s-39-2.4-87.2-2.4c-48.2,0-87.2,1.1-87.2,2.4S56.8,169.7,105,169.7z"/>
<path class="st2" d="M137.7,114.8l-0.2-0.3c-0.8-1.2-2.3-1.9-3.8-1.9h-22.9c-1.6,0-3.1,0.8-3.9,2l-0.1,0.2H137.7z"/>
<path class="st2" d="M83.9,100.4h78.3c1,0,1.9-0.8,1.9-1.7v-47c0-1.4-1.2-2.5-2.7-2.5H84.7c-1.5,0-2.7,1.1-2.7,2.5v47
	C82,99.6,82.9,100.4,83.9,100.4z"/>
<path class="st3" d="M164.1,51.7v39.1H82V51.7c0-1.4,1.2-2.5,2.8-2.5h76.5C162.8,49.2,164.1,50.4,164.1,51.7z"/>
<path class="st4" d="M81.2,100.4h78.3c1,0,1.9-0.8,1.9-1.7v-47c0-1.4-1.2-2.5-2.7-2.5H82c-1.5,0-2.7,1.1-2.7,2.5v47
	C79.3,99.6,80.1,100.4,81.2,100.4z"/>
<path class="st5" d="M117.6,96.9c-0.8-1-0.5-2.3,0.5-3c1.1-0.7,2.6-0.5,3.3,0.5c0.8,1,0.5,2.3-0.5,3
	C119.9,98.1,118.4,97.9,117.6,96.9z"/>
<path class="st4" d="M135,114.8l-0.2-0.3c-0.8-1.2-2.3-1.9-3.8-1.9H108c-1.6,0-3.1,0.8-3.9,2l-0.1,0.2H135z"/>
<path class="st6" d="M161.3,51.7v39.2h-82V51.7c0-1.3,1.2-2.4,2.7-2.4h76.7C160.1,49.2,161.3,50.3,161.3,51.7z"/>
<linearGradient id="SVGID_1_" gradientUnits="userSpaceOnUse" x1="120.0288" y1="160.2112" x2="120.0288" y2="122.1452" gradientTransform="matrix(1 0 0 -1 0 212)">
	<stop  offset="0" style="stop-color:#334C62"/>
	<stop  offset="1" style="stop-color:#66798A"/>
</linearGradient>
<path class="st7" d="M158.6,51.7H81.4v36.9h77.2V51.7z"/>
<path class="st8" d="M147.4,53.7c0-0.5-0.5-1-1-1c-0.6,0-1,0.4-1,1c0,0.5,0.5,1,1,1C147,54.6,147.4,54.2,147.4,53.7z"/>
<path class="st8" d="M151.7,53.7c0-0.5-0.5-1-1-1c-0.6,0-1,0.4-1,1c0,0.5,0.5,1,1,1C151.3,54.6,151.7,54.2,151.7,53.7z"/>
<path class="st8" d="M156,53.7c0-0.5-0.5-1-1-1c-0.6,0-1,0.4-1,1c0,0.5,0.5,1,1,1C155.6,54.6,156,54.2,156,53.7z"/>
<path class="st4" d="M81.4,51.7h15.2c1.8,0,3.5,0.7,4.6,1.9c1.3,1.4,3.2,2.1,5.1,2.1h52.3v32.8H81.4V51.7z"/>
<path class="st2" d="M115.9,112.5h10.8c2.2-3.8,2.2-8.4,0-12.1h-10.8C118.2,104.2,118.2,108.7,115.9,112.5z"/>
<path class="st9" d="M113.1,112.5h10.8c2.2-3.8,2.2-8.4,0-12.1h-10.8C115.3,104.2,115.3,108.7,113.1,112.5z"/>
<path class="st10" d="M62.1,167.4h-4.5L64,123h4.5L62.1,167.4z"/>
<path class="st11" d="M60.2,167.4h-4.5l6.4-44.4h4.5L60.2,167.4z"/>
<path class="st10" d="M59,157.9H37.5v-2.7H59c0.9,0,1.6,0.7,1.5,1.5C60.4,157.4,59.8,157.9,59,157.9z"/>
<path class="st11" d="M40.6,167.4h-4.5l6.4-44.4H47L40.6,167.4z"/>
<path class="st12" d="M138.2,114.8H29.4v3.5h108.9V114.8z"/>
<path class="st13" d="M165.4,114.8h-27.1v3.5h27.1V114.8z"/>
<path class="st12" d="M133.4,118.2H34.2v4.7h99.1V118.2z"/>
<path class="st13" d="M160.2,118.2h-26.8v4.7h26.8V118.2z"/>
<path class="st14" d="M38.7,167.4h-4.5l6.4-44.4h4.5L38.7,167.4z"/>
<path class="st10" d="M152.3,157.9h-21.5v-2.7h21.5c0.9,0,1.6,0.7,1.5,1.5C153.7,157.4,153,157.9,152.3,157.9z"/>
<path class="st11" d="M127,167.4h4.5L125,123h-4.5L127,167.4z"/>
<path class="st14" d="M128.9,167.4h4.5l-6.4-44.4h-4.5L128.9,167.4z"/>
<path class="st10" d="M153.8,167.4h4.5l-6.4-44.4h-4.5L153.8,167.4z"/>
<path class="st11" d="M155.7,167.4h4.5l-6.4-44.4h-4.5L155.7,167.4z"/>
<path class="st15" d="M160.2,118.2h-26.8v1.7h26.8V118.2z"/>
<path class="st16" d="M133.4,118.2H34.2v1.7h99.1V118.2z"/>
<path class="st17" d="M83.8,143.8h-4.2v20.1h4.2V143.8z"/>
<path class="st2" d="M77.2,136.2h-5.7c-2.2-3.8-2.2-8.4,0-12.1h5.7C74.9,127.8,74.9,132.4,77.2,136.2z"/>
<path class="st18" d="M76.7,125c-0.1,0.3-0.3,0.6-0.4,0.8h-5.7c0.1-0.3,0.2-0.6,0.4-0.8H76.7z"/>
<path class="st18" d="M75.7,128.1c0,0.3-0.1,0.6-0.1,0.8h-5.7c0-0.3,0.1-0.6,0.1-0.8H75.7z"/>
<path class="st18" d="M75.7,132.1H70c-0.1-0.3-0.1-0.6-0.1-0.8h5.7C75.6,131.5,75.6,131.8,75.7,132.1z"/>
<path class="st18" d="M76.7,135.2H71c-0.1-0.3-0.3-0.6-0.4-0.8h5.7C76.4,134.6,76.5,134.9,76.7,135.2z"/>
<path class="st19" d="M92,124H62.6c-3.1,0-5.8-2-6.4-4.7l-6.8-30.1c-0.8-3.7,2.3-7.1,6.4-7.1h29.4c3.1,0,5.8,2,6.4,4.7l6.8,30.1
	C99.2,120.6,96.1,124,92,124z"/>
<path class="st20" d="M85.4,124H56c-3.1,0-5.8-2-6.4-4.7l-6.8-30.1C42,85.5,45.1,82,49.2,82h29.4c3.1,0,5.8,2,6.4,4.7l6.8,30.1
	C92.7,120.6,89.6,124,85.4,124z"/>
<path class="st19" d="M105.8,136.2H73.3c-3,0-5.6,2-6.1,4.8c-0.3,1.5,1,2.9,2.7,2.9h39.2c1.7,0,3-1.4,2.7-2.9
	C111.4,138.2,108.8,136.2,105.8,136.2z"/>
<path class="st20" d="M98,136.2H65.5c-3,0-5.6,2-6.1,4.8c-0.3,1.5,1,2.9,2.7,2.9h39.2c1.7,0,3-1.4,2.7-2.9
	C103.6,138.2,101,136.2,98,136.2z"/>
<path class="st9" d="M75.2,135.2c0.2,0.3,0.3,0.7,0.5,1h-5.7c-0.2-0.3-0.4-0.7-0.5-1c-0.1-0.3-0.3-0.6-0.4-0.8
	c-0.3-0.7-0.5-1.5-0.6-2.3c-0.1-0.3-0.1-0.6-0.1-0.8c0-0.4-0.1-0.8-0.1-1.1c0-0.4,0-0.8,0.1-1.1c0-0.3,0.1-0.6,0.1-0.8
	c0.1-0.8,0.3-1.5,0.6-2.3c0.1-0.3,0.2-0.6,0.4-0.8c0.2-0.3,0.3-0.7,0.5-1h5.7c-0.2,0.3-0.4,0.7-0.5,1c-0.1,0.3-0.3,0.6-0.4,0.8
	c-0.3,0.7-0.5,1.5-0.6,2.3c0,0.3-0.1,0.6-0.1,0.8c0,0.4-0.1,0.8-0.1,1.1c0,0.4,0,0.8,0.1,1.1c0,0.3,0.1,0.6,0.1,0.8
	c0.1,0.8,0.3,1.5,0.6,2.3C75,134.6,75.1,134.9,75.2,135.2z"/>
<path class="st21" d="M85.4,148.2H78c-2.6,0-4.8-1.9-4.8-4.3h17C90.2,146.2,88.1,148.2,85.4,148.2z"/>
<path class="st22" d="M65.9,165.3c0-1.1-1-2-2.2-2s-2.2,0.9-2.2,2c0,1.1,1,2,2.2,2C64.9,167.4,65.9,166.5,65.9,165.3z"/>
<path class="st21" d="M64.7,165.3c0-0.5-0.5-1-1-1c-0.6,0-1,0.4-1,1c0,0.5,0.5,1,1,1C64.2,166.3,64.7,165.9,64.7,165.3z"/>
<path class="st2" d="M63.6,162.7c-1.6,0-2.9,1.2-2.9,2.6h5.7C66.5,163.9,65.2,162.7,63.6,162.7z"/>
<path class="st22" d="M102,165.3c0-1.1-1-2-2.2-2c-1.2,0-2.2,0.9-2.2,2c0,1.1,1,2,2.2,2C101,167.4,102,166.5,102,165.3z"/>
<path class="st21" d="M100.8,165.3c0-0.5-0.5-1-1-1c-0.6,0-1,0.4-1,1c0,0.5,0.5,1,1,1C100.4,166.3,100.8,165.9,100.8,165.3z"/>
<path class="st2" d="M99.8,162.7c-1.6,0-2.9,1.2-2.9,2.6h5.7C102.6,163.9,101.4,162.7,99.8,162.7z"/>
<path class="st22" d="M84,165.3c0-1.1-1-2-2.2-2c-1.2,0-2.2,0.9-2.2,2c0,1.1,1,2,2.2,2C83,167.4,84,166.5,84,165.3z"/>
<path class="st21" d="M82.8,165.3c0-0.5-0.5-1-1-1c-0.6,0-1,0.4-1,1c0,0.5,0.5,1,1,1S82.8,165.9,82.8,165.3z"/>
<path class="st9" d="M81.8,162.7c-1.6,0-2.9,1.2-2.9,2.6h5.7C84.6,163.9,83.3,162.7,81.8,162.7z"/>
<path class="st21" d="M104.4,163.9H59.1c0-1.3,1.2-2.4,2.6-2.4h40C103.2,161.5,104.4,162.6,104.4,163.9z"/>
<path class="st21" d="M83.8,157.2h-4.2c-0.6,0-1.1,0.4-1.1,1v5.7h6.3v-5.7C84.9,157.6,84.4,157.2,83.8,157.2z"/>
<path class="st23" d="M82.2,161.5h-1c-1.5,0-2.6,1.1-2.6,2.4h6.3C84.9,162.6,83.7,161.5,82.2,161.5z"/>
<path class="st24" d="M152,106.7c1,0,1.8-2.4,1.8-5.4S152.9,96,152,96c-1,0-1.8,2.4-1.8,5.4S151,106.7,152,106.7z"/>
<path class="st24" d="M151.9,106.7c0.7-0.6-0.6-2.9-2.9-5c-2.3-2.1-4.7-3.3-5.4-2.6s0.6,2.9,2.9,5
	C148.8,106.2,151.2,107.3,151.9,106.7z"/>
<path class="st24" d="M152,106.7c1,0,1.8-2.4,1.8-5.4S152.9,96,152,96c-1,0-1.8,2.4-1.8,5.4S151,106.7,152,106.7z"/>
<path class="st24" d="M157.4,104.1c2.3-2.1,3.6-4.3,2.9-5c-0.7-0.6-3.1,0.5-5.4,2.6c-2.3,2.1-3.6,4.3-2.9,5
	C152.7,107.3,155.1,106.2,157.4,104.1z"/>
<path class="st25" d="M158.3,108.1h-12.6l-0.2-2.9h13.1L158.3,108.1z"/>
<path class="st25" d="M156.6,114.8h-9.3l-0.6-6.6h10.5L156.6,114.8z"/>
<path class="st26" d="M146.7,108.1h10.5l-0.1,1.2h-10.3L146.7,108.1z"/>
<path class="st27" d="M103.1,97l-28.5,3.8c-2,0.3-3.4,1.9-3.1,3.7l2.3,14.2c0.3,1.8,2.1,3.1,4.1,2.8l28.5-3.8c2-0.3,3.4-1.9,3.1-3.7
	l-2.3-14.2C106.9,98,105.1,96.8,103.1,97z M80.2,102.8c-0.4,0-0.7-0.2-0.8-0.5c-0.1-0.3,0.2-0.7,0.6-0.7c0.4,0,0.7,0.2,0.8,0.5
	S80.6,102.8,80.2,102.8z M98.8,100.4c-0.4,0-0.7-0.2-0.8-0.5c-0.1-0.3,0.2-0.7,0.6-0.7c0.4,0,0.7,0.2,0.8,0.5
	C99.4,100,99.2,100.3,98.8,100.4z"/>
<path class="st19" d="M80.1,82c-3,1.4-2.8,5.3-2.7,7.9c0.1,4.2,1,8.4,2.4,12.4c0.1,0.3,0.6,0.2,0.5-0.1c-1.3-3.5-2.1-7.1-2.3-10.8
	c-0.2-2.7-0.8-7.4,2.3-8.9C80.7,82.3,80.4,81.9,80.1,82z"/>
<path class="st19" d="M99.1,99.9c-1.7-5.8-2.8-13.9-9.8-16.6c-0.3-0.1-0.5,0.4-0.1,0.5c6.7,2.5,7.8,10.6,9.4,16.2
	C98.6,100.4,99.2,100.3,99.1,99.9z"/>
<path class="st28" d="M75.2,125c-0.1,0.3-0.3,0.6-0.4,0.8h-5.7c0.1-0.3,0.2-0.6,0.4-0.8H75.2z"/>
<path class="st28" d="M74.2,128.1c0,0.3-0.1,0.6-0.1,0.8h-5.7c0-0.3,0.1-0.6,0.1-0.8H74.2z"/>
<path class="st28" d="M74.2,132.1h-5.7c-0.1-0.3-0.1-0.6-0.1-0.8h5.7C74.1,131.5,74.2,131.8,74.2,132.1z"/>
<path class="st28" d="M75.2,135.2h-5.7c-0.1-0.3-0.3-0.6-0.4-0.8h5.7C75,134.6,75.1,134.9,75.2,135.2z"/>
<path class="st29" d="M90.4,70.9h-1.2V74h-1.4v-3.1h-1.2v-1.1h3.9V70.9z M92.9,69.8c0.4,0,0.7,0.1,1,0.2c0.3,0.1,0.5,0.3,0.7,0.6
	c0.2,0.2,0.2,0.5,0.2,0.8c0,0.3-0.1,0.6-0.2,0.8c-0.2,0.2-0.4,0.4-0.7,0.6c-0.3,0.1-0.6,0.2-1,0.2h-0.6v1h-1.4v-4.2H92.9z
	 M92.8,71.9c0.2,0,0.3,0,0.4-0.1c0.1-0.1,0.1-0.2,0.1-0.4c0-0.2,0-0.3-0.1-0.4c-0.1-0.1-0.2-0.1-0.4-0.1h-0.5v1H92.8z M99.4,69.8
	L97.7,73c-0.2,0.4-0.4,0.7-0.7,0.9c-0.3,0.2-0.6,0.3-1,0.3c-0.3,0-0.5-0.1-0.8-0.2l0.3-1c0.2,0,0.3,0.1,0.4,0.1c0.1,0,0.2,0,0.3-0.1
	c0.1,0,0.1-0.1,0.2-0.2l-1.6-3h1.5l0.8,1.8l0.9-1.8H99.4z M104.3,72.9v1.9H103V74h-2.4v0.8h-1.3v-1.9h0.1c0.2,0,0.4-0.2,0.5-0.5
	c0.1-0.3,0.2-0.8,0.2-1.4l0-1.3h3.6v3.1H104.3z M101.4,71.2c0,0.4,0,0.7-0.1,1c0,0.3-0.1,0.5-0.2,0.7h1.3v-2h-1L101.4,71.2z
	 M106.9,74.1c-0.5,0-0.9-0.1-1.2-0.3c-0.4-0.2-0.6-0.4-0.8-0.8c-0.2-0.3-0.3-0.7-0.3-1.1c0-0.4,0.1-0.8,0.3-1.1
	c0.2-0.3,0.5-0.6,0.8-0.8s0.8-0.3,1.2-0.3c0.5,0,0.9,0.1,1.2,0.3s0.6,0.5,0.8,0.8c0.2,0.3,0.3,0.7,0.3,1.1c0,0.4-0.1,0.8-0.3,1.1
	c-0.2,0.3-0.5,0.6-0.8,0.8C107.8,74,107.4,74.1,106.9,74.1z M106.9,72.9c0.2,0,0.3,0,0.5-0.1c0.1-0.1,0.3-0.2,0.3-0.4
	c0.1-0.2,0.1-0.3,0.1-0.6s0-0.4-0.1-0.6c-0.1-0.2-0.2-0.3-0.3-0.4c-0.1-0.1-0.3-0.1-0.5-0.1c-0.2,0-0.3,0-0.5,0.1
	c-0.1,0.1-0.3,0.2-0.3,0.4c-0.1,0.2-0.1,0.3-0.1,0.6s0,0.4,0.1,0.6c0.1,0.2,0.2,0.3,0.3,0.4C106.6,72.9,106.7,72.9,106.9,72.9z
	 M113.8,69.8l-1.7,3.2c-0.2,0.4-0.4,0.7-0.7,0.9c-0.3,0.2-0.6,0.3-1,0.3c-0.3,0-0.5-0.1-0.8-0.2l0.3-1c0.2,0,0.3,0.1,0.4,0.1
	c0.1,0,0.2,0,0.3-0.1c0.1,0,0.1-0.1,0.2-0.2l-1.6-3h1.5l0.8,1.8l0.9-1.8H113.8z M116.2,74.1c-0.4,0-0.8-0.1-1.2-0.3
	c-0.4-0.2-0.6-0.4-0.8-0.8c-0.2-0.3-0.3-0.7-0.3-1.1c0-0.4,0.1-0.8,0.3-1.1c0.2-0.3,0.5-0.6,0.8-0.8c0.4-0.2,0.8-0.3,1.2-0.3
	c0.4,0,0.8,0.1,1.1,0.2s0.6,0.4,0.8,0.6l-0.9,0.8c-0.3-0.3-0.6-0.5-0.9-0.5c-0.3,0-0.5,0.1-0.7,0.3c-0.2,0.2-0.3,0.4-0.3,0.8
	s0.1,0.6,0.3,0.8c0.2,0.2,0.4,0.3,0.7,0.3c0.4,0,0.7-0.2,0.9-0.5l0.9,0.8c-0.2,0.3-0.5,0.5-0.8,0.6C116.9,74,116.6,74.1,116.2,74.1z
	 M122,70.9h-1.2V74h-1.4v-3.1h-1.2v-1.1h3.9V70.9z M124.5,69.8c0.4,0,0.7,0.1,1,0.2c0.3,0.1,0.5,0.3,0.7,0.6s0.2,0.5,0.2,0.8
	c0,0.3-0.1,0.6-0.2,0.8s-0.4,0.4-0.7,0.6s-0.6,0.2-1,0.2h-0.6v1h-1.4v-4.2H124.5z M124.4,71.9c0.2,0,0.3,0,0.4-0.1
	c0.1-0.1,0.1-0.2,0.1-0.4c0-0.2,0-0.3-0.1-0.4c-0.1-0.1-0.2-0.1-0.4-0.1h-0.5v1H124.4z M129.1,74.1c-0.5,0-0.9-0.1-1.2-0.3
	c-0.4-0.2-0.6-0.4-0.8-0.8c-0.2-0.3-0.3-0.7-0.3-1.1c0-0.4,0.1-0.8,0.3-1.1c0.2-0.3,0.5-0.6,0.8-0.8s0.8-0.3,1.2-0.3
	c0.5,0,0.9,0.1,1.2,0.3s0.6,0.5,0.8,0.8c0.2,0.3,0.3,0.7,0.3,1.1c0,0.4-0.1,0.8-0.3,1.1c-0.2,0.3-0.5,0.6-0.8,0.8
	C129.9,74,129.5,74.1,129.1,74.1z M129.1,72.9c0.2,0,0.3,0,0.5-0.1c0.1-0.1,0.3-0.2,0.3-0.4c0.1-0.2,0.1-0.3,0.1-0.6s0-0.4-0.1-0.6
	c-0.1-0.2-0.2-0.3-0.3-0.4c-0.1-0.1-0.3-0.1-0.5-0.1c-0.2,0-0.3,0-0.5,0.1c-0.1,0.1-0.3,0.2-0.3,0.4c-0.1,0.2-0.1,0.3-0.1,0.6
	s0,0.4,0.1,0.6c0.1,0.2,0.2,0.3,0.3,0.4C128.7,72.9,128.9,72.9,129.1,72.9z M131.9,69.8h1.4V72l1.4-2.2h1.3V74h-1.4v-2.2l-1.4,2.2
	h-1.3V69.8z M134,69.6c-0.5,0-0.8-0.1-1-0.3c-0.2-0.2-0.3-0.4-0.3-0.8h0.9c0,0.1,0,0.2,0.1,0.3c0.1,0.1,0.2,0.1,0.3,0.1
	s0.2,0,0.3-0.1c0.1-0.1,0.1-0.2,0.1-0.3h0.9c0,0.3-0.1,0.6-0.3,0.8C134.8,69.5,134.5,69.6,134,69.6z M139,74.1
	c-0.4,0-0.8-0.1-1.2-0.3c-0.4-0.2-0.6-0.4-0.8-0.8c-0.2-0.3-0.3-0.7-0.3-1.1c0-0.4,0.1-0.8,0.3-1.1c0.2-0.3,0.5-0.6,0.8-0.8
	c0.4-0.2,0.8-0.3,1.2-0.3c0.4,0,0.8,0.1,1.1,0.2c0.3,0.1,0.6,0.4,0.8,0.6l-0.9,0.8c-0.3-0.3-0.6-0.5-0.9-0.5c-0.3,0-0.5,0.1-0.7,0.3
	c-0.2,0.2-0.3,0.4-0.3,0.8s0.1,0.6,0.3,0.8c0.2,0.2,0.4,0.3,0.7,0.3c0.4,0,0.7-0.2,0.9-0.5l0.9,0.8c-0.2,0.3-0.5,0.5-0.8,0.6
	C139.7,74,139.4,74.1,139,74.1z M144.8,70.9h-1.2V74h-1.4v-3.1H141v-1.1h3.9V70.9z M148.5,71.8c0.2,0.1,0.4,0.2,0.5,0.4
	c0.1,0.2,0.2,0.4,0.2,0.6c0,0.4-0.1,0.7-0.4,0.9c-0.3,0.2-0.7,0.3-1.3,0.3h-2.2v-4.2h2.1c0.5,0,0.9,0.1,1.2,0.3
	c0.3,0.2,0.4,0.5,0.4,0.8c0,0.2,0,0.4-0.1,0.5C148.8,71.6,148.7,71.7,148.5,71.8z M146.7,71.4h0.6c0.2,0,0.3-0.1,0.3-0.3
	c0-0.2-0.1-0.3-0.3-0.3h-0.6V71.4z M147.5,73c0.2,0,0.3-0.1,0.3-0.3c0-0.2-0.1-0.3-0.3-0.3h-0.8V73H147.5z M151.9,74.1
	c-0.5,0-0.9-0.1-1.2-0.3c-0.4-0.2-0.6-0.4-0.8-0.8c-0.2-0.3-0.3-0.7-0.3-1.1c0-0.4,0.1-0.8,0.3-1.1c0.2-0.3,0.5-0.6,0.8-0.8
	s0.8-0.3,1.2-0.3c0.5,0,0.9,0.1,1.2,0.3s0.6,0.5,0.8,0.8c0.2,0.3,0.3,0.7,0.3,1.1c0,0.4-0.1,0.8-0.3,1.1c-0.2,0.3-0.5,0.6-0.8,0.8
	C152.7,74,152.3,74.1,151.9,74.1z M151.9,72.9c0.2,0,0.3,0,0.5-0.1c0.1-0.1,0.3-0.2,0.3-0.4c0.1-0.2,0.1-0.3,0.1-0.6s0-0.4-0.1-0.6
	c-0.1-0.2-0.2-0.3-0.3-0.4c-0.1-0.1-0.3-0.1-0.5-0.1c-0.2,0-0.3,0-0.5,0.1c-0.1,0.1-0.3,0.2-0.3,0.4c-0.1,0.2-0.1,0.3-0.1,0.6
	s0,0.4,0.1,0.6c0.1,0.2,0.2,0.3,0.3,0.4C151.6,72.9,151.7,72.9,151.9,72.9z"/>
<path class="st30" d="M79.9,111.1c0.2,0,0.4,0.1,0.5,0.3c0.1,0.1,0.2,0.3,0.2,0.5c0,0.3-0.1,0.6-0.3,0.8c-0.2,0.2-0.6,0.3-1,0.4
	l-1.9,0.2l-0.4-3.5l1.8-0.2c0.4-0.1,0.8,0,1,0.1c0.3,0.1,0.4,0.3,0.4,0.6c0,0.2,0,0.3-0.1,0.5C80.1,110.9,80,111,79.9,111.1z
	 M78.3,111l0.5-0.1c0.2,0,0.3-0.1,0.3-0.3c0-0.2-0.1-0.3-0.3-0.2l-0.5,0.1L78.3,111z M79.1,112.2c0.2,0,0.3-0.1,0.3-0.3
	c0-0.2-0.1-0.3-0.3-0.2l-0.6,0.1l0.1,0.5L79.1,112.2z M85.4,111.3l0.1,0.9l-2.9,0.4l-0.4-3.5l2.8-0.4l0.1,0.9l-1.7,0.2l0.1,0.4
	l1.5-0.2l0.1,0.8l-1.5,0.2l0.1,0.5L85.4,111.3z M88.4,110c0.2,0,0.4,0.1,0.5,0.3c0.1,0.1,0.2,0.3,0.2,0.5c0,0.3-0.1,0.6-0.3,0.8
	c-0.2,0.2-0.6,0.3-1,0.4l-1.9,0.2l-0.4-3.5l1.8-0.2c0.4-0.1,0.8,0,1,0.1c0.3,0.1,0.4,0.3,0.4,0.6c0,0.2,0,0.3-0.1,0.5
	C88.6,109.8,88.5,109.9,88.4,110z M86.9,109.9l0.5-0.1c0.2,0,0.3-0.1,0.3-0.3c0-0.2-0.1-0.3-0.3-0.2l-0.5,0.1L86.9,109.9z
	 M87.7,111.1c0.2,0,0.3-0.1,0.3-0.3c0-0.2-0.1-0.3-0.3-0.2l-0.6,0.1l0.1,0.5L87.7,111.1z M90.9,108c0.3,0,0.6,0,0.9,0.1
	c0.3,0.1,0.5,0.2,0.6,0.4c0.2,0.2,0.2,0.4,0.3,0.7c0,0.3,0,0.5-0.1,0.7c-0.1,0.2-0.3,0.4-0.5,0.5c-0.2,0.1-0.5,0.2-0.8,0.3l-0.5,0.1
	l0.1,0.9l-1.2,0.2l-0.4-3.5L90.9,108z M91,109.7c0.2,0,0.3-0.1,0.3-0.2c0.1-0.1,0.1-0.2,0.1-0.3c0-0.1-0.1-0.2-0.2-0.3
	c-0.1-0.1-0.2-0.1-0.4-0.1l-0.4,0.1l0.1,0.8L91,109.7z M95.1,111.1c-0.4,0-0.7,0-1-0.1c-0.3-0.1-0.6-0.3-0.8-0.6
	c-0.2-0.3-0.3-0.6-0.4-0.9c0-0.3,0-0.7,0.1-1c0.1-0.3,0.3-0.5,0.6-0.7c0.3-0.2,0.6-0.3,1-0.4c0.4,0,0.7,0,1,0.1
	c0.3,0.1,0.6,0.3,0.8,0.6c0.2,0.3,0.3,0.6,0.4,0.9c0,0.3,0,0.7-0.1,1c-0.1,0.3-0.3,0.5-0.6,0.7S95.5,111,95.1,111.1z M95,110.1
	c0.1,0,0.3-0.1,0.4-0.2c0.1-0.1,0.2-0.2,0.2-0.3c0.1-0.1,0.1-0.3,0-0.5c0-0.2-0.1-0.3-0.2-0.4c-0.1-0.1-0.2-0.2-0.3-0.3
	c-0.1-0.1-0.3-0.1-0.4-0.1c-0.1,0-0.3,0.1-0.4,0.2c-0.1,0.1-0.2,0.2-0.2,0.3c-0.1,0.1-0.1,0.3,0,0.5c0,0.2,0.1,0.3,0.2,0.4
	c0.1,0.1,0.2,0.2,0.3,0.3C94.7,110.1,94.8,110.1,95,110.1z M100.4,106.8l0.4,3.5l-1.2,0.1l-0.3-2.6l-1.1,0.1l0.3,2.6l-1.2,0.1
	l-0.4-3.5L100.4,106.8z M104.5,106.3l-1.1,2.8c-0.1,0.3-0.3,0.6-0.5,0.8c-0.2,0.2-0.5,0.3-0.8,0.3c-0.2,0-0.5,0-0.7-0.1l0.2-0.9
	c0.2,0,0.3,0,0.4,0c0.1,0,0.2,0,0.2-0.1c0.1,0,0.1-0.1,0.2-0.2l-1.6-2.3l1.2-0.2l0.9,1.4l0.5-1.6L104.5,106.3z"/>
</svg>
