<svg width="45" height="36" viewBox="0 0 45 36" fill="none" xmlns="http://www.w3.org/2000/svg">
<path d="M23.2225 11.3448L22.3006 11.7266L22.3995 12.2579L22.7621 13.0825L22.3006 13.6783L22.544 14.0642L22.2018 15.2445L22.3994 15.653L21.3329 15.9611L20.9591 15.717C20.9591 15.717 20.5391 15.9535 20.3359 16.0477C20.1328 16.1419 19.7182 15.6203 19.7182 15.6203L19.589 15.3224L18.8885 15.1565L18.6578 15.3475L18.147 14.9657L17.823 15.3628L16.6477 14.8817L16.5131 14.6294L15.791 14.4236L15.4201 14.6294L15.0961 14.2348L14.6296 14.3852L14.2973 14.3269L14.1405 13.7715L14.4812 13.6287L14.3685 12.8676L13.8854 12.4704L13.5007 12.2693L13.6216 11.0597L13.594 10.1891L13.0204 9.81958L13.4218 9.19874L13.6874 8.92537L13.7392 8.4617L13.9308 8.32402L14.1615 8.54566H14.7152L15.0017 8.47295L15.2485 8.14846L14.8201 7.92119L14.9399 7.74153C14.9399 7.74153 15.4217 7.62484 15.4217 7.62327C15.4157 7.62327 15.4466 7.28342 15.44 7.28342C15.44 7.28287 15.7883 7.25474 15.7883 7.25474L15.9965 7.45897L16.1095 7.49121L16.4082 7.13037L17.0817 7.26031L17.3003 7.50857L18.3011 7.5142C18.3011 7.5142 18.5297 7.70306 18.5319 7.70874C18.5396 7.70874 18.8797 7.37652 18.8797 7.37652L19.2093 7.51625L19.228 7.90377L20.0457 8.00304L20.3106 7.89554L20.431 7.90782L20.8218 7.80644L21.1332 7.95132V8.61414L21.4545 9.14907L22.0186 9.07642L22.5707 9.4966C22.5707 9.4966 23.0405 9.37217 23.0465 9.37217C23.0525 9.37217 23.137 9.44283 23.137 9.44283L23.2297 9.89174L23.5631 10.1323L22.8813 10.6344L23.2225 11.3448Z" fill="#E3E3E3"/>
<path d="M34.8787 3.40022C34.8538 3.19448 34.7655 2.86377 34.7655 2.86377C34.7655 2.86377 34.2649 2.57359 34.2709 2.44002C34.2775 2.30645 34.3455 2.20307 34.4873 2.1554C34.6297 2.1078 35.3733 1.82675 35.4141 1.67987C35.4555 1.53299 35.5024 1.54679 35.2657 1.15576C35.2657 1.15576 30.5061 2.82487 23.8773 1.77769C23.8314 1.77049 23.785 1.75567 23.7392 1.75004C23.6868 1.74387 23.6355 1.74085 23.583 1.73056C23.5537 1.72445 23.5543 1.72185 23.5427 1.75155C23.5366 1.7674 23.5294 1.78126 23.5206 1.79662C23.5013 1.82983 23.4776 1.84883 23.4373 1.86111C23.4086 1.86982 23.3776 1.85905 23.3489 1.86522C23.3224 1.87084 23.3076 1.90103 23.2877 1.91742C23.238 1.96043 23.1707 1.89897 23.1359 1.97525C23.1242 2.00036 23.1298 2.03666 23.1237 2.06484C23.1155 2.09969 23.1115 2.12576 23.0807 2.14778C23.0514 2.16877 23.0221 2.16266 22.9917 2.17651C22.9609 2.18982 22.9416 2.22817 22.9255 2.25534C22.8907 2.31419 22.8526 2.36948 22.8068 2.42272C22.7826 2.45139 22.7506 2.47589 22.7296 2.50565C22.7097 2.53427 22.7075 2.56451 22.7058 2.5973C22.7009 2.67201 22.6721 2.71193 22.5955 2.73855C22.5601 2.75083 22.5275 2.77031 22.4895 2.77436C22.4177 2.78259 22.346 2.78362 22.273 2.78973C22.2328 2.79281 22.1759 2.84139 22.151 2.87163C22.1362 2.89008 22.1323 2.91313 22.1196 2.93207C22.0997 2.96122 22.0572 2.98324 22.0291 3.00369C22.0026 3.02214 21.9855 3.0467 21.9651 3.07071C21.9413 3.09939 21.9121 3.126 21.8856 3.15311C21.8436 3.19612 21.8055 3.23907 21.7596 3.27802C21.7397 3.29544 21.7199 3.31281 21.699 3.33071C21.6769 3.34922 21.6708 3.37173 21.6521 3.3906C21.6421 3.40137 21.6278 3.40082 21.6167 3.40905C21.6068 3.41673 21.6018 3.43155 21.5952 3.44232C21.583 3.46386 21.5736 3.48327 21.5659 3.50681C21.5504 3.5575 21.5598 3.60771 21.5487 3.6578C21.5421 3.68955 21.5217 3.70492 21.4914 3.71871C21.4643 3.73099 21.4113 3.73813 21.3936 3.70389C21.3765 3.6737 21.4207 3.66808 21.4356 3.65374C21.4428 3.64703 21.4411 3.63426 21.4488 3.62809C21.4527 3.62453 21.4681 3.62295 21.4693 3.62144C21.4831 3.60456 21.4356 3.54824 21.4274 3.52931C21.4097 3.49144 21.3728 3.46537 21.3352 3.44534C21.2347 3.39108 21.1039 3.44897 21.02 3.50675C20.9962 3.52314 20.983 3.5477 20.9587 3.56355C20.9333 3.58 20.8974 3.59682 20.8665 3.60299C20.8422 3.60759 20.8229 3.6045 20.8046 3.59785L20.7666 4.41474C20.7666 4.41474 21.0012 5.00484 21.0073 5.00484C21.0133 5.00484 21.3142 5.00484 21.3142 5.00484L21.4356 5.33707L21.6934 5.62525L21.8744 5.32376L22.3133 5.37911L22.4061 5.44565L21.9876 6.36236L21.4107 6.31832L21.2401 6.60293L21.3887 6.91417L20.968 7.2274L20.75 7.71672L20.3105 7.89536L20.4309 7.90764L20.8217 7.80625L21.1331 7.95113V8.61395L21.4544 9.14889L22.0186 9.07623L22.5706 9.49642C22.5706 9.49642 23.0404 9.37198 23.0465 9.37198C23.0525 9.37198 23.137 9.44264 23.137 9.44264L23.2297 9.89155L23.563 10.1321V10.5006C23.563 10.5006 24.0019 10.6552 24.0057 10.5636C24.0102 10.4719 23.9524 10.3768 24.0057 10.3425C24.0594 10.3077 24.146 10.3154 24.1831 10.2811C24.22 10.2468 24.2675 10.2217 24.2675 10.2217L24.7886 10.5216C24.7886 10.5216 25.0751 10.3287 25.1861 10.3573C25.2976 10.386 25.8678 10.4417 25.9214 10.4264C25.975 10.4111 26.3376 10.4013 26.3376 10.4013C26.3376 10.4013 26.2411 9.9642 26.3173 9.89361C26.3935 9.82295 26.4961 9.73693 26.5022 9.73693C26.5088 9.73693 27.03 9.76355 27.03 9.76355C27.03 9.76355 27.3099 9.5537 27.4026 9.43139C27.4953 9.30907 27.5196 9.24604 27.5797 9.23841C27.6393 9.23073 28.1213 9.23636 28.1893 9.18524C28.2571 9.13352 28.377 9.12789 28.3603 9.02451C28.3437 8.92161 28.3437 8.77063 28.5022 8.75532C28.6607 8.73996 28.9925 8.94055 28.9925 8.94055C28.9925 8.94055 29.6395 8.26648 29.6516 8.26648C29.6639 8.26648 30.1004 8.25674 30.1004 8.25674C30.1004 8.25674 30.4383 7.97418 30.7225 7.87897C30.9495 7.80269 31.1161 7.76282 31.1918 7.72386C31.1918 7.72338 31.1918 7.72338 31.1918 7.72338C31.2111 7.71364 31.2243 7.7039 31.2315 7.69368C31.2662 7.64196 31.4208 7.50434 31.4744 7.5217C31.5279 7.53863 32.1192 7.7777 32.1192 7.7777C32.1192 7.7777 32.335 7.77002 32.3268 7.77208C32.319 7.77359 32.3578 7.54837 32.4526 7.50433C32.5476 7.46084 33.1858 7.24688 33.2928 7.13781C33.4 7.0288 34.2198 6.16787 34.2198 6.16787L34.4588 6.12952C34.4588 6.12952 34.5945 5.94217 34.6006 5.93861C34.6073 5.93504 35.4761 5.39248 35.4761 5.39248L35.7808 4.43585C35.7806 4.43573 34.9036 3.6065 34.8787 3.40022ZM21.9661 4.64455C21.9319 4.68956 21.8441 4.71109 21.8143 4.65882C21.7778 4.59434 21.7431 4.51963 21.7254 4.44898C21.7177 4.41934 21.7298 4.41262 21.7359 4.38607C21.7437 4.35685 21.7309 4.32466 21.7155 4.29902C21.6917 4.25752 21.6592 4.25244 21.6217 4.22993C21.5858 4.20791 21.5333 4.18027 21.5218 4.13526C21.5073 4.07586 21.6095 4.08052 21.6443 4.09788C21.6896 4.12093 21.7122 4.1721 21.7569 4.19666C21.7939 4.21711 21.8264 4.22685 21.8392 4.26829C21.8513 4.30821 21.8463 4.34511 21.8508 4.38552C21.8563 4.43313 21.9087 4.45714 21.9336 4.49659C21.9578 4.53548 21.9987 4.60202 21.9661 4.64455ZM22.9068 6.88798C22.9118 6.94786 22.882 6.9893 22.8444 7.0354C22.808 7.08095 22.7881 7.12849 22.7676 7.1813C22.7477 7.23296 22.7141 7.27906 22.6804 7.3231C22.6484 7.36557 22.6291 7.4214 22.6075 7.46997C22.5998 7.48734 22.5943 7.50881 22.5838 7.52472C22.5534 7.56773 22.5435 7.52527 22.5435 7.49708C22.5435 7.45407 22.5429 7.41112 22.5429 7.36756C22.5435 7.31276 22.5396 7.24573 22.5733 7.19758C22.5992 7.16074 22.6246 7.12335 22.6517 7.08706C22.6694 7.06347 22.6931 7.03999 22.703 7.01235C22.7301 6.94067 22.671 6.84908 22.6279 6.79379C22.5887 6.74364 22.5413 6.6996 22.4812 6.67147C22.4353 6.64946 22.3939 6.631 22.3575 6.59568C22.3304 6.56954 22.2559 6.50004 22.2719 6.45751C22.2885 6.41347 22.3933 6.44983 22.4265 6.4534C22.5004 6.46314 22.48 6.41813 22.4613 6.37101C22.4436 6.32751 22.4243 6.262 22.501 6.27628C22.56 6.28759 22.6279 6.33005 22.6351 6.38946C22.6428 6.44529 22.6059 6.50463 22.634 6.55841C22.6876 6.66173 22.899 6.50209 22.9139 6.5814C22.9222 6.62538 22.8852 6.67408 22.8808 6.71805C22.8748 6.77582 22.9029 6.83063 22.9068 6.88798ZM31.6823 4.92094C31.6963 4.88767 31.6957 4.84774 31.699 4.81248C31.7029 4.77304 31.7094 4.73263 31.7039 4.69319C31.6984 4.65429 31.6635 4.56778 31.7111 4.54474C31.7459 4.52731 31.7729 4.54885 31.7967 4.57287C31.8115 4.58775 31.8176 4.60819 31.8336 4.62253C31.8496 4.63687 31.8606 4.64358 31.8712 4.66246C31.9053 4.72797 31.9396 4.80988 31.9075 4.88204C31.8959 4.90818 31.8816 4.93014 31.875 4.95832C31.8679 4.98803 31.8695 5.02795 31.8535 5.05457C31.8473 5.06479 31.8507 5.0458 31.8435 5.05765C31.8309 5.07864 31.8286 5.09752 31.8122 5.11294C31.7928 5.13133 31.7884 5.12625 31.7652 5.12214C31.7547 5.12008 31.753 5.12825 31.7432 5.12111C31.7375 5.11754 31.7333 5.10218 31.7287 5.09649C31.6879 5.04217 31.6543 4.98797 31.6823 4.92094ZM31.3224 3.9213C31.3457 3.90388 31.3864 3.8916 31.4147 3.90442C31.4517 3.92233 31.4582 3.97556 31.4693 4.00829C31.4991 4.09431 31.5659 4.15317 31.6118 4.22999C31.6283 4.25709 31.6443 4.29188 31.6222 4.3211C31.6012 4.3482 31.5693 4.34517 31.5389 4.35533C31.5058 4.36659 31.4726 4.38703 31.4413 4.40246C31.3904 4.42702 31.3026 4.4598 31.2733 4.50838C31.2486 4.54885 31.2579 4.60154 31.2231 4.63941C31.2082 4.65532 31.194 4.68956 31.1773 4.71109C31.1546 4.74079 31.1364 4.77201 31.0984 4.77969C31.0741 4.78429 31.0315 4.791 31.0133 4.77201C30.9979 4.75513 30.9918 4.7244 30.9968 4.70341C31.0117 4.64358 31.073 4.60003 31.1034 4.54831C31.1315 4.5007 31.1536 4.44087 31.1901 4.39786C31.2308 4.34977 31.2645 4.29345 31.2999 4.24076C31.3033 4.19261 31.3391 4.16394 31.3275 4.11324C31.3147 4.06001 31.2645 3.96431 31.3224 3.9213ZM30.4531 3.48212C30.4905 3.45194 30.5938 3.49446 30.6004 3.42998C30.6037 3.40028 30.5773 3.37366 30.5712 3.34602C30.5645 3.31426 30.5811 3.28667 30.6081 3.26768C30.6324 3.25026 30.6578 3.2462 30.6876 3.25389C30.713 3.2606 30.7363 3.27234 30.7621 3.26006C30.8373 3.22479 30.7561 3.16998 30.7285 3.14034C30.7098 3.11983 30.7081 3.09122 30.6987 3.06606C30.691 3.04609 30.6821 3.02668 30.676 3.00569C30.6611 2.95651 30.6324 2.90376 30.6391 2.8521C30.6408 2.8403 30.6463 2.83056 30.6458 2.81834C30.6458 2.81525 30.6976 2.8106 30.7032 2.81217C30.7231 2.81628 30.7379 2.83159 30.7511 2.84441C30.7744 2.86698 30.7925 2.89099 30.8213 2.90744C30.8864 2.94477 30.9537 2.97756 31.0161 3.01954C31.0874 3.06708 31.1442 3.13212 31.1861 3.20325C31.2237 3.26726 31.2479 3.35987 31.2149 3.4295C31.1905 3.48116 31.1193 3.48684 31.0906 3.53391C31.0636 3.57795 31.1336 3.6169 31.1508 3.65423C31.1783 3.7146 31.1591 3.79033 31.1309 3.84774C31.0983 3.91428 31.0358 3.95983 30.9548 3.94138C30.8985 3.92808 30.8416 3.90503 30.8378 3.84466C30.835 3.80165 30.8411 3.75712 30.84 3.71357C30.8393 3.67522 30.84 3.63783 30.8439 3.59996C30.846 3.5846 30.8554 3.5483 30.8389 3.53651C30.8195 3.52272 30.7969 3.54933 30.787 3.56204C30.7689 3.5846 30.761 3.61067 30.7483 3.63626C30.7201 3.69306 30.6848 3.74732 30.6236 3.77957C30.5712 3.8077 30.5319 3.75912 30.5104 3.71762C30.4895 3.67564 30.4895 3.6414 30.4497 3.60807C30.4134 3.57782 30.4138 3.51437 30.4531 3.48212ZM30.1997 6.61001C30.1925 6.6376 30.1775 6.65193 30.1583 6.67293C30.1538 6.67807 30.1493 6.68321 30.145 6.68877C30.1229 6.71587 30.1053 6.74612 30.0836 6.77322C30.0781 6.77576 30.0759 6.77425 30.0781 6.76862C30.0682 6.7748 30.0627 6.77933 30.0522 6.7829C30.0285 6.79216 30.0053 6.79627 29.98 6.80032C29.9558 6.80498 29.9319 6.81309 29.9071 6.81514C29.8619 6.81877 29.8038 6.78901 29.79 6.7466C29.774 6.69591 29.8281 6.64576 29.8628 6.61455C29.8993 6.58285 29.9336 6.56489 29.9447 6.51425C29.9529 6.47481 29.9469 6.4318 29.9474 6.39139C29.9474 6.35256 29.9849 6.32739 30.0104 6.29775C30.0253 6.28033 30.0445 6.26654 30.0672 6.25988C30.0876 6.25474 30.1179 6.245 30.139 6.24349C30.193 6.2404 30.2168 6.31003 30.2184 6.34996C30.2229 6.43549 30.2206 6.52605 30.1997 6.61001ZM31.4357 6.71999C31.4362 6.75641 31.4345 6.7927 31.4302 6.8296C31.4268 6.86541 31.4152 6.90479 31.4176 6.94115C31.4214 7.00515 31.4357 7.07423 31.3844 7.1285C31.3159 7.20121 31.1762 7.21446 31.0796 7.22111C30.9841 7.22776 30.8947 7.21857 30.8036 7.19092C30.7192 7.16479 30.5823 7.14229 30.5354 7.06395C30.5083 7.01943 30.5127 6.96359 30.516 6.91447C30.5193 6.86275 30.521 6.80649 30.537 6.75634C30.5497 6.71539 30.5778 6.68823 30.6199 6.67032C30.6506 6.6575 30.7064 6.63754 30.7412 6.64933C30.7759 6.66107 30.7589 6.69894 30.7506 6.72307C30.7368 6.76348 30.7175 6.80649 30.7224 6.84944C30.7302 6.91393 30.8086 6.96359 30.8588 7.00043C30.9207 7.04598 31.0056 7.06135 31.0829 7.06086C31.1426 7.06038 31.1835 7.0256 31.2127 6.98156C31.2392 6.9406 31.2557 6.89403 31.259 6.84642C31.2613 6.81315 31.2508 6.77782 31.259 6.74509C31.2686 6.70722 31.2999 6.66676 31.3391 6.65194C31.3634 6.64226 31.3964 6.64068 31.418 6.65756C31.4406 6.67498 31.4357 6.69652 31.4357 6.71999ZM32.4586 6.3208C32.3867 6.34282 32.3101 6.3182 32.2372 6.33568C32.1631 6.35407 32.1421 6.43035 32.1074 6.48516C32.0047 6.64534 31.7894 6.56495 31.7375 6.4099C31.7177 6.34899 31.7189 6.27839 31.674 6.22613C31.6348 6.17955 31.5704 6.16061 31.5167 6.13146C31.4605 6.10073 31.4162 6.05675 31.3644 6.01991C31.3075 5.97992 31.2407 5.94925 31.17 5.938C31.0989 5.92566 31.0387 5.94363 30.9974 6.00097C30.988 6.01374 30.9344 6.14737 30.9283 6.14737C30.9228 6.14688 30.9112 5.97079 30.908 5.95542C30.904 5.93957 30.8963 5.89348 30.8721 5.89142C30.8494 5.88937 30.8361 5.92463 30.8306 5.93951C30.819 5.96873 30.8107 6.00249 30.8113 6.03316C30.8118 6.0562 30.8228 6.07411 30.8273 6.09558C30.8393 6.15801 30.8416 6.23224 30.8306 6.29473C30.8278 6.3116 30.7826 6.27579 30.7799 6.27319C30.7605 6.25117 30.7451 6.22304 30.7302 6.19794C30.7004 6.14471 30.6794 6.08482 30.6959 6.02445C30.7181 5.94459 30.7705 5.88011 30.7689 5.79512C30.7666 5.62308 30.633 5.48388 30.5204 5.36108C30.4657 5.30216 30.422 5.2398 30.3867 5.16914C30.353 5.10151 30.315 5.04217 30.2593 4.98845C30.2135 4.94502 30.1583 4.9014 30.171 4.83492C30.1769 4.79959 30.2223 4.70081 30.2758 4.71666C30.3068 4.72585 30.32 4.77503 30.3288 4.79905C30.3503 4.85742 30.368 4.91737 30.3928 4.9746C30.4425 5.09231 30.5188 5.18088 30.623 5.26175C30.7085 5.32775 30.777 5.39889 30.8195 5.49568C30.8213 5.49925 30.8449 5.56017 30.846 5.56017C30.8515 5.55817 30.8433 5.48346 30.8433 5.47675C30.8422 5.42 30.8439 5.36163 30.8549 5.30531C30.8604 5.27567 30.8698 5.21675 30.9057 5.20296C30.9669 5.17991 31.0094 5.311 31.0255 5.34475C31.0541 5.4067 31.0873 5.42254 31.1591 5.41438C31.2429 5.40464 31.3318 5.38673 31.4086 5.35346C31.446 5.33652 31.4798 5.30071 31.5206 5.292C31.5758 5.28075 31.6333 5.28795 31.6896 5.27512C31.7409 5.26339 31.8314 5.21832 31.881 5.25262C31.9385 5.29309 31.9075 5.39647 31.8872 5.44662C31.8568 5.5183 31.8004 5.57251 31.7586 5.63754C31.7149 5.70559 31.6962 5.78393 31.6779 5.86015C31.6635 5.92106 31.6343 6.00612 31.6658 6.06594C31.6979 6.1248 31.7823 6.12577 31.8441 6.11918C31.9286 6.10992 32.0091 6.08336 32.0958 6.08796C32.1891 6.0931 32.2796 6.12377 32.3696 6.14628C32.4166 6.15801 32.517 6.16624 32.5412 6.21433C32.5662 6.26297 32.5011 6.30755 32.4586 6.3208ZM32.7522 5.03557C32.7396 5.07296 32.7102 5.10774 32.6926 5.14307C32.6727 5.18451 32.6517 5.228 32.6198 5.26333C32.5805 5.30682 32.5447 5.36314 32.4884 5.38873C32.4315 5.41432 32.384 5.45116 32.3255 5.47112C32.2935 5.48183 32.2521 5.49622 32.2178 5.4834C32.1808 5.46955 32.1715 5.41583 32.1769 5.38359C32.1821 5.35491 32.2112 5.32878 32.2267 5.30422C32.2433 5.2776 32.2637 5.25359 32.283 5.22848C32.3084 5.19624 32.3404 5.16956 32.3664 5.13787C32.3945 5.10357 32.4238 5.0882 32.4581 5.06159C32.4867 5.03908 32.5126 5.0268 32.5496 5.02269C32.581 5.01966 32.7815 4.94955 32.7522 5.03557ZM34.5784 5.03963C34.5591 5.04779 34.5326 5.03709 34.5127 5.03352C34.4856 5.02789 34.4552 5.02789 34.4304 5.01658C34.388 4.9977 34.3481 4.98276 34.2985 4.98434C34.2638 4.98488 34.2306 4.98742 34.1958 4.97671C34.1639 4.96649 34.1479 4.96238 34.1488 4.92699C34.1495 4.90757 34.1545 4.89783 34.1699 4.88452C34.1897 4.86807 34.2046 4.85228 34.2229 4.83383C34.2405 4.81641 34.263 4.80365 34.2802 4.7852C34.2951 4.76935 34.3089 4.75501 34.3299 4.74527C34.3691 4.72531 34.3785 4.75912 34.3995 4.78471C34.4271 4.81901 34.4569 4.82512 34.4945 4.84557C34.5282 4.86347 34.5451 4.89009 34.5694 4.91828C34.5905 4.94241 34.6231 5.02021 34.5784 5.03963Z" fill="#E3E3E3"/>
<path d="M41.5102 10.1308C41.5102 10.1308 41.4467 11.7026 41.4467 11.7154C41.4467 11.7282 39.8309 12.4597 39.8309 12.4597L38.7892 14.4215C38.7892 14.4215 38.8322 14.6114 38.8648 14.7849C38.8571 14.7767 38.793 14.7091 38.7384 14.7132C38.6811 14.7168 38.6004 14.7343 38.5408 14.6882C38.5299 14.68 38.5165 14.6688 38.5016 14.6564C38.4371 14.6033 38.3465 14.5286 38.3184 14.5658C38.283 14.6119 38.1825 14.7568 38.1533 14.6785C38.1246 14.6001 38.0997 14.4875 38.0031 14.4399C37.9066 14.3923 37.6388 14.224 37.3545 14.2147C37.0702 14.205 36.8516 14.1651 36.7611 14.1937C36.6705 14.2223 36.6357 14.2874 36.5221 14.2433C36.4088 14.1994 36.23 14.0484 36.1576 14.0847C36.0853 14.1211 35.9866 14.2664 35.9766 14.1804C35.9661 14.0945 36.0323 14.035 35.9578 13.9721C35.8839 13.9091 35.7437 13.8728 35.7684 13.7812C35.7933 13.6895 35.8219 13.4812 35.694 13.3937C35.5665 13.3056 35.1524 12.9029 35.1524 12.9029C35.1524 12.9029 35.4119 12.5246 35.3711 12.4023C35.3297 12.2799 35.3031 12.1064 35.2986 12.0414C35.2948 11.9764 35.2805 11.7323 35.1525 11.7323C35.0249 11.7323 34.8891 11.7645 34.8665 11.8296C34.8439 11.8945 34.825 11.9176 34.7323 11.8925C34.6396 11.8679 34.4916 11.8695 34.4441 11.7686C34.3967 11.6673 34.3763 11.6192 34.3824 11.6099C34.3884 11.6002 34.6253 11.4512 34.6109 11.354C34.5966 11.2568 34.6463 11.224 34.5347 11.2164C34.4238 11.2086 34.2096 11.2051 34.1598 11.2737C34.1103 11.3422 34.0301 11.398 33.9705 11.4017C33.9109 11.4057 33.7112 11.4973 33.635 11.4093C33.5588 11.3213 33.3546 11.0751 33.2971 10.9512C33.2391 10.8268 33.2293 10.7296 33.1591 10.7066C33.089 10.6835 32.8175 10.6262 32.8175 10.6262C32.8175 10.6262 32.8085 10.3534 32.8175 10.359C32.8175 10.3575 32.3195 9.89122 32.2075 9.8646C32.0943 9.83799 31.9126 9.77453 31.9027 9.69262C31.8922 9.61072 31.8823 9.57793 31.8325 9.49754C31.7835 9.41775 31.7421 9.15618 31.6658 9.07173C31.5897 8.98777 31.2253 8.78349 31.285 8.60026C31.3446 8.41708 31.4329 8.25067 31.4004 8.15346C31.3677 8.05824 31.1999 7.73884 31.1918 7.72348C31.1918 7.723 31.1918 7.723 31.1918 7.723C31.211 7.71326 31.2242 7.70352 31.2314 7.69329C31.2662 7.64157 31.4208 7.50395 31.4743 7.52132C31.5278 7.53825 32.1191 7.77732 32.1191 7.77732C32.1191 7.77732 32.3349 7.76963 32.3267 7.77169C32.3189 7.7732 32.3577 7.54799 32.4526 7.50395C32.5475 7.46046 33.1857 7.2465 33.2928 7.13743C33.3999 7.02842 34.2197 6.1675 34.2197 6.1675L34.4587 6.12915C34.4587 6.12915 34.5945 5.9418 34.6005 5.93823C34.6072 5.93466 35.476 5.39211 35.476 5.39211L35.7808 4.43548C35.7808 4.43548 34.9037 3.60626 34.8788 3.39998C34.8539 3.19424 34.7657 2.86353 34.7657 2.86353C34.7657 2.86353 34.265 2.57335 34.2711 2.43978C34.2777 2.30622 34.3456 2.20284 34.4874 2.15517C34.6298 2.10756 35.3735 1.82651 35.4142 1.67964C35.4557 1.53276 35.5026 1.54656 35.2658 1.15553L35.4419 0.885254L35.6699 0.928808L35.7521 1.11198L35.9751 0.972243L36.0878 1.20108L36.2915 1.22159L36.2114 1.46114L36.4367 1.53022L36.5383 1.3721L36.6509 1.37972L36.7939 1.54504L36.8986 1.55019C36.8986 1.55019 36.9865 1.68835 36.9865 1.69555C36.9865 1.70372 37.7974 1.79022 37.7974 1.79022L38.1734 2.18789L38.2727 2.24318L38.5421 2.80673L38.4814 3.23719L38.5641 3.41843L38.9567 4.17289L39.0251 4.62386L39.1797 4.78144L40.4825 8.00761L40.8149 8.06079C40.8149 8.06079 40.8066 8.27269 40.8032 8.27989C40.8032 8.28902 40.9827 8.41805 40.9827 8.41805L40.9793 8.95801L41.3895 9.45501L41.5102 10.1308Z" fill="#E3E3E3"/>
<path d="M43.7278 23.9115L44.3134 24.3982L44.324 24.5788L44.4426 24.645L44.1869 25.7126L43.6151 25.9828L43.0962 26.0771L42.7821 26.8013L42.5623 27.0787C41.917 26.9902 41.6675 26.7916 41.5499 26.7036C41.4235 26.6094 41.0145 26.4564 41.0145 26.4564L40.6987 26.7139L40.1681 26.5915L39.5234 27.4417L38.9217 27.3987L38.6439 27.4218L38.1748 27.106L37.2711 27.284C37.2711 27.284 37.0459 26.981 36.9912 26.9328C36.936 26.8842 37.1448 26.7573 37.233 26.6678C37.3208 26.5786 37.5565 26.4871 37.7 26.4871C37.8425 26.4871 37.7326 26.3698 37.6835 26.332C37.6337 26.2937 37.6365 26.2148 37.5405 26.136C37.4445 26.0567 37.5461 25.7158 37.4935 25.7132C37.4411 25.7107 36.8069 25.4384 36.6451 25.3719C36.4834 25.3058 36.1863 25.53 36.1863 25.53L35.7828 25.2397L36.0108 24.73L35.5355 24.4172C35.5355 24.4172 35.058 24.6921 34.8576 24.7838C34.724 24.8447 34.6135 24.8248 34.5203 24.73C34.4734 24.6824 34.4303 24.6158 34.3906 24.5314C34.2724 24.2795 33.9208 23.2231 33.9208 23.2231C33.9208 23.2231 33.8469 22.8868 33.88 22.7762C33.9126 22.6652 33.8717 22.4861 33.8513 22.3902C33.8304 22.2945 33.8015 22.1727 33.8513 22.054C33.9005 21.9358 33.9705 21.7526 33.9788 21.5729C33.9872 21.3933 34.0732 21.2939 33.8634 21.233C33.6531 21.1721 33.608 20.9198 33.715 20.8624C33.8222 20.8051 33.9705 20.8246 33.9457 20.687C33.9209 20.5492 33.8772 20.5063 33.8689 20.4069C33.8607 20.3077 33.7944 20.1674 33.8027 20.0629C33.811 19.9584 33.833 19.8746 33.7647 19.9002C33.6957 19.9258 33.3336 20.0629 33.2071 20.0072C33.0806 19.9509 32.6661 19.6914 32.6799 19.6278C32.6937 19.564 32.7732 19.4242 32.8581 19.4646C32.9432 19.5057 33.1849 19.6658 33.3058 19.6227C33.4267 19.5793 33.6079 19.5158 33.6575 19.4415C33.7066 19.3679 33.8633 19.0878 33.9457 19.0371C34.0281 18.986 33.9567 19.0065 33.88 18.9174C33.8027 18.8283 33.6299 18.724 33.748 18.6727C33.8661 18.622 33.9815 18.5176 33.9815 18.5176L33.6352 18.1763L33.6465 17.3108L34.3519 16.9161L35.6895 16.9059L36.2111 16.4171L36.6753 16.5266C36.6753 16.5266 36.7273 16.091 36.8288 16.0301C36.9304 15.9687 36.9966 15.9533 37.0761 15.9866C37.1556 16.0199 37.595 16.2794 37.7022 16.1089C37.8093 15.938 37.7684 15.788 37.8838 15.6887C37.9992 15.5894 38.3502 15.3703 38.3888 15.2306C38.4276 15.0904 38.5015 14.6567 38.5015 14.6567C38.5163 14.6691 38.5297 14.6804 38.5406 14.6885C38.6002 14.7346 38.6809 14.7172 38.7382 14.7135C38.7929 14.7094 38.8569 14.777 38.8647 14.7852C38.8653 14.7857 38.8653 14.7863 38.8653 14.7863C38.8663 14.7924 38.8674 14.7981 38.8685 14.8037C38.9017 14.9823 39.2285 15.0381 39.3576 15.0279C39.4869 15.0181 39.5249 15.0821 39.6408 15.1502C39.7561 15.2197 39.8417 15.1737 39.9898 15.143C40.1383 15.1122 40.1769 15.3012 40.2128 15.426C40.2481 15.5504 40.7156 15.6067 40.7925 15.6246C40.8691 15.6425 40.883 15.7219 40.8719 15.8155C40.8614 15.9097 41.0728 16.0858 41.1143 16.1288C41.1551 16.1723 41.1166 16.2127 41.0728 16.2767C41.0287 16.3407 41.048 16.4196 41.0673 16.4631C41.0861 16.5061 41.1033 16.5342 41.0728 16.5977C41.0425 16.6616 41.0149 16.6437 41.0231 16.7022C41.0314 16.761 41.0203 16.7917 40.9658 16.8378C40.9105 16.8834 40.9928 16.9729 41.0784 17.0389C41.1634 17.1049 41.0183 17.1152 40.9327 17.1485C40.8471 17.1818 40.9989 17.281 41.0922 17.3215C41.1855 17.3625 41.1143 17.5533 41.1254 17.6731C41.1358 17.7929 40.9768 17.8645 40.8553 17.9766C40.7344 18.0887 40.8476 18.2008 40.8857 18.2899C40.9244 18.3795 40.8941 18.4941 40.9079 18.6415C40.9217 18.7894 41.0094 18.815 41.0784 18.8913C41.1468 18.9681 41.0861 19.0468 41.0894 19.1795C41.0922 19.312 41.2352 19.2281 41.3174 19.182C41.3997 19.1365 41.4053 19.2583 41.3809 19.355C41.3561 19.4518 41.4272 19.4645 41.5869 19.4876C41.7458 19.5106 41.6332 19.5669 41.5758 19.6631C41.5177 19.7599 41.6746 19.7578 41.7844 19.8597C41.8942 19.9616 41.716 20.2497 41.6911 20.4738C41.6662 20.6981 41.9252 20.8479 42.04 20.8792C42.1554 20.9094 42.1278 20.9401 42.1338 21.0983C42.1393 21.2558 42.5594 21.4089 42.6969 21.4699C42.8343 21.5308 42.7852 21.5365 42.8206 21.7861C42.8564 22.0359 43.0456 22.0994 43.139 22.1655C43.2329 22.2319 43.1915 22.2095 43.2108 22.3364C43.2302 22.4639 43.3456 22.5504 43.4526 22.6245C43.5597 22.6983 43.5464 22.665 43.6397 22.8386C43.7331 23.0115 44.1587 23.1031 44.2387 23.1159C44.3183 23.1287 44.4668 23.1313 44.4861 23.2817C44.5053 23.4322 44.0517 23.4014 43.8049 23.4809C43.5571 23.5597 43.7278 23.9115 43.7278 23.9115Z" fill="#E3E3E3"/>
<path d="M42.5623 27.0785L42.2935 27.4174L41.5235 28.4625L40.5481 29.9909L40.0396 30.9593L39.2452 31.9712L39.328 32.1723L39.2011 32.3254L39.2127 32.5495L39.5009 32.8044L39.4677 33.2702C39.4677 33.2702 39.6383 33.8767 39.6493 33.974C39.6603 34.0707 39.7017 34.2059 39.6824 34.2744C39.6631 34.343 39.715 34.3789 39.7509 34.3967C39.7868 34.4146 39.7978 34.43 39.7923 34.4786C39.7868 34.5273 39.8227 34.5549 39.8939 34.6082C39.9658 34.6619 39.943 34.7279 39.8829 34.8093C39.8227 34.8912 40.3638 35.1358 40.5426 35.1994C40.7208 35.2634 40.644 35.4722 40.644 35.4722L40.4437 35.6226L39.2425 35.2203C39.2425 35.2203 38.5387 35.2225 38.5117 35.2225C38.484 35.2225 38.2202 34.9956 38.2202 34.9956C38.2202 34.9956 37.6047 35.034 37.5964 35.034C37.5881 35.034 37.4811 34.881 37.4811 34.881C37.4811 34.881 37.2392 34.9419 37.231 34.9419C37.2227 34.9419 36.7827 34.7919 36.7827 34.7919L36.2716 34.1752L35.7853 33.9792L35.7582 33.862C35.7582 33.862 35.5683 33.7806 35.56 33.778C35.549 33.778 35.2857 34.0022 35.2768 34.0041C35.2674 34.0041 35.1174 33.6884 35.109 33.6884C35.1007 33.6884 34.711 33.7089 34.7027 33.7089C34.6943 33.7089 34.5543 33.5405 34.5543 33.5405C34.5543 33.5405 34.3429 33.5282 34.3345 33.5282C34.3257 33.5282 33.5015 33.8133 33.4932 33.8164C33.4921 33.8164 33.4888 33.8149 33.4838 33.8118C33.4838 33.8118 33.3801 32.8322 33.2702 32.7707C33.161 32.7098 33.0837 32.6919 33.0864 32.5978C33.0892 32.5036 33.2592 32.2895 33.1825 32.1955C33.1058 32.1013 33.0837 32.1525 33.0258 31.9334C32.9684 31.7143 32.8011 31.5337 32.8011 31.5337L32.2844 31.4518L32.1585 31.177C32.1585 31.177 32.5235 31.0469 32.5621 30.8688C32.6007 30.6907 32.6471 30.6221 32.6471 30.6221L32.1393 30.3903C32.1393 30.3903 32.0702 30.0237 32.1171 29.8354C32.1641 29.647 32.2353 29.3947 32.1801 29.2928C32.1255 29.1909 31.9003 28.6817 31.9466 28.5521C31.9936 28.4222 32.0675 28.3659 32.0537 28.2312C32.0438 28.132 32.0261 28.0726 31.9769 28.0337C31.9835 28.0275 32.0918 27.9232 32.1663 27.8494C32.2436 27.7726 32.2408 27.722 32.3754 27.6886C32.5096 27.6559 32.6139 27.5056 32.7294 27.4344C32.8447 27.3626 32.8695 27.2332 32.8778 27.1441C32.8861 27.0551 33.463 26.8257 33.5916 26.7418C33.7207 26.6578 33.8112 26.3293 33.8499 26.1537C33.8886 25.9776 34.1132 25.7893 34.1823 25.713C34.2507 25.6367 34.3964 25.3818 34.4455 25.2774C34.4952 25.173 34.5205 24.7297 34.5205 24.7297C34.6138 24.8245 34.7243 24.8444 34.8579 24.7835C35.0583 24.6918 35.5358 24.417 35.5358 24.417L36.0111 24.7297L35.7831 25.2394L36.1866 25.5298C36.1866 25.5298 36.4837 25.3056 36.6454 25.3716C36.8071 25.4382 37.4414 25.7105 37.4938 25.713C37.5463 25.7156 37.4448 26.0565 37.5408 26.1357C37.6369 26.2146 37.6341 26.2934 37.6838 26.3318C37.7329 26.3696 37.8428 26.4868 37.7003 26.4868C37.5568 26.4868 37.3211 26.5785 37.2332 26.6676C37.145 26.7571 36.9363 26.884 36.9915 26.9326C37.0462 26.9807 37.2713 27.2838 37.2713 27.2838L38.1751 27.1057L38.6442 27.4215L38.922 27.3985L39.5237 27.4414L40.1684 26.5912L40.699 26.7136L41.0147 26.4561C41.0147 26.4561 41.4237 26.6092 41.5502 26.7034C41.6676 26.7914 41.917 26.9899 42.5623 27.0785Z" fill="#E3E3E3"/>
<path d="M33.2701 32.7708C33.1608 32.71 33.0835 32.692 33.0863 32.5979C33.089 32.5037 33.259 32.2897 33.1823 32.1956C33.1056 32.1014 33.0835 32.1526 33.0256 31.9335C32.9682 31.7144 32.8009 31.5338 32.8009 31.5338L32.2843 31.4519L32.1583 31.1771C32.1583 31.1771 32.5233 31.047 32.5619 30.8689C32.6006 30.6908 32.6469 30.6222 32.6469 30.6222L32.1391 30.3904C32.1391 30.3904 32.07 30.0238 32.117 29.8355C32.164 29.6471 32.2351 29.3948 32.1799 29.2929C32.1253 29.191 31.9001 28.6818 31.9464 28.5522C31.9934 28.4223 32.0673 28.366 32.0536 28.2313C32.0436 28.1321 32.0259 28.0727 31.9767 28.0338H31.9762C31.9574 28.0199 31.9359 28.0087 31.9083 27.9995C31.8039 27.9642 31.6665 27.9079 31.6665 27.9079L30.2411 28.3737L29.8017 29.1199L28.8351 29.0891C28.8351 29.0891 28.308 27.8301 27.825 27.3208L25.8659 27.5558L25.8476 27.5577C25.8476 27.5577 25.4623 27.8081 25.4501 27.8213C25.4375 27.8347 25.2994 27.9339 25.2134 27.9493C25.1267 27.9647 25.0732 27.9585 25.003 27.9989C24.9328 28.0388 24.6386 28.1995 24.552 28.1668C24.4653 28.1345 24.3793 28.0869 24.2147 28.1151C24.0497 28.1438 23.8768 28.2241 23.8768 28.2241L23.9116 28.7744L23.4749 28.799C23.4749 28.799 23.1205 29.1122 23.1333 29.1163C23.1455 29.1199 23.6892 29.3984 23.6892 29.3984C23.6892 29.3984 23.5158 29.6506 23.5119 29.6813C23.5076 29.7121 23.4997 29.8682 23.487 29.8759C23.4749 29.8836 23.1785 29.9639 23.1785 30.0632C23.1785 30.1626 23.2608 30.4948 23.0957 30.4835C22.9312 30.4717 22.7214 30.4794 22.7004 30.5863C22.68 30.6933 22.5972 31.1247 22.6098 31.1329C22.6225 31.1401 23.174 31.3387 23.1823 31.3505C23.1905 31.3618 23.1784 31.7477 23.1784 31.7477C23.1784 31.7477 23.5819 31.8357 23.5986 31.9119C23.6151 31.9882 23.7011 32.194 23.7011 32.194C23.7011 32.194 23.9485 32.1525 24.0142 32.1868C24.0804 32.2212 24.3808 32.3511 24.2449 32.4617C24.1092 32.5723 23.8822 32.7135 23.8822 32.7135C23.8822 32.7135 24.0594 32.9848 24.0721 32.9848C24.0843 32.9848 24.4679 32.7939 24.5248 32.8854C24.5828 32.9771 24.6413 32.9387 24.6689 33.3901L25.0613 33.6482L25.1442 34.0709L25.6582 34.5956C25.6582 34.5956 26.3228 34.5827 26.3228 34.5981C26.3228 34.6141 26.3532 34.764 26.3532 34.764L26.293 34.9369L26.4437 35.1181L26.3448 35.2532L26.4905 35.4083L26.2045 35.76L26.3288 35.913L26.8068 35.8981L26.9686 35.6708H27.2849L27.3424 35.8597H27.4633L27.6642 36L27.763 35.5643L27.8265 35.2097L28.1174 34.9041L28.717 34.6645L29.0521 34.685C29.0521 34.685 29.1757 34.4967 29.184 34.4967C29.1917 34.4967 29.7034 34.4813 29.7034 34.4813L29.8712 34.2419C29.8712 34.2419 30.0301 34.295 30.0385 34.295C30.0468 34.295 30.2914 34.1369 30.2914 34.1369C30.2914 34.1369 30.9863 34.6697 30.9951 34.6697C31.0036 34.6697 31.2894 34.598 31.2894 34.598C31.2894 34.598 31.391 34.728 31.3993 34.728C31.4077 34.728 31.6438 34.728 31.6438 34.728C31.6438 34.728 31.8222 34.3667 32.0722 34.2366L31.9541 33.9971L32.3223 33.8697L32.6823 34.0965L32.908 33.6071L33.2073 33.625C33.2073 33.625 33.433 33.7822 33.4837 33.8119C33.4836 33.8119 33.38 32.8323 33.2701 32.7708ZM30.1611 32.8922C30.1246 32.8778 30.118 32.8256 30.112 32.7954C30.1019 32.7499 30.0938 32.7007 30.0727 32.6582C30.0617 32.6346 30.0506 32.6096 30.0435 32.585C30.0296 32.5322 30.0351 32.4723 30.0125 32.4233C29.9778 32.348 29.9937 32.2625 29.9607 32.1878C29.9408 32.1433 29.9104 32.1008 29.8762 32.0639C29.8491 32.0348 29.816 32.0107 29.791 31.9794C29.7652 31.9466 29.7414 31.9032 29.7409 31.8617C29.7403 31.8238 29.7657 31.8069 29.7982 31.7901C29.8336 31.7711 29.8672 31.746 29.9048 31.7306C29.9496 31.7128 29.9915 31.7276 30.0296 31.7527C30.103 31.8013 30.1698 31.8776 30.2062 31.9543C30.2543 32.0547 30.2008 32.1247 30.1466 32.2103C30.1257 32.2442 30.1052 32.2825 30.1217 32.3223C30.1373 32.3597 30.1736 32.3884 30.1958 32.4226C30.2487 32.5076 30.2537 32.6284 30.2537 32.7246C30.2537 32.7646 30.2465 32.9245 30.1611 32.8922Z" fill="#E3E3E3"/>
<path d="M25.8658 27.5558L25.8475 27.5578C25.8475 27.5578 25.4622 27.8082 25.45 27.8213C25.4374 27.8347 25.2993 27.9339 25.2133 27.9493C25.1266 27.9647 25.0731 27.9585 25.0029 27.9989C24.9327 28.0388 24.6385 28.1995 24.5518 28.1668C24.4652 28.1346 24.3792 28.087 24.2145 28.1151C24.0495 28.1438 23.8767 28.2242 23.8767 28.2242L23.9115 28.7744L23.4748 28.799C23.4748 28.799 23.1204 29.1123 23.1332 29.1163C23.1454 29.1199 23.6891 29.3984 23.6891 29.3984C23.6891 29.3984 23.5157 29.6506 23.5118 29.6814C23.5075 29.7122 23.4996 29.8682 23.4869 29.8759C23.4748 29.8837 23.1784 29.9639 23.1784 30.0633C23.1784 30.1627 23.2606 30.4948 23.0956 30.4835C22.9311 30.4717 22.7213 30.4794 22.7003 30.5863C22.6799 30.6934 22.5971 31.1248 22.6097 31.133C22.6224 31.1402 23.1739 31.3388 23.1822 31.3505C23.1904 31.3619 23.1783 31.7477 23.1783 31.7477C23.1783 31.7477 23.5818 31.8358 23.5985 31.912C23.615 31.9883 23.701 32.1941 23.701 32.1941C23.701 32.1941 23.9484 32.1526 24.0141 32.1869C24.0803 32.2212 24.3807 32.3512 24.2448 32.4617C24.109 32.5723 23.8821 32.7136 23.8821 32.7136C23.8821 32.7136 24.0593 32.9848 24.072 32.9848C24.0842 32.9848 24.4678 32.7939 24.5246 32.8855C24.5827 32.9771 24.6412 32.9387 24.6688 33.3902L24.1294 33.9486L23.9124 33.923L23.6354 34.1042L23.5332 34.6851L23.3107 34.9171C23.3107 34.9171 23.022 34.7563 23.0138 34.7563C23.0055 34.7563 22.9205 34.981 22.9205 34.981H22.6373L22.6157 34.6822L22.4612 34.5168L22.5219 34.3617L22.2773 34.2287L21.9749 34.1499L21.9974 33.9891L21.744 33.7675L21.6977 33.2936L21.5763 33.0848L21.3455 33.2352L21.2108 32.986L20.8978 32.9629L20.4716 32.3328L20.6615 31.9996L20.3232 31.6679L20.1802 31.8133L19.823 31.7139L19.7242 31.5635L19.4742 31.5583L19.4493 31.7775L19.2462 31.8695L19.1722 31.5328H18.8967L18.82 31.3496L18.6085 31.4718L18.3419 31.3747L18.2977 31.1761H18.2209C18.2209 31.1761 18.2486 30.5024 18.29 30.4288C18.3309 30.355 18.4628 30.3244 18.5318 30.3167C18.6003 30.3089 18.8912 30.2276 18.8995 30.2276C18.9077 30.2276 19.526 29.6241 19.526 29.6241L19.5392 29.3846L19.2952 28.3685L19.6877 28.1981L19.7181 27.8541C19.7181 27.8541 20.1928 27.7068 20.1603 27.5972C20.1271 27.4876 20.0858 27.3224 19.9433 27.2231C19.8005 27.1237 19.5696 26.8868 19.5696 26.8868L19.8936 26.4716L19.7314 26.0463L20.1079 25.9245C20.1079 25.9245 20.1107 25.6446 20.1355 25.5273C20.1604 25.41 20.1763 25.3639 20.1327 25.3261C20.0886 25.2877 19.9677 25.0359 19.9677 25.0282C19.9677 25.0206 20.1763 24.8496 20.1763 24.8496V24.4426C20.1769 24.4426 20.1769 24.4426 20.1769 24.4426C20.1847 24.4426 20.9619 24.4273 20.9619 24.4273C20.9619 24.4273 21.1187 24.1852 21.2231 24.2031C21.3268 24.221 21.3765 24.2743 21.4947 24.2923C21.6128 24.3101 21.9285 24.3531 22.0081 24.3915C22.0881 24.4299 22.2228 24.4729 22.3514 24.4704C22.4806 24.4677 22.75 24.3993 22.8924 24.4934C23.0354 24.5876 23.074 24.6412 23.1397 24.6412C23.2054 24.6412 23.2441 24.6383 23.291 24.6971C23.3374 24.756 23.4831 25.0942 23.6504 25.0968C23.8182 25.0994 24.1969 24.9924 24.2162 25.0712C24.2355 25.15 24.3619 25.3717 24.4442 25.3517C24.5265 25.3312 24.8422 25.2698 24.8422 25.2698C24.8422 25.2698 25.1761 25.4955 25.0609 25.5984C24.9455 25.7013 24.8422 25.732 24.8632 25.885C24.8837 26.0375 24.8422 26.1026 24.9908 26.2592C25.1392 26.4159 25.3695 26.5725 25.4025 26.66C25.4357 26.748 25.5631 26.962 25.6416 27.0193C25.7199 27.0766 25.8143 27.2102 25.8143 27.2752C25.8143 27.3403 25.8658 27.5558 25.8658 27.5558Z" fill="#E3E3E3"/>
<path d="M19.9677 25.0283C19.9677 25.0359 20.0886 25.2878 20.1328 25.3262C20.1764 25.364 20.1604 25.4101 20.1355 25.5273C20.1107 25.6446 20.1079 25.9246 20.1079 25.9246L19.7314 26.0463L19.8937 26.4717L19.5697 26.8868C19.5697 26.8868 19.8005 27.1238 19.9434 27.2231C20.0859 27.3225 20.1272 27.4877 20.1604 27.5973C20.1929 27.7068 19.7182 27.8542 19.7182 27.8542L19.6878 28.1981L19.2953 28.3685L19.5393 29.3846L19.526 29.6241C19.526 29.6241 18.9077 30.2276 18.8995 30.2276C18.8913 30.2276 18.6004 30.309 18.5319 30.3167C18.4628 30.3244 18.3309 30.3551 18.29 30.4288C18.2487 30.5026 18.221 31.1762 18.221 31.1762H18.1548L18.1056 31.3747L17.7893 31.3824L17.6463 31.5508L17.3715 31.5636L17.2263 31.4161L17.0087 31.3854L16.7918 30.9238L16.539 30.7533L16.2614 30.7584L16.0471 30.5445L16.0334 30.4324L16.4319 30.3326L16.6847 30.1898L16.7068 29.9027L16.528 29.8432L16.5114 29.7701L16.7096 29.6344L16.4866 29.3904L16.3436 29.3955L16.3657 29.6242L16.0278 29.8592L15.8682 29.7645L15.7723 29.8515L15.627 29.744L15.346 29.9028L15.1727 29.8383L15.1622 29.6653L14.8735 29.8695L14.8818 29.5532L14.6096 29.5685L14.1619 29.3187L14.189 29.1329L13.9858 29.1585L13.5293 28.9523L13.1859 28.9979L12.8724 28.8848L13.0363 28.3182L13.2483 28.2516C13.2483 28.2516 13.4625 28.4071 13.6381 28.3867C13.8136 28.3662 13.929 28.3181 13.929 28.3181L13.8385 28.033L14.1598 27.5641C14.1598 27.5641 14.5992 27.5595 14.6185 27.4372C14.6373 27.3148 14.6759 27.1163 14.6185 27.0426C14.5606 26.9683 14.5087 26.8743 14.5385 26.7953C14.5688 26.7165 14.5694 26.5328 14.6489 26.4744C14.7283 26.416 14.8382 26.4135 14.805 26.3342C14.7725 26.2553 14.6897 26.1028 14.7692 26.0849C14.8492 26.067 14.9889 26.0362 14.9811 25.9524C14.9728 25.8684 14.9016 25.5582 14.9811 25.4815C15.0607 25.4052 15.3244 25.1554 15.3737 25.1809C15.4233 25.2066 15.5106 25.2982 15.5409 25.2343C15.5712 25.1708 15.6127 25.1887 15.621 25.1252C15.6292 25.0617 15.574 24.9952 15.648 24.9394C15.7225 24.8831 15.898 24.771 15.8213 24.7178C15.7446 24.6645 15.5575 24.6338 15.6127 24.5648C15.6673 24.4962 15.7529 24.1573 15.6922 24.1169C15.6315 24.076 15.5989 24.0253 15.621 23.9716C15.6426 23.9183 15.8843 23.796 15.8843 23.796L16.0301 23.9005L16.1642 23.8165H16.1648L16.4667 23.7197L16.6941 23.8697L16.5876 24.0253L16.6423 24.2008L17.2163 24.3104C17.2163 24.3104 17.6806 23.9541 17.8617 23.9311C18.0427 23.908 18.2762 23.8696 18.29 23.8748C18.3033 23.8799 18.3805 23.9895 18.6085 23.9895C18.8366 23.9895 18.9188 23.9388 18.979 23.9998C19.0397 24.0612 19.0453 24.2111 19.2015 24.1266C19.3582 24.0427 19.3168 23.9997 19.4653 24.0151C19.6138 24.0304 19.6657 24.035 19.6657 24.035C19.6657 24.035 19.6497 24.2213 19.7452 24.2643C19.8406 24.3074 20.1619 24.4404 20.1763 24.4429V24.8499C20.1764 24.8496 19.9677 25.0206 19.9677 25.0283Z" fill="#E3E3E3"/>
<path d="M16.1642 23.8161L16.0301 23.9001L15.8844 23.7956C15.8844 23.7956 15.6426 23.918 15.6211 23.9712C15.5989 24.0249 15.6315 24.0756 15.6922 24.1165C15.753 24.1569 15.6674 24.4958 15.6127 24.5644C15.5575 24.6335 15.7446 24.6641 15.8213 24.7174C15.8981 24.7706 15.7226 24.8827 15.6481 24.939C15.5741 24.9948 15.6293 25.0613 15.621 25.1248C15.6127 25.1883 15.5713 25.1704 15.5409 25.2339C15.5105 25.2978 15.4233 25.2062 15.3737 25.1805C15.3245 25.155 15.0607 25.4048 14.9812 25.481C14.9016 25.5579 14.9729 25.868 14.9812 25.952C14.9889 26.0358 14.8492 26.0665 14.7692 26.0845C14.6897 26.1024 14.7725 26.2549 14.8051 26.3337C14.8382 26.4131 14.7283 26.4157 14.6489 26.474C14.5694 26.5323 14.5688 26.7161 14.5385 26.7949C14.5087 26.8738 14.5606 26.9679 14.6185 27.0422C14.676 27.1159 14.6373 27.3144 14.6185 27.4368C14.5992 27.559 14.1598 27.5637 14.1598 27.5637L13.8385 28.0325L13.9291 28.3176C13.9291 28.3176 13.8136 28.3657 13.6381 28.3862C13.4626 28.4067 13.2483 28.2511 13.2483 28.2511L13.0364 28.3177L12.8724 28.8843L12.7466 28.8393L12.6913 29.0481L12.9496 29.2389L12.9336 29.4483L13.0242 29.522L13.0622 29.6444L13.1665 29.5578L13.4386 29.8229L13.3205 30.0114L13.5816 30.2053L13.4414 30.3323L13.2244 30.1388L13.1748 30.3297L13.0268 30.2303L12.8231 30.45L12.5123 30.4905L12.4494 30.748L12.1717 31.0745H11.9382L11.3249 30.725L11.2509 30.3124L10.9075 29.7667L10.6083 29.8077C10.6083 29.8077 10.3936 29.4305 10.3936 29.4228C10.3936 29.4151 10.1076 29.4791 10.1076 29.4791L9.86304 29.0891V28.8445L10.0751 28.8292L10.5255 28.4979L10.4791 28.1284H10.7231V27.9523L10.2782 27.5756L9.85756 27.5655L9.7946 27.7615L9.58537 27.8153L9.5611 27.6545L9.21167 27.6115L9.06363 27.7032L9.08249 27.8659L8.86275 28.0086L8.7369 27.8684L8.81304 27.8075L8.64301 27.4098H8.45035L8.24171 27.6064L8.08493 27.545L8.1263 27.3361L7.88457 27.0684L7.69191 27.2061H7.24142L7.1095 27.0147L6.5321 26.9947L6.27427 26.8263L6.03189 27.0254L5.88895 26.9082L6.03189 26.6738L5.92751 26.5156L5.79121 26.5346C5.74261 26.4747 5.70014 26.4158 5.66314 26.3502C5.63392 26.2996 5.58472 26.2683 5.56652 26.2105C5.55439 26.1721 5.55549 26.1158 5.55934 26.0764C5.56326 26.0375 5.59523 26.0088 5.60351 25.9715C5.6146 25.9173 5.5947 25.8855 5.56104 25.8436C5.54499 25.8225 5.52731 25.8108 5.50637 25.7945C5.47766 25.7724 5.4605 25.7361 5.42906 25.7176C5.38932 25.6941 5.33745 25.6669 5.28826 25.6711C5.25127 25.6742 5.23861 25.6859 5.21597 25.7084C5.20384 25.7201 5.18068 25.7346 5.16137 25.7335C5.12875 25.7335 5.10063 25.692 5.0791 25.6731C5.0592 25.6562 5.03826 25.6342 5.0162 25.6204C4.96819 25.5897 4.91853 25.6501 4.90412 25.689C4.76939 25.5989 4.58006 25.4684 4.42269 25.5989C4.27257 25.7238 4.4713 25.8446 4.48011 25.9767C4.485 26.0453 4.42433 26.0852 4.37461 26.1261C4.31557 26.1748 4.30291 26.2265 4.30839 26.2987C4.31335 26.3734 4.33547 26.4737 4.28132 26.5382C4.22612 26.6042 4.1218 26.5735 4.05003 26.553C3.96222 26.5279 3.87884 26.5049 3.78613 26.5101C3.74026 26.5131 3.66302 26.5342 3.65421 26.4742C3.64155 26.3882 3.71214 26.2791 3.75194 26.2066C3.80544 26.1093 3.86846 26.0171 3.92255 25.9209C3.96391 25.8456 3.99595 25.7662 4.00645 25.6818C4.01689 25.603 4.00586 25.5247 4.00475 25.4454C4.00364 25.3599 4.02517 25.2811 4.0638 25.2039C4.10412 25.1229 4.15768 25.0462 4.17804 24.9582C4.19683 24.8762 4.17752 24.7959 4.17249 24.7135C4.16753 24.6163 4.19298 24.5262 4.23486 24.4371C4.27792 24.3456 4.33253 24.256 4.3491 24.1551C4.36515 24.0614 4.34251 23.9693 4.30552 23.8818C4.26853 23.7948 4.20505 23.7103 4.15038 23.631C4.08748 23.5394 4.01963 23.4518 3.94832 23.3664C3.92627 23.3393 3.90917 23.3096 3.89645 23.2784L4.58378 23.1653L5.07779 22.6498L5.17278 22.635L5.73308 22.9329L5.79487 22.3484L6.00077 22.268L6.5445 22.524H6.65548L6.7504 22.1498L7.31462 21.8821L7.52052 21.057L7.97761 20.84L8.03998 20.5534L8.79353 20.7519C8.79353 20.7519 9.16776 21.1456 9.22635 21.2371C9.28317 21.3288 9.54707 21.1112 9.54707 21.1112L9.89318 20.5154V20.515L10.507 20.3926L11.0795 20.6337L11.1827 21.1527L11.6564 21.2597L12.1466 21.7449L12.4595 21.5652L12.9211 21.6301L13.2009 21.4009L13.5139 21.4239L13.6044 21.0804L13.9671 20.8665L15.1203 21.1455L15.2109 21.6532L14.8278 21.8784L15.17 22.5126L15.7878 22.5658L15.928 23.0547L15.8992 23.2685L15.7629 23.4672L15.9649 23.5742L16.1642 23.8161Z" fill="#E3E3E3"/>
<path d="M9.89375 20.5147V20.5152L9.54765 21.111C9.54765 21.111 9.28374 21.3286 9.22692 21.2369C9.16839 21.1453 8.7941 20.7517 8.7941 20.7517L8.04055 20.5531L7.97818 20.8398L7.52109 21.0568L7.31519 21.8819L6.75098 22.1496L6.65605 22.5237H6.54507L6.00134 22.2678L5.79544 22.3482L5.73366 22.9327L5.17335 22.6348L5.07836 22.6496L4.58435 23.1651L3.89702 23.2781C3.86499 23.2023 3.85729 23.1173 3.85781 23.0365C3.85886 22.9648 3.85501 22.8932 3.86447 22.8216C3.87432 22.7468 3.86662 22.6762 3.83348 22.6065C3.79101 22.5149 3.74573 22.4494 3.64741 22.4038C3.57838 22.3721 3.50113 22.3603 3.4327 22.3281C3.37417 22.301 3.31291 22.285 3.25269 22.2605C3.20852 22.2426 3.16768 22.2191 3.12358 22.1991C3.03191 22.1653 2.9304 22.0921 2.91324 21.9963C2.89334 21.8878 2.91102 21.7547 2.98389 21.6647C3.02363 21.6161 3.06891 21.5752 3.08548 21.5143C3.10264 21.4523 3.0982 21.3791 3.08384 21.3167C3.06558 21.2326 3.00816 21.1692 2.92146 21.1395C2.85635 21.117 2.78458 21.1196 2.71999 21.0951C2.65984 21.072 2.6002 21.0336 2.57593 20.9743C2.54834 20.9067 2.55988 20.8268 2.55884 20.7562C2.55825 20.6861 2.55884 20.6084 2.52629 20.5438C2.49595 20.486 2.43958 20.464 2.3943 20.4209C2.30707 20.3391 2.30596 20.2188 2.34074 20.1159C2.39319 19.9654 2.58533 19.9235 2.67145 19.7924C2.71614 19.7243 2.75202 19.6424 2.7498 19.561C2.74706 19.4751 2.69624 19.3998 2.68463 19.3149C2.6753 19.2484 2.69572 19.1987 2.74537 19.1511C2.81218 19.0876 2.88283 18.9975 2.8784 18.9049C2.87396 18.8026 2.87566 18.7048 2.81159 18.6162C2.75698 18.54 2.66369 18.5067 2.6096 18.43C2.5621 18.3624 2.54116 18.2626 2.55714 18.1828C2.56602 18.1413 2.60301 18.1126 2.61064 18.0712C2.61952 18.0231 2.60405 17.9795 2.5715 17.9417C2.53946 17.9059 2.48479 17.8746 2.47044 17.8276C2.4583 17.7871 2.49471 17.7354 2.51846 17.7047C2.54279 17.673 2.57196 17.6438 2.57196 17.6018C2.57196 17.5567 2.49419 17.5036 2.44995 17.4933C2.35998 17.4739 2.2507 17.4774 2.1745 17.4242C2.09556 17.369 2.05197 17.2819 2.03977 17.1939C2.03423 17.1539 2.03377 17.1201 2.03651 17.0802C2.04088 17.027 1.9945 16.9947 1.96312 16.9544C1.91621 16.895 1.86264 16.8356 1.84555 16.7619C1.82728 16.6821 1.87373 16.614 1.90733 16.5433C1.90681 16.5454 1.9057 16.5479 1.90407 16.5509C1.90962 16.5433 1.91901 16.5336 1.9228 16.529C1.93219 16.5162 1.9427 16.5039 1.95157 16.4906C1.96644 16.4676 1.98191 16.4471 1.99515 16.4235C2.02053 16.379 2.05478 16.3416 2.0769 16.2951C2.0951 16.2551 2.11167 16.2218 2.14207 16.1886C2.17574 16.1522 2.19335 16.1016 2.2171 16.0591C2.23035 16.034 2.25631 16.0012 2.24855 15.9726C2.24033 15.9449 2.20608 15.9127 2.18729 15.8896C2.15584 15.8512 2.13372 15.8118 2.1133 15.7679C2.09673 15.7305 2.08734 15.708 2.10169 15.669C2.11604 15.6312 2.13483 15.6082 2.16021 15.5769C2.20047 15.5298 2.22532 15.3972 2.16732 15.3527C2.14031 15.3317 2.10717 15.3348 2.08564 15.3072C2.05635 15.2683 2.03762 15.2207 2.01387 15.1772L2.19055 14.9197C2.19055 14.9197 2.41133 14.9443 2.45824 15.0113C2.45824 15.0113 2.66029 15.1316 2.71157 15.0645C2.76351 14.9976 2.77179 14.6694 2.80213 14.4877C2.83305 14.3065 2.8662 14.0982 3.11568 13.961L2.90541 13.7261C2.90541 13.7261 3.20846 13.2849 3.22066 13.2946C3.23279 13.3038 3.78702 13.6856 3.79309 13.6856C3.79916 13.6856 3.88972 13.6149 3.88972 13.6149L3.97414 13.747L4.92804 13.1814L4.85791 12.9506C4.85791 12.9506 5.69203 12.452 5.70253 12.4618C5.71245 12.471 6.35509 12.6373 6.36167 12.6373C6.36774 12.6373 7.19358 11.6709 7.19358 11.6709L7.73953 11.9176L7.61367 12.2765L7.48776 12.5514L7.75166 13.0135L7.48776 13.8002L7.5866 14.289C7.5866 14.289 6.99759 14.5225 6.99374 14.5336C6.98931 14.545 6.90703 15.1182 6.90703 15.1182L7.43041 16.0002L7.19136 16.3288L7.47125 16.6266L7.32941 18.4334L7.50439 18.6279L7.72302 18.4984L8.01941 18.6776L7.78865 18.9872L8.1801 19.2999L8.50964 19.1817L8.56758 19.2083L8.59628 19.7318L8.90488 19.8997L9.04887 19.8731L9.1025 19.7585L9.65895 19.9954L9.89375 20.5147Z" fill="#E3E3E3"/>
<path d="M11.1557 7.06431C11.1585 7.05663 11.1474 6.81454 11.1474 6.81454L11.5427 6.7434L11.5239 6.48903L11.0541 6.30325C11.0541 6.30325 10.697 5.71001 10.697 5.70232C10.697 5.69464 10.6501 5.30773 10.6501 5.30773L10.5325 4.95863C10.5325 4.95863 10.3322 4.51788 10.3399 4.51788C10.3481 4.51788 10.6915 4.28396 10.6915 4.28396L10.7164 4.16418L10.7875 4.01368L10.7766 3.91949L10.4144 3.57347L10.5817 3.32376L10.4939 2.70033L10.1014 2.54988L10.1925 2.19824C10.1081 2.21101 10.0335 2.2254 9.96622 2.28317C9.9259 2.31802 9.88721 2.3528 9.84252 2.38353C9.81714 2.40047 9.78843 2.41426 9.76077 2.42708C9.74257 2.4358 9.72273 2.44197 9.70394 2.44856C9.70172 2.44904 9.69618 2.45007 9.69455 2.45007H9.69403C9.61228 2.48389 9.52949 2.53452 9.45883 2.5857C9.44167 2.59804 9.41414 2.60874 9.39972 2.62308C9.38263 2.64044 9.37493 2.67117 9.36221 2.69168C9.31856 2.76536 9.28822 2.84829 9.23798 2.91738C9.17835 3.00086 9.11983 3.08325 9.06079 3.16666C9.03541 3.20296 9.01446 3.23623 8.98354 3.26902C8.96253 3.29152 8.94766 3.31759 8.93161 3.34324C8.89135 3.40875 8.8466 3.47989 8.78755 3.5321C8.73347 3.57971 8.71742 3.65441 8.67051 3.70868C8.61583 3.77262 8.54133 3.81823 8.47843 3.874C8.42872 3.91852 8.38683 3.96976 8.34371 4.01991C8.25537 4.12123 8.15333 4.18989 8.03022 4.25226C7.96067 4.28753 7.89106 4.31517 7.81714 4.34336C7.75418 4.36641 7.69514 4.40482 7.63002 4.42115C7.45446 4.46519 7.28222 4.52254 7.1028 4.5517C7.06359 4.55835 7.02327 4.57523 6.99405 4.59979C6.93663 4.64842 6.89409 4.70626 6.82409 4.74104C6.75722 4.77383 6.68049 4.75997 6.61153 4.78302C6.56071 4.79941 6.50988 4.80552 6.45912 4.81986C6.40445 4.83468 6.36133 4.86027 6.30287 4.86535C6.22229 4.87406 6.14055 4.87612 6.05893 4.87818C5.99375 4.8792 5.91866 4.86535 5.85851 4.89045C5.82269 4.90582 5.79117 4.92935 5.75966 4.95185C5.72489 4.97545 5.69233 5.00454 5.64764 5.00714C5.60961 5.00969 5.57979 5.00303 5.54443 5.01942C5.503 5.03939 5.46105 5.06038 5.41799 5.07574C5.37271 5.09117 5.32026 5.08191 5.27335 5.08857C5.21646 5.09673 5.15356 5.09468 5.10215 5.12135C5.05857 5.14283 5.01225 5.16025 4.96469 5.17253C4.92163 5.18324 4.87309 5.19606 4.83218 5.213C4.80132 5.22576 4.77699 5.23659 4.74221 5.24367C4.70802 5.25129 4.67429 5.26109 4.64011 5.27029C4.61695 5.27646 4.59268 5.27488 4.56951 5.28051C4.51262 5.29485 4.47726 5.35014 4.41933 5.36647C4.37627 5.37827 4.32544 5.3747 4.28186 5.38129C4.23606 5.38849 4.18361 5.39254 4.14335 5.41353C4.10303 5.43452 4.06493 5.44989 4.02135 5.46677C3.97823 5.48322 3.94456 5.5154 3.90816 5.54202C3.86014 5.57837 3.77676 5.61473 3.71439 5.61473C3.67576 5.61473 3.63381 5.61164 3.59512 5.6183C3.55095 5.62653 3.51344 5.64443 3.47586 5.66639C3.43887 5.68732 3.39418 5.68732 3.35771 5.71043C3.32567 5.73039 3.30741 5.74775 3.26937 5.75906C3.23786 5.7682 3.20145 5.78671 3.16779 5.78671C3.1336 5.78671 3.10594 5.77897 3.07168 5.78974C3.03417 5.80147 3.00214 5.81327 2.9624 5.82252C2.9155 5.83268 2.93259 5.84805 2.92156 5.88138C2.91608 5.8988 2.89677 5.90594 2.88959 5.92179C2.88353 5.93407 2.88633 5.94744 2.88633 5.9602C2.88633 5.98984 2.9078 6.01083 2.90675 6.03902C2.90343 6.09068 2.86702 6.0703 2.83329 6.08355C2.78416 6.10351 2.81013 6.21155 2.80791 6.2499C2.80458 6.33029 2.78312 6.41523 2.74221 6.48636C2.72401 6.51709 2.69746 6.53555 2.66934 6.55756C2.64063 6.57958 2.61858 6.60614 2.58707 6.62665C2.51915 6.67068 2.45241 6.71775 2.38723 6.7659C2.36074 6.78532 2.33588 6.80117 2.31983 6.82887C2.30222 6.85851 2.28291 6.88719 2.26412 6.91695C2.20618 7.00902 2.20012 7.1242 2.19287 7.22758C2.18955 7.2727 2.19118 7.31511 2.17963 7.35915C2.16417 7.42055 2.15927 7.48455 2.14375 7.54649C2.13324 7.58745 2.11667 7.63142 2.10069 7.67032C2.0847 7.70922 2.03995 7.72053 2.00021 7.72609C1.95331 7.73329 1.91631 7.74146 1.891 7.78399C1.86608 7.82391 1.86281 7.88483 1.86829 7.92983C1.87051 7.95034 1.88154 7.96722 1.88598 7.98766C1.891 8.00817 1.88819 8.03122 1.88819 8.05167C1.88872 8.09673 1.88871 8.14071 1.89263 8.18578C1.89648 8.23127 1.90861 8.26762 1.93791 8.30452C1.96329 8.33574 1.9854 8.35159 2.01737 8.37512C2.03943 8.39151 2.05769 8.4125 2.08085 8.42787C2.09801 8.44015 2.11622 8.44426 2.12228 8.46525C2.13331 8.50161 2.09684 8.53742 2.0941 8.57269C2.08973 8.61213 2.1029 8.65157 2.10186 8.69149C2.10186 8.70934 2.11126 8.7483 2.09964 8.76312C2.08803 8.77745 2.06539 8.77134 2.04882 8.77443C2.01411 8.76003 1.97594 8.74624 1.95944 8.71351C1.91305 8.62187 1.92851 8.50669 1.85675 8.4243C1.82634 8.38951 1.78387 8.38334 1.73918 8.3756C1.69501 8.36798 1.66076 8.35364 1.62435 8.3286C1.58958 8.30452 1.55702 8.28765 1.51344 8.27948C1.47201 8.2718 1.42347 8.2718 1.387 8.25032C1.34172 8.22425 1.3185 8.16739 1.2909 8.12752C1.25228 8.07169 1.20426 8.01591 1.13797 7.98779C1.0955 7.96934 1.048 7.96631 1.00605 7.94738C0.964103 7.9279 0.92933 7.89874 0.899514 7.8665C0.860303 7.82452 0.823375 7.77685 0.770855 7.74823C0.726686 7.72313 0.690804 7.73233 0.697393 7.78453C0.70183 7.82246 0.717814 7.85367 0.709006 7.89203C0.698502 7.93449 0.705157 7.96159 0.723359 8.00206C0.738822 8.03636 0.765832 8.08246 0.718401 8.10345C0.678081 8.1219 0.620669 8.11421 0.577609 8.11161C0.573172 8.14743 0.595224 8.17561 0.621778 8.20072C0.662619 8.2401 0.709007 8.27954 0.754807 8.31432C0.797279 8.34554 0.842035 8.37119 0.877918 8.41057C0.938593 8.47759 1.00318 8.56924 1.01532 8.65677C1.02524 8.72942 1.02523 8.79499 1.06673 8.85845C1.12075 8.94139 1.17875 9.01712 1.21411 9.10919C1.22951 9.15015 1.24836 9.19007 1.25274 9.23357C1.256 9.26889 1.24836 9.30374 1.24888 9.33846C1.24941 9.37276 1.24778 9.40452 1.24282 9.43779C1.23564 9.48848 1.24504 9.54323 1.24504 9.59392C1.24504 9.67685 1.25339 9.75465 1.27152 9.83655C1.27922 9.87285 1.28033 9.90866 1.29194 9.94405C1.30519 9.985 1.31628 10.029 1.32339 10.071C1.33774 10.1544 1.35321 10.2435 1.38413 10.3233C1.41447 10.4026 1.43489 10.4845 1.4482 10.5674C1.45375 10.6053 1.46151 10.6366 1.45701 10.6744C1.45205 10.7185 1.44435 10.7619 1.43822 10.8054C1.42386 10.9093 1.3979 11.0275 1.33005 11.1161C1.31354 11.1381 1.29416 11.1576 1.27426 11.176C1.25163 11.1965 1.23062 11.2031 1.20308 11.2175C1.17771 11.2298 1.15278 11.2472 1.1291 11.263C1.11749 11.2712 1.10313 11.2779 1.09537 11.2866C1.05238 11.3321 1.08487 11.4048 1.10477 11.4519C1.13067 11.5153 1.1749 11.5701 1.20191 11.6335C1.21072 11.6545 1.22729 11.6806 1.23114 11.7021C1.23499 11.7262 1.22116 11.7543 1.21294 11.7774C1.2008 11.8112 1.18312 11.8429 1.17092 11.8772C1.15937 11.9105 1.1533 11.9197 1.12349 11.9442C1.08982 11.9713 1.05779 11.9986 1.02413 12.0251C0.999335 12.0446 0.974998 12.0661 0.948509 12.084C0.92313 12.1014 0.912693 12.1229 0.891619 12.1449C0.871199 12.1659 0.84471 12.1827 0.825399 12.2048C0.803347 12.2288 0.785666 12.2564 0.768507 12.2836C0.733211 12.3363 0.723229 12.3962 0.713313 12.4571C0.708354 12.4842 0.704505 12.5118 0.698959 12.539C0.693936 12.5687 0.70059 12.5983 0.693479 12.6281C0.677429 12.6983 0.629933 12.7346 0.560972 12.7586C0.527307 12.7699 0.494164 12.7739 0.45939 12.7816C0.41907 12.7908 0.383187 12.8088 0.342867 12.818C0.321859 12.8226 0.300916 12.8186 0.281017 12.8236C0.269404 12.8261 0.252898 12.8354 0.242394 12.8405C0.187722 12.8656 0.135267 12.8948 0.0833995 12.925C0.04582 12.9465 -0.0121152 12.9705 0.00223804 13.0207C0.0121548 13.0555 0.037534 13.0852 0.0612821 13.1123C0.0977525 13.1533 0.131418 13.2014 0.141335 13.2547C0.156797 13.3345 0.11204 13.3688 0.0740038 13.4302C0.0248765 13.5095 0.0491471 13.6125 0.0811158 13.6923C0.0860742 13.7061 0.0932507 13.721 0.0976872 13.7353C0.110409 13.7737 0.138529 13.8233 0.17937 13.8412C0.197051 13.8489 0.216362 13.8499 0.233456 13.8576C0.2589 13.8694 0.277625 13.8898 0.301439 13.9037C0.333407 13.9211 0.35996 13.9456 0.393625 13.9605C0.480267 13.9983 0.578 14.0158 0.658052 14.0644C0.70718 14.0946 0.763484 14.1105 0.816526 14.1345C0.855149 14.1514 0.884964 14.1816 0.91204 14.2118C1.04944 14.3633 1.14887 14.5475 1.31615 14.6724C1.35477 14.7006 1.38022 14.7257 1.4056 14.7641C1.43372 14.8066 1.4696 14.845 1.51488 14.8726C1.55572 14.8966 1.58332 14.892 1.62749 14.8956C1.69592 14.9018 1.76658 14.9463 1.82015 14.9831C1.89302 15.0338 1.95487 15.0809 2.00119 15.1551C2.00563 15.1622 2.01 15.1699 2.01391 15.1771L2.19059 14.9197C2.19059 14.9197 2.41137 14.9442 2.45828 15.0113C2.45828 15.0113 2.66033 15.1316 2.71161 15.0645C2.76355 14.9975 2.77183 14.6694 2.80217 14.4877C2.8331 14.3065 2.86624 14.0981 3.11572 13.961L2.90545 13.726C2.90545 13.726 3.2085 13.2849 3.2207 13.2945C3.23283 13.3037 3.78707 13.6856 3.79313 13.6856C3.7992 13.6856 3.88976 13.6149 3.88976 13.6149L3.97418 13.747L4.92809 13.1814L4.85795 12.9505C4.85795 12.9505 5.69207 12.452 5.70258 12.4617C5.71249 12.4709 6.35513 12.6373 6.36172 12.6373C6.36778 12.6373 7.19362 11.6709 7.19362 11.6709L7.73957 11.9176L7.61371 12.2765L8.09063 12.3835L9.04069 12.1009L9.08212 11.971L9.118 11.6019L9.33774 11.3291L9.82353 11.2098L9.92231 10.9119C9.92231 10.9119 10.2905 10.9856 10.3016 10.9831C10.3127 10.9805 10.3155 10.8152 10.3155 10.8152L10.274 10.6571L10.6478 10.354L10.2222 9.92614C10.2222 9.92614 9.67015 9.78895 9.63426 9.74545C9.59838 9.70244 9.47468 9.59035 9.4968 9.47318C9.51885 9.35594 9.57352 9.2009 9.74687 9.18045C9.91963 9.15995 10.6638 9.02226 10.6638 9.02226L10.7107 8.30464L11.356 8.19255L11.3118 7.80558L11.4852 7.33416C11.4852 7.3341 11.1557 7.07405 11.1557 7.06431ZM3.42941 10.4492C3.41068 10.5352 3.34498 10.6053 3.32456 10.6908C3.3108 10.7486 3.33448 10.8023 3.34277 10.8591C3.35438 10.9364 3.35497 11.0198 3.35157 11.0976C3.35001 11.1411 3.33559 11.1979 3.29808 11.2281C3.26056 11.2588 3.18547 11.2271 3.14626 11.2132C3.14515 11.2066 3.14123 11.2014 3.13523 11.1984C3.07286 11.1503 3.04415 11.0438 3.08721 10.9762C3.1214 10.9231 3.15839 10.8964 3.13967 10.8298C3.12088 10.7638 3.09713 10.708 3.12753 10.6415C3.15676 10.577 3.19264 10.5248 3.20648 10.4552C3.21913 10.3937 3.23629 10.3124 3.31745 10.3037C3.40847 10.2941 3.44441 10.3795 3.42941 10.4492ZM10.1824 6.6774C10.1824 6.60166 10.2747 6.63391 10.3027 6.57656C10.3271 6.52593 10.3265 6.46344 10.3955 6.44402C10.4667 6.42406 10.5053 6.486 10.5158 6.54226C10.5225 6.57353 10.5103 6.60015 10.502 6.63034C10.4882 6.68309 10.4799 6.79409 10.4125 6.81562C10.3629 6.83147 10.2773 6.7875 10.2376 6.76136C10.2111 6.74388 10.1824 6.70958 10.1824 6.6774ZM10.857 7.43591C10.7963 7.48146 10.7384 7.53107 10.6804 7.57868C10.6517 7.60172 10.6219 7.61914 10.5921 7.63862C10.5601 7.65961 10.5424 7.69289 10.5159 7.71793C10.4889 7.74303 10.4304 7.77582 10.4215 7.81211C10.3586 7.78707 10.3905 7.74146 10.3994 7.69391C10.4121 7.62786 10.3459 7.63657 10.3083 7.60178C10.257 7.55418 10.3846 7.54807 10.4088 7.54903C10.4635 7.55157 10.5529 7.57263 10.575 7.50857C10.5965 7.44971 10.5601 7.37294 10.5495 7.31457C10.5396 7.26291 10.5203 7.18759 10.543 7.13702C10.5661 7.08481 10.6307 7.10169 10.6682 7.12928C10.7102 7.15952 10.7328 7.20042 10.7869 7.2133C10.8487 7.22812 10.8985 7.24597 10.9221 7.30694C10.9459 7.36629 10.9028 7.4021 10.857 7.43591Z" fill="#E3E3E3"/>
<path d="M23.3125 0.920357C23.2811 0.906505 23.2287 0.952056 23.2061 0.967966C23.1674 0.994038 23.1425 1.0094 23.1144 1.0483C23.1089 1.05501 23.079 1.09899 23.0747 1.09131C23.0498 1.14194 23.0233 1.19215 22.9968 1.24175C22.9731 1.28731 22.9581 1.33649 22.9289 1.37998C22.9008 1.42093 22.866 1.45523 22.8406 1.4977C22.7738 1.6113 22.7032 1.73416 22.6026 1.82575C22.5634 1.86162 22.5176 1.89283 22.4801 1.93119C22.4459 1.965 22.4144 2.0013 22.3841 2.03814C22.3581 2.06989 22.3355 2.11031 22.3024 2.13692C22.2405 2.18707 22.1737 2.23825 22.1069 2.28386C21.9817 2.37036 21.8591 2.46352 21.731 2.54645C21.6846 2.5761 21.636 2.60223 21.5864 2.6257C21.498 2.66726 21.4058 2.6995 21.312 2.72866C21.2651 2.74293 21.2187 2.75679 21.1719 2.77058C21.1282 2.78286 21.0869 2.78389 21.0421 2.79157C20.9748 2.80234 20.9041 2.81262 20.8401 2.83512C20.7969 2.84946 20.7682 2.88122 20.7269 2.89804C20.6739 2.91951 20.6131 2.92774 20.5574 2.94056C20.4879 2.95641 20.4194 2.96821 20.3488 2.9748C20.2908 2.98043 20.2328 2.99325 20.1744 2.99585C20.0921 2.99991 20.0132 3.00196 19.9314 3.0163C19.8586 3.02858 19.7829 3.02858 19.7106 3.04292C19.6516 3.05417 19.656 3.09821 19.6339 3.1417C19.6273 3.15398 19.6119 3.18622 19.592 3.17909C19.571 3.17243 19.5748 3.12174 19.5743 3.10692C19.5732 3.08133 19.5771 3.04503 19.5572 3.0235C19.54 3.00456 19.5086 3.00348 19.4843 2.99894C19.4258 2.9892 19.3716 2.97686 19.3126 2.98817C19.2768 2.99428 19.2044 2.99894 19.2243 3.04655C19.2479 3.10075 19.312 3.14938 19.3534 3.19191C19.365 3.20419 19.4439 3.27527 19.3954 3.2743C19.3567 3.27327 19.3081 3.22155 19.2817 3.20056C19.2414 3.16886 19.2132 3.13559 19.1845 3.09464C19.1381 3.02761 19.052 2.93137 18.9615 2.92012C18.9052 2.91298 18.8528 2.89193 18.797 2.8843C18.7075 2.87202 18.6342 2.80905 18.5801 2.74711C18.5491 2.71184 18.4774 2.61917 18.4217 2.67192C18.3946 2.69799 18.3841 2.74197 18.3355 2.70924C18.3151 2.69545 18.2997 2.6744 18.2809 2.65903C18.2478 2.63241 18.2102 2.61046 18.1755 2.58584C18.1291 2.55311 18.0679 2.51675 18.0419 2.46654C18.0137 2.4118 18.0087 2.35445 18.0121 2.29511C18.0137 2.26952 18.0209 2.23879 18.0154 2.2132C18.0115 2.19324 17.9971 2.17939 17.9861 2.16257C17.9574 2.11956 17.9579 2.07244 17.9563 2.02332C17.9541 1.97166 17.985 1.92096 17.9773 1.87081C17.9712 1.82678 17.9458 1.773 17.9 1.75413C17.8652 1.68861 17.8829 1.60671 17.8337 1.54579C17.8144 1.52171 17.8028 1.48899 17.7934 1.46031C17.7812 1.42347 17.7912 1.38561 17.7707 1.35028C17.7238 1.33443 17.6741 1.31906 17.6316 1.29293C17.5477 1.23976 17.5571 1.15265 17.546 1.06977C17.5317 0.96488 17.4755 0.892108 17.3848 0.830769C17.307 0.778019 17.2374 0.733013 17.2424 0.634713C17.2451 0.585593 17.2562 0.535929 17.275 0.490318C17.2981 0.435572 17.3351 0.406414 17.3887 0.3752C17.4041 0.383911 17.4312 0.376713 17.45 0.382339C17.4732 0.389477 17.4942 0.404358 17.5168 0.415125C17.5671 0.438657 17.6162 0.470416 17.6675 0.491346C17.7636 0.531271 17.8662 0.57531 17.9502 0.633685C17.9932 0.66387 18.0329 0.67972 18.0815 0.699198C18.1268 0.718193 18.1604 0.752431 18.1996 0.778019C18.2769 0.829195 18.3751 0.847646 18.4574 0.888599C18.5104 0.914671 18.554 0.945946 18.5949 0.984843C18.6148 1.00432 18.6257 1.01969 18.6402 1.04322C18.6561 1.06977 18.6843 1.08617 18.7047 1.10922C18.7241 1.13123 18.7351 1.16094 18.7477 1.18701C18.7753 1.24278 18.8035 1.30219 18.8587 1.34005C18.9388 1.3948 18.984 1.33394 18.9691 1.25815C18.9238 1.03451 18.6925 0.90965 18.496 0.810322C18.2056 0.66393 17.9341 0.489409 17.6359 0.356326C17.494 0.292809 17.3538 0.229353 17.2187 0.154161C17.0961 0.0865307 16.9724 0.0277919 16.8295 0.00831331C16.5518 -0.029071 16.2769 0.0707415 16.0014 0.0881028C15.896 0.0953014 15.7922 0.0998998 15.6896 0.123431C15.5284 0.159787 15.3649 0.204249 15.2076 0.253973C15.1574 0.269822 15.1049 0.273936 15.0552 0.292809C14.9112 0.345559 14.7764 0.425954 14.6274 0.467331C14.5458 0.489834 14.4575 0.486325 14.3751 0.512458C14.3509 0.519596 14.3255 0.528306 14.3006 0.53496C14.2818 0.539557 14.2631 0.540103 14.2438 0.542643C14.1852 0.551354 14.129 0.56926 14.0726 0.584081C14.0224 0.597449 13.9683 0.594365 13.9175 0.607673C13.8877 0.615356 13.8601 0.625578 13.8314 0.634833C13.7734 0.652739 13.7187 0.648143 13.6641 0.679357C13.6132 0.707486 13.5586 0.719765 13.5012 0.730048C13.4444 0.740272 13.3848 0.733618 13.3268 0.742329C13.2975 0.746442 13.2683 0.745958 13.2385 0.745958C13.1783 0.745958 13.1458 0.771002 13.0961 0.797619C13.0481 0.823207 12.9779 0.822179 12.9238 0.822179C12.883 0.822179 12.8488 0.818609 12.814 0.840629C12.7665 0.871359 12.74 0.919451 12.687 0.944495C12.6218 0.975225 12.5429 0.975225 12.4728 0.985993C12.4303 0.992163 12.3911 0.995186 12.3508 1.00952C12.3199 1.02132 12.2884 1.03614 12.2603 1.05253C12.2344 1.06741 12.2183 1.08738 12.1951 1.10425C12.1686 1.12319 12.1261 1.16717 12.0941 1.16826C12.0046 1.22609 11.9213 1.287 11.8396 1.35397C11.8186 1.37036 11.8038 1.39286 11.7833 1.41029C11.7613 1.42928 11.7326 1.4441 11.7083 1.46098C11.6757 1.48451 11.6343 1.50453 11.6155 1.53926C11.5984 1.5715 11.5913 1.60737 11.5747 1.63858C11.5565 1.67391 11.5299 1.70513 11.4969 1.72975C11.4505 1.76398 11.397 1.78243 11.3473 1.81159C11.3069 1.83615 11.2716 1.86428 11.2307 1.88836C11.165 1.92629 11.1098 1.97795 11.0458 2.0169C11.0259 2.02918 11.0043 2.04092 10.9867 2.05471C10.9636 2.07419 10.9542 2.09101 10.9248 2.10232C10.8995 2.11206 10.8741 2.12434 10.8487 2.13305C10.7962 2.15089 10.7327 2.15192 10.677 2.16221C10.6218 2.1714 10.5649 2.17854 10.5092 2.17854C10.4622 2.17957 10.4159 2.17902 10.369 2.17902C10.3188 2.17902 10.274 2.18671 10.2249 2.1939C10.2138 2.19542 10.2028 2.19699 10.1923 2.1985L10.1012 2.55015L10.4937 2.70059L10.5815 3.32402L10.4142 3.57374L10.7764 3.91975L10.7873 4.01394L10.7162 4.16445L10.6913 4.28422C10.6913 4.28422 10.3479 4.51814 10.3397 4.51814C10.332 4.51814 10.5323 4.95889 10.5323 4.95889L10.6499 5.30799C10.6499 5.30799 10.6968 5.6949 10.6968 5.70259C10.6968 5.71021 11.0539 6.30352 11.0539 6.30352L11.5237 6.48929L11.5425 6.74366L11.1472 6.8148C11.1472 6.8148 11.1582 7.05689 11.1555 7.06457C11.1555 7.07431 11.485 7.33431 11.485 7.33431L11.3117 7.80573L11.3559 8.1927L11.7555 8.95175L12.0255 9.15029L12.153 9.16209L12.3506 9.03415L13.1063 8.98811L13.4215 9.19844L13.6871 8.92508L13.739 8.4614L13.9305 8.32372L14.1613 8.54537H14.715L15.0015 8.47266L15.2482 8.14817L14.8198 7.9209L14.9396 7.74124C14.9396 7.74124 15.4215 7.62455 15.4215 7.62298C15.4154 7.62298 15.4464 7.28313 15.4398 7.28313C15.4398 7.28259 15.7881 7.25446 15.7881 7.25446L15.9962 7.45868L16.1093 7.49092L16.408 7.13009L17.0815 7.26002L17.3001 7.50828L18.3009 7.51391C18.3009 7.51391 18.5294 7.70277 18.5317 7.70846C18.5394 7.70846 18.8795 7.37623 18.8795 7.37623L19.209 7.51597L19.2278 7.90348L20.0454 8.00275L20.3104 7.89525L20.7498 7.71662L20.9678 7.2273L21.3885 6.91407L21.2399 6.60283L21.4105 6.31822L21.9874 6.36226L22.4059 5.44555L22.3131 5.37901L21.8742 5.32366L21.6932 5.62516L21.4354 5.33697L21.314 5.00475C21.314 5.00475 21.0131 5.00475 21.0071 5.00475C21.0009 5.00475 20.7664 4.41464 20.7664 4.41464L20.8044 3.59775C20.7813 3.59013 20.7603 3.57833 20.7321 3.57319C20.7233 3.53024 20.8166 3.52915 20.8442 3.51028C20.8883 3.47961 20.8652 3.43352 20.8746 3.38899C20.8823 3.34955 20.911 3.31168 20.9292 3.27533C20.948 3.23698 20.9529 3.20625 20.9292 3.16844C20.9148 3.14642 20.9021 3.1244 20.8778 3.11158C20.8596 3.10184 20.8304 3.10286 20.8155 3.08956C20.7785 3.0578 20.8397 3.00813 20.8651 2.98974C20.933 2.9396 21.0103 2.96573 21.0871 2.97801C21.1837 2.99331 21.2576 2.96367 21.3255 2.89967C21.389 2.83924 21.4437 2.75177 21.5348 2.72412C21.6093 2.70216 21.686 2.73489 21.7611 2.72007C21.861 2.70059 21.9239 2.60695 21.9802 2.53629C22.0442 2.4565 22.1121 2.37254 22.2126 2.33056C22.2755 2.30346 22.3505 2.30188 22.4102 2.2671C22.466 2.23486 22.499 2.17799 22.5344 2.12785C22.5714 2.07516 22.6134 2.02701 22.6542 1.97734C22.7028 1.91848 22.7441 1.85503 22.7899 1.79459C22.8386 1.73065 22.8943 1.67488 22.9556 1.62165C23.0047 1.57967 23.0467 1.53768 23.0693 1.47882C23.0953 1.4092 23.1069 1.33552 23.1372 1.26692C23.1687 1.1953 23.2184 1.13287 23.2487 1.06118C23.2623 1.03094 23.3678 0.944978 23.3125 0.920357ZM13.6951 0.846739C13.6421 0.852849 13.6084 0.875835 13.583 0.918845C13.5626 0.952661 13.5472 0.993554 13.5046 1.00789C13.4677 1.02066 13.4235 1.00686 13.3876 1.02483C13.3535 1.04171 13.3402 1.08423 13.3297 1.11647C13.3159 1.15997 13.3137 1.20546 13.2938 1.24744C13.2894 1.2567 13.2801 1.26892 13.2707 1.27406C13.2425 1.29142 13.2215 1.27097 13.2039 1.25053C13.1851 1.22953 13.1636 1.2152 13.1404 1.1988C13.0869 1.161 13.0311 1.12252 12.9648 1.10674C12.914 1.0944 12.7959 1.09137 12.813 1.0166C12.8323 0.934694 12.9543 0.923987 13.0255 0.919813C13.0995 0.915699 13.158 0.880917 13.2292 0.87021C13.3043 0.858414 13.3777 0.88757 13.4528 0.879404C13.5422 0.869181 13.6283 0.832342 13.7117 0.803124C13.7437 0.792356 13.9231 0.726842 13.9347 0.791811C13.9468 0.856901 13.7293 0.842081 13.6951 0.846739ZM15.6564 5.44815C15.6129 5.46346 15.5378 5.46606 15.5201 5.51621C15.5085 5.54845 15.535 5.58323 15.5488 5.61088C15.5681 5.65238 15.5819 5.6943 15.5675 5.73991C15.551 5.79109 15.4643 5.83815 15.4069 5.8151C15.3694 5.79974 15.3765 5.73223 15.3771 5.70253C15.3777 5.62625 15.3859 5.54996 15.3848 5.47429C15.3843 5.42716 15.3848 5.40363 15.3594 5.36268C15.3373 5.32632 15.3202 5.29311 15.3285 5.25059C15.3622 5.24442 15.3699 5.26904 15.3893 5.28749C15.4069 5.30491 15.4312 5.31925 15.4549 5.32893C15.5008 5.34792 15.5476 5.36425 15.599 5.35911C15.626 5.35657 15.7159 5.32275 15.7364 5.3504C15.7641 5.38778 15.6841 5.43842 15.6564 5.44815Z" fill="#E3E3E3"/>
<path d="M0.75059 7.28095C0.75059 7.28095 0.492492 7.07218 0.495232 6.88374C0.497907 6.69536 0.465025 6.6215 0.574893 6.62652C0.684695 6.63166 1.11034 6.75894 1.17904 6.69536C1.24774 6.63166 1.36843 6.66469 1.70906 6.41267C2.04956 6.16059 2.283 6.10717 2.37362 6.0664C2.46424 6.02569 2.85967 5.92895 2.69213 6.07916C2.52465 6.22937 2.46698 6.22937 2.45869 6.34649C2.45047 6.46361 2.35711 6.65707 2.29122 6.7437C2.22532 6.83033 2.11552 6.92197 2.10176 7.06202C2.08805 7.20206 2.14292 7.3599 2.04141 7.45923C1.93976 7.55862 1.88482 7.63744 1.94524 7.4236C2.00572 7.20969 2.02222 7.14357 1.9151 7.1181C1.80797 7.09263 1.39055 7.12318 1.3824 7.03915C1.37418 6.95513 1.48398 6.79978 1.40425 6.79978C1.32466 6.79978 1.30267 6.89149 1.22581 6.87618C1.14889 6.86094 1.08848 6.87872 1.08848 6.93474C1.08848 6.99082 1.13513 7.05694 1.06382 7.02645C0.992444 6.99584 0.940184 6.96281 0.88251 7.00606C0.824836 7.04937 0.717773 7.12578 0.728734 7.02645C0.73976 6.92712 0.761681 6.88634 0.698527 6.85071C0.635372 6.81508 0.520024 6.7616 0.566673 6.83038C0.613451 6.89911 0.654619 6.89911 0.657359 6.97545C0.660099 7.05198 0.610646 7.057 0.701267 7.12826C0.791758 7.19952 0.915327 7.38282 0.75059 7.28095Z" fill="#E3E3E3"/>
<path d="M1.03205 7.17928C1.03205 7.21656 0.988926 7.24675 0.93595 7.24675C0.882777 7.24675 0.839783 7.21656 0.839783 7.17928C0.839783 7.14201 0.882777 7.11182 0.93595 7.11182C0.988861 7.11182 1.03205 7.14201 1.03205 7.17928Z" fill="#E3E3E3"/>
<path d="M1.29565 7.14096C1.29565 7.16836 1.2704 7.19056 1.23928 7.19056C1.20823 7.19056 1.18304 7.16836 1.18304 7.14096C1.18304 7.1135 1.20823 7.09131 1.23928 7.09131C1.27047 7.09131 1.29565 7.1135 1.29565 7.14096Z" fill="#E3E3E3"/>
<path d="M2.58077 6.2944C2.58482 6.29524 2.72639 6.33896 2.69886 6.41787C2.67152 6.49673 2.65365 6.48403 2.59734 6.47381C2.54104 6.46359 2.52042 6.48149 2.52179 6.44206C2.52316 6.40258 2.52036 6.28164 2.58077 6.2944Z" fill="#E3E3E3"/>
<path d="M2.78611 5.95958C2.78611 5.98067 2.75793 5.99778 2.72328 5.99778C2.68858 5.99778 2.66052 5.98067 2.66052 5.95958C2.66052 5.93855 2.68864 5.92139 2.72328 5.92139C2.75793 5.92145 2.78611 5.93855 2.78611 5.95958Z" fill="#E3E3E3"/>
<path d="M38.3184 14.5661C38.2831 14.6121 38.1826 14.757 38.1534 14.6787C38.1247 14.6003 38.0998 14.4878 38.0031 14.4402C37.9066 14.3926 37.6389 14.2242 37.3545 14.2149C37.0703 14.2052 36.8517 14.1653 36.7612 14.194C36.6705 14.2226 36.6358 14.2876 36.5221 14.2436C36.4089 14.1996 36.2301 14.0486 36.1577 14.0849C36.0854 14.1213 35.9867 14.2666 35.9766 14.1807C35.9661 14.0947 36.0323 14.0352 35.9579 13.9723C35.8839 13.9093 35.7438 13.873 35.7685 13.7814C35.7934 13.6897 35.822 13.4814 35.6941 13.3939C35.5665 13.3059 35.1525 12.9031 35.1525 12.9031C35.1525 12.9031 35.412 12.5248 35.3711 12.4025C35.3297 12.2801 35.3032 12.1066 35.2987 12.0416C35.2948 11.9766 35.2806 11.7325 35.1526 11.7325C35.025 11.7325 34.8892 11.7647 34.8665 11.8298C34.844 11.8947 34.825 11.9178 34.7324 11.8927C34.6396 11.8681 34.4916 11.8697 34.4441 11.7688C34.3967 11.6675 34.3764 11.6194 34.3825 11.6101C34.3884 11.6004 34.6254 11.4514 34.6109 11.3542C34.5966 11.257 34.6463 11.2242 34.5348 11.2166C34.4239 11.2088 34.2096 11.2053 34.1599 11.2738C34.1103 11.3424 34.0302 11.3982 33.9706 11.4018C33.911 11.4059 33.7112 11.4975 33.635 11.4095C33.5588 11.3215 33.3546 11.0753 33.2971 10.9514C33.2392 10.827 33.2293 10.7298 33.1591 10.7068C33.0891 10.6837 32.8175 10.6264 32.8175 10.6264C32.8175 10.6264 32.8086 10.3536 32.8175 10.3592C32.8175 10.3577 32.3195 9.8914 32.2075 9.86478C32.0943 9.83817 31.9127 9.77471 31.9027 9.6928C31.8922 9.61089 31.8824 9.5781 31.8326 9.49771C31.7835 9.41792 31.7421 9.15635 31.6659 9.0719C31.5897 8.98794 31.2254 8.78365 31.2851 8.60042C31.3446 8.41725 31.433 8.25083 31.4004 8.15362C31.3678 8.0584 31.2 7.739 31.1918 7.72363C31.1161 7.76253 30.9494 7.80245 30.7225 7.87874C30.4382 7.97395 30.1004 8.25652 30.1004 8.25652C30.1004 8.25652 29.6639 8.26625 29.6516 8.26625C29.6395 8.26625 28.9925 8.94033 28.9925 8.94033C28.9925 8.94033 28.6607 8.73967 28.5022 8.7551C28.3437 8.77046 28.3437 8.92145 28.3603 9.02429C28.377 9.12774 28.2571 9.1333 28.1893 9.18502C28.1213 9.23614 27.6393 9.23051 27.5797 9.2382C27.5196 9.24582 27.4953 9.30885 27.4026 9.43117C27.3099 9.55349 27.03 9.76333 27.03 9.76333C27.03 9.76333 26.5088 9.73672 26.5022 9.73672C26.4961 9.73672 26.3935 9.82268 26.3173 9.89339C26.2411 9.96399 26.3376 10.4011 26.3376 10.4011C26.3376 10.4011 25.975 10.4109 25.9214 10.4262C25.8679 10.4415 25.2976 10.3857 25.1861 10.3571C25.0752 10.3285 24.7886 10.5214 24.7886 10.5214L24.2675 10.2214C24.2675 10.2214 24.2201 10.2466 24.1831 10.2809C24.1461 10.3152 24.0594 10.3075 24.0057 10.3423C23.9524 10.3766 24.0102 10.4718 24.0057 10.5634C24.0019 10.655 23.563 10.5004 23.563 10.5004V10.1319L22.8813 10.634L23.2224 11.3444L22.3006 11.7263L22.3994 12.2576L22.7621 13.0822L22.3006 13.678L22.544 14.0638L22.2017 15.2442L22.3993 15.6527H23.0585L24.0019 16.1722L25.0276 15.6721L25.6128 16.0842L25.8557 16.7797L26.6424 16.9553L26.3746 17.44L26.8649 18.1545L27.429 17.9999L28.319 18.5594L28.1379 18.8302L28.4796 19.0369L28.3846 19.6896L27.7261 19.4874L27.5279 19.6287L27.8701 20.702L28.1666 20.5797L28.3725 20.9958L27.9894 21.3362L27.9359 21.932L28.1997 21.802L28.4796 22.2222L29.1553 22.4781L29.1758 22.7111L29.9376 22.8181L30.8772 22.558L31.2641 22.925H31.9728L32.5326 23.5243C32.5326 23.5243 32.5453 23.0166 32.7557 22.9705C32.9655 22.925 33.1056 22.8789 33.1796 22.9399C33.2536 23.0013 33.7151 23.1958 33.921 23.2229C33.921 23.2229 33.8471 22.8866 33.8801 22.776C33.9128 22.665 33.8718 22.4858 33.8514 22.39C33.8306 22.2943 33.8017 22.1725 33.8514 22.0538C33.9007 21.9355 33.9706 21.7524 33.979 21.5726C33.9873 21.393 34.0734 21.2937 33.8636 21.2327C33.6533 21.1719 33.6081 20.9196 33.7152 20.8622C33.8223 20.8049 33.9707 20.8243 33.9459 20.6867C33.921 20.549 33.8774 20.506 33.8691 20.4067C33.8609 20.3074 33.7945 20.1672 33.8029 20.0627C33.8112 19.9582 33.8332 19.8744 33.7648 19.9C33.6958 19.9255 33.3337 20.0627 33.2073 20.007C33.0808 19.9506 32.6662 19.6911 32.6801 19.6276C32.6938 19.5637 32.7734 19.4239 32.8583 19.4643C32.9434 19.5054 33.1851 19.6655 33.3059 19.6225C33.4268 19.579 33.6081 19.5156 33.6577 19.4413C33.7068 19.3676 33.8635 19.0876 33.9458 19.0369C34.0282 18.9857 33.9569 19.0062 33.8801 18.9172C33.8028 18.8281 33.6301 18.7237 33.7481 18.6724C33.8663 18.6218 33.9816 18.5174 33.9816 18.5174L33.6354 18.176L33.6466 17.3106L34.352 16.9159L35.6896 16.9057L36.2113 16.4169L36.6755 16.5264C36.6755 16.5264 36.7275 16.0908 36.8289 16.0299C36.9306 15.9685 36.9967 15.9531 37.0763 15.9864C37.1558 16.0196 37.5952 16.2792 37.7023 16.1087C37.8095 15.9377 37.7686 15.7878 37.884 15.6884C37.9994 15.5892 38.3504 15.3701 38.389 15.2303C38.4278 15.0901 38.5016 14.6565 38.5016 14.6565C38.4371 14.6034 38.3465 14.5287 38.3184 14.5661ZM30.2787 13.8746C30.2681 13.9442 30.1687 13.9554 30.1097 13.9621C29.9563 13.9785 29.811 14.0235 29.7724 14.1791C29.7541 14.2523 29.7486 14.3245 29.6995 14.3869C29.647 14.4545 29.5653 14.5026 29.482 14.5307C29.3258 14.585 29.1385 14.5445 28.9935 14.4785C28.9327 14.4508 28.8654 14.4068 28.8488 14.3418C28.8306 14.2712 28.9007 14.2517 28.9637 14.2538C29.0035 14.2553 29.0404 14.265 29.0795 14.2661C29.1237 14.2676 29.1679 14.2681 29.211 14.2763C29.2336 14.2809 29.2547 14.2891 29.2778 14.2906C29.3484 14.2952 29.4141 14.285 29.4638 14.2374C29.5124 14.1918 29.5698 14.1698 29.5891 14.1018C29.6122 14.0199 29.577 13.9355 29.5549 13.8566C29.5329 13.7757 29.5329 13.6969 29.5471 13.615C29.5615 13.5351 29.5853 13.4569 29.5869 13.3755C29.5885 13.2808 29.5687 13.1861 29.5721 13.0904C29.5743 13.0336 29.5809 12.8867 29.673 12.8882C29.7542 12.8892 29.8216 12.9952 29.8537 13.052C29.8967 13.1283 29.9083 13.2051 29.8812 13.288C29.858 13.3581 29.7879 13.4477 29.8084 13.5239C29.8178 13.5628 29.8559 13.5859 29.8913 13.6043C29.9475 13.6329 30.0077 13.6528 30.0656 13.6785C30.1384 13.7108 30.293 13.7789 30.2787 13.8746Z" fill="#E3E3E3"/>
<path d="M34.5203 24.73C34.5203 24.73 34.4949 25.1732 34.4453 25.2776C34.3962 25.3821 34.2505 25.637 34.182 25.7133C34.113 25.7896 33.8884 25.9779 33.8497 26.1539C33.811 26.3295 33.7204 26.6581 33.5913 26.7421C33.4627 26.826 32.8859 27.0554 32.8776 27.1444C32.8692 27.2335 32.8444 27.3628 32.7291 27.4347C32.6137 27.5059 32.5093 27.6562 32.3752 27.6889C32.2406 27.7223 32.2434 27.7729 32.166 27.8497C32.0915 27.9235 31.9833 28.0278 31.9766 28.034H31.9761C31.9573 28.0201 31.9358 28.0089 31.9082 27.9997C31.8038 27.9644 31.6665 27.9081 31.6665 27.9081L30.2411 28.3739L29.8017 29.1201L28.835 29.0893C28.835 29.0893 28.3079 27.8303 27.825 27.321L25.8658 27.5559C25.8658 27.5559 25.8145 27.3405 25.8145 27.2753C25.8145 27.2104 25.72 27.0768 25.6417 27.0195C25.5632 26.9621 25.4358 26.7482 25.4026 26.6602C25.3695 26.5727 25.1393 26.416 24.9909 26.2594C24.8424 26.1027 24.8838 26.0377 24.8634 25.8851C24.8424 25.7322 24.9456 25.7015 25.061 25.5986C25.1763 25.4957 24.8423 25.27 24.8423 25.27L25.3077 25.0908L25.7736 24.7888V23.9714L26.4857 24.0978L26.515 23.6965L26.165 23.3489L26.42 22.7302L26.9887 22.6421L27.178 22.2603L27.6643 22.3519L27.9359 21.9322L28.1998 21.8022L28.4797 22.2224L29.1554 22.4783L29.1759 22.7113L29.9377 22.8183L30.8773 22.5582L31.2641 22.9252H31.9729L32.5326 23.5245C32.5326 23.5245 32.5454 23.0168 32.7558 22.9707C32.9656 22.9252 33.1057 22.8791 33.1797 22.9401C33.2537 23.0015 33.7152 23.196 33.9211 23.2231C33.9211 23.2231 34.2727 24.2795 34.3908 24.5314C34.4303 24.6158 34.4735 24.6824 34.5203 24.73Z" fill="#E3E3E3"/>
<path d="M28.3845 19.6897L28.4795 19.037L28.1378 18.8303L28.3189 18.5595L27.4289 18.0001L26.8648 18.1546L26.3745 17.4401L26.6423 16.9554L25.8557 16.7799L25.6127 16.0843L25.0275 15.6722L24.0018 16.1723L23.0584 15.6528H22.3993L21.3328 15.9609L21.6126 16.8485L20.7597 16.9857L20.859 17.5779L20.2617 18.0974L20.5086 18.6932L20.1999 19.4609L20.0834 19.4574C20.0708 19.4983 20.053 19.5388 20.0492 19.5807C20.0426 19.6437 20.0349 19.6963 20.0001 19.7516C19.962 19.8121 19.9411 19.8678 19.9272 19.937C19.9162 19.9907 19.8996 20.0792 19.829 20.0931C19.7219 20.1141 19.7435 19.939 19.7606 19.8888C19.8064 19.7568 19.8163 19.6069 19.8168 19.4686C19.8168 19.462 19.8168 19.4553 19.8163 19.4487L19.479 19.4379L18.9805 20.4498L19.3675 21.7831L19.0009 22.1685L18.7829 21.9356L18.4986 22.0809C18.4986 22.0809 18.6139 22.5851 18.6057 22.5964C18.5974 22.6077 18.2557 22.7566 18.2557 22.7566L18.4572 23.3069L18.2899 23.8745C18.3032 23.8797 18.3805 23.9892 18.6085 23.9892C18.8365 23.9892 18.9187 23.9386 18.979 23.9995C19.0397 24.0609 19.0452 24.2108 19.2014 24.1264C19.3582 24.0425 19.3168 23.9995 19.4653 24.0148C19.6138 24.0301 19.6657 24.0347 19.6657 24.0347C19.6657 24.0347 19.6496 24.221 19.7452 24.264C19.8406 24.3071 20.1619 24.4401 20.1763 24.4427C20.1769 24.4427 20.1769 24.4427 20.1769 24.4427C20.1846 24.4427 20.9619 24.4273 20.9619 24.4273C20.9619 24.4273 21.1186 24.1852 21.223 24.2031C21.3268 24.221 21.3765 24.2743 21.4946 24.2923C21.6127 24.3101 21.9285 24.3531 22.008 24.3916C22.0881 24.43 22.2228 24.4729 22.3514 24.4704C22.4806 24.4678 22.7499 24.3993 22.8924 24.4934C23.0353 24.5876 23.0739 24.6413 23.1397 24.6413C23.2053 24.6413 23.244 24.6383 23.2909 24.6971C23.3373 24.756 23.483 25.0942 23.6504 25.0968C23.8182 25.0994 24.1968 24.9924 24.2161 25.0712C24.2354 25.1501 24.3618 25.3717 24.4442 25.3518C24.5264 25.3312 24.8421 25.2698 24.8421 25.2698L25.3076 25.0907L25.7735 24.7887V23.9713L26.4855 24.0977L26.5149 23.6964L26.1648 23.3489L26.4199 22.7301L26.9885 22.6421L27.1778 22.2602L27.6642 22.3519L27.9358 21.9322L27.9893 21.3363L28.3724 20.996L28.1665 20.5799L27.87 20.7021L27.5278 19.6289L27.726 19.4876L28.3845 19.6897ZM25.9633 20.9929C25.9529 21.0281 25.9535 21.0676 25.9479 21.1024C25.9385 21.1561 25.9325 21.1843 25.8872 21.2227C25.8624 21.2437 25.8281 21.2656 25.7989 21.2836C25.7354 21.3225 25.7007 21.3686 25.6819 21.4377C25.662 21.513 25.6361 21.5846 25.6123 21.6567C25.5936 21.714 25.561 21.7662 25.524 21.8148C25.5146 21.8271 25.4169 21.93 25.4063 21.9224C25.3606 21.8886 25.3352 21.8394 25.2706 21.8405C25.2364 21.8405 25.1988 21.843 25.1651 21.839C25.1547 21.7826 25.2126 21.7643 25.2567 21.7413C25.302 21.7177 25.3236 21.689 25.3551 21.6506C25.487 21.4904 25.5764 21.3046 25.6973 21.1367C25.7183 21.108 25.7393 21.0753 25.7597 21.0456C25.7917 20.9985 25.8325 20.9581 25.8635 20.9105C25.8894 20.8695 25.933 20.8557 25.986 20.8639C25.9915 20.9083 25.9755 20.9498 25.9633 20.9929Z" fill="#E3E3E3"/>
<path d="M20.8593 17.5778L20.262 18.0974L20.5088 18.6932L20.2001 19.4608L20.0837 19.4573C20.0886 19.443 20.0925 19.4286 20.0953 19.4137C20.1002 19.3856 20.1007 19.3565 20.0902 19.3272C20.0792 19.297 20.0671 19.2725 20.0676 19.2402C20.0681 19.1896 20.082 19.1399 20.0809 19.0893C20.0798 19.0534 20.0671 19.0069 20.0191 19.038C19.9948 19.0539 19.9816 19.0851 19.9577 19.1035C19.9142 19.1374 19.8612 19.1732 19.8419 19.2254C19.8242 19.2735 19.8214 19.3293 19.817 19.3805C19.8154 19.4025 19.8165 19.426 19.8165 19.4486L19.4792 19.4378L18.9807 20.4496L19.3677 21.783L19.0012 22.1684L18.7831 21.9355L18.4988 22.0808C18.4988 22.0808 18.6141 22.585 18.6059 22.5962C18.5976 22.6076 18.2559 22.7564 18.2559 22.7564L18.4574 23.3067L18.2901 23.8744C18.2764 23.8692 18.0429 23.9077 17.8619 23.9307C17.6808 23.9537 17.2165 24.31 17.2165 24.31L16.6425 24.2004L16.5878 24.0249L16.6943 23.8693L16.4669 23.7193L16.1649 23.8161H16.1644L15.9656 23.574L15.7636 23.4671L15.8999 23.2684L15.9286 23.0545L15.7885 22.5657L15.1707 22.5125L14.8285 21.8783L15.2116 21.653L15.121 21.1453L13.9678 20.8664L13.6051 21.0803L13.5146 21.4238L13.2016 21.4007L12.9218 21.63L12.4602 21.565L12.1473 21.7448L11.657 21.2595L11.1834 21.1525L11.0802 20.6336L10.5077 20.3924L9.89387 20.5148L9.65926 19.9957L9.10281 19.7588L9.04918 19.8734L8.90519 19.9L8.5966 19.7321L8.56789 19.2086L8.50996 19.182L8.18042 19.3002L7.78897 18.9874L8.01973 18.6778L7.72333 18.4987L7.50471 18.6282L7.32973 18.4337L7.47156 16.6269L7.19167 16.329L7.43072 16.0005L6.90735 15.1185C6.90735 15.1185 6.98962 14.5452 6.99406 14.5339C6.99791 14.5227 7.58691 14.2893 7.58691 14.2893L7.48807 13.8005L7.75197 13.0138L7.48807 12.5517L7.61399 12.2768L8.09091 12.3838L9.04096 12.1012L9.08239 11.9713L9.11827 11.6022L9.33801 11.3294L9.8238 11.2101L9.92258 10.9122C9.92258 10.9122 10.2908 10.9859 10.3019 10.9834C10.3129 10.9808 10.3157 10.8155 10.3157 10.8155L10.2743 10.6574L10.6481 10.3543L10.2224 9.92646C10.2224 9.92646 9.67042 9.78927 9.63454 9.74577C9.59865 9.70276 9.47495 9.59067 9.49707 9.4735C9.51912 9.35626 9.5738 9.20122 9.74714 9.18077C9.91991 9.16027 10.6641 9.02259 10.6641 9.02259L10.711 8.30496L11.3563 8.19287L11.7559 8.95193L12.0259 9.15047L12.1534 9.16226L12.351 9.03432L13.1067 8.98829L13.4219 9.19862L13.0206 9.81945L13.5941 10.189L13.6217 11.0596L13.5009 12.2692L13.8856 12.4703L14.3686 12.8675L14.4813 13.6286L14.1407 13.7714L14.2975 14.3267L14.6298 14.3851L15.0962 14.2346L15.4202 14.6292L15.7912 14.4235L16.5132 14.6292L16.6479 14.8816L17.8231 15.3627L18.1472 14.9655L18.6579 15.3474L18.8887 15.1564L19.5892 15.3223L19.7184 15.6201C19.7184 15.6201 20.1329 16.1417 20.3361 16.0475C20.5392 15.9533 20.9593 15.7169 20.9593 15.7169L21.333 15.9609L21.6129 16.8485L20.76 16.9857L20.8593 17.5778Z" fill="#E3E3E3"/>
<path d="M29.3862 14.7021L29.6067 15.1165L30.0999 15.1829L29.743 15.5054L29.8273 15.9609L29.3862 15.7458L28.9451 15.9609L29.0293 15.5054L28.6725 15.1829L29.1657 15.1165L29.3862 14.7021Z" fill="#E3E3E3"/>
<path d="M8.34932 8.03073C8.34932 8.15337 8.24206 8.2528 8.10975 8.2528C7.97738 8.2528 7.87012 8.15337 7.87012 8.03073C7.87012 7.90802 7.97738 7.80859 8.10975 7.80859C8.24206 7.80865 8.34932 7.90808 8.34932 8.03073Z" fill="#E3E3E3"/>
<path d="M10.2675 25.525C10.2675 25.6477 10.1602 25.7471 10.0279 25.7471C9.89553 25.7471 9.78827 25.6477 9.78827 25.525C9.78827 25.4022 9.89553 25.3027 10.0279 25.3027C10.1602 25.3027 10.2675 25.4021 10.2675 25.525Z" fill="#E3E3E3"/>
<path d="M37.5908 8.64741C37.5908 8.77015 37.4836 8.8696 37.3513 8.8696C37.2189 8.8696 37.1116 8.77015 37.1116 8.64741C37.1116 8.52474 37.2189 8.42529 37.3513 8.42529C37.4836 8.42529 37.5908 8.52474 37.5908 8.64741Z" fill="#E3E3E3"/>
<path d="M26.7085 33.6914C26.7085 33.8141 26.6013 33.9135 26.4688 33.9135C26.3365 33.9135 26.2292 33.8142 26.2292 33.6914C26.2292 33.5687 26.3365 33.4692 26.4688 33.4692C26.6012 33.4692 26.7085 33.5686 26.7085 33.6914Z" fill="#E3E3E3"/>
<path d="M32.4629 25.8882C32.4629 26.0109 32.3556 26.1103 32.2232 26.1103C32.0908 26.1103 31.9836 26.0109 31.9836 25.8882C31.9836 25.7655 32.0909 25.666 32.2232 25.666C32.3555 25.666 32.4629 25.7654 32.4629 25.8882Z" fill="#E3E3E3"/>
</svg>
