<?xml version="1.0" encoding="utf-8"?>
<!-- Generator: Adobe Illustrator 21.0.0, SVG Export Plug-In . SVG Version: 6.00 Build 0)  -->
<svg version="1.1" id="Слой_1" xmlns="http://www.w3.org/2000/svg" xmlns:xlink="http://www.w3.org/1999/xlink" x="0px" y="0px"
	 viewBox="0 0 210 210" style="enable-background:new 0 0 210 210;" xml:space="preserve">
<style type="text/css">
	.st0{fill:#E3E3E3;}
	.st1{fill:#93B1C2;}
	.st2{fill:#BDCCD4;}
	.st3{fill:#FFFFFF;}
	.st4{opacity:0.7;fill:#9EC8FF;enable-background:new    ;}
	.st5{opacity:0.8;}
	.st6{opacity:0.8;fill:#9EC8FF;enable-background:new    ;}
	.st7{fill:#F37168;}
	.st8{fill:#9EC8FF;}
	.st9{fill:#D6E7F0;}
	.st10{fill:#F2F2F2;}
	.st11{opacity:0.5;fill:#BDCCD4;enable-background:new    ;}
	.st12{fill:#D54A41;}
	.st13{fill:#303C60;}
	.st14{fill:#58556E;}
	.st15{fill:#7EC1D6;}
	.st16{fill:#F09959;}
	.st17{fill:#9BD6E8;}
	.st18{fill:#E38540;}
	.st19{fill:#3E6BAB;}
	.st20{fill:#7A4E34;}
	.st21{fill:#63ACC2;}
	.st22{fill:#2E5B9A;}
	.st23{fill:#EDC055;}
	.st24{fill:#F5CE5C;}
	.st25{fill:#FCA96A;}
	.st26{fill:#F2E5DE;}
	.st27{fill:#3A384D;}
</style>
<path class="st0" d="M150.3,79.1c-2.8,0-5.1-1.8-5.1-4c0-2.2,1.5-4,3.4-4c1.9,0,3.4-1.8,3.4-4.1c0-2.2-2.3-4.1-5.1-4.1h-17.3
	c-2.8,0-5.1-1.8-5.1-4.1c0-2.2-2.3-4.1-5.1-4.1h-6.1c-2.8,0-5.1-1.8-5.1-4.1s-2.3-4.1-5.1-4.1H80.4c-2.8,0-5.1,1.8-5.1,4.1
	s-2.3,4.1-5.1,4.1h-8.7c-2.8,0-5.1,1.8-5.1,4.1c0,2.2,2.3,4.1,5.1,4.1h10c2.8,0,5.1,1.8,5.1,4c0,2.2-2.3,4-5.1,4
	c-2.8,0-5.1,1.8-5.1,4c0,2.2-2.3,4-5.1,4c-2.8,0-5.1,1.8-5.1,4.1c0,2.2,2.3,4.1,5.1,4.1h96.4c2.8,0,5.1-1.8,5.1-4.1
	c0-2.2-2.3-4.1-5.1-4.1H150.3z M91.1,58.8c0,2-2.3,3.6-5.1,3.6h-1.5c-2.8,0-5.1-1.6-5.1-3.6c0-2,2.3-3.6,5.1-3.6l1.5,0
	C88.8,55.2,91.1,56.8,91.1,58.8z"/>
<path class="st0" d="M76.5,150.2c-2.7,0-4.9,2.2-4.9,4.8v0.4c0,2.7-2.2,4.8-4.9,4.8h-1.9c-2.7,0-4.9,2.2-4.9,4.8v0.4
	c0,2.7,2.2,4.8,4.9,4.8h60.5c2.7,0,4.9-2.2,4.9-4.8v-0.4c0-2.7,2.2-4.8,4.9-4.8h17.1c2.7,0,4.9-2.2,4.9-4.8v-0.4
	c0-2.7,2.2-4.8,4.9-4.8h9.2c2.7,0,4.9-2.2,4.9-4.8V145c0-2.7-2.2-4.8-4.9-4.8h-4.7c-2.7,0-4.9-2.2-4.9-4.8V135
	c0-2.7-2.2-4.8-4.9-4.8H71.1c-2.7,0-4.9,2.2-4.9,4.8v0.4c0,2.7,2.2,4.8,4.9,4.8h7.7c2.7,0,4.9,2.2,4.9,4.8v0.3
	c0,2.7-2.2,4.8-4.9,4.8H76.5z"/>
<path class="st0" d="M184.1,53.3c0-0.6-0.6-1.1-1.2-1.1s-1.2-0.5-1.2-1.2c0-0.7-0.5-1.2-1.1-1.2s-1.1,0.5-1.1,1.2
	c0,0.7-0.6,1.2-1.2,1.2c-0.7,0-1.2,0.5-1.2,1.1c0,0.6,0.6,1.1,1.2,1.1c0.7,0,1.2,0.5,1.2,1.2c0,0.7,0.5,1.2,1.1,1.2s1.1-0.5,1.1-1.2
	c0-0.7,0.6-1.2,1.2-1.2S184.1,53.9,184.1,53.3z"/>
<path class="st0" d="M45.7,41.2c0.5,0.1,1-0.3,1-0.9c0.1-0.5,0.6-0.9,1.1-0.8c0.5,0.1,1.1-0.3,1.1-0.7c0.1-0.5-0.3-0.9-0.9-1
	c-0.5-0.1-0.9-0.6-0.9-1.1c0.1-0.5-0.3-1-0.8-1.1c-0.5-0.1-1,0.3-1,0.9c-0.1,0.5-0.6,0.9-1.1,0.8c-0.5-0.1-1.1,0.3-1.1,0.7
	c-0.1,0.5,0.3,0.9,0.9,1c0.5,0.1,0.9,0.6,0.9,1.1C44.8,40.6,45.2,41.1,45.7,41.2z"/>
<path class="st0" d="M34,94.8c1.7,0,3-1.3,3-3s-1.4-3-3-3c-1.7,0-3,1.3-3,3S32.3,94.8,34,94.8z"/>
<path class="st1" d="M61.7,66.8h46.1c0-3.1-2.5-5.6-5.7-5.6H67.4C64.2,61.2,61.7,63.7,61.7,66.8z"/>
<path class="st2" d="M121.8,64.1H46.7v99.2h75.1V64.1z"/>
<path class="st3" d="M118.6,68.3H49.9V159h68.7V68.3z"/>
<path class="st4" d="M113.4,88.6H56.3c-0.4,0-0.8-0.4-0.8-0.8v-0.1c0-0.4,0.4-0.8,0.8-0.8h57.1c0.4,0,0.8,0.4,0.8,0.8v0.1
	C114.2,88.2,113.8,88.6,113.4,88.6z"/>
<path class="st4" d="M113.4,91.8H56.3c-0.4,0-0.8-0.4-0.8-0.8v-0.1c0-0.4,0.4-0.8,0.8-0.8h57.1c0.4,0,0.8,0.4,0.8,0.8V91
	C114.2,91.4,113.8,91.8,113.4,91.8z"/>
<path class="st4" d="M101.3,99.3h-45c-0.4,0-0.8-0.4-0.8-0.8s0.4-0.8,0.8-0.8h45c0.4,0,0.8,0.4,0.8,0.8S101.7,99.3,101.3,99.3z"/>
<path class="st4" d="M101.3,102.1h-45c-0.4,0-0.8-0.4-0.8-0.8s0.4-0.8,0.8-0.8h45c0.4,0,0.8,0.4,0.8,0.8S101.7,102.1,101.3,102.1z"
	/>
<path class="st4" d="M101.3,110.4h-45c-0.4,0-0.8-0.4-0.8-0.8s0.4-0.8,0.8-0.8h45c0.4,0,0.8,0.4,0.8,0.8S101.7,110.4,101.3,110.4z"
	/>
<path class="st4" d="M101.3,113.3h-45c-0.4,0-0.8-0.4-0.8-0.8c0-0.4,0.4-0.8,0.8-0.8h45c0.4,0,0.8,0.4,0.8,0.8
	S101.7,113.3,101.3,113.3z"/>
<path class="st4" d="M101.3,123.6h-45c-0.4,0-0.8-0.4-0.8-0.8c0-0.4,0.4-0.8,0.8-0.8h45c0.4,0,0.8,0.4,0.8,0.8
	C102.1,123.3,101.7,123.6,101.3,123.6z"/>
<path class="st4" d="M101.3,126.5h-45c-0.4,0-0.8-0.4-0.8-0.8c0-0.4,0.4-0.8,0.8-0.8h45c0.4,0,0.8,0.4,0.8,0.8
	C102.1,126.1,101.7,126.5,101.3,126.5z"/>
<path class="st4" d="M101.3,133.9h-45c-0.4,0-0.8-0.4-0.8-0.8c0-0.4,0.4-0.8,0.8-0.8h45c0.4,0,0.8,0.4,0.8,0.8
	C102.1,133.5,101.7,133.9,101.3,133.9z"/>
<path class="st4" d="M101.3,136.8h-45c-0.4,0-0.8-0.4-0.8-0.8c0-0.4,0.4-0.8,0.8-0.8h45c0.4,0,0.8,0.4,0.8,0.8
	C102.1,136.4,101.7,136.8,101.3,136.8z"/>
<path class="st4" d="M115.2,151.2h-45c-0.4,0-0.8-0.4-0.8-0.8c0-0.4,0.4-0.8,0.8-0.8h45c0.4,0,0.8,0.4,0.8,0.8
	C116,150.8,115.6,151.2,115.2,151.2z"/>
<path class="st4" d="M115.2,155.2h-45c-0.4,0-0.8-0.4-0.8-0.8s0.4-0.8,0.8-0.8h45c0.4,0,0.8,0.4,0.8,0.8
	C116,154.8,115.6,155.2,115.2,155.2z"/>
<g class="st5">
	<path class="st6" d="M108.9,103.2h-2.6c-1.1,0-2.1-0.9-2.1-2v-2.6c0-1.1,0.9-2,2.1-2h2.6c1.1,0,2.1,0.9,2.1,2v2.6
		C111,102.3,110.1,103.2,108.9,103.2z M106.3,97.7c-0.5,0-0.9,0.4-0.9,0.9v2.6c0,0.5,0.4,0.9,0.9,0.9h2.6c0.5,0,0.9-0.4,0.9-0.9
		v-2.6c0-0.5-0.4-0.9-0.9-0.9H106.3z"/>
</g>
<g class="st5">
	<path class="st6" d="M108.9,114.1h-2.6c-1.1,0-2.1-0.9-2.1-2v-2.6c0-1.1,0.9-2,2.1-2h2.6c1.1,0,2.1,0.9,2.1,2v2.6
		C111,113.2,110.1,114.1,108.9,114.1z M106.3,108.6c-0.5,0-0.9,0.4-0.9,0.9v2.6c0,0.5,0.4,0.9,0.9,0.9h2.6c0.5,0,0.9-0.4,0.9-0.9
		v-2.6c0-0.5-0.4-0.9-0.9-0.9L106.3,108.6L106.3,108.6z"/>
</g>
<path class="st7" d="M107.8,101.7C107.8,101.7,107.8,101.7,107.8,101.7c-0.2,0-0.3-0.1-0.4-0.2l-1.9-2.4c-0.2-0.2-0.1-0.5,0.1-0.7
	c0.2-0.2,0.5-0.1,0.7,0.1l1.5,1.9L112,96c0.2-0.2,0.5-0.2,0.7,0c0.2,0.2,0.2,0.5,0,0.7l-4.6,4.8
	C108.1,101.6,107.9,101.7,107.8,101.7z"/>
<path class="st7" d="M107.8,112.6C107.8,112.6,107.8,112.6,107.8,112.6c-0.2,0-0.3-0.1-0.4-0.2l-1.9-2.4c-0.2-0.2-0.1-0.5,0.1-0.7
	c0.2-0.2,0.5-0.1,0.7,0.1l1.5,1.9l4.2-4.4c0.2-0.2,0.5-0.2,0.7,0c0.2,0.2,0.2,0.5,0,0.7l-4.6,4.8
	C108.1,112.5,107.9,112.6,107.8,112.6z"/>
<path class="st8" d="M108.9,126.9h-2.6c-1.1,0-2-0.9-2-1.9v-2.6c0-1.1,0.9-1.9,2-1.9h2.6c1.1,0,2,0.9,2,1.9v2.6
	C110.9,126.1,110,126.9,108.9,126.9z M106.3,121.5c-0.5,0-1,0.4-1,0.9v2.6c0,0.5,0.4,0.9,1,0.9h2.6c0.5,0,1-0.4,1-0.9v-2.6
	c0-0.5-0.4-0.9-1-0.9H106.3z"/>
<g class="st5">
	<path class="st6" d="M108.9,137.9h-2.6c-1.1,0-2.1-0.9-2.1-2v-2.6c0-1.1,0.9-2,2.1-2h2.6c1.1,0,2.1,0.9,2.1,2v2.6
		C111,137,110.1,137.9,108.9,137.9z M106.3,132.5c-0.5,0-0.9,0.4-0.9,0.9v2.6c0,0.5,0.4,0.9,0.9,0.9h2.6c0.5,0,0.9-0.4,0.9-0.9v-2.6
		c0-0.5-0.4-0.9-0.9-0.9H106.3z"/>
</g>
<path class="st7" d="M107.8,125.5C107.8,125.5,107.8,125.5,107.8,125.5c-0.2,0-0.3-0.1-0.4-0.2l-1.9-2.4c-0.2-0.2-0.1-0.5,0.1-0.7
	c0.2-0.2,0.5-0.1,0.7,0.1l1.5,1.9l4.2-4.4c0.2-0.2,0.5-0.2,0.7,0c0.2,0.2,0.2,0.5,0,0.7l-4.6,4.8
	C108.1,125.4,107.9,125.5,107.8,125.5z"/>
<path class="st7" d="M107.8,136.4C107.8,136.4,107.8,136.4,107.8,136.4c-0.2,0-0.3-0.1-0.4-0.2l-1.9-2.4c-0.2-0.2-0.1-0.5,0.1-0.7
	c0.2-0.2,0.5-0.1,0.7,0.1l1.5,1.9l4.2-4.4c0.2-0.2,0.5-0.2,0.7,0c0.2,0.2,0.2,0.5,0,0.7l-4.6,4.8
	C108.1,136.3,107.9,136.4,107.8,136.4z"/>
<path class="st1" d="M94,70.8H74.5c-4.4,0-8-3.5-8-7.9c0-0.9,0.8-1.7,1.7-1.7h32.2c0.9,0,1.7,0.8,1.7,1.7
	C102.1,67.2,98.5,70.8,94,70.8z"/>
<path class="st9" d="M95.9,68.3H73.7c-3,0-5.4-2.4-5.4-5.3v-0.1c0-0.6,0.5-1.1,1.2-1.1h30.7c0.6,0,1.2,0.5,1.2,1.1V63
	C101.3,65.9,98.9,68.3,95.9,68.3z"/>
<path class="st4" d="M115.4,72.4H53.2v11h62.3V72.4z"/>
<path class="st3" d="M64.7,75.3v5.4h-1.2v-5.4H64.7z"/>
<path class="st3" d="M65.8,80.6v-5.4h1.4l1.1,2c0.3,0.6,0.6,1.2,0.9,1.8h0c-0.1-0.7-0.1-1.4-0.1-2.2v-1.6h1.1v5.4H69l-1.2-2.1
	c-0.3-0.6-0.7-1.3-0.9-1.9l0,0c0,0.7,0,1.5,0,2.3v1.6H65.8L65.8,80.6z"/>
<path class="st3" d="M71.4,79.4c0.3,0.2,0.8,0.3,1.4,0.3c0.6,0,0.9-0.2,0.9-0.6c0-0.3-0.3-0.5-0.9-0.8c-0.9-0.3-1.5-0.8-1.5-1.6
	c0-0.9,0.8-1.6,2.1-1.6c0.6,0,1.1,0.1,1.4,0.3l-0.3,1c-0.2-0.1-0.6-0.3-1.1-0.3s-0.8,0.2-0.8,0.5c0,0.3,0.3,0.5,1,0.8
	c1,0.4,1.4,0.8,1.4,1.6c0,0.9-0.7,1.7-2.2,1.7c-0.6,0-1.2-0.2-1.5-0.3L71.4,79.4z"/>
<path class="st3" d="M77,75.3v3.1c0,0.9,0.4,1.4,1,1.4c0.6,0,1-0.4,1-1.4v-3.1h1.2v3c0,1.7-0.9,2.4-2.3,2.4c-1.4,0-2.2-0.7-2.2-2.5
	v-3L77,75.3L77,75.3z"/>
<path class="st3" d="M81.3,75.3c0.4-0.1,1-0.1,1.6-0.1c0.8,0,1.4,0.1,1.8,0.4c0.3,0.3,0.5,0.6,0.5,1.1c0,0.7-0.5,1.2-1,1.3v0
	c0.4,0.2,0.6,0.5,0.7,1c0.2,0.6,0.3,1.3,0.4,1.5h-1.3c-0.1-0.2-0.2-0.6-0.4-1.2c-0.1-0.7-0.4-0.9-0.9-0.9h-0.4v2.1h-1.2V75.3z
	 M82.5,77.6H83c0.6,0,1-0.3,1-0.8c0-0.5-0.3-0.7-0.9-0.7c-0.3,0-0.5,0-0.6,0L82.5,77.6L82.5,77.6z"/>
<path class="st3" d="M87.4,79.3L87,80.6h-1.3l1.7-5.4H89l1.7,5.4h-1.3L89,79.3H87.4z M88.8,78.3l-0.3-1.1c-0.1-0.3-0.2-0.7-0.3-1h0
	c-0.1,0.3-0.2,0.7-0.3,1l-0.3,1.1H88.8z"/>
<path class="st3" d="M91.4,80.6v-5.4h1.4l1.1,2c0.3,0.6,0.6,1.2,0.9,1.8h0c-0.1-0.7-0.1-1.4-0.1-2.2v-1.6H96v5.4h-1.3l-1.2-2.1
	c-0.3-0.6-0.7-1.3-0.9-1.9l0,0c0,0.7,0,1.5,0,2.3v1.6H91.4L91.4,80.6z"/>
<path class="st3" d="M101.1,80.5c-0.2,0.1-0.7,0.2-1.4,0.2c-1.9,0-2.9-1.2-2.9-2.7c0-1.8,1.3-2.8,3-2.8c0.6,0,1.1,0.1,1.3,0.2
	l-0.3,1c-0.3-0.1-0.6-0.2-1-0.2c-1,0-1.7,0.6-1.7,1.8c0,1.1,0.6,1.8,1.8,1.8c0.4,0,0.8-0.1,1-0.2L101.1,80.5z"/>
<path class="st3" d="M105.1,78.4h-2v1.3h2.2v1h-3.5v-5.4h3.4v1h-2.1v1.1h2L105.1,78.4L105.1,78.4z"/>
<path class="st10" d="M99.3,64.5H84.2c-0.4,0-0.8-0.4-0.8-0.8v-0.2c0-0.4,0.4-0.8,0.8-0.8h15.1c0.4,0,0.8,0.4,0.8,0.8v0.2
	C100.1,64.1,99.7,64.5,99.3,64.5z"/>
<path class="st11" d="M146.9,169.1c-23.1-4.7-42.2-2.6-48.8-2.9c-6.6-0.4-45-0.8-53.1,1.9s5.7,6.4,21.7,4.7s25.9-1.4,51.4,0.4
	C143.5,175,150,169.7,146.9,169.1z"/>
<path class="st12" d="M67.8,101.5c3.5,2.5,10.9,3.5,13.3,3.6c2.4,0.1-1.3,6.5-1.3,6.5s-6.4,0.8-9.4,0
	C67.3,110.9,67.8,101.5,67.8,101.5z"/>
<path class="st13" d="M61.8,165.1c0,1.7,1,2.7,2.6,3.8c1.7,1.2,1.8,1.4-0.6,1.7c-2.3,0.3-2.9-0.7-4.5-1.2c-1.5-0.4-0.6-1.5-0.6-2.5
	c-0.1-1-0.2-2.6-0.2-2.6L61.8,165.1z"/>
<path class="st13" d="M75.3,164.2c0,0,1,1.2,2.4,2.3c1.4,1.2,4.8,1.6,3.2,2c-1.7,0.4-3.5,0.2-5.2,0.4c-1.7,0.2-3.2,0-3.3-0.4
	c-0.1-0.4,0-3.6,0-3.6L75.3,164.2z"/>
<path class="st14" d="M80,90.8c2.1-2,6.1,0.5,6.5,2.2c1,4.4,1.4,8.9,0.2,10.6c-1.2,1.8-11.5,2.9-11.4,2.3c0.1-0.6,0.2-4.5,1.9-6.5
	c1.7-1.9,0.9-3.8,1.3-5.5C78.8,91.9,79.7,91.2,80,90.8z"/>
<path class="st15" d="M75.6,103.6c-0.7,5.1-1.4,14.6-3.5,17c-2.1,2.3-3.3,7.9-3.3,7.9s6.8-3.7,9.6-12.7c0.9-2.8-1.3-9.4-1.8-10.1
	C76.1,105.1,75.6,103.6,75.6,103.6z"/>
<path class="st16" d="M90.4,117.5c-0.4,0.5-1.6,2.9-2.1,2.9c-2,0-2.1,0.8-3.2,1.3c-1.4,0.7-1.1,1.8-1,1.9c0.1,0.1,3-0.4,4-1.1
	c0.8-0.5,1.4-0.8,1.8-1.4c0.4-0.6,2.6-2.2,2.6-2.2L90.4,117.5z"/>
<path class="st17" d="M88.4,102.5c2,1.2,2.3,2.3,4.3,5.6c1.9,3.3,2.3,4.5,3.1,5.7c0.8,1.2,1,2.6-0.6,4.1c-1.6,1.4-2.3,2-3.1,1.8
	c-0.6-0.2-1-1.8-1.8-1.5c-0.8,0.3,0.6-2,1.3-2.7c0.4-0.4,0.6-0.3,0.4-0.5c-0.1-0.2-2.6-1.9-4.6-4.5
	C85.3,107.9,88.4,102.5,88.4,102.5z"/>
<path class="st15" d="M94.6,114.9c-1-0.4-2.2-0.4-3-0.2c0.2,0.2,0.4,0.3,0.4,0.3c0.1,0.2,0,0.1-0.4,0.5c-0.1,0.1-0.3,0.3-0.5,0.5
	c0.7-0.3,1.4-0.7,2-0.8c1.5-0.2,1.6,0.2,2.4,0.7C96.3,116.5,96.2,115.6,94.6,114.9z"/>
<path class="st15" d="M90.4,104.2c-0.5-0.7-1.1-1.2-2-1.8c0,0-3.1,5.4-1,8c0.6,0.8,1.3,1.6,2,2.2C89.4,110.9,89.6,107,90.4,104.2z"
	/>
<path class="st17" d="M80.9,100.7c-2.6,0.6-4.8,1.4-5.3,2.9c-0.3,0.7,1.3,12.8,2.8,14.2c3,2.6,7.9,0.2,7.9,0.2s2.2-5.4,3.1-14.5
	c0.2-0.8-5.1-2.4-5.9-2.6S80.9,100.7,80.9,100.7z"/>
<path class="st16" d="M81.8,164.8c0,0-3.6,4.9-1.5,4.8c2.2-0.2,3.6-2.4,3.6-2.4s0.8,2.5,2.9,2.4c2.2-0.1,0.9-1.4,0-3
	c-0.9-1.4-0.9-3-0.9-3L81.8,164.8z"/>
<path class="st16" d="M82.1,103c-0.9,0-1.6-0.7-1.6-1.6v-6c0-0.9,0.7-1.6,1.6-1.6s1.6,0.7,1.6,1.6v6C83.7,102.3,83,103,82.1,103z"/>
<path class="st18" d="M82.1,93.9c-0.9,0-1.6,0.7-1.6,1.6v2.7c1.1,1.5,2.3,2.4,3.3,3v-5.7C83.7,94.6,83,93.9,82.1,93.9z"/>
<path class="st16" d="M86.2,94.7c0.5,2.1-0.4,4.2-1.9,4.5c-1.6,0.4-3.3-1.1-3.8-3.2c-0.5-2.1,0.4-4.2,1.9-4.5
	C84,91.1,85.7,92.5,86.2,94.7z"/>
<path class="st16" d="M78.7,117c0,0-5.1,3.8-3.5,16.1c1.6,12.4,3.4,12,3.5,17.9c0.1,5.9,2.7,14.2,4.2,15.8c1.5,1.6,5.3-7,5.3-14.6
	c0-4.5,0-6.6,1.1-13.6c1.1-7,0.8-17.2-3.4-21.6C81.7,112.5,78.7,117,78.7,117z"/>
<path class="st18" d="M82.9,144.6c0-2.9-1-9.1-0.8-17.7l-6.5,8.5c1.5,10.1,3,10.1,3.1,15.7c0.1,4.5,1.6,10.3,3,13.6
	c0.9,0.3,1.5,0.7,1.7,1.2c0.2,0.6,0.4,1,0.4,1.1c0,0,0.1,0,0.1-0.1c0.1-0.5-0.3-3.2-0.7-7.1C82.5,153,82.9,147.5,82.9,144.6z"/>
<path class="st17" d="M76.4,112.6c0.8,4.9,0.3,5.5-0.8,9.6c-1.2,4.1-1.2,14.8-1.2,14.8s3.2,1.3,9.5,0.8c6.2-0.6,7.1-1.2,7.1-1.2
	s-0.7-10.5-1.6-13.6c-0.9-3.1-2.3-5.2-2.4-7.2C86.9,113.7,76.4,112.6,76.4,112.6z"/>
<path class="st19" d="M80.3,169.5c2.2-0.2,3.6-2.4,3.6-2.4s0.8,2.5,2.9,2.4c1.9-0.1,1.2-1.1,0.4-2.3c-0.1,0.3-0.3,0.5-0.9,0.5
	c-1.3,0-2.5-1.6-2.5-1.6s-2.2,1.7-3.1,1.6c-0.8-0.1,0.4-2.1,0.4-2.1C80.3,167,78.7,169.6,80.3,169.5z"/>
<path class="st16" d="M93.1,140.7c-0.3,2.8,0,5-0.5,7.3c-0.5,2.3-1.6,3.1-1.6,3.1l-1-10.9L93.1,140.7z"/>
<path class="st20" d="M85.9,128.8c-2.1-4.3-2.3-5.7-1.1-6.7c1.2-1,1.4-2.4,3.3-1.9c2,0.5,2.6,1.6,3.6,2c1,0.4,0.8,3-0.4,3.6
	C90,126.5,85.9,128.8,85.9,128.8z"/>
<path class="st21" d="M84.3,166.3c0,0-0.1,1.3,0.3,1.9s0.6,0.9-0.7,0.9c-1.4,0-1.8-0.3-1.9-1.2c-0.1-0.8-0.1-1.1,0.1-1.6
	C82.3,165.9,84.3,166.3,84.3,166.3z"/>
<path class="st21" d="M91.5,166.5c0,0,1.6,1.4,2.5,1.7c0.9,0.3-0.4,1-2,0.7c-1.6-0.3-1.5,0.1-2.3-0.3c-0.8-0.4-0.1-2.4-0.1-2.4
	L91.5,166.5z"/>
<path class="st19" d="M91.7,144.9c0,0,0,10.5,0.1,14.6c0.1,4.1,0.2,6.9,0.1,7.3c0,0.2-1.8-0.1-2.6,0c-0.8,0.1-2.4-9.4-3.1-14.5
	s-1-8.8-1-8.8L91.7,144.9z"/>
<path class="st22" d="M86.3,152.3c0.3,2.4,0.8,5.8,1.4,8.6c0.8-3.3,2.3-9.1,4-12.5c0-2.1,0-3.6,0-3.6l-4-0.9
	c-0.8,0.1-1.5,0.3-2.3,0.4C85.6,145.8,85.9,148.7,86.3,152.3z"/>
<path class="st19" d="M82.6,142.6c-0.3,5.2-0.8,17.1-0.6,19.7c0.2,2.9-0.2,4-0.2,4s0.7,0.3,1.9,0.4c0.7,0.1,0.7,0.1,0.7,0.1
	s2.9-7.6,3.5-12.8c0.6-5.2,2.1-9.3,2.1-9.3L82.6,142.6z"/>
<path class="st23" d="M91,131.7c2.5,3.3,2.7,9.7,2.7,9.7s-1,0.8-2,0.4C90.7,141.3,91,131.7,91,131.7z"/>
<path class="st24" d="M88.3,129.9c2.9,0.7,4.2,4,4.2,6.6c0.1,2.6-0.4,9.8-0.4,10c0,0.3-5.8,0.8-7.9,0.3s-2.1-0.4-2.1-0.4
	s-0.6-10.5,0-13.1c0.6-2.6,4.4-3.8,4.4-3.8L88.3,129.9z"/>
<path class="st23" d="M87.3,137.1c-0.2-1,1.1-1.1,1.7-1c0.6,0.1,0.7,0.7,1,0.8c0.2,0.1,0.6-0.3,0.9-0.1c0.3,0.2,0,0.8-0.4,0.9
	c-0.4,0-0.6-0.3-0.9-0.2c-0.3,0.2-0.2,0.3-0.2,0.3c0,0-1,0.1-1,0.1s-0.4-0.3-0.7-0.2c-0.3,0-0.2,0.3-0.2,0.3s-0.5,0-0.4-0.4
	C87.2,137.2,87.3,137.1,87.3,137.1z"/>
<path class="st23" d="M89.5,137.7c0.3-0.3,0.6,0,0.7,0.1c0.1,0.1-0.2,0.3-0.5,0.3C89.4,138.1,89.5,137.7,89.5,137.7z"/>
<path class="st23" d="M87.6,137.9c0-0.2,0.4-0.2,0.6,0c0.1,0.2-0.3,0.4-0.5,0.3C87.6,138.2,87.6,137.9,87.6,137.9z"/>
<path class="st23" d="M86.8,138.1c0-0.1-1.3-0.6-1.1-1.1c0.1-0.5,1,0.5,1,0.5s-0.6-1.2-0.3-1.3c0.3-0.1,0.4,0.8,0.4,1
	C86.8,137.6,86.8,138.1,86.8,138.1z"/>
<path class="st23" d="M90.2,136.1c0,0,0.1-1,0.4-0.8c0.4,0.2-0.2,0.8-0.2,0.8s0.7-0.6,0.9-0.3c0.2,0.3-1.1,0.4-1.1,0.4L90.2,136.1
	L90.2,136.1z"/>
<path class="st23" d="M84.6,142.6c0.3-3.2,1-7.7-1-10.9l-0.5-0.1c-0.4,0.5-0.8,1-0.9,1.7c-0.6,2.6,0,13.1,0,13.1s0,0,2.1,0.4
	c0.1,0,0.2,0,0.3,0.1C84.5,146,84.4,144.5,84.6,142.6z"/>
<path class="st16" d="M87.4,131.7c-0.9,0-1.6-0.7-1.6-1.5v-2.8c0-0.8,0.7-1.5,1.6-1.5c0.9,0,1.6,0.7,1.6,1.5v2.8
	C89.2,131.7,88.5,131.8,87.4,131.7z"/>
<path class="st18" d="M89,130.3v-3.7c0-0.4-0.3-0.8-0.8-0.8h-1.6c-0.4,0-0.8,0.3-0.8,0.8v2.4C87.1,130.1,88.3,130.3,89,130.3z"/>
<path class="st25" d="M91.5,125.4c0.3,2-0.8,3.8-2.3,4.1c-1.6,0.2-3.1-1.3-3.4-3.3c-0.3-2,0.8-3.8,2.3-4.1
	C89.7,121.9,91.2,123.4,91.5,125.4z"/>
<path class="st25" d="M83,131.7c-2.9,1.3-3.1,10.4-3.3,11.8c-0.1,1.4,0.6,6.1,1,7.4c0.4,1.3,1.5,2.3,1.5,0.7
	c0.1-1.6-0.4-2.4-0.4-2.4s0.6,1.2,0.8,0.6s-0.8-1.6-0.8-2.1s0.8-3.9,0.8-5c0-1.1,1.6-4.5,1.6-7.4C84.2,132.4,83,131.7,83,131.7z"/>
<path class="st24" d="M84,130.9c-2.6,1-3.4,4.1-4.2,7c-0.8,2.9-0.8,2.9-0.8,2.9s4.3,1.5,4.5,1.3c0.3-0.2,1.2-5.4,1.2-7.5
	C84.5,132.3,84,130.9,84,130.9z"/>
<path class="st25" d="M86.4,126.2c0.2,0.5,0.1,1-0.3,1.1c-0.3,0.1-0.8-0.2-1-0.7c-0.2-0.5-0.1-1,0.3-1.1
	C85.8,125.4,86.2,125.7,86.4,126.2z"/>
<path class="st20" d="M85.5,125.1c0,0,0.8,2.4,1,1.5c0.2-0.9-0.1-1.3,0.5-1.5c0.6-0.3-0.2-1.9,0.7-1.8c0.9,0.2,1.6,1.2,2.9,0.9
	c1.3-0.2,1.9-0.5,1.3-1.3c-0.5-0.7-5-1.4-5-1.4l-1.9,2.1L85.5,125.1z"/>
<path class="st22" d="M89.7,168.9c0.8,0.4,0.7-0.1,2.3,0.3c1.6,0.3,3.1-0.5,2.2-0.8c0,0,0,0-0.1,0c-0.3,0.2-0.6,0.4-0.7,0.5
	c-0.2,0.2-0.8,0-1.5-0.1c-0.8-0.1-0.6,0.1-0.8-0.1c-0.2-0.2-0.9-0.7-1.8-0.7C89.2,168.3,89.3,168.7,89.7,168.9z"/>
<path class="st22" d="M81.9,166.8c0.7,1.4,0.4,1.6,0.9,1.7c0.6,0.1,0.8-0.3,1.4-0.1c0.6,0.2,0.5,0.2,0.7,0.4
	c0.1,0.2,0.1,0.4-0.2,0.4c-0.3,0.1-1.6,0.1-2.1,0c-0.5-0.1-0.9-1-0.8-1.4C81.8,167.5,81.9,166.8,81.9,166.8z"/>
<path class="st14" d="M65.2,97.4c-1-1.4-2-5.2-1.1-5.6c0.9-0.4,0.7-1,1.6-2.1c0.9-1.1,4.5-1.6,5.6,0.3c1.1,1.9,1.5,2.1,1.6,3.1
	c0,1-2.5,3.6-2.5,3.6L65.2,97.4z"/>
<path class="st16" d="M89,119.7c-0.3,0.4-0.6,0.8-0.8,0.8c-2,0-2.1,0.8-3.2,1.3c-1.4,0.7-1.1,1.8-1,1.9c0.1,0.1,3-0.4,4-1.1
	c0.8-0.5,1.4-0.8,1.8-1.4c0.1-0.1,0.2-0.3,0.4-0.4C89.8,120.5,89.4,120.1,89,119.7z"/>
<path class="st16" d="M65.8,92.5c0,0-0.6,7.7-2.1,8.6c-1.4,0.8-4.1,4-3.7,10.8c0.4,6.8,0.9,9.7,1.4,12.3c0.5,2.6,10.1,1,11.1,0
	c1-1,2.2-10.4,0-15.1c-2.2-4.7-4.6-7.4-4.9-8.6c-0.3-1.2,1.4-5.9,1.4-5.9L65.8,92.5z"/>
<path class="st18" d="M67.7,100.2c0-1.5,1.4-5.6,1.4-5.6l-3.3-2.1c0,0-0.1,1.7-0.4,3.6C65.8,98.7,66.7,99.7,67.7,100.2z"/>
<path class="st16" d="M71.9,94.7c0.3,2.3-0.5,4.1-2.1,4.3c-1.7,0.2-3.6-1.2-3.9-3.5c-0.3-2.3,0.8-4.3,2.4-4.5
	C70,90.8,71.6,92.4,71.9,94.7z"/>
<path class="st16" d="M90.2,103.4c1,0.6,1.7,2.1,1.3,3.3c-0.4,1.2-1-0.3-1.7-1.2S89.5,103,90.2,103.4z"/>
<path class="st19" d="M72.8,119.7c-0.7,7.9,1.6,25.9,1.6,29.9c0,4.1,1.7,15.2,1.7,15.2s-2.7,0.8-3.7,0.8c-1.1,0.1-4.1-10.1-4.6-15.4
	s-3.3-14.9-3.3-14.9l1-16.4L72.8,119.7z"/>
<path class="st22" d="M72.8,119.7l-7.4-0.8l-1,16.4c0,0,2.9,9.5,3.3,14.9c0,0.1,0,0.1,0,0.2c0.1-8.3,2.5-11.9,5.1-20.7
	C72.6,125.9,72.5,122.3,72.8,119.7z"/>
<path class="st19" d="M72.5,122.3c-3.5,11.5-6.6,22.4-8.7,29.5c-2.1,7.2-1.5,14.5-1.5,14.5l-3.6,0.3c0,0-4-11.8-1.3-18.2
	c2.7-6.4,1.4-10.3,1.9-16.2c0.6-6.7,1.5-11.7,1.5-11.7L72.5,122.3z"/>
<path class="st7" d="M72.6,109.1c-1.2-2.6-2.4-4.5-3.4-6c-0.4-0.1-0.9-0.1-1.5-0.1c-1,0-2.7-1.3-3.7-2.1c-0.1,0.1-0.1,0.1-0.2,0.2
	c-1.4,0.8-4.1,4-3.7,10.8c0.4,6.8-1.1,9.1-0.6,11.7c0.5,2.6,12.1,1.6,13.1,0.6C73.7,123.2,74.8,113.9,72.6,109.1z"/>
<path class="st7" d="M63.6,99.5l-1,2.7l6.6,2.6l0.8-0.6c0,0-1-1.5-0.8-2.3c0.3-0.9,0.6-1.1,0-1.3c-0.6-0.2-2.5-0.5-3.8-1
	C64.2,99,63.8,98.9,63.6,99.5z"/>
<path class="st12" d="M73.8,114.6c-0.1-2-0.5-4-1.2-5.5c-0.3-0.6-0.5-1.1-0.8-1.6l-0.8-0.4c0,0-4.6-3.6-7.6-2.9
	c-3,0.7-3.1,11.7-1.4,12.9c1.7,1.2,6.9-1.9,8.5-2.1C71.6,114.8,73,114.7,73.8,114.6z"/>
<path class="st7" d="M85.5,110.1c-1.9,0-3.8-0.2-5.4-0.6c-4.8-1.4-13.8-5.1-15.6-4.8c-1.4,0.2-3,1.7-2.8,6.3s2.6,3.7,5.7,2.9
	c3-0.8,7.1-0.3,12.7,0c1.9,0.1,4-0.2,5.9-0.6C85.9,112.2,85.7,111.1,85.5,110.1z"/>
<path class="st16" d="M92.4,110.4c-0.3-0.2-3.1,0-5.7-0.1c0.2,0.9,0.6,2.4,0.7,3.3c2.8-0.8,5.1-0.9,5.1-0.9S93,110.7,92.4,110.4z"/>
<path class="st7" d="M84.1,109.9c1.7,0,4.5-0.2,4.9,0.1c0.4,0.3,1.1,3.2-0.3,3.6c-5,1.4-10.5,0.4-17.2-0.1s7.5-4.4,7.5-4.4
	S82.7,109.9,84.1,109.9z"/>
<path class="st14" d="M65.2,97.4c1.1-0.5,0.6-1.6,0.7-2.3c0.1-0.7-0.2-1.3,0.1-1.2c0.3,0,0.2,2.7,0.6,2.7c0.3,0,0.2-2,0.6-2.1
	c0.4-0.1,0.5-0.6,0.2-1.4c-0.3-0.9-0.1-1.7,0.7-1c0.8,0.7,2.5,2.3,3.4,2.1c1-0.2,0.9-1.2,0.8-1.3c-0.1-0.1-2.6-2.9-2.6-2.9l-5,2.8
	l-0.1,2.6L65.2,97.4z"/>
<path class="st16" d="M66.1,94.4c0.1,0.7,0.1,1.7,0.2,1.8c-0.4,0.2-1-0.2-1.3-0.8c-0.3-0.6-0.2-1.4,0.2-1.6
	C65.4,93.7,66,93.6,66.1,94.4z"/>
<path class="st14" d="M86,92.9c-0.7,2.3-4.7,2.3-4.9,2.9c-0.2,0.6-0.1,2.6-0.6,4.2c-0.9,2.5-1.5,3.8-2.8,4.2
	c-1.3,0.4-1.8-1.7-1.8-1.7s2.3-3,2.4-3.1c0.1-0.1,1.3-7.7,1.3-7.7s3.1-0.6,3.3-0.6c0.2-0.1,2.4,0.9,2.4,0.9L86,92.9z"/>
<path class="st16" d="M89.5,110.5c0.5,0,3-1.4,3.5-1.4c0.5,0,2.4,0.5,2.4,0.5s-3.6,2.8-3.7,2.7C91.6,112.3,89.5,110.5,89.5,110.5z"
	/>
<path class="st18" d="M100.1,112.9l-2.8-0.3c0,0-1.5,1.3-2.8,1.6c-1.3,0.3-2.4-1.1-2.4-1.1l2.1-2.4l3.7-0.4l2.8,0.3L100.1,112.9z"/>
<path class="st16" d="M90.9,112.6c0,0,1.7,1.3,3.1,1.5c1.4,0.2,2.2-0.5,2.8-1c0.5-0.5-1.1-0.9-1.7-1.5c-0.6-0.6-0.2-1.5-0.2-1.5
	h-2.5L90.9,112.6z"/>
<path class="st18" d="M100.1,110.3l-2.8-0.3c0,0-1.2-1-1.7-0.9c-0.6,0.1-2.1,1.2-2.1,1.2s-1.3,1.2-0.8,1.3c0.4,0.1,1.7-0.2,1.9-0.5
	c0.2-0.3-0.3,0.1,1.1,0c1.4-0.1,1.6-0.3,1.6-0.3l2.8,0.2L100.1,110.3L100.1,110.3z"/>
<path class="st18" d="M91.8,113.3c0.4-0.6,0.9-0.9,1.8-0.4c0.9,0.5,1.2,1.2,1,1.4c-0.2,0.2-1.9-0.3-2.5-0.5
	C91.5,113.6,91.8,113.3,91.8,113.3z"/>
<path class="st14" d="M126.3,96.6c0.5-1.8,1.8-6.1-0.3-7.1c-2.1-0.9-3.2-2.3-5.3-1.6c-2.1,0.7-1.7,2.3-2.4,3.2
	c-0.8,0.9,0.5,3.8,1.7,4.8C121.2,97,126.3,96.6,126.3,96.6z"/>
<path class="st26" d="M100.1,110.1l-1.8-0.1l-0.8,3.4l3,0.6L100.1,110.1z"/>
<path class="st14" d="M128.3,103.5c2.8,3.8,1.1,6.8-2.4,9.3c-3.5,2.5-11.7,3.3-15.1,3.4c-3.5,0.2-12.1-2.5-12.1-2.5l0.5-3.7
	c0,0,8.2,0.8,11.4,0.2c3.2-0.5,14.4-6.7,14.4-6.7L128.3,103.5L128.3,103.5z"/>
<path class="st27" d="M121.8,105.2c-1,0.5-2.1,1.1-3.3,1.7c-1.1,2.9-1.5,5.9-7,7.9c-1.3,0.5-2.5,0.8-3.7,1c1.2,0.2,2.2,0.4,3,0.3
	c2.5-0.1,8.1,0.2,12-1C122.7,112.3,121.9,107.7,121.8,105.2z"/>
<path class="st16" d="M125,93l2.1,6.7l-4.4,5.3l1.3-4.5l-1.3-4.6L125,93z"/>
<path class="st18" d="M125,93l-2.2,2.9l1.3,4.6c0.8-1.3,1.5-3,1.8-4.7L125,93z"/>
<path class="st16" d="M125.1,95.7c-0.7,2.2-2.7,3.6-4.4,3.1c-1.7-0.5-2.5-2.8-1.7-5c0.7-2.2,2.7-3.6,4.4-3.1
	C125.1,91.2,125.8,93.5,125.1,95.7z"/>
<path class="st7" d="M123,102.5c0,0-1.3,0.8-1.3,1.3c0,0.6,0,0.9,0,0.9s-1.1,1.7-2,3.8c-0.9,2.1-0.8,3.2-0.8,3.2l5.4-8.1L123,102.5z
	"/>
<path class="st27" d="M130.7,166.3c0,1.7-1.9,2.9-2.8,3.3c-2.8,1.4-3.3,2.3-0.2,2.2c2.3,0,3.9-0.9,6.5-1.1c1.6-0.1,0.4-1.8,0.5-2.9
	c0.1-1-0.6-2.4-0.6-2.4L130.7,166.3z"/>
<path class="st27" d="M117.2,165.4c0,0-0.6,0.8-1.9,1.9c-1.4,1.2-6.2,1.2-3.6,2.4c1.6,0.7,4.4,0.2,6.1,0.4c1.7,0.2,3.2,0,3.3-0.4
	c0.1-0.4-0.4-3.5-0.4-3.5L117.2,165.4z"/>
<path class="st14" d="M119.7,120.9c0.7,7.9-1.6,25.9-1.6,29.9c0,4.1-2.4,15.9-2.4,15.9s4.5,1.8,5.6,1.9c1.1,0.1,3.3-10.3,3.7-15.7
	c0.5-5.4,3-16.4,3-16.4l-1-16.4L119.7,120.9z"/>
<path class="st27" d="M124.5,157.5c0.3-1.7,0.5-3.3,0.6-4.6c0.5-5.4,3-16.4,3-16.4l-0.3-5.5l-8.1-0.1c-0.2,2.9-0.4,6-0.7,8.8
	C122.1,146.4,123.7,153.4,124.5,157.5z"/>
<path class="st14" d="M120,123.5c3.1,16.7,5.4,23.3,7.6,30.5c2.1,7.2,1.6,14.5,1.6,14.5l5.9,0.7c0,0,2.3-13,0-19.6
	c-1.4-4-0.5-9.5-1-15.5c-0.6-6.7-1.1-13.6-1.1-13.6L120,123.5z"/>
<path class="st27" d="M132.2,129.4l-10.1,4.3c0,0.2,0,1.2,0,1.4c5,0.4,8.1-0.1,12.2,0.9c-0.1-1.2-0.3-3.9-0.4-5.1L132.2,129.4z"/>
<path class="st14" d="M127.9,100.3c4.2,3.9,5.8,8.1,5.6,10.4c-0.3,4.6,0.6,22.4,0.6,22.4s-2.5,0.6-6.6,1.3c-4.2,0.7-8.2-0.3-8.2-0.3
	s-0.7-12.7-0.7-20.7C118.6,108.5,127.9,100.3,127.9,100.3z"/>
<path class="st27" d="M132,133.5c0.1-2.1,0.9-16.9,0.8-17.1c-0.1-0.3-5-11.4-5-11.4c-2.6,3.5-2.8,10.7-2.7,14.6
	c0,3.5,1.1,13.1,1.3,14.9c0.4,0,0.7-0.1,1.1-0.2C129.3,134,130.9,133.7,132,133.5z"/>
<path class="st26" d="M127.6,99.3l-0.8-1.6l-4,3.1l-0.2,4.3L127.6,99.3z"/>
<path class="st27" d="M126.9,102.8c0,0,1.6-0.7,3.1-0.2c-0.6-0.7-1.2-1.5-2.1-2.3c0,0-9.2,8.2-9.3,13c0,1.2,0,2.4,0.1,3.6
	c0-2.4-0.3-4.2,2.1-7.4c2.2-2.8,6.7-5.1,6.7-5.1L126.9,102.8z"/>
<path class="st14" d="M127.6,98.9l1.2,2.2l-2.9,2l0.8,1.3c0,0-3.5,2.2-4.9,3.3c-2.4,1.9-3.3,6.2-3.3,6.2s0.3-4.4,3.3-8
	C124.4,102.5,127.6,98.9,127.6,98.9z"/>
<path class="st2" d="M123.6,133.3l12.3,1.5l-0.8,8l-11.7-1.2L123.6,133.3z"/>
<path class="st16" d="M130.7,128.1l-1.2,4.5l-1.9,1.2l1.5,0.2c0,0-0.3,2.7-0.8,3.9c-0.5,1.2,0,1.6,2.1,0.2c2.1-1.4,2.7-2.1,2.5-3.7
	c-0.1-1.6-0.5-1.8-0.3-3.2c0.2-1.4-2-3.3-2-3.3L130.7,128.1z"/>
<path class="st26" d="M129.4,130.4l-0.4,2.3l4.1,0.6l0.7-2.9H129.4z"/>
<path class="st14" d="M130.5,103.5c1.5,0.6,3.5,6.1,6.3,15.8c0.7,2.4-3.1,13-3.1,13s-4.9-0.3-4.9-1.1c0-0.4,2.1-8.9,1.9-9.7
	c-0.3-0.8-2-3.3-3.4-8.8S127.7,102.4,130.5,103.5z"/>
<path class="st14" d="M119.1,90.4c-1.5,3.7,1.8,3.3,3.2,2.2c1.4-1.2,1.6-0.2,1.5,1.2c0,1.3,0.5,0.3,0.4,1.8c-0.1,1.4-0.2,1.5,0.3,1
	c0.5-0.5,0.6-2.3,0.6-2.3s-0.1,2.4,0.6,2.5c0.7,0.2,0.6-0.2,0.6-0.2l0.2-4l-3-3.3c0,0-3.9,0-3.9,0.1
	C119.4,89.6,119.1,90.4,119.1,90.4z"/>
<path class="st16" d="M125.1,94.3c0.5-1,1.5-0.5,1.2,0.7c-0.3,1.2-1.4,1.3-1.4,1.3L125.1,94.3z"/>
<path class="st1" d="M42.6,58.8c6.2,0,14.4-2.3,16.9-3c0.4-0.1,0.8,0.1,0.8,0.5v16.9c0,13.1-17.4,23.7-17.4,23.7
	S25.5,86.3,25.5,73.2V57.1c0-0.3,0.4-0.6,0.7-0.5C28.6,57.1,36.4,58.8,42.6,58.8z"/>
<path class="st4" d="M42.9,61.6c4.7,0,10.4-1.5,13.3-2.7c0.9-0.4,1.8,0.2,1.8,1.1v13.6c0,11.4-15.2,20.7-15.2,20.7
	S27.7,85,27.7,73.6v-13c0-0.8,0.9-1.4,1.8-1.1C32.3,60.4,38.2,61.6,42.9,61.6z"/>
<path class="st9" d="M43,65.3v25.4c0,0-12.1-7.6-12.1-16.5V63.9c0-0.6,0.7-1,1.3-0.8C34.5,63.8,39.3,65.3,43,65.3z"/>
<path class="st9" d="M43,65.3v25.4c0,0,12.5-7.6,12.5-16.5V63.8c0-0.6-0.7-1-1.3-0.8C51.9,63.8,46.8,65.3,43,65.3z"/>
</svg>
