<?xml version="1.0" encoding="utf-8"?>
<!-- Generator: Adobe Illustrator 21.0.0, SVG Export Plug-In . SVG Version: 6.00 Build 0)  -->
<svg version="1.1" id="Слой_1" xmlns="http://www.w3.org/2000/svg" xmlns:xlink="http://www.w3.org/1999/xlink" x="0px" y="0px"
	 viewBox="0 0 210 210" style="enable-background:new 0 0 210 210;" xml:space="preserve">
<style type="text/css">
	.st0{fill:#E3E3E3;}
	.st1{fill:#669FE8;}
	.st2{fill:#FFFFFF;}
	.st3{fill:#004A6E;}
	.st4{fill:#878787;}
	.st5{fill:#707070;}
	.st6{fill:#282828;}
	.st7{fill:#525252;}
	.st8{fill:#FDB171;}
	.st9{fill:#FEFBFD;}
	.st10{fill:#EDF2F5;}
	.st11{fill:#B4D1D7;}
	.st12{fill:#003B5E;}
	.st13{fill:#1E2020;}
	.st14{fill:#8EC4F5;}
	.st15{fill:#D8E9ED;}
	.st16{fill:#363636;}
	.st17{fill:#713C1F;}
	.st18{fill:#6E0000;}
	.st19{fill:#5E0000;}
	.st20{fill:#C90E00;}
	.st21{fill:#F09F5B;}
	.st22{fill:#ABABAB;}
</style>
<path class="st0" d="M196.6,166.1c0,0,17.1-23.9,6.8-46.6c-10.3-22.7-29.8-17.3-57.1-40.4c-33.2-28-56.6-29.6-86.2-17.3
	c-16.8,6.9-19.5,35.4-46.2,53.1c-24.1,16-4.4,43.1,8.2,47.3c12.7,4.2,21.2,4.2,21.2,4.2L196.6,166.1z"/>
<path class="st1" d="M109.1,97.7H94v2.8h15.1V97.7z"/>
<path class="st2" d="M107.8,98.2h-0.6v1.9h0.6V98.2z"/>
<path class="st2" d="M106.5,98.2h-0.6v1.9h0.6V98.2z"/>
<path class="st2" d="M95.8,98.2h-0.6v1.9h0.6V98.2z"/>
<path class="st3" d="M109.1,100.5H93v3h16.1V100.5z"/>
<path class="st2" d="M107.7,101H107v2h0.7V101z"/>
<path class="st2" d="M106.3,101h-0.7v2h0.7V101z"/>
<path class="st2" d="M94.9,101h-0.7v2h0.7V101z"/>
<path class="st4" d="M108,106.2H84.8v9.2H108V106.2z"/>
<path class="st5" d="M108,115.4H93v18.1H108V115.4z"/>
<path class="st6" d="M110.7,103.4H78.1v2.8h32.6V103.4z"/>
<path class="st7" d="M110.7,106.2h-3.3v48.1h3.3V106.2z"/>
<path class="st8" d="M92.2,94.3c0,0,2.6-1.3,4.4-2.4c1.8-1.1-2.3-4.2-2.3-4.2l-4.9,4.7L92.2,94.3z"/>
<path class="st3" d="M94.1,90.4l-7.2-1l6.3-11.4l5.8,2.8L94.1,90.4z"/>
<path class="st3" d="M99.7,93.3l-5.6-2.8l4.9-9.5l6.9,0.3L99.7,93.3z"/>
<path class="st9" d="M94.7,89.2l-5.5-1L94.7,78l4.3,2.9L94.7,89.2z"/>
<path class="st10" d="M99,91.4l-4.3-2.1l4.3-8.3l5.5-0.3L99,91.4z"/>
<path class="st6" d="M44.4,124.1c0,0-8-41.4-4.1-42.3c3.9-0.9,11.1,1.9,14.7,39L44.4,124.1z"/>
<path class="st6" d="M45.1,121.8L55,120c0,0,19.9,0,19.7,3.8l-29.6,0.9V121.8z"/>
<path class="st6" d="M44.4,126.4l-4.3,28.3H41l7-28.3H44.4z"/>
<path class="st6" d="M52.7,126.4L49,150.5h0.7l6-24.1H52.7z"/>
<path class="st6" d="M72.3,124.5l3.7,26.1h-0.7l-6-26.1H72.3z"/>
<path class="st11" d="M71.9,91c0.4,0.3,4.9,5.5,6.7,6.3c0.8,0.4,8.6-5.2,10.9-6.4l3.4,3.9c-1.1,1.2-14.5,10.8-15.8,10.1
	c-6.3-3.4-6.8-4.7-12.2-8.8c-5.4-4.1-8.3-6.5-5.7-9.2C65.3,80.8,71.4,90.7,71.9,91z"/>
<path class="st12" d="M73.6,145.9c-0.7,0.6-2.7,1.3-3.7,1c-1-0.2-2.3-1.3-2.6-0.7c-0.3,0.7-0.8,2.5-0.5,3.5c0,0-0.3,0.2-0.1,0.7
	c0.2,0.5,1.5,0.7,3.3,0.7c1.8,0,7.1,0.5,8.6,0.2c1.5-0.4,2.8-0.9,3.1-1.5c0.2-0.6,0.7-1.9-0.6-1.8c-1.3,0.2-2.9,0.1-3.5-0.3
	c-0.7-0.4-2.1-1-2.7-1.5C74.1,145.9,73.9,145.7,73.6,145.9z"/>
<path class="st5" d="M64.8,121.3c0,0,10.2-0.6,10.2,0.9l-8,24.4c2.3,3.6,8.1,1.2,8.1,1.2s8.3-30.6,8.2-31.2c-0.2-2-6-3.1-12.8-3.1
	L64.8,121.3z"/>
<path class="st8" d="M61.7,83c0,0-1.1-2.2-3-4.7c-1.9-2.5-1.6-4.7-0.2-6c1.4-1.3,4.6-3.3,6.9-3.1c2.3,0.2,3.7,3.4,4.6,5.2
	c0.9,1.8,0.5,3.5,0.5,3.5l0.1,2.4c0,0-1.3,1-2.2,2.3c-0.2,0.3-0.1,0.9-0.2,1.2c-0.2,0.3-0.4,0.3-0.5,0.6C67.3,85,68,85.8,68,85.8
	L61.7,83z"/>
<path class="st8" d="M70.5,80.2l0-0.2l-1.8-1.4c-0.4,0.4-1.1,0.5-1.7,0.1l-6.6-5.1c-0.5,2.8,1,5.9,1.1,6.5c0.2,0.6-0.2,2.2-0.8,3.9
	c1.9,0.5,3.8,0.8,5.8,1.1c-0.5-1.2-0.9-3.6,2.1-3.1c2.8,0.4,2.7-0.6,2.5-1.3C70.8,80.4,70.6,80.7,70.5,80.2z"/>
<path class="st8" d="M67.6,70.4c0.4,0.3,2.7,0.9,3.5,2.9c0.4,1.1,0.3,1,0.2,1.4c-0.3,0.6,0.4,1.3,0.8,1.7c0.6,0.6,1.3,0.9,0.4,1.3
	c-0.9,0.5-0.5,0.8-0.2,1c0.2,0.2-0.1,0.5-0.3,0.7c0,0,0.5,0.3,0.2,0.6c-0.3,0.3-0.6,0.3-0.6,0.5c0,0.2,0.4,1.2-0.1,1.5
	c-0.5,0.4-1.8,0.2-2.5,0.2c-0.6,0-1.4,0-2,0.6c-2,1.9-1.6,2.6-1.6,2.6s-1.5,0.2-3.5-1c-0.5-0.3,0.9,0.3,1-0.6c0.2-1.4-5-7.5-2.4-7.8
	c0.1,0,5.5-2.3,5.5-2.3L67.6,70.4z"/>
<path class="st13" d="M56.3,73.7c0.8-2.6,1.9-5.2,5.3-5.5c3.4-0.3,7.1,0.6,7.4-0.7c0,0,1.8,2.7,0.8,4.1c-0.4-0.5-4.2,4.5-4.8,5.3
	c-0.6,0.8-0.3-1.4-1.5-1.2c-1.2,0.2-1.8,2.4-1.3,3.4c0.4,0.7-0.8,2.4-0.8,2.4l0.1,0.7l-2-1.7C59.5,80.4,55.5,76.3,56.3,73.7z"/>
<path class="st13" d="M68.9,82.1c0,0,0.1,0,0.1,0c0.7,0,2.1,0.1,2.5-0.2c0.2-0.2,0.3-0.4,0.2-0.7c0,0-3.9,0.4-5-0.6
	c-1.4-1.2-1.2-2.9-2.1-5.4c-0.9-2.6-0.1,1.7-0.1,1.7s0.4,5.1,3.3,5.2C68.3,82,68.6,82,68.9,82.1z"/>
<path class="st14" d="M54.5,113.2c0,0,0.5-15.5,0.5-17.3c0-1.8,0.7-10.4,4.8-11.7l1.1-1.5l6.6,2.4c0,0,3.5,3.5,4,7.8
	c0.4,3.2-0.2,7.9-1.2,11.4c-1,3.6-3,10.1-3,10.1L54.5,113.2z"/>
<path class="st15" d="M54.5,113.2c0,0,0.5-15.5,0.5-17.3c0-1.8,0.7-10.4,4.8-11.7l1.1-1.5l6.6,2.4c0,0,3.5,3.5,4,7.8
	c0.4,3.2-0.2,7.9-1.2,11.4c-1,3.6-3,10.1-3,10.1L54.5,113.2z"/>
<path class="st8" d="M75.3,104.4c0,0,1.8-1,2.3-1.4c0.5-0.5,6.5-1.6,7.3-0.3c0.9,1.4-0.9,1.7-2.4,2c-1.5,0.4-6.1,2.1-6.8,2.5
	C75,107.6,75.3,104.4,75.3,104.4z"/>
<path class="st3" d="M77.2,148.3c-0.7,0.6-3,1.2-4,0.9c-1-0.3-2.4-1.5-2.8-0.8c-0.4,0.7-1.1,2.6-0.8,3.7c0,0-0.3,0.2-0.2,0.8
	c0.1,0.6,1.6,0.8,3.5,0.9c1.9,0.1,7.5,0.9,9.1,0.6c1.6-0.3,3.1-0.8,3.4-1.4c0.3-0.7,0.9-2-0.6-1.9c-1.4,0.1-3.1,0-3.8-0.5
	c-0.7-0.4-2.2-1.2-2.8-1.7C77.8,148.2,77.5,148.1,77.2,148.3z"/>
<path class="st4" d="M54.8,112.5c0,0,14.9-0.6,19.9-0.2c2.9,0.2,12,1.4,11.9,3.4c-0.3,3.5-7.2,33.9-7.2,33.9s-4.6,0.9-9.1-0.8
	l6.7-26.9c0,0-20.3,2.1-21.9-0.8C53.4,118,54.8,112.5,54.8,112.5z"/>
<path class="st15" d="M70.1,112c0,0-2.1,1.2-7.2,1.6c-5.2,0.4-8.4-0.4-8.4-0.4l0.8-20.1l16,7.2L70.1,112z"/>
<path class="st11" d="M70.3,107.8l-0.2,1.8c-4.3-0.2-13.6,0.8-13.6-0.2c-0.3-6.5,0-7,0.8-13.2c0.8-6.2,1.2-9.7,5.2-9.3
	c9.2,0.9,2.7,11.2,2.6,11.8c-0.1,0.5-1.2,5-0.9,6.7C64.2,105.9,67.2,106.8,70.3,107.8z"/>
<path class="st11" d="M70.8,102.8l-0.6,6.3c-5.2-1.2-11.9-0.4-11.9-1.3c-0.3-6.5,0-7,0.8-13.2c0.8-6.2,1-6.7,4.9-6
	c3.1,0.5,3.2,4.6,3.1,5.1c-0.1,0.5-1.5,7.3-1.3,9.1C65.8,103.2,68.2,102.6,70.8,102.8z"/>
<path class="st15" d="M65.8,97.9c-0.1,0.5-1.2,3.9-0.9,5.6c0.1,0.8,9.4-0.5,12.3-0.5l-0.4,4.9c-1.7-0.1-19.5,2.1-19.6,0.7
	c-0.3-6.5,0-7,0.8-13.2c0.8-6.2,1.2-9.7,5.2-9.3C72.4,87,65.8,97.4,65.8,97.9z"/>
<path class="st6" d="M68.3,126.4l4.3,28.3h-0.8l-7-28.3H68.3z"/>
<path class="st13" d="M69.2,123H45.3c-0.3,0-0.6,0-0.8,0.1v3.3c0.3,0,0.5,0.1,0.8,0.1h23.9c1.7,0,3.1-0.8,3.1-1.7
	C72.3,123.8,70.9,123,69.2,123z"/>
<path class="st8" d="M91.9,90.1c0.8-0.6,1.4-3.1,1.9-2.8c0.5,0.3,0.2,2.8-0.5,3.8C92.6,92,91.9,90.1,91.9,90.1z"/>
<path class="st6" d="M110.8,151.9H90.3v2.2h20.5V151.9z"/>
<path class="st8" d="M122.5,76.6c0,0-1.6-0.2-2.2-0.1c-0.6,0.1-4.8-1.9-4.6-3.1c0.2-1.2,0.4-0.6,1.6-0.1c1.1,0.5,2.2,1,2.3,0.4
	c0.1-0.6-1-0.5-1.2-1c-0.2-0.4,0.6-0.3,1.6-0.1c0.4,0.1,1.1,0.3,1.4,0.4c1.5,0.5,1.7,1,2.3,1.1C124.4,74.1,122.5,76.6,122.5,76.6z"
	/>
<path class="st16" d="M133,76.4c-0.5,0.5-8.1-2.7-10.1-3.2l-1.5,3.9c1.2,0.8,14,6.2,14.9,5.3c3.9-4,3.9-5.1,7-9.4
	c3-4.3,4.5-6.9,1.8-8.6c-2.7-1.7-3-1.7-4.3-0.3C138.9,65.9,134.1,75.4,133,76.4z"/>
<path class="st7" d="M161.8,145.8c0.9,2.2,3.8,8.1,0.2,8.9c-4.1,0.9-3.8-8.4-3.8-8.4L161.8,145.8z"/>
<path class="st8" d="M157.8,114c0,2.5-0.1,4,1.4,7c1.5,2.9,1.7,5.9,1.6,10.7c-0.2,4.9,0.4,11.1,0.5,12.2c0.2,1.1,2.1,6.4-0.2,6.7
	c-2.4,0.2-2.8-3.4-3-6c-0.2-2.6-2.5-8.7-3.8-13c-1.2-3.9-1.9-8.4-1.8-9.7c0.2-1.8-3.1-8.4-3.1-8.4L157.8,114z"/>
<path class="st17" d="M153.2,56.6c0.4,0.9,4,1.6,3.3,4.8c-0.7,3.2-6.5,0.4-6.5,0.4l-1.1-4.8l1.9-1.2L153.2,56.6z"/>
<path class="st7" d="M147.9,146c0,0,2.4,10.1-2.9,9.2c-3.7-0.6-0.6-9.2-0.6-9.2H147.9z"/>
<path class="st17" d="M144.1,56c0.9,1.5,1,3,0.6,3.9c-0.4,0.9-2.4,2-1.3,3.5c1.1,1.5,7.3,0,7.3,0L144.1,56z"/>
<path class="st8" d="M148.4,114.5c-0.3,1-0.6,2.5-0.5,3.4c0.1,0.8,1.5,3.9,1.3,6.7c-0.2,2.8-1,11-1.3,14.2c-0.3,3.3-0.3,4.9,0,6.7
	c0.3,1.9-0.3,6-2,6c-1.7,0-2-3.3-1.4-6c0.6-2.7,0-5.4-0.3-7.2c-0.3-1.8-2.4-13.1-2.5-14.6c-0.2-2.5,0.9-4.6,0.7-5.9
	c-0.2-1.3-1.6-5.4-1.6-5.4L148.4,114.5z"/>
<path class="st8" d="M145,57.4c0.6,2.1,1.4,4.9-0.7,5.1c-2.1,0.1-4.1,2.8-4.3,6c-0.2,3.2,2.3,7.2,2,11.2c-0.3,4.1,0,5.1,0,5.1
	l15.8,5.8c0,0-1.8-7-1.1-10.3c0.6-3.2,2.3-7.2,2.3-7.2s-0.1,3.4,0,5.6c0.1,2.2,3.7,5.7,3.7,5.7l1.4-6.8c0,0,0-1.5,0-4.7
	c0-4.9-0.8-9.7-4.2-11c-3.4-1.3-8.3-0.8-8.5-1.4c-0.1-0.6-0.9-5.7-0.9-5.7L145,57.4z"/>
<path class="st18" d="M157.8,86.1c1.5,4.8,2.8,12.8,3.4,24.3c0.5,9.3,1.8,20.6,1.8,20.6s-14.7,2.8-22.1-1.2c0,0-0.1-13.3-1.1-20.7
	c-1-7.2-1.2-17.1,2.1-22.9H157.8z"/>
<path class="st19" d="M161.1,110.4c-0.6-11.5-1.9-19.5-3.4-24.3c1.4,4.8,0.5,12,1,21.5c0.5,9.3,1.8,20.6,1.8,20.6
	s-11.4,2.6-19.8-0.3c0.1,1.1,0.1,1.8,0.1,1.8c7.4,4,22.1,1.2,22.1,1.2S161.6,119.7,161.1,110.4z"/>
<path class="st17" d="M140.3,52.6c0,0-1.8-1.8-1.1-3.8c0.6-1.6,1.7-4.7,4.9-5C147.9,43.4,140.3,52.6,140.3,52.6z"/>
<path class="st20" d="M140.5,53.2c-0.3,0.4-0.1,0.9,0.4,1.1l1,0.4c0.5,0.2,1,0.1,1.3-0.3c0.3-0.4,0.1-0.9-0.4-1.1l-1-0.5
	C141.3,52.6,140.7,52.8,140.5,53.2z"/>
<path class="st17" d="M140,49c0.5-2.7,2-5.5,6.4-5.5c4.6,0,7,3.3,7.1,5.5c0.1,2.2-0.3,3.6-0.5,4c-0.2,0.4-2.3,1.6-2.7,3
	C149.9,57.4,140,49,140,49z"/>
<path class="st21" d="M150.6,53.9c-0.2,0.8,0.1,1.9,0.1,3c-0.3,0.2-0.9,0.6-1.3,0.8c-2.7,1.4-5.1,1.5-5.1,1.5s0.3-0.4,0.8-1
	L150.6,53.9C150.6,53.9,150.6,53.9,150.6,53.9z"/>
<path class="st8" d="M150.8,54c-0.3,0.8-0.5,1.8-1.9,2.8c-1.5,1-3.8,2.3-4.5,2.3c-0.7,0-1.3,0.2-2.4-1.5c-1.1-1.6-2-2.4-2-4.1
	c-0.1-1.7-0.8-5.1,1.6-6.4c1.8-0.9,4.7-0.5,6.2,0.9c1.5,1.4,1.6,1.9,2.1,4c0,0,1.3-1.5,1.8-1.5c0.5-0.1,0.9,0.2,0.7,1.1
	c-0.3,0.9-0.5,0.8-0.6,1.2c0,0.5-0.1,0.9-0.4,1.1C150.9,54.3,150.8,54,150.8,54z"/>
<path class="st17" d="M142.3,47c0,0,3.1,4.8,7.4,5.6l1.7-4.4l-4-2.6L142.3,47z"/>
<path class="st17" d="M143.1,47.1c0,0-1.8,2.7-3.6,3.5c0,0-0.4-3.8,2.1-5.5L143.1,47.1z"/>
<path class="st7" d="M158.7,73.5c0,0-3-1.9-3.2-4.4c-0.3-3.5,1-7.9,1-7.9l-2.6-0.2c0,0-2.3,4.3-7.7,4.7c-3.2,0.2-3.1-3-3.1-3
	s-0.9,0.2-1.1,0.2c-0.3,0.1-0.9,0.4-0.9,0.4s-2.5,4.9-2.9,6c-0.5,1.5-1.4,4,1.3,6.5c0,0,2.8,4.3,2.1,10.4c0,0,7.5,2.4,16,0.1
	C157.8,86.2,155.8,80.1,158.7,73.5z"/>
<path class="st7" d="M164,72.9c0-4.9-0.8-9.7-4.2-11c-1-0.4-2.2-0.6-3.3-0.8c-0.2,0.6-1.9,4.7-1.7,7.9c0.2,2.5,3.9,4.4,3.9,4.4
	c-0.6,1.3,0.1-0.3,0.1-0.3s-0.1,3.4,0,5.6c0.1,2.2,3.7,5.7,3.7,5.7l1.4-6.8C164,77.6,164,76.1,164,72.9z"/>
<path class="st16" d="M158.2,74.7c0,0-4.4-2.6-2.4-10.1c0,0-1.6,6.2,2.9,8.9L158.2,74.7z"/>
<path class="st17" d="M148.3,43.7c0.8,0.2,5,1.4,5.9,6.2c0.3,1.5-0.1,3.9-1,6.6l-2.4,0.4c0,0-0.2-1.7-0.2-2.3c0,0,2.6-1,2.4-3.8
	c-0.2-2.8-3.1-4.4-3.1-4.4L148.3,43.7z"/>
<path class="st22" d="M158.2,70.7l-3.4,14.1l10.3,1.9l3.4-14.1L158.2,70.7z"/>
<path class="st8" d="M167.8,77.8c0.6,0.2,0.1,4.5-1.4,4.6c-1.5,0.1-1.7-1.8-1.1-3.1C166,78,166.5,77.3,167.8,77.8z"/>
<path class="st22" d="M150.9,69.4h-0.5v1.3h0.5V69.4z"/>
<path class="st2" d="M153.5,70.3h-5.7v4.2h5.7V70.3z"/>
<path class="st22" d="M153.8,74.7h-6.2v-4.6h6.2V74.7z M148.1,74.2h5.2v-3.7h-5.2V74.2z"/>
<path class="st22" d="M150.6,69.8c-0.4,0-0.7-0.3-0.7-0.6c0-0.3,0.3-0.6,0.7-0.6c0.4,0,0.7,0.3,0.7,0.6
	C151.4,69.5,151,69.8,150.6,69.8z"/>
</svg>
