<svg viewBox="0 0 22 19" fill="none" xmlns="http://www.w3.org/2000/svg">
<path d="M11.2518 11.1028C11.3443 11.1028 11.4176 11.1764 11.4176 11.2685V11.3537C11.6449 11.3807 11.8377 11.4539 12.0146 11.5653C12.0762 11.6 12.1306 11.6578 12.1306 11.7503C12.1306 11.8701 12.0342 11.9619 11.9144 11.9619C11.8758 11.9619 11.8377 11.9507 11.7991 11.9272C11.6642 11.8466 11.5336 11.7888 11.4025 11.758V12.498C11.9884 12.6441 12.2381 12.8788 12.2381 13.2916C12.2381 13.7155 11.907 13.9961 11.4176 14.0427V14.274C11.4176 14.3665 11.3447 14.4397 11.2518 14.4397C11.1589 14.4397 11.0826 14.3669 11.0826 14.274V14.0354C10.7936 14.0046 10.528 13.8998 10.2929 13.7344C10.2274 13.6924 10.1888 13.6303 10.1888 13.5498C10.1888 13.4299 10.2813 13.3374 10.4004 13.3374C10.4471 13.3374 10.4929 13.3532 10.5276 13.3802C10.7092 13.5113 10.8861 13.5991 11.098 13.6377V12.8788C10.5349 12.7327 10.2729 12.5203 10.2729 12.0852C10.2729 11.6736 10.6005 11.388 11.0822 11.3498V11.2685C11.0826 11.1768 11.1593 11.1028 11.2518 11.1028ZM11.0984 12.4163V11.7349C10.8514 11.7576 10.728 11.8883 10.728 12.0578C10.728 12.2201 10.8017 12.3199 11.0984 12.4163ZM11.4025 12.9524V13.6531C11.6488 13.6261 11.7833 13.5024 11.7833 13.3182C11.7833 13.149 11.6989 13.0441 11.4025 12.9524Z" fill="black"/>
<path d="M18.3986 17.7777H20.0366C20.4621 17.7777 20.8075 17.4324 20.8075 17.0069V8.5262C20.8075 8.1007 20.4621 7.75537 20.0366 7.75537H2.30745C1.88195 7.75537 1.53662 8.1007 1.53662 8.5262V17.0069C1.53662 17.4324 1.88195 17.7777 2.30745 17.7777H16.1343" stroke="#222221" stroke-miterlimit="10" stroke-linecap="round" stroke-linejoin="round"/>
<path d="M11.1721 15.7174C12.8017 15.7174 14.1228 14.3963 14.1228 12.7667C14.1228 11.137 12.8017 9.81592 11.1721 9.81592C9.54241 9.81592 8.22131 11.137 8.22131 12.7667C8.22131 14.3963 9.54241 15.7174 11.1721 15.7174Z" stroke="#222221" stroke-miterlimit="10" stroke-linecap="round" stroke-linejoin="round"/>
<path d="M18.0695 1.52355C17.9689 1.14623 17.5815 0.923074 17.2054 1.02444L1.52391 5.22587C1.14659 5.32723 0.923047 5.7138 1.02441 6.09036" stroke="#222221" stroke-miterlimit="10" stroke-linecap="round" stroke-linejoin="round"/>
<path d="M19.7399 7.7569L18.0695 1.52355C17.9689 1.14623 17.5815 0.923074 17.2054 1.02444L1.52391 5.22587C1.14659 5.32723 0.923046 5.7138 1.02441 6.09036L1.53663 8.09645" stroke="#222221" stroke-miterlimit="10" stroke-linecap="round" stroke-linejoin="round"/>
<path d="M16.909 6.17456L11.0094 7.75554" stroke="#222221" stroke-miterlimit="10" stroke-linecap="round" stroke-linejoin="round"/>
<path d="M11.766 4.69078L18.4391 2.90283L19.1552 5.57261L18.0313 5.87362" stroke="#222221" stroke-miterlimit="10" stroke-linecap="round" stroke-linejoin="round"/>
<path d="M1.39404 7.46967L9.61074 5.26855" stroke="#222221" stroke-miterlimit="10" stroke-linecap="round" stroke-linejoin="round"/>
</svg>
