<svg viewBox="0 0 13 19" fill="none" xmlns="http://www.w3.org/2000/svg">
<path d="M12.996 6.68889C13.0489 8.32188 12.5729 9.61702 11.8854 10.7995C10.2459 13.3898 8.60648 15.9801 6.96703 18.6267C6.64971 19.1335 6.38528 19.1335 6.06797 18.5704C4.4814 16.0364 2.84194 13.5024 1.25537 10.9685C-1.23025 7.02675 0.303432 2.97241 3.0006 1.17048C5.11603 -0.237278 7.33723 -0.406209 9.55842 0.832617C11.7796 2.12775 12.8902 4.21123 12.996 6.68889ZM6.49105 3.02872C4.4814 3.02872 2.94772 4.71803 2.94772 6.85782C2.94772 8.9413 4.58717 10.6869 6.54394 10.6306C8.50071 10.6306 10.1402 8.82868 10.0873 6.80151C10.0873 4.71803 8.44782 3.02872 6.49105 3.02872Z" fill="#1A1A1A"/>
</svg>
