<svg width="104" height="138" viewBox="0 0 104 138" fill="none" xmlns="http://www.w3.org/2000/svg">
<path d="M65.3997 100.852H38.5898V110.723H65.3997V100.852Z" fill="#6DB9CA"/>
<path d="M62.752 89.2161H53.1021H40.9715C40.9715 89.2161 41.5226 102.97 38.8555 106.963H51.9998H65.1453C62.4758 102.97 62.752 89.2161 62.752 89.2161Z" fill="#F4B88E"/>
<path d="M40.6953 99.606C43.7976 101.613 48.454 102.616 52.1684 102.652C56.2414 102.693 59.8338 101.628 63.284 100.165C62.636 95.0082 62.752 89.2161 62.752 89.2161H40.9703C40.9703 89.2161 41.1855 94.5981 40.6953 99.606Z" fill="#F5DCD6"/>
<path d="M94.0809 116.493L62.464 105.168H52.1577H51.8074H41.5012L9.88307 116.493C9.88307 116.493 -1.1871 120.137 0.106411 137.804H51.8086H52.1589H103.861C105.371 119.05 94.0809 116.493 94.0809 116.493Z" fill="#F4B88E"/>
<path d="M94.0808 116.493L68.244 107.238L51.9986 118.565L36.1322 107.09L9.88177 116.492C9.88177 116.492 -1.18838 120.136 0.105129 137.803H103.861C105.371 119.05 94.0808 116.493 94.0808 116.493Z" fill="#184892"/>
<path d="M75.8547 62.1837C75.104 66.8269 76.407 70.9549 78.7621 71.3973C81.1149 71.8432 83.6302 68.4432 84.3761 63.7976C85.1197 59.1555 83.8214 55.0287 81.4639 54.584C79.1124 54.1393 76.6007 57.5416 75.8547 62.1837Z" fill="#F4B88E"/>
<path d="M78.6856 60.9308C78.6856 60.9308 78.7214 60.6714 78.8135 60.247C78.9031 59.819 79.0908 59.2177 79.3813 58.5769C79.6754 57.9565 80.1524 57.2428 80.749 57.2045C80.8972 57.1949 81.0491 57.2212 81.2021 57.2691C81.2272 57.2858 81.385 57.348 81.4316 57.3874C81.483 57.4376 81.5368 57.4556 81.5978 57.5273C81.8417 57.7604 82.0377 58.1238 82.1656 58.5387C82.3067 58.9475 82.3951 59.4054 82.4406 59.8573C82.4812 60.3104 82.5099 60.7838 82.4573 61.1879C82.3844 61.6541 82.3629 62.1335 82.2792 62.5364C82.1991 62.95 82.125 63.3397 82.0544 63.7008C81.9588 64.0618 81.8859 64.3977 81.8201 64.6978C81.7568 64.999 81.6647 65.2489 81.6097 65.4641C81.489 65.8873 81.4292 66.1383 81.4292 66.1383C81.4292 66.1383 81.5499 65.9256 81.746 65.5382C81.8369 65.3386 81.9708 65.1114 82.0855 64.8257C82.2039 64.5424 82.339 64.2208 82.4741 63.8633C82.6044 63.5011 82.7191 63.0887 82.8459 62.6547C82.9762 62.2196 83.0359 61.776 83.1292 61.305C83.2201 60.7682 83.232 60.2494 83.1854 59.715C83.1423 59.1878 83.0503 58.6558 82.8853 58.143C82.7144 57.6373 82.4537 57.1423 82.064 56.7813C81.9767 56.6916 81.8476 56.6115 81.7305 56.5398C81.6002 56.4717 81.5655 56.4693 81.4065 56.4095C81.1734 56.3557 80.9367 56.3354 80.6976 56.3748C80.2098 56.4525 79.8046 56.816 79.5415 57.1937C79.2702 57.5739 79.1076 57.9828 78.9832 58.3593C78.743 59.1209 78.6939 59.7796 78.6676 60.2291C78.6521 60.681 78.6856 60.9308 78.6856 60.9308Z" fill="#F2A57F"/>
<path d="M78.6858 60.9309C78.6858 60.9309 78.4683 60.4336 80.0188 60.3176C80.0188 60.3176 81.7511 60.6392 80.7325 62.9489C80.5125 63.4462 80.3248 63.9603 80.2137 64.5054C80.0594 65.2813 80.3356 66.3321 79.9208 67.0207C79.384 67.9101 78.02 67.4044 77.9387 66.3871C77.8765 65.6112 78.6763 64.2759 79.0421 63.7224C79.0421 63.7224 80.1551 62.0367 78.6858 60.9309Z" fill="#F2A57F"/>
<path d="M77.9382 66.2879C77.943 66.2914 77.8856 66.3213 77.8186 66.4134C77.7445 66.503 77.662 66.6501 77.5915 66.8449C77.5473 66.943 77.5329 67.0518 77.5114 67.1749C77.4899 67.2968 77.4612 67.4283 77.4839 67.5586C77.4935 67.689 77.4959 67.8324 77.5198 67.9723C77.5473 68.105 77.6023 68.2281 77.6477 68.3584C77.7051 68.4792 77.7445 68.619 77.8234 68.7111C77.8928 68.8127 77.9788 68.894 78.0518 68.9801C78.1976 69.163 78.3662 69.2658 78.5252 69.3172C78.8312 69.4499 79.0536 69.4475 79.0536 69.4475C79.0536 69.4475 78.9663 69.169 78.8121 68.8856C78.7738 68.8103 78.7344 68.7362 78.6818 68.6669C78.6447 68.5832 78.6172 68.4887 78.573 68.4098C78.5312 68.3297 78.4989 68.2401 78.4451 68.166C78.3901 68.0906 78.3805 67.9902 78.3435 67.9077C78.2526 67.7475 78.2132 67.573 78.1558 67.4009C78.1235 67.316 78.108 67.2287 78.0888 67.1462C78.0769 67.0589 78.0386 66.9729 78.0314 66.894C77.9681 66.5724 77.9382 66.2855 77.9382 66.2879Z" fill="#F2A57F"/>
<path d="M28.4928 62.1837C29.2435 66.8269 27.9393 70.9549 25.5854 71.3973C23.2327 71.8432 20.7174 68.4432 19.9702 63.7976C19.2266 59.1555 20.5261 55.0287 22.8824 54.584C25.2351 54.1393 27.7468 57.5416 28.4928 62.1837Z" fill="#F4B88E"/>
<path d="M25.6625 60.9308C25.6625 60.9308 25.6266 60.6714 25.5345 60.247C25.4437 59.819 25.2572 59.2177 24.9667 58.5769C24.6714 57.9565 24.1956 57.2428 23.599 57.2045C23.4508 57.1949 23.299 57.2212 23.146 57.2691C23.1209 57.2858 22.9631 57.348 22.9164 57.3874C22.8674 57.4376 22.8112 57.4556 22.7503 57.5273C22.5064 57.7604 22.3103 58.1238 22.1824 58.5387C22.0401 58.9475 21.9529 59.4054 21.9051 59.8573C21.8656 60.3104 21.8381 60.7838 21.8907 61.1879C21.9624 61.6541 21.9851 62.1335 22.0688 62.5364C22.1489 62.95 22.2231 63.3397 22.2924 63.7008C22.388 64.0618 22.4621 64.3977 22.5279 64.6978C22.5913 64.999 22.6833 65.2489 22.7371 65.4641C22.859 65.8873 22.9188 66.1383 22.9188 66.1383C22.9188 66.1383 22.7969 65.9256 22.602 65.5382C22.5112 65.3386 22.3773 65.1114 22.2625 64.8257C22.143 64.5424 22.0091 64.2208 21.874 63.8633C21.7449 63.5011 21.6289 63.0887 21.5034 62.6547C21.3719 62.2196 21.3121 61.776 21.2188 61.305C21.128 60.7682 21.116 60.2494 21.1627 59.715C21.2057 59.1878 21.2978 58.6558 21.4627 58.143C21.6325 57.6373 21.8955 57.1423 22.2852 56.7813C22.3713 56.6916 22.5016 56.6115 22.6199 56.5398C22.7479 56.4717 22.7825 56.4693 22.9427 56.4095C23.1759 56.3557 23.4114 56.3354 23.6516 56.3748C24.1394 56.4525 24.5447 56.816 24.8065 57.1937C25.0791 57.5739 25.2417 57.9828 25.3648 58.3593C25.6063 59.1209 25.6553 59.7796 25.6816 60.2291C25.6959 60.681 25.6625 60.9308 25.6625 60.9308Z" fill="#F2A57F"/>
<path d="M25.6629 60.9309C25.6629 60.9309 25.8805 60.4336 24.3299 60.3176C24.3299 60.3176 22.5977 60.6392 23.6162 62.9489C23.835 63.4462 24.0239 63.9603 24.1351 64.5054C24.2893 65.2813 24.0131 66.3321 24.428 67.0207C24.9647 67.9101 26.3288 67.4044 26.4101 66.3871C26.4735 65.6112 25.6737 64.2759 25.3067 63.7224C25.3067 63.7224 24.1937 62.0367 25.6629 60.9309Z" fill="#F2A57F"/>
<path d="M26.4088 66.2879C26.4064 66.2914 26.4626 66.3213 26.5284 66.4134C26.6049 66.503 26.6862 66.6501 26.7567 66.8449C26.7997 66.943 26.8153 67.0518 26.8368 67.1749C26.8571 67.2968 26.8858 67.4283 26.8655 67.5586C26.8535 67.689 26.8512 67.8324 26.8273 67.9723C26.801 68.105 26.746 68.2281 26.7017 68.3584C26.6419 68.4792 26.6037 68.619 26.5272 68.7111C26.4578 68.8127 26.3706 68.894 26.2977 68.9801C26.153 69.163 25.9832 69.2658 25.8242 69.3172C25.5182 69.4499 25.2958 69.4475 25.2958 69.4475C25.2958 69.4475 25.3831 69.169 25.5373 68.8856C25.5756 68.8103 25.615 68.7362 25.6676 68.6669C25.7047 68.5832 25.7334 68.4887 25.7776 68.4098C25.8182 68.3297 25.8505 68.2401 25.9043 68.166C25.9593 68.0906 25.9689 67.9902 26.0047 67.9077C26.0956 67.7475 26.1351 67.573 26.1924 67.4009C26.2247 67.316 26.2403 67.2287 26.2594 67.1462C26.2714 67.0589 26.3096 66.9729 26.318 66.894C26.3802 66.5724 26.4088 66.2855 26.4088 66.2879Z" fill="#F2A57F"/>
<path d="M52.4593 12.0895V12.0835C52.3349 12.0835 52.213 12.0859 52.0899 12.0859C51.9619 12.0859 51.8412 12.0835 51.7169 12.0835V12.0883C32.9992 12.2533 22.4838 17.5839 25.3565 51.703L28.5795 78.8799C28.5795 78.8799 29.1533 83.8375 34.5904 86.8047L44.758 94.341C44.758 94.341 49.5889 96.4869 52.0946 96.2741C54.5956 96.4869 59.4277 94.3398 59.4277 94.3398L69.5941 86.8023C75.0312 83.8351 75.605 78.8775 75.605 78.8775L78.9978 52.3282C81.8681 18.2103 71.1745 12.2521 52.4593 12.0895Z" fill="#F4B88E"/>
<path d="M38.3009 53.9337C38.3128 55.7054 39.3075 57.1375 40.5233 57.1304C41.7415 57.1244 42.7182 55.6802 42.7074 53.9062C42.6954 52.1333 41.702 50.7011 40.4862 50.707C39.2692 50.7154 38.2913 52.1596 38.3009 53.9337Z" fill="#2F1807"/>
<path d="M39.6299 52.9105C39.6299 53.4377 39.2031 53.8645 38.6771 53.8645C38.1487 53.8645 37.7231 53.4377 37.7231 52.9105C37.7231 52.3833 38.1487 51.9565 38.6771 51.9565C39.2019 51.9565 39.6299 52.3833 39.6299 52.9105Z" fill="white"/>
<path d="M66.0468 53.9337C66.0361 55.7054 65.0402 57.1375 63.8244 57.1304C62.6074 57.1244 61.6295 55.6802 61.6403 53.9062C61.651 52.1333 62.6469 50.7011 63.8627 50.707C65.0797 50.7154 66.0576 52.1596 66.0468 53.9337Z" fill="#2F1807"/>
<path d="M64.717 52.9105C64.717 53.4377 65.1438 53.8645 65.6698 53.8645C66.1982 53.8645 66.6238 53.4377 66.6238 52.9105C66.6238 52.3833 66.1982 51.9565 65.6698 51.9565C65.145 51.9565 64.717 52.3833 64.717 52.9105Z" fill="white"/>
<path d="M55.4128 71.1952C54.9095 71.683 54.2998 72.0667 53.6458 72.3632C52.9895 72.6609 52.2746 72.8593 51.5299 72.9394C50.7839 73.0482 50.0092 72.9872 49.2513 72.8223C48.8675 72.7517 48.4957 72.6334 48.1323 72.4875C47.7641 72.3524 47.427 72.1576 47.0779 71.9783L46.5913 71.7284L46.5423 71.0267C46.4909 70.2926 46.4837 69.6387 46.5088 68.9561C46.51 68.2771 46.5925 67.6112 46.6463 66.9405C46.7025 66.2686 46.8268 65.6111 46.9368 64.9488C47.0324 64.2853 47.1974 63.635 47.3624 62.987C47.6744 61.6864 48.1335 60.4227 48.6403 59.189C48.8651 58.5638 49.2011 57.972 49.5107 57.3802C49.8311 56.7909 50.1634 56.2099 50.5364 55.6492C50.5149 56.333 50.4539 56.9953 50.3798 57.6492C50.3081 58.3031 50.1981 58.9415 50.1395 59.5919C50.0833 60.241 49.9912 60.8782 49.898 61.513C49.8024 62.1478 49.7677 62.791 49.678 63.4222C49.5884 64.0534 49.5071 64.6846 49.4473 65.317C49.3947 65.9494 49.2764 66.5759 49.2405 67.2071C49.1819 67.8359 49.1042 68.4671 49.0624 69.0912C49.0086 69.7116 48.962 70.362 48.9333 70.9322L48.3977 69.9818C48.6368 70.1253 48.852 70.3237 49.1018 70.4516C49.3493 70.5867 49.592 70.7397 49.8586 70.8449C50.1156 70.98 50.3965 71.047 50.6739 71.1474C50.9596 71.2012 51.2453 71.3016 51.5466 71.3411C51.8443 71.4032 52.1527 71.4188 52.4647 71.4367C52.7791 71.4606 53.0971 71.4618 53.4223 71.4499C54.0678 71.4188 54.7313 71.3435 55.4128 71.1952Z" fill="#EBA17D"/>
<path d="M45.1198 47.3886C44.9166 48.2159 44.1276 48.7084 43.3732 48.571C40.3128 48.0103 37.2392 48.2972 34.4681 49.3169C33.7831 49.5656 32.9522 49.1998 32.5673 48.4418C32.1823 47.6863 32.5063 46.7646 33.3395 46.4549C36.6176 45.2367 40.2375 44.8877 43.8275 45.5261C44.7409 45.6874 45.3254 46.5649 45.1198 47.3886Z" fill="#693D34"/>
<path d="M58.3811 47.3886C58.5843 48.2159 59.3745 48.7084 60.1277 48.571C63.1869 48.0103 66.2605 48.2972 69.0328 49.3169C69.7166 49.5656 70.5487 49.1998 70.9336 48.4418C71.3198 47.6863 70.9958 46.7646 70.1625 46.4549C66.8845 45.2367 63.2646 44.8877 59.6746 45.5261C58.7612 45.6874 58.1766 46.5649 58.3811 47.3886Z" fill="#693D34"/>
<path d="M51.9991 118.565L49.8699 107.674L38.5906 100.852L36.9468 107.717L51.9991 118.565Z" fill="#6DB9CA"/>
<path d="M49.8697 107.674L44.5354 117.445L31.4987 108.588L38.5903 100.852L49.8697 107.674Z" fill="#BFE5E5"/>
<path d="M51.9987 118.565L54.129 107.674L65.4084 100.852L67.051 107.717L51.9987 118.565Z" fill="#6DB9CA"/>
<path d="M54.1295 107.674L59.4626 117.445L72.4993 108.588L65.4089 100.852L54.1295 107.674Z" fill="#BFE5E5"/>
<path d="M53.0962 83.1775C53.0962 83.1775 51.9868 83.5182 50.4614 83.2193" stroke="#E89780" stroke-miterlimit="10" stroke-linecap="round" stroke-linejoin="round"/>
<path d="M45.8403 77.7263L47.3717 80.7353C47.3717 80.7353 54.2086 84.5788 59.0348 77.8769C59.036 77.8769 51.532 78.2272 45.8403 77.7263Z" fill="white"/>
<path d="M74.403 39.8916C74.403 39.8916 76.849 41.4266 76.3098 47.3036L76.054 58.9608H78.0756C78.0756 58.9608 77.9333 54.5446 81.4636 54.5841L83.2114 28.5226C83.2114 28.5226 84.585 18.1207 75.6404 12.0823C75.6404 12.0823 68.1447 10.1062 66.0454 3.96738C66.0454 3.96738 65.4166 7.37809 66.0454 9.42475C66.0454 9.42475 60.013 7.7188 61.6377 0.557861C61.6377 0.557861 56.8139 2.50291 56.7828 7.37809C56.7828 7.37809 56.564 1.58 53.0936 0.557861C53.0936 0.557861 54.3656 4.99071 50.4587 6.69547C50.4587 6.69547 33.7029 6.01404 28.7022 14.1983C28.7022 14.1983 19.65 18.6479 21.1324 37.5915L22.8802 54.5829C22.8802 54.5829 25.2496 55.709 26.8695 58.9464H28.7022V43.5295C28.7022 43.5295 28.6041 39.8928 31.496 39.8928C31.496 39.8928 28.7021 26.2512 36.9438 24.2045C36.9438 24.2045 49.2812 20.9074 52.4361 27.0737C52.4361 27.0737 52.9394 22.0765 68.0383 24.0037C68.0407 24.0037 77.4754 25.3402 74.403 39.8916Z" fill="#693D34"/>
</svg>
