<svg viewBox="0 0 20 16" fill="none" xmlns="http://www.w3.org/2000/svg">
<path d="M17.1454 9.2159V15.2019C17.1454 15.418 17.0669 15.6051 16.9097 15.7631C16.7526 15.921 16.5665 16 16.3515 16H11.5879V11.2112H8.41213V16H3.64852C3.43349 16 3.24742 15.921 3.09028 15.7631C2.93315 15.6051 2.85458 15.418 2.85458 15.2019V9.2159C2.85458 9.20759 2.85665 9.19512 2.86079 9.17849C2.86492 9.16186 2.86699 9.14939 2.86699 9.14108L10 3.22993L17.133 9.14108C17.1413 9.1577 17.1454 9.18264 17.1454 9.2159ZM19.9118 8.35542L19.1427 9.27825C19.0765 9.35308 18.9897 9.3988 18.8822 9.41543H18.8449C18.7374 9.41543 18.6506 9.38633 18.5844 9.32814L10 2.1325L1.41558 9.32814C1.31633 9.39465 1.21709 9.42375 1.11785 9.41543C1.01034 9.3988 0.923501 9.35308 0.85734 9.27825L0.088215 8.35542C0.0220538 8.27228 -0.0068918 8.17459 0.00137836 8.06235C0.00964852 7.95012 0.0551344 7.86074 0.137836 7.79423L9.0572 0.32424C9.32185 0.10808 9.63611 0 10 0C10.3639 0 10.6782 0.10808 10.9428 0.32424L13.9697 2.86828V0.436477C13.9697 0.320083 14.0069 0.224474 14.0813 0.149649C14.1558 0.0748246 14.2509 0.0374123 14.3666 0.0374123H16.7484C16.8642 0.0374123 16.9593 0.0748246 17.0338 0.149649C17.1082 0.224474 17.1454 0.320083 17.1454 0.436477V5.52455L19.8622 7.79423C19.9449 7.86074 19.9904 7.95012 19.9986 8.06235C20.0069 8.17459 19.9779 8.27228 19.9118 8.35542Z" fill="black"/>
</svg>
