<svg width="161" height="140" viewBox="0 0 161 140" fill="none" xmlns="http://www.w3.org/2000/svg">
<path d="M93.4929 63.1252H151.428V127.364H93.4929V63.1252Z" fill="#3F232A"/>
<path d="M107.657 63.1252H137.263V127.364H107.657V63.1252Z" fill="#270C14"/>
<path d="M140.568 59.4033H151.428V129.072H140.568V59.4033Z" fill="#3F232A"/>
<path d="M115.825 100.984H122.858H131.699C131.699 100.984 131.298 113.141 133.242 116.67H123.662H114.083C116.027 113.141 115.825 100.984 115.825 100.984Z" fill="#F4B88E"/>
<path d="M131.787 108.454C128.83 109.849 125.85 111.182 122.463 110.859C120.062 110.629 117.742 109.901 115.6 108.811C115.889 104.824 115.826 100.983 115.826 100.983H131.699C131.699 100.984 131.581 104.598 131.787 108.454Z" fill="#F5DCD6"/>
<path d="M94.2324 123.561L116.342 114.928H123.551H123.795H131.003L153.114 123.561C153.114 123.561 160.857 126.336 159.951 139.802H123.795H123.551H87.3939C86.3385 125.509 94.2324 123.561 94.2324 123.561Z" fill="#F4B88E"/>
<path d="M103.716 77.8757C104.371 81.9114 103.237 85.4981 101.189 85.8816C99.1438 86.2704 96.9579 83.3144 96.3082 79.2766C95.6606 75.2408 96.7899 71.6541 98.8384 71.2675C100.884 70.8819 103.067 73.8378 103.716 77.8757Z" fill="#F4B88E"/>
<path d="M101.256 76.7842C101.256 76.7842 101.225 76.5581 101.145 76.1883C101.067 75.8165 100.904 75.2946 100.652 74.7367C100.395 74.1969 99.982 73.5778 99.4632 73.545C99.3343 73.5355 99.2023 73.5577 99.0692 73.6C99.047 73.6158 98.9097 73.6697 98.8695 73.7035C98.8251 73.7468 98.7786 73.7627 98.7248 73.8239C98.5124 74.0278 98.3413 74.3416 98.2303 74.704C98.1067 75.06 98.0317 75.4583 97.9905 75.8503C97.9567 76.2443 97.9324 76.6574 97.9768 77.006C98.0391 77.4128 98.0592 77.8269 98.1331 78.1787C98.2018 78.539 98.2663 78.8771 98.3275 79.1908C98.411 79.5067 98.4754 79.7993 98.5314 80.0582C98.5864 80.3212 98.6667 80.5389 98.7142 80.7238C98.8198 81.0925 98.8716 81.3101 98.8716 81.3101C98.8716 81.3101 98.766 81.1252 98.5959 80.7871C98.5177 80.616 98.4004 80.4184 98.3011 80.1681C98.1976 79.9219 98.0814 79.643 97.962 79.3334C97.85 79.0175 97.7496 78.6594 97.6398 78.2822C97.5267 77.9051 97.4739 77.5174 97.3936 77.1096C97.3144 76.6426 97.3038 76.1915 97.3429 75.7256C97.382 75.2682 97.4602 74.8054 97.6039 74.3596C97.7507 73.9212 97.9789 73.4901 98.317 73.1763C98.392 73.1003 98.505 73.0284 98.6075 72.9661C98.7205 72.9059 98.7501 72.9038 98.8885 72.852C99.0903 72.8055 99.2963 72.7876 99.5044 72.8235C99.9281 72.889 100.281 73.2059 100.509 73.5355C100.746 73.8641 100.886 74.2201 100.995 74.5476C101.204 75.209 101.248 75.7816 101.271 76.1725C101.285 76.5665 101.256 76.7842 101.256 76.7842Z" fill="#F2A57F"/>
<path d="M101.256 76.7843C101.256 76.7843 101.445 76.3522 100.098 76.2529C100.098 76.2529 98.5928 76.5297 99.4781 78.5391C99.6693 78.9712 99.832 79.4171 99.9282 79.8914C100.062 80.5654 99.8225 81.4793 100.184 82.0783C100.65 82.8485 101.836 82.41 101.906 81.5279C101.961 80.8507 101.265 79.6917 100.947 79.2132C100.947 79.211 99.9799 77.7457 101.256 76.7843Z" fill="#F2A57F"/>
<path d="M101.906 81.4402C101.903 81.4444 101.952 81.4698 102.01 81.549C102.076 81.6272 102.147 81.755 102.208 81.9262C102.247 82.0096 102.26 82.1057 102.278 82.2125C102.296 82.3181 102.32 82.4322 102.302 82.5452C102.292 82.6593 102.29 82.7851 102.27 82.9055C102.247 83.0217 102.198 83.1295 102.16 83.2415C102.109 83.345 102.075 83.4676 102.007 83.5489C101.948 83.6366 101.871 83.7063 101.808 83.7813C101.681 83.9398 101.534 84.0296 101.397 84.0739C101.13 84.1891 100.936 84.187 100.936 84.187C100.936 84.187 101.011 83.944 101.146 83.6979C101.179 83.6324 101.214 83.5679 101.258 83.5087C101.291 83.4358 101.315 83.3535 101.353 83.2848C101.389 83.214 101.418 83.1369 101.465 83.0735C101.512 83.008 101.521 82.9203 101.552 82.8474C101.631 82.709 101.666 82.5558 101.716 82.4079C101.743 82.3339 101.757 82.2568 101.774 82.1839C101.783 82.11 101.817 82.0339 101.823 81.9642C101.879 81.6895 101.906 81.4402 101.906 81.4402Z" fill="#F2A57F"/>
<path d="M142.68 77.8757C142.027 81.9114 143.16 85.4981 145.207 85.8816C147.253 86.2704 149.439 83.3144 150.088 79.2766C150.736 75.2408 149.605 71.6541 147.558 71.2675C145.513 70.8819 143.328 73.8378 142.68 77.8757Z" fill="#F4B88E"/>
<path d="M145.141 76.7842C145.141 76.7842 145.171 76.5581 145.252 76.1883C145.33 75.8165 145.493 75.2946 145.745 74.7367C146.002 74.1969 146.415 73.5778 146.935 73.545C147.064 73.5355 147.195 73.5577 147.329 73.6C147.35 73.6158 147.487 73.6697 147.528 73.7035C147.572 73.7468 147.619 73.7627 147.673 73.8239C147.885 74.0278 148.056 74.3416 148.168 74.704C148.29 75.06 148.367 75.4583 148.408 75.8503C148.443 76.2443 148.466 76.6574 148.422 77.006C148.358 77.4128 148.34 77.8269 148.267 78.1787C148.198 78.539 148.133 78.8771 148.072 79.1908C147.989 79.5067 147.926 79.7993 147.869 80.0582C147.814 80.3212 147.733 80.5389 147.687 80.7238C147.581 81.0925 147.528 81.3101 147.528 81.3101C147.528 81.3101 147.634 81.1252 147.804 80.7871C147.883 80.616 148 80.4184 148.099 80.1681C148.202 79.9219 148.319 79.643 148.437 79.3334C148.55 79.0175 148.649 78.6594 148.758 78.2822C148.871 77.9051 148.924 77.5174 149.005 77.1096C149.083 76.6426 149.095 76.1915 149.055 75.7256C149.018 75.2682 148.938 74.8054 148.793 74.3596C148.646 73.9212 148.418 73.4901 148.08 73.1763C148.004 73.1003 147.892 73.0284 147.789 72.9661C147.677 72.9059 147.647 72.9038 147.509 72.852C147.306 72.8055 147.1 72.7876 146.892 72.8235C146.469 72.889 146.116 73.2059 145.888 73.5355C145.652 73.8641 145.511 74.2201 145.403 74.5476C145.194 75.209 145.15 75.7816 145.128 76.1725C145.111 76.5665 145.141 76.7842 145.141 76.7842Z" fill="#F2A57F"/>
<path d="M145.141 76.7843C145.141 76.7843 144.951 76.3522 146.299 76.2529C146.299 76.2529 147.805 76.5297 146.92 78.5391C146.728 78.9712 146.566 79.4171 146.47 79.8914C146.334 80.5654 146.575 81.4793 146.214 82.0783C145.747 82.8485 144.561 82.41 144.492 81.5279C144.436 80.8507 145.132 79.6917 145.45 79.2132C145.45 79.211 146.417 77.7457 145.141 76.7843Z" fill="#F2A57F"/>
<path d="M144.492 81.4402C144.494 81.4444 144.446 81.4698 144.388 81.549C144.322 81.6272 144.251 81.755 144.19 81.9262C144.151 82.0096 144.138 82.1057 144.118 82.2125C144.1 82.3181 144.077 82.4322 144.095 82.5452C144.103 82.6593 144.106 82.7851 144.127 82.9055C144.149 83.0217 144.198 83.1295 144.237 83.2415C144.288 83.345 144.322 83.4676 144.39 83.5489C144.449 83.6366 144.526 83.7063 144.589 83.7813C144.715 83.9398 144.863 84.0296 145 84.0739C145.267 84.1891 145.461 84.187 145.461 84.187C145.461 84.187 145.385 83.944 145.251 83.6979C145.217 83.6324 145.182 83.5679 145.138 83.5087C145.105 83.4358 145.081 83.3535 145.042 83.2848C145.006 83.214 144.977 83.1369 144.93 83.0735C144.883 83.008 144.874 82.9203 144.844 82.8474C144.764 82.709 144.73 82.5558 144.679 82.4079C144.652 82.3339 144.638 82.2568 144.621 82.1839C144.612 82.11 144.578 82.0339 144.573 81.9642C144.518 81.6895 144.491 81.4402 144.492 81.4402Z" fill="#F2A57F"/>
<path d="M103.077 45.0901C103.077 45.0901 110.042 37.4603 123.749 37.0398C137.444 37.7582 144.384 45.65 144.384 45.6521C148.11 57.6579 145.726 71.7343 144.141 83.9143C142.971 92.9091 136.92 99.2036 129.297 103.584C129.297 103.584 126.599 105.331 123.013 105.53C119.438 105.255 116.783 103.457 116.773 103.45C109.365 98.4271 103.695 92.2214 102.282 83.0797C101.06 75.1858 100.784 66.4614 101.056 58.4946C101.206 54.1007 101.673 49.2864 103.077 45.0901Z" fill="#F4B88E"/>
<path d="M129.707 69.6583C129.707 69.6583 134.603 68.0092 139.668 70.3334C138.67 64.9285 129.31 67.146 129.31 67.146C129.31 67.146 128.692 67.2918 128.76 68.2596C128.76 68.2596 129.007 69.9203 129.707 69.6583Z" fill="#3F232A"/>
<path d="M118.291 69.6583C118.291 69.6583 112.722 68.0092 107.658 70.3334C108.656 64.9285 118.688 67.146 118.688 67.146C118.688 67.146 119.305 67.2918 119.238 68.2596C119.238 68.2596 118.991 69.9203 118.291 69.6583Z" fill="#3F232A"/>
<path d="M135.922 74.686C135.91 76.2538 135.033 77.5194 133.958 77.5131C132.882 77.5057 132.017 76.2306 132.028 74.6649C132.037 73.0971 132.916 71.8314 133.991 71.8367C135.065 71.843 135.931 73.1192 135.922 74.686Z" fill="#2F1807"/>
<path d="M134.747 73.785C134.747 74.2499 135.124 74.626 135.589 74.626C136.056 74.626 136.432 74.251 136.432 73.785C136.432 73.3191 136.055 72.9409 135.589 72.9409C135.125 72.9409 134.747 73.3191 134.747 73.785Z" fill="white"/>
<path d="M111.402 74.686C111.413 76.2538 112.292 77.5194 113.366 77.5131C114.442 77.5057 115.306 76.2306 115.297 74.6649C115.287 73.0971 114.408 71.8314 113.333 71.8367C112.257 71.843 111.393 73.1192 111.402 74.686Z" fill="#2F1807"/>
<path d="M112.577 73.785C112.577 74.2499 112.2 74.626 111.735 74.626C111.268 74.626 110.892 74.251 110.892 73.785C110.892 73.3191 111.268 72.9409 111.735 72.9409C112.199 72.9409 112.577 73.3191 112.577 73.785Z" fill="white"/>
<path d="M128.537 92.365C128.527 93.88 126.381 95.1076 123.732 95.1076C121.083 95.1076 118.936 93.88 118.927 92.365H128.537Z" fill="white"/>
<path d="M119.181 92.7876C118.049 92.5161 117.615 92.2087 117.615 92.2087C117.615 92.2087 118.399 91.879 119.501 91.5452C122.332 90.3503 122.14 91.898 123.646 91.8938C124.402 91.9171 125.155 91.0941 125.862 91.1934C126.569 91.2747 127.228 91.3994 127.793 91.5494C128.925 91.8241 129.68 92.2087 129.68 92.2087C129.68 92.2087 129.1 92.5942 127.97 92.871C127.97 92.871 126.283 92.8098 124.895 93.0211C124.895 93.0211 123.614 93.3443 122.754 93.076C122.754 93.076 120.718 92.646 119.181 92.7876Z" fill="#F37D7F"/>
<path d="M118.562 92.2057C119.67 93.3456 121.406 94.3841 124.071 94.3841C124.071 94.3841 126.653 94.382 128.743 92.2057H129.708C129.675 92.2828 129.651 92.3557 129.614 92.4349C129.367 92.8712 129.164 93.39 128.797 93.8537C128.621 94.0915 128.439 94.3365 128.252 94.5837C128.061 94.832 127.8 95.0349 127.566 95.2663L127.2 95.6064L126.765 95.8938C126.46 96.0808 126.211 96.31 125.813 96.421C125.455 96.5456 125.039 96.7168 124.713 96.7728L124.24 96.8362L124.003 96.8668L123.885 96.8847L123.826 96.8921L123.667 96.9027L122.546 96.7622C122.179 96.6925 121.843 96.5287 121.498 96.4136C121.139 96.3122 120.867 96.0755 120.569 95.8927L120.136 95.6064L119.768 95.2641C119.535 95.0317 119.274 94.8299 119.083 94.5806C118.895 94.3334 118.714 94.0872 118.538 93.8506C118.171 93.3899 117.967 92.8681 117.721 92.4286C117.682 92.3546 117.659 92.2817 117.625 92.2046H118.562V92.2057Z" fill="#F37D7F"/>
<path d="M123.732 95.8292C119.795 95.5662 119.066 93.2778 119.066 93.2778C120.851 95.4869 123.732 95.1848 123.732 95.1848C123.732 95.1848 123.992 95.2048 123.992 95.5271C123.991 95.5271 123.931 95.8451 123.732 95.8292Z" fill="white"/>
<path d="M93.493 66.0632C93.493 66.0632 92.2908 35.2914 116.252 30.9218C116.252 30.9218 133.243 28.2088 139.615 38.7471L133.243 54.8826C133.243 54.8826 133.357 60.6477 106.727 66.3284C106.727 66.3284 101.276 67.7208 100.939 77.8925C100.938 77.8936 100.014 70.8099 93.493 66.0632Z" fill="#3F232A"/>
<path d="M126.428 85.3849C126.428 85.3849 126.392 85.3785 126.323 85.3627C126.259 85.349 126.157 85.312 126.045 85.2951C125.815 85.2444 125.509 85.1873 125.175 85.1303C124.844 85.0848 124.489 85.0363 124.141 85.0194C123.791 84.9908 123.446 84.9887 123.112 84.9908C122.778 85.0046 122.448 85.0257 122.122 85.0563C121.955 85.0828 121.792 85.0912 121.628 85.1134C121.461 85.144 121.297 85.1641 121.139 85.1789C120.982 85.1947 120.816 85.2391 120.671 85.256C120.533 85.2624 120.393 85.2909 120.278 85.3088C120.166 85.3194 120.059 85.3521 119.992 85.3638C119.923 85.3796 119.885 85.3859 119.885 85.3859C119.885 85.3859 119.894 85.4208 119.913 85.4874C119.933 85.5497 119.953 85.6585 120.003 85.7663C120.091 86.0019 120.252 86.3167 120.53 86.6125C120.665 86.7668 120.827 86.9157 121.019 87.0404C121.209 87.1703 121.417 87.3066 121.653 87.3901C121.885 87.4862 122.133 87.576 122.392 87.6088C122.65 87.6648 122.916 87.6838 123.179 87.6732C123.446 87.6774 123.702 87.6246 123.954 87.5739C124.204 87.519 124.441 87.4334 124.661 87.3341C125.099 87.1302 125.468 86.865 125.738 86.5745C126.01 86.2871 126.19 85.9945 126.294 85.7652C126.35 85.6617 126.377 85.5529 126.4 85.4884C126.417 85.4208 126.428 85.3849 126.428 85.3849Z" fill="#F5A586"/>
<path d="M100.426 139.802C100.486 133.448 100.077 127.069 94.9596 123.276L114.084 115.81L123.992 124.937L132.835 115.641L152.614 123.363C148.867 125.487 147.777 130.909 147.481 134.85C147.366 136.383 147.302 138.077 147.363 139.803H100.426V139.802Z" fill="#6A54A1"/>
<path d="M129.709 53.8915C129.709 53.8915 144.546 57.0367 144.489 77.9611C144.489 77.9611 145.122 71.2346 149.076 72.1442C149.076 72.1442 160.158 44.3336 134.212 36.4978L129.709 53.8915Z" fill="#3F232A"/>
<path d="M135.922 49.4102L134.609 56.9333L132.778 55.9666L135.922 49.4102Z" fill="#F4B88E"/>
<path d="M37.8366 103.537H64.1113V113.212H37.8366V103.537Z" fill="#717EBA"/>
<path d="M40.4238 92.187H49.8795H61.7685C61.7685 92.187 61.2285 105.664 63.8422 109.577H50.9608H38.0783C40.6944 105.664 40.4238 92.187 40.4238 92.187Z" fill="#F4B88E"/>
<path d="M62.0386 102.368C58.9984 104.334 54.4351 105.318 50.7939 105.353C46.8035 105.393 43.2818 104.349 39.9018 102.916C40.5368 97.8597 40.4232 92.187 40.4232 92.187H61.7691C61.7691 92.187 61.5571 97.459 62.0386 102.368Z" fill="#F5DCD6"/>
<path d="M9.72034 118.917L40.7059 107.818H50.806H51.1492H61.2493L92.2337 118.917C92.2337 118.917 103.084 122.487 101.816 139.802H51.1481H50.8048H0.13694C-1.34275 121.423 9.72034 118.917 9.72034 118.917Z" fill="#F4B88E"/>
<path d="M9.72034 118.917L35.0402 109.847L50.9618 120.949L66.5108 109.703L92.2337 118.917C92.2337 118.917 103.084 122.487 101.816 139.802H0.135757C-1.34276 121.423 9.72034 118.917 9.72034 118.917Z" fill="#42A7D9"/>
<path d="M27.583 65.6933C28.3187 70.2448 27.0417 74.2902 24.7337 74.7225C22.4281 75.1619 19.9631 71.8276 19.2321 67.2772C18.5033 62.728 19.7757 58.6826 22.086 58.2468C24.3905 57.811 26.8519 61.1452 27.583 65.6933Z" fill="#F4B88E"/>
<path d="M24.8074 64.4654C24.8074 64.4654 24.7734 64.21 24.682 63.7941C24.5953 63.3758 24.4114 62.7865 24.1267 62.1586C23.8385 61.5517 23.3711 60.8511 22.7865 60.8136C22.64 60.803 22.4924 60.8312 22.3413 60.8768C22.3178 60.8944 22.1632 60.9542 22.1175 60.994C22.0671 61.0432 22.0144 61.0608 21.9535 61.1299C21.7157 61.3595 21.5235 61.7145 21.3981 62.1222C21.2599 62.5217 21.1732 62.9693 21.1275 63.4145C21.0888 63.8573 21.0607 64.3224 21.1123 64.7172C21.1837 65.173 21.2048 65.6428 21.2869 66.0388C21.3654 66.4442 21.438 66.8261 21.5071 67.1787C21.6008 67.5349 21.6723 67.8641 21.7367 68.1581C21.7988 68.4534 21.889 68.6994 21.9429 68.9091C22.0613 69.325 22.1198 69.5699 22.1198 69.5699C22.1198 69.5699 22.0015 69.3625 21.8094 68.9829C21.7203 68.7873 21.5891 68.5647 21.4766 68.2835C21.3607 68.0058 21.2283 67.6883 21.0959 67.3404C20.9682 66.9842 20.8557 66.5812 20.7315 66.1536C20.6038 65.7283 20.5452 65.2948 20.4538 64.832C20.3648 64.306 20.3531 63.7964 20.3988 63.2727C20.441 62.7572 20.5312 62.2359 20.6929 61.7321C20.8604 61.2377 21.1158 60.7503 21.4977 60.3977C21.5833 60.3098 21.7098 60.2313 21.8246 60.161C21.9523 60.0954 21.9851 60.0931 22.1421 60.0333C22.3694 59.9818 22.6014 59.9619 22.8368 59.9994C23.3137 60.0767 23.712 60.4317 23.9697 60.8031C24.2357 61.1756 24.3938 61.5774 24.5157 61.9453C24.7523 62.6916 24.8004 63.3371 24.8262 63.7776C24.8414 64.2205 24.8074 64.4654 24.8074 64.4654Z" fill="#F2A57F"/>
<path d="M24.8074 64.4653C24.8074 64.4653 25.0206 63.9791 23.5023 63.8643C23.5023 63.8643 21.8047 64.1782 22.8017 66.4429C23.0184 66.9291 23.2023 67.434 23.3113 67.9694C23.4624 68.7286 23.1918 69.7596 23.5983 70.4344C24.1244 71.3037 25.4611 70.8093 25.5408 69.8146C25.6017 69.052 24.8179 67.7433 24.4594 67.202C24.4594 67.202 23.3687 65.5501 24.8074 64.4653Z" fill="#F2A57F"/>
<path d="M25.541 69.7163C25.5363 69.7187 25.5925 69.748 25.6581 69.8394C25.7308 69.9272 25.8128 70.0725 25.8819 70.2623C25.9253 70.3595 25.9393 70.4673 25.9604 70.5856C25.9815 70.7051 26.0073 70.834 25.9874 70.9629C25.978 71.0894 25.9756 71.23 25.9522 71.3682C25.9253 71.4983 25.8714 71.619 25.8269 71.7478C25.7706 71.865 25.7308 72.0032 25.6546 72.0935C25.5867 72.1907 25.5011 72.2703 25.4308 72.357C25.2879 72.5339 25.1227 72.6359 24.9669 72.6851C24.667 72.8163 24.4491 72.814 24.4491 72.814C24.4491 72.814 24.5346 72.5386 24.6857 72.261C24.7232 72.1883 24.7619 72.1145 24.8122 72.0454C24.8486 71.9657 24.8767 71.8732 24.9212 71.7947C24.9622 71.7174 24.9939 71.6283 25.0466 71.5569C25.1005 71.4842 25.1098 71.3835 25.1438 71.3026C25.234 71.1445 25.2727 70.9746 25.3289 70.8059C25.3605 70.7216 25.3758 70.6383 25.3945 70.5552C25.4062 70.4696 25.4437 70.3876 25.4508 70.3068C25.5105 69.994 25.541 69.714 25.541 69.7163Z" fill="#F2A57F"/>
<path d="M73.9973 65.6933C73.2616 70.2448 74.5398 74.2902 76.8454 74.7225C79.1522 75.1619 81.616 71.8276 82.3483 67.2772C83.0781 62.728 81.8046 58.6826 79.4943 58.2468C77.1898 57.811 74.7284 61.1452 73.9973 65.6933Z" fill="#F4B88E"/>
<path d="M76.7716 64.4654C76.7716 64.4654 76.8067 64.21 76.8969 63.7941C76.9848 63.3758 77.1687 62.7865 77.4534 62.1586C77.7428 61.5517 78.2091 60.8511 78.7937 60.8136C78.939 60.803 79.0877 60.8312 79.2377 60.8768C79.2623 60.8944 79.417 60.9542 79.4615 60.994C79.5107 61.0432 79.5646 61.0608 79.6255 61.1299C79.8645 61.3595 80.0566 61.7145 80.182 62.1222C80.3214 62.5217 80.4069 62.9693 80.4538 63.4145C80.4925 63.8573 80.5194 64.3224 80.4678 64.7172C80.3975 65.173 80.3753 65.6428 80.2933 66.0388C80.2148 66.4442 80.1421 66.8261 80.0742 67.1787C79.9805 67.5349 79.9078 67.8641 79.8434 68.1581C79.7813 68.4534 79.6899 68.6994 79.6384 68.9091C79.5189 69.325 79.4603 69.5699 79.4603 69.5699C79.4603 69.5699 79.5786 69.3625 79.7708 68.9829C79.8586 68.7873 79.9898 68.5647 80.1035 68.2835C80.2195 68.0058 80.3519 67.6883 80.4843 67.3404C80.6108 66.9842 80.7244 66.5812 80.8474 66.1536C80.9751 65.7283 81.0337 65.2948 81.1251 64.832C81.2153 64.306 81.227 63.7964 81.1825 63.2727C81.1403 62.7572 81.0501 62.2359 80.8884 61.7321C80.7221 61.2377 80.4643 60.7503 80.0824 60.3977C79.9981 60.3098 79.8704 60.2313 79.7544 60.161C79.6279 60.0954 79.595 60.0931 79.438 60.0333C79.2096 59.9818 78.9788 59.9619 78.7421 59.9994C78.2653 60.0767 77.8681 60.4317 77.6116 60.8031C77.3445 61.1756 77.1851 61.5774 77.0644 61.9453C76.8266 62.6916 76.7786 63.3371 76.754 63.7776C76.7376 64.2205 76.7716 64.4654 76.7716 64.4654Z" fill="#F2A57F"/>
<path d="M76.7718 64.4653C76.7718 64.4653 76.5586 63.9791 78.0781 63.8643C78.0781 63.8643 79.7757 64.1782 78.7775 66.4429C78.5619 66.9291 78.378 67.434 78.2691 67.9694C78.1179 68.7286 78.3886 69.7596 77.982 70.4344C77.4548 71.3037 76.118 70.8093 76.0395 69.8146C75.9775 69.052 76.7612 67.7433 77.1209 67.202C77.1209 67.202 78.2116 65.5501 76.7718 64.4653Z" fill="#F2A57F"/>
<path d="M76.0407 69.7163C76.043 69.7187 75.9879 69.748 75.9235 69.8394C75.8485 69.9272 75.7689 70.0725 75.6998 70.2623C75.6576 70.3595 75.6423 70.4673 75.6212 70.5856C75.6002 70.7051 75.5732 70.834 75.5931 70.9629C75.6049 71.0894 75.606 71.23 75.6294 71.3682C75.6564 71.4983 75.7103 71.619 75.7548 71.7478C75.8122 71.865 75.8509 72.0032 75.9259 72.0935C75.9938 72.1907 76.0793 72.2703 76.1508 72.357C76.2925 72.5339 76.4589 72.6359 76.6147 72.6851C76.9146 72.8163 77.1326 72.814 77.1326 72.814C77.1326 72.814 77.047 72.5386 76.8959 72.261C76.8584 72.1883 76.8186 72.1145 76.7682 72.0454C76.7319 71.9657 76.7038 71.8732 76.6604 71.7947C76.6206 71.7174 76.589 71.6283 76.5362 71.5569C76.4823 71.4842 76.4718 71.3835 76.4378 71.3026C76.3488 71.1445 76.309 70.9746 76.2539 70.8059C76.2223 70.7216 76.207 70.6383 76.1883 70.5552C76.1766 70.4696 76.1391 70.3876 76.1309 70.3068C76.0688 69.994 76.0407 69.714 76.0407 69.7163Z" fill="#F2A57F"/>
<path d="M50.5092 16.6022V16.5952C50.631 16.5952 50.7517 16.5976 50.8712 16.5976C50.9965 16.5976 51.116 16.5952 51.2379 16.5952V16.5999C69.5799 16.7639 79.8862 21.9868 77.0686 55.4221L73.9124 82.0553C73.9124 82.0553 73.35 86.9149 68.0217 89.8216L58.0576 97.2083C58.0576 97.2083 53.3233 99.3101 50.8665 99.1027C48.4168 99.3101 43.6813 97.206 43.6813 97.206L33.7183 89.8192C28.39 86.9114 27.8277 82.0529 27.8277 82.0529L24.5028 56.036C21.6899 22.6007 32.1695 16.7616 50.5092 16.6022Z" fill="#F4B88E"/>
<path d="M28.9467 65.6931C29.5969 68.5283 30.0467 73.0669 31.8896 75.4944C33.2041 77.226 35.0739 78.1222 37.2401 78.2394C38.7093 78.3214 40.1831 78.1913 41.6324 77.9371C42.7582 77.7426 43.815 77.178 44.976 77.1534C46.2811 77.1241 47.1598 77.5692 48.2646 78.1738C49.6459 78.9283 50.8795 78.8474 52.3862 78.3811C54.5325 77.711 56.4913 76.9073 58.7852 76.987C61.3111 77.0748 64.2143 77.7485 66.6886 76.987C69.3399 76.1739 70.7212 73.8706 71.7592 71.4431C72.318 70.1345 72.7152 67.0474 73.1135 65.6931C73.6091 64.0072 74.3835 65.1671 75.9182 65.1471L73.9137 83.9496C73.9137 83.9496 73.3513 88.8081 68.0231 91.7159L58.0589 99.1026C58.0589 99.1026 53.3246 101.207 50.8678 100.997C48.4181 101.207 43.6826 99.1026 43.6826 99.1026L33.7196 91.7136C28.3913 88.8069 27.829 83.9473 27.829 83.9473L25.6264 64.8215C27.3592 64.7805 28.4921 63.719 28.9467 65.6931Z" fill="#472009"/>
<path d="M64.3853 57.6094C64.3736 59.3445 63.3988 60.7504 62.2074 60.7433C61.0135 60.7363 60.0552 59.3211 60.0669 57.5825C60.0775 55.8462 61.0522 54.4403 62.2437 54.4485C63.4363 54.4556 64.3947 55.8708 64.3853 57.6094Z" fill="#2F1807"/>
<path d="M63.0833 56.6065C63.0833 57.1243 63.5015 57.5414 64.017 57.5414C64.5348 57.5414 64.9519 57.1255 64.9519 56.6065C64.9519 56.091 64.5348 55.6704 64.017 55.6704C63.5027 55.6704 63.0833 56.0898 63.0833 56.6065Z" fill="white"/>
<path d="M37.1944 57.6094C37.2049 59.3445 38.1809 60.7504 39.3712 60.7433C40.565 60.7363 41.5233 59.3211 41.5128 57.5825C41.5022 55.8462 40.5264 54.4403 39.3349 54.4485C38.1422 54.4556 37.1839 55.8708 37.1944 57.6094Z" fill="#2F1807"/>
<path d="M38.4965 56.6065C38.4965 57.1243 38.0782 57.5414 37.5639 57.5414C37.0449 57.5414 36.629 57.1255 36.629 56.6065C36.629 56.091 37.0449 55.6704 37.5639 55.6704C38.0782 55.6704 38.4965 56.0898 38.4965 56.6065Z" fill="white"/>
<path d="M47.6161 74.5257C48.1105 74.999 48.7057 75.3832 49.3477 75.6703C49.9909 75.962 50.6903 76.1565 51.4213 76.235C51.7857 76.29 52.1583 76.29 52.5343 76.2842C52.9046 76.2432 53.2888 76.2279 53.6555 76.1248C54.0316 76.0534 54.3936 75.9327 54.7498 75.7909C55.1106 75.6597 55.441 75.4688 55.7831 75.2919L56.2119 75.0728L56.308 74.3499C56.3513 74.0277 56.3783 73.7454 56.3876 73.4467C56.4064 73.1514 56.3923 72.8597 56.3853 72.568C56.3536 71.9845 56.281 71.4034 56.1451 70.8329C56.0139 70.2611 55.8276 69.6965 55.5605 69.1517C55.3203 68.6034 54.9759 68.075 54.5436 67.5818C54.2835 68.2027 54.157 68.7827 54.0527 69.3555C53.9332 69.9284 53.8851 70.4849 53.8441 71.0379C53.8207 71.5886 53.8102 72.1357 53.8313 72.6781L53.8816 73.4888C53.9027 73.7559 53.9309 74.0371 53.9637 74.2796L54.4885 73.3377C54.2542 73.4771 54.0433 73.6716 53.7985 73.7981C53.556 73.9317 53.317 74.077 53.0557 74.1777C52.8026 74.3042 52.5297 74.3745 52.2579 74.4765C51.979 74.535 51.6979 74.6323 51.4038 74.6697C51.1109 74.7318 50.8098 74.7459 50.504 74.7647C50.1959 74.7881 49.8831 74.7904 49.5656 74.7775C48.9353 74.7424 48.2816 74.6744 47.6161 74.5257Z" fill="#EBA17D"/>
<path d="M57.7029 51.195C57.902 52.0046 58.6753 52.4884 59.4145 52.3525C62.4137 51.8031 65.4258 52.0842 68.1415 53.0836C68.8117 53.3296 69.6259 52.9688 70.0043 52.226C70.3816 51.4856 70.0641 50.5823 69.2475 50.2789C66.0351 49.0839 62.4875 48.7429 58.9693 49.3697C58.0743 49.5291 57.5014 50.389 57.7029 51.195Z" fill="#472009"/>
<path d="M44.7069 51.195C44.5078 52.0046 43.7333 52.4884 42.9953 52.3525C39.9972 51.8031 36.9851 52.0842 34.2683 53.0836C33.5981 53.3296 32.7827 52.9688 32.4043 52.226C32.0271 51.4856 32.3445 50.5823 33.1611 50.2789C36.3736 49.0839 39.9211 48.7429 43.4393 49.3697C44.3344 49.5291 44.9073 50.389 44.7069 51.195Z" fill="#472009"/>
<path d="M49.8862 86.2671C49.8862 86.2671 50.9735 86.6022 52.4684 86.3081" stroke="#E89780" stroke-miterlimit="10" stroke-linecap="round" stroke-linejoin="round"/>
<path d="M56.9955 80.9258L55.4959 83.8746C55.4959 83.8746 48.7957 87.64 44.0661 81.0746C44.0649 81.0746 51.4188 81.4155 56.9955 80.9258Z" fill="white"/>
<path d="M63.8433 24.2865C63.8433 24.2865 56.9955 32.5742 41.5133 34.7592C41.5133 34.7592 25.7838 40.1929 25.9947 49.0616L28.769 65.1484L25.6257 64.8227C25.6257 64.8227 25.539 58.3404 22.0852 58.2479C22.0852 58.2479 18.9747 45.233 19.0251 43.0035C19.0743 40.7763 23.4079 18.7157 23.4079 18.7157L40.2749 6.68494C40.2749 6.68494 58.5127 4.01144 66.9808 0C66.9808 0 65.0489 5.12676 62.2254 6.68494C62.2254 6.68494 72.7988 7.80028 73.7887 7.57651C74.7775 7.35508 72.3266 13.1485 72.3266 13.1485L81.2083 26.7398L79.4954 58.2491C79.4954 58.2491 76.7504 58.5197 75.9175 65.1507H73.34L73.7899 44.9342C73.7899 44.9319 70.1627 32.4102 63.8433 24.2865Z" fill="#472009"/>
<path d="M64.5427 23.5531C67.4916 20.5609 70.5001 17.1528 72.4239 13.2937L81.2083 26.7386L81.2036 26.8182C78.3039 31.4647 75.4067 36.1181 72.3536 40.6662C70.745 36.2892 67.8302 29.4144 63.8422 24.2865C63.8422 24.2865 62.9482 25.3643 61.089 26.8405C62.2758 25.7779 63.4286 24.6848 64.5427 23.5531Z" fill="#341000"/>
<path d="M50.9708 120.899L53.0585 110.227L64.111 103.537L65.7208 110.265L50.9708 120.899Z" fill="#717EBA"/>
<path d="M50.9713 120.899L48.8836 110.227L37.8299 103.537L36.219 110.265L50.9713 120.899Z" fill="#717EBA"/>
<path d="M45.684 111.671H50.6209H51.2993H56.2362C56.2362 111.671 58.5946 113.1 57.5871 115.582L54.2282 120.898H51.7081H50.212H47.692L44.3332 115.582C43.3256 113.099 45.684 111.671 45.684 111.671Z" fill="#6A54A1"/>
<path d="M44.9642 112.284C44.7545 113.273 44.8001 114.33 45.1762 115.422C45.9342 117.618 47.5158 119.337 49.8637 119.755C51.9678 120.132 54.0637 119.166 54.6893 117.062C55.247 115.19 55.5563 113.067 54.3613 111.67H56.2381C56.2381 111.67 58.5965 113.099 57.589 115.581L54.2301 120.897H47.6927L44.3339 115.581C43.7129 114.055 44.3678 112.927 44.9642 112.284Z" fill="#6A54A1"/>
<path d="M54.2395 120.898L57.8479 139.802H44.075L47.701 120.898H54.2395Z" fill="#6A54A1"/>
<path d="M53.0591 110.227L58.2843 119.8L71.0602 111.121L64.1116 103.537L53.0591 110.227Z" fill="#86B4DB"/>
<path d="M48.8833 110.227L43.6558 119.8L30.881 111.121L37.8296 103.537L48.8833 110.227Z" fill="#86B4DB"/>
</svg>
