<svg width="48" height="48" viewBox="0 0 48 48" fill="none" xmlns="http://www.w3.org/2000/svg">
<path d="M38.25 36.75V21C38.25 19.95 39.075 19.125 40.125 19.125C41.175 19.125 42 19.95 42 21V37.35C42 39.225 39.975 41.25 38.175 41.25H10.2C8.325 41.25 6.75 39.225 6.75 37.35V9.225C6.75 7.5 8.175 6 9.825 6H30.6C32.475 6 34.5 7.35 34.5 9.225V37.125C34.5 37.125 34.35 41.25 38.175 41.25" fill="#E5E5E5"/>
<path d="M38.25 21C38.25 19.95 39.075 19.125 40.125 19.125H34.5V37.125C34.5 37.125 34.35 41.25 38.175 41.25L38.25 36.75V21Z" fill="#B7B7B7"/>
<path d="M21.75 11.025V14.1V17.25C21.75 17.25 25.05 17.7 25.05 16.05C25.05 13.95 22.95 14.475 22.425 14.25C22.95 14.1 24.525 14.1 24.525 12.675C24.525 10.8 21.75 11.025 21.75 11.025Z" stroke="#C02727" stroke-miterlimit="10" stroke-linecap="round" stroke-linejoin="round"/>
<path d="M19.5 15.3749C19.5 16.4249 18.675 17.2499 17.625 17.2499C16.575 17.2499 15.75 16.4249 15.75 15.3749V12.8999C15.75 11.8499 16.575 11.0249 17.625 11.0249C18.675 11.0249 19.5 11.8499 19.5 12.8999V15.3749Z" stroke="#C02727" stroke-miterlimit="10" stroke-linecap="round" stroke-linejoin="round"/>
<path d="M10.2 16.125C10.5 16.8 11.025 17.325 11.775 17.325C12.825 17.325 13.5 16.5 13.5 15.45V11.25H12" stroke="#C02727" stroke-miterlimit="10" stroke-linecap="round" stroke-linejoin="round"/>
<path d="M38.25 36.75V21C38.25 19.95 39.075 19.125 40.125 19.125C41.175 19.125 42 19.95 42 21V37.35C42 39.225 39.975 41.25 38.175 41.25H10.2C8.325 41.25 6.75 39.225 6.75 37.35V9.225C6.75 7.5 8.175 6 9.825 6H30.6C32.475 6 34.5 7.35 34.5 9.225V37.125C34.5 37.125 34.35 41.25 38.175 41.25" stroke="#C02727" stroke-miterlimit="10" stroke-linecap="round" stroke-linejoin="round"/>
<path d="M30.6 12.8999C30.6 11.8499 29.775 11.0249 28.8 11.0249C27.75 11.0249 27 11.8499 27 12.8999C27 13.5749 30.675 14.3999 30.675 15.3749C30.675 16.4249 29.85 17.2499 28.875 17.2499C27.825 17.2499 27.075 16.4249 27.075 15.3749" stroke="#C02727" stroke-miterlimit="10" stroke-linecap="round" stroke-linejoin="round"/>
<path d="M11.25 21H15.75" stroke="#C02727" stroke-miterlimit="10" stroke-linecap="round" stroke-linejoin="round"/>
<path d="M11.25 23.25H18.75" stroke="#C02727" stroke-miterlimit="10" stroke-linecap="round" stroke-linejoin="round"/>
<path d="M11.25 25.5H18" stroke="#C02727" stroke-miterlimit="10" stroke-linecap="round" stroke-linejoin="round"/>
<path d="M22.5 32.25H27" stroke="#C02727" stroke-miterlimit="10" stroke-linecap="round" stroke-linejoin="round"/>
<path d="M22.5 34.5H30" stroke="#C02727" stroke-miterlimit="10" stroke-linecap="round" stroke-linejoin="round"/>
<path d="M22.5 36.75H29.25" stroke="#C02727" stroke-miterlimit="10" stroke-linecap="round" stroke-linejoin="round"/>
<path d="M22.5 21H27.75" stroke="#C02727" stroke-miterlimit="10" stroke-linecap="round" stroke-linejoin="round"/>
<path d="M22.5 23.25H30" stroke="#C02727" stroke-miterlimit="10" stroke-linecap="round" stroke-linejoin="round"/>
<path d="M22.5 27.75H30" stroke="#C02727" stroke-miterlimit="10" stroke-linecap="round" stroke-linejoin="round"/>
<path d="M22.5 25.5H29.25" stroke="#C02727" stroke-miterlimit="10" stroke-linecap="round" stroke-linejoin="round"/>
<path d="M11.25 30H16.5" stroke="#C02727" stroke-miterlimit="10" stroke-linecap="round" stroke-linejoin="round"/>
<path d="M11.25 32.25H18.75" stroke="#C02727" stroke-miterlimit="10" stroke-linecap="round" stroke-linejoin="round"/>
<path d="M11.25 36.75H18.75" stroke="#C02727" stroke-miterlimit="10" stroke-linecap="round" stroke-linejoin="round"/>
<path d="M11.25 34.5H18" stroke="#C02727" stroke-miterlimit="10" stroke-linecap="round" stroke-linejoin="round"/>
</svg>
