<svg width="90" height="126" viewBox="0 0 90 126" fill="none" xmlns="http://www.w3.org/2000/svg">
<path d="M73.0932 46.9473H10.64V111.891H73.0932V46.9473Z" fill="#C87053"/>
<path d="M24.0781 32.8582H10.64V111.892H24.0781V32.8582Z" fill="#E08D61"/>
<path d="M54.6963 81.9663H45.9932H35.0534C35.0534 81.9663 35.5502 95.7546 33.1447 99.7586H44.9997H56.8534C54.4492 95.7558 54.6963 81.9663 54.6963 81.9663Z" fill="#F4B88E"/>
<path d="M34.9446 90.4404C38.6038 92.0212 42.2918 93.5348 46.4832 93.1681C49.4535 92.908 52.3244 92.0823 54.977 90.8479C54.6188 86.3225 54.6972 81.9673 54.6972 81.9673H35.0544C35.0544 81.9661 35.2008 86.0648 34.9446 90.4404Z" fill="#F5DCD6"/>
<path d="M81.4159 107.575L54.0557 97.7822H45.137H44.8337H35.9137L8.55224 107.575C8.55224 107.575 -1.02927 110.724 0.0911216 126H44.8337H45.137H89.8796C91.187 109.786 81.4159 107.575 81.4159 107.575Z" fill="#F4B88E"/>
<path d="M69.6822 55.7512C68.8716 60.3293 70.2757 64.3993 72.8093 64.8355C75.3403 65.2765 78.0453 61.9233 78.848 57.3427C79.6494 52.7634 78.2505 48.6959 75.7156 48.2572C73.1859 47.8162 70.4836 51.1707 69.6822 55.7512Z" fill="#F4B88E"/>
<path d="M72.7269 54.5131C72.7269 54.5131 72.7635 54.2567 72.8642 53.8384C72.9609 53.4165 73.1622 52.8245 73.4733 52.1905C73.791 51.5793 74.3022 50.8758 74.9454 50.8387C75.1062 50.8291 75.2684 50.8554 75.4331 50.9022C75.4592 50.919 75.6292 50.9801 75.6802 51.0196C75.7338 51.0688 75.7926 51.0879 75.8593 51.1575C76.122 51.3876 76.3325 51.7447 76.4698 52.1558C76.6228 52.5585 76.7169 53.0103 76.7679 53.4561C76.811 53.9031 76.8411 54.3705 76.7862 54.7672C76.7077 55.2262 76.6842 55.6984 76.5927 56.0975C76.5077 56.505 76.428 56.8897 76.3521 57.2456C76.2489 57.6028 76.1704 57.9347 76.0998 58.2296C76.0318 58.5268 75.9312 58.7737 75.8749 58.9846C75.7442 59.4029 75.6788 59.6497 75.6788 59.6497C75.6788 59.6497 75.8096 59.44 76.02 59.0565C76.1168 58.8611 76.2619 58.6358 76.3848 58.3542C76.5129 58.0738 76.658 57.7586 76.8045 57.4062C76.943 57.0491 77.0673 56.6428 77.2032 56.2138C77.3431 55.7847 77.4084 55.3473 77.5078 54.8823C77.6059 54.3525 77.6189 53.8408 77.5706 53.3147C77.5222 52.7957 77.4255 52.2708 77.2464 51.7639C77.0646 51.2653 76.7822 50.7775 76.3639 50.4216C76.2698 50.3341 76.1312 50.2538 76.0044 50.1831C75.8645 50.116 75.8279 50.1136 75.6553 50.0549C75.4056 50.0021 75.152 49.9806 74.8931 50.0201C74.3689 50.0956 73.9335 50.4552 73.6498 50.8279C73.357 51.2018 73.1831 51.6069 73.0498 51.9772C72.7909 52.7274 72.7373 53.3782 72.7086 53.8204C72.6903 54.2675 72.7269 54.5131 72.7269 54.5131Z" fill="#F2A57F"/>
<path d="M72.7269 54.513C72.7269 54.513 72.4929 54.0228 74.1597 53.9089C74.1597 53.9089 76.0227 54.2241 74.9271 56.5024C74.6892 56.9938 74.4879 57.5007 74.3702 58.0388C74.2029 58.8034 74.5009 59.8389 74.0538 60.5184C73.4773 61.3933 72.0092 60.8948 71.9229 59.894C71.8549 59.127 72.7164 57.8123 73.1099 57.267C73.1099 57.2658 74.3061 55.6036 72.7269 54.513Z" fill="#F2A57F"/>
<path d="M71.9231 59.7959C71.9271 59.7995 71.8656 59.8295 71.7937 59.9205C71.714 60.0092 71.625 60.1542 71.5479 60.3472C71.5008 60.4431 71.4838 60.5509 71.4616 60.672C71.4394 60.7918 71.4094 60.9213 71.4329 61.0507C71.4433 61.1789 71.446 61.3203 71.4721 61.4582C71.5009 61.59 71.561 61.7122 71.608 61.8393C71.6721 61.9579 71.714 62.0969 71.7976 62.188C71.8708 62.2887 71.9663 62.3678 72.0447 62.4529C72.2016 62.6326 72.382 62.7345 72.5533 62.7849C72.8814 62.9167 73.1233 62.9131 73.1233 62.9131C73.1233 62.9131 73.0278 62.6374 72.8618 62.3594C72.8213 62.2863 72.7781 62.212 72.7232 62.1437C72.6827 62.0622 72.6526 61.9687 72.6043 61.8908C72.5611 61.8117 72.5258 61.7242 72.467 61.6499C72.4081 61.5756 72.3977 61.4749 72.3598 61.3946C72.2617 61.2376 72.2186 61.0627 72.1571 60.8949C72.1231 60.811 72.1062 60.7247 72.0852 60.6432C72.0735 60.5569 72.0303 60.4718 72.0238 60.3927C71.9558 60.0775 71.9231 59.7947 71.9231 59.7959Z" fill="#F2A57F"/>
<path d="M21.4649 55.7512C22.2741 60.3293 20.8713 64.3993 18.339 64.8355C15.808 65.2765 13.1031 61.9233 12.299 57.3427C11.4976 52.7634 12.8952 48.6959 15.4315 48.2572C17.9612 47.8162 20.6635 51.1707 21.4649 55.7512Z" fill="#F4B88E"/>
<path d="M18.4212 54.5131C18.4212 54.5131 18.3833 54.2567 18.2826 53.8384C18.1872 53.4165 17.9858 52.8245 17.6734 52.1905C17.3557 51.5793 16.8445 50.8758 16.2013 50.8387C16.0418 50.8291 15.8784 50.8554 15.7136 50.9022C15.6875 50.919 15.5176 50.9801 15.4679 51.0196C15.413 51.0688 15.3528 51.0879 15.2875 51.1575C15.026 51.3876 14.8142 51.7447 14.6756 52.1558C14.524 52.5585 14.4285 53.0103 14.3775 53.4561C14.3344 53.9031 14.3056 54.3705 14.3619 54.7672C14.439 55.2262 14.4638 55.6984 14.5554 56.0975C14.6403 56.505 14.7214 56.8897 14.7959 57.2456C14.8992 57.6028 14.9776 57.9347 15.0482 58.2296C15.1162 58.5268 15.2156 58.7737 15.2731 58.9846C15.4038 59.4029 15.4692 59.6497 15.4692 59.6497C15.4692 59.6497 15.3384 59.44 15.128 59.0565C15.0299 58.8611 14.8861 58.6358 14.7619 58.3542C14.6338 58.0738 14.49 57.7586 14.3436 57.4062C14.2037 57.0491 14.0795 56.6428 13.9461 56.2138C13.8049 55.7847 13.7396 55.3473 13.6402 54.8823C13.5421 54.3525 13.5291 53.8408 13.5774 53.3147C13.6245 52.7957 13.7239 52.2708 13.9017 51.7639C14.0834 51.2653 14.3658 50.7775 14.7841 50.4216C14.8769 50.3341 15.0169 50.2538 15.1437 50.1831C15.2823 50.116 15.3201 50.1136 15.4901 50.0549C15.7411 50.0021 15.9961 49.9806 16.2536 50.0201C16.7779 50.0956 17.2145 50.4552 17.4969 50.8279C17.7884 51.2018 17.9636 51.6069 18.0969 51.9772C18.3571 52.7274 18.4094 53.3782 18.4369 53.8204C18.4565 54.2675 18.4212 54.5131 18.4212 54.5131Z" fill="#F2A57F"/>
<path d="M18.4212 54.513C18.4212 54.513 18.6552 54.0228 16.987 53.9089C16.987 53.9089 15.1241 54.2241 16.2196 56.5024C16.4563 56.9938 16.6589 57.5007 16.7766 58.0388C16.9439 58.8034 16.6458 59.8389 17.0929 60.5184C17.6708 61.3933 19.1376 60.8948 19.2239 59.894C19.2932 59.127 18.4316 57.8123 18.0368 57.267C18.0368 57.2658 16.8393 55.6036 18.4212 54.513Z" fill="#F2A57F"/>
<path d="M19.2235 59.7959C19.2209 59.7995 19.2811 59.8295 19.353 59.9205C19.4341 60.0092 19.5216 60.1542 19.5975 60.3472C19.6445 60.4431 19.6615 60.5509 19.6837 60.672C19.7073 60.7918 19.736 60.9213 19.7151 61.0507C19.7046 61.1789 19.702 61.3203 19.6759 61.4582C19.6471 61.59 19.587 61.7122 19.5399 61.8393C19.4759 61.9579 19.434 62.0969 19.3517 62.188C19.2785 62.2887 19.183 62.3678 19.1046 62.4529C18.9477 62.6326 18.766 62.7345 18.5947 62.7849C18.2666 62.9167 18.0273 62.9131 18.0273 62.9131C18.0273 62.9131 18.1202 62.6374 18.2862 62.3594C18.328 62.2863 18.3712 62.212 18.4261 62.1437C18.4666 62.0622 18.4967 61.9687 18.5437 61.8908C18.5895 61.8117 18.6248 61.7242 18.6836 61.6499C18.7411 61.5756 18.7516 61.4749 18.7895 61.3946C18.8875 61.2376 18.9307 61.0627 18.9935 60.8949C19.0274 60.811 19.0445 60.7247 19.0654 60.6432C19.0772 60.5569 19.1177 60.4718 19.1268 60.3927C19.1922 60.0775 19.2248 59.7947 19.2235 59.7959Z" fill="#F2A57F"/>
<path d="M70.4734 18.5583C70.4734 18.5583 61.8553 9.90541 44.8925 9.42603C27.9454 10.241 19.3575 19.1947 19.3575 19.1959C14.7465 32.8164 17.6971 48.7834 19.6581 62.6017C21.1067 72.8066 28.5926 79.9458 38.0277 84.9158C38.0277 84.9158 41.3653 86.8969 45.8038 87.121C50.2278 86.8106 53.5132 84.7708 53.5249 84.7624C62.692 79.0649 69.7073 72.0264 71.4578 61.6549C72.9691 52.6988 73.3116 42.8019 72.9743 33.7643C72.7887 28.7811 72.2095 23.3198 70.4734 18.5583Z" fill="#F4B88E"/>
<path d="M37.5204 46.4296C37.5204 46.4296 31.4608 44.5588 25.1934 47.1942C26.4289 41.0653 38.0107 43.5808 38.0107 43.5808C38.0107 43.5808 38.7741 43.745 38.6918 44.8416C38.6918 44.8416 38.3846 46.7268 37.5204 46.4296Z" fill="#E08D61"/>
<path d="M51.646 46.4296C51.646 46.4296 58.537 44.5588 64.8057 47.1942C63.5703 41.0653 51.1557 43.5808 51.1557 43.5808C51.1557 43.5808 50.3909 43.745 50.4746 44.8416C50.4746 44.8416 50.7805 46.7268 51.646 46.4296Z" fill="#E08D61"/>
<path d="M29.8288 52.1353C29.8419 53.9126 30.9296 55.3484 32.2592 55.3412C33.5901 55.334 34.6595 53.8863 34.6477 52.109C34.6359 50.3304 33.5482 48.8947 32.2187 48.9019C30.8878 48.9091 29.8171 50.3568 29.8288 52.1353Z" fill="#2F1807"/>
<path d="M31.2814 51.1097C31.2814 51.6382 30.8147 52.0661 30.2394 52.0661C29.6629 52.0661 29.1962 51.6382 29.1962 51.1097C29.1962 50.5812 29.6616 50.1533 30.2394 50.1533C30.8147 50.1533 31.2814 50.5812 31.2814 51.1097Z" fill="white"/>
<path d="M60.1711 52.1353C60.1593 53.9126 59.0703 55.3484 57.7407 55.3412C56.4098 55.334 55.3404 53.8863 55.3522 52.109C55.3627 50.3304 56.4517 48.8947 57.7826 48.9019C59.1121 48.9091 60.1815 50.3568 60.1711 52.1353Z" fill="#2F1807"/>
<path d="M58.7177 51.1097C58.7177 51.6382 59.1857 52.0661 59.7596 52.0661C60.3361 52.0661 60.8029 51.6382 60.8029 51.1097C60.8029 50.5812 60.3374 50.1533 59.7596 50.1533C59.1844 50.1533 58.7177 50.5812 58.7177 51.1097Z" fill="white"/>
<path d="M38.9662 72.188C38.9806 73.9066 41.6359 75.298 44.9134 75.298C48.1922 75.298 50.8474 73.9066 50.8605 72.188H38.9662Z" fill="white"/>
<path d="M50.5443 72.6697C51.9458 72.3593 52.4818 72.0118 52.4818 72.0118C52.4818 72.0118 51.5118 71.6379 50.1482 71.2592C46.6445 69.9049 46.8825 71.6606 45.0182 71.6546C44.0834 71.681 43.15 70.7486 42.2754 70.8601C41.4021 70.9535 40.5863 71.0938 39.8856 71.2628C38.4854 71.5744 37.5519 72.0106 37.5519 72.0106C37.5519 72.0106 38.2697 72.4492 39.6685 72.762C39.6685 72.762 41.755 72.6925 43.4729 72.9334C43.4729 72.9334 45.0587 73.2977 46.1216 72.9945C46.1229 72.9945 48.6408 72.5056 50.5443 72.6697Z" fill="#F37D7F"/>
<path d="M51.3117 72.0083C49.9403 73.3014 47.7924 74.4795 44.4926 74.4795C44.4926 74.4795 41.2988 74.4771 38.7129 72.0083H37.5179C37.5585 72.0946 37.5885 72.1785 37.6356 72.2672C37.9389 72.7633 38.1925 73.3506 38.6462 73.8767C38.8645 74.1464 39.0894 74.4244 39.3208 74.7072C39.5574 74.9889 39.8803 75.2178 40.1705 75.4826L40.6242 75.8685L41.1615 76.1933C41.5394 76.4055 41.8479 76.6643 42.3394 76.7926C42.7826 76.934 43.2977 77.1281 43.7017 77.1916L44.2861 77.2624L44.5816 77.2971L44.7267 77.3175L44.7999 77.3259L44.9973 77.3391L46.3844 77.1797C46.838 77.1006 47.2538 76.916 47.6813 76.7842C48.1258 76.6691 48.4618 76.3995 48.8304 76.1945L49.3664 75.8685L49.8214 75.4814C50.1103 75.2166 50.4332 74.9877 50.6685 74.7072C50.9012 74.4244 51.1248 74.1464 51.3431 73.8779C51.7968 73.353 52.0491 72.7633 52.3537 72.266C52.4008 72.1821 52.4295 72.0982 52.4701 72.0119H51.3117V72.0083Z" fill="#F37D7F"/>
<path d="M44.9135 76.1201C49.7833 75.8205 50.6867 73.2234 50.6867 73.2234C48.4786 75.7294 44.9135 75.3854 44.9135 75.3854C44.9135 75.3854 44.5932 75.4082 44.5932 75.7749C44.5918 75.7749 44.6651 76.1344 44.9135 76.1201Z" fill="white"/>
<path d="M82.3195 35.4672C82.3195 35.4672 83.8203 5.50449 54.171 0.548864C54.171 0.548864 33.145 -2.52758 25.2591 9.42585L33.145 27.7299C33.145 27.7299 46.6015 39.9255 72.2725 47.1941C72.2725 47.1941 72.7876 63.5974 68.9336 69.392C68.9336 69.392 64.9069 76.3011 60.8032 79.4854C60.8032 79.4854 59.6449 95.4908 71.9195 104.176L79.9662 107.057L83.334 108.397C83.334 108.397 84.0243 96.9374 79.0747 87.1208C79.0734 87.1208 91.6356 71.9243 82.3195 35.4672Z" fill="#E08D61"/>
<path d="M41.576 64.2709C41.576 64.2709 41.6205 64.2625 41.7055 64.2457C41.7865 64.2313 41.912 64.1882 42.0506 64.1678C42.3343 64.1103 42.7134 64.0444 43.1253 63.9808C43.5331 63.9269 43.975 63.8742 44.4065 63.8514C44.8392 63.8214 45.2667 63.8178 45.6798 63.819C46.0942 63.8358 46.4995 63.8598 46.9061 63.8945C47.1127 63.9245 47.3114 63.9341 47.5166 63.9593C47.7245 63.9928 47.9258 64.0156 48.1219 64.0336C48.3167 64.0527 48.522 64.1019 48.7011 64.1211C48.8724 64.1295 49.0449 64.1618 49.1874 64.181C49.326 64.1954 49.4593 64.2325 49.5417 64.2445C49.628 64.2601 49.6737 64.2697 49.6737 64.2697C49.6737 64.2697 49.662 64.3092 49.6398 64.3835C49.6162 64.4542 49.5914 64.5777 49.5286 64.6999C49.4188 64.9672 49.2201 65.3219 48.8762 65.6575C48.7089 65.8325 48.5102 66.0026 48.2723 66.1441C48.037 66.2915 47.7794 66.4461 47.4879 66.5407C47.2003 66.6486 46.893 66.7529 46.5714 66.7888C46.2524 66.8511 45.923 66.8727 45.5974 66.8607C45.2693 66.8643 44.9503 66.8056 44.6405 66.7481C44.3306 66.687 44.0378 66.5875 43.7658 66.476C43.222 66.2459 42.767 65.9415 42.431 65.6155C42.0964 65.2872 41.8728 64.9564 41.7447 64.6975C41.6754 64.5789 41.6414 64.4542 41.614 64.3823C41.5878 64.3116 41.576 64.2709 41.576 64.2709Z" fill="#F5A586"/>
<path d="M56.8535 98.7843L81.4159 107.575C81.4159 107.575 91.1857 109.786 89.8796 126H45.137H44.8337H0.0911216C-1.02927 110.726 8.55224 107.575 8.55224 107.575L33.6494 98.5938L44.5932 109.137L56.8535 98.7843Z" fill="#E08ABA"/>
<path d="M37.5164 26.6045C37.5164 26.6045 19.1561 30.1723 19.2267 53.909C19.2267 53.909 17.8722 47.3893 13.5502 49.4399C13.5502 49.4399 -0.162581 15.762 31.9445 6.87183L37.5164 26.6045Z" fill="#E08D61"/>
<path d="M30.0359 21.2725L32.0937 29.8079L34.3096 28.7317L30.0359 21.2725Z" fill="#F4B88E"/>
</svg>
