<svg width="109" height="147" viewBox="0 0 109 147" fill="none" xmlns="http://www.w3.org/2000/svg">
<path d="M68.5358 107.221H40.4368V117.568H68.5358V107.221Z" fill="#6DB9CA"/>
<path d="M65.7705 95.0823H55.6566H42.9428C42.9428 95.0823 43.5191 109.495 40.7238 113.68H54.5014H68.2765C65.4811 109.495 65.7705 95.0823 65.7705 95.0823Z" fill="#F4B88E"/>
<path d="M42.6536 105.971C45.9038 108.073 50.7854 109.125 54.6783 109.163C58.9472 109.206 62.7124 108.089 66.3284 106.557C65.6493 101.149 65.7709 95.0823 65.7709 95.0823H42.9418C42.9431 95.0823 43.1673 100.721 42.6536 105.971Z" fill="#F5DCD6"/>
<path d="M98.6058 123.67L65.4674 111.799H54.6656H54.2984H43.4954L10.3582 123.67C10.3582 123.67 -1.24554 127.488 0.110173 146.005H54.2984H54.6656H108.854C110.438 126.35 98.6058 123.67 98.6058 123.67Z" fill="#F4B88E"/>
<path d="M98.6058 123.67L71.5267 113.969L54.5002 125.842L37.8683 113.815L10.3582 123.67C10.3582 123.67 -1.24554 127.488 0.110173 146.005H108.854C110.438 126.35 98.6058 123.67 98.6058 123.67Z" fill="#EAF6F5"/>
<path d="M37.8683 113.815L10.3582 123.67C10.3582 123.67 -1.24554 127.488 0.110173 146.005H43.9464L37.8683 113.815Z" fill="#001D51"/>
<path d="M98.6059 123.67L71.5268 113.969L65.9298 146.005H108.854C110.438 126.35 98.6059 123.67 98.6059 123.67Z" fill="#001D51"/>
<path d="M79.5033 66.7475C78.7152 71.6153 80.0822 75.9417 82.5506 76.4041C85.0164 76.874 87.6526 73.308 88.4345 68.4415C89.2151 63.5762 87.8531 59.2497 85.3835 58.7836C82.9189 58.3175 80.2839 61.8835 79.5033 66.7475Z" fill="#F4B88E"/>
<path d="M82.4701 65.4345C82.4701 65.4345 82.5064 65.1613 82.6041 64.7165C82.6981 64.2692 82.8936 63.639 83.198 62.9674C83.5075 62.3184 84.0049 61.5691 84.6327 61.529C84.788 61.5177 84.9459 61.5478 85.1075 61.5966C85.1339 61.6154 85.298 61.6793 85.3469 61.7219C85.3995 61.7746 85.4571 61.7934 85.5223 61.8673C85.7779 62.1129 85.9834 62.4925 86.1162 62.9285C86.264 63.3558 86.3568 63.8344 86.4056 64.3106C86.4482 64.7842 86.477 65.2816 86.4219 65.7039C86.3455 66.1913 86.3242 66.6937 86.234 67.1172C86.1525 67.5508 86.0723 67.9592 85.9997 68.3364C85.9007 68.7173 85.8242 69.0693 85.7541 69.3838C85.6877 69.6996 85.5912 69.9627 85.5336 70.187C85.407 70.6318 85.3444 70.8936 85.3444 70.8936C85.3444 70.8936 85.4722 70.6719 85.6764 70.2659C85.7716 70.0567 85.9119 69.8186 86.0335 69.5179C86.1575 69.2209 86.2991 68.8814 86.4407 68.5093C86.576 68.1284 86.6963 67.6973 86.8291 67.24C86.9657 66.7852 87.0283 66.3216 87.1261 65.8266C87.2213 65.2641 87.2338 64.719 87.1875 64.1589C87.1399 63.6076 87.0446 63.0501 86.8717 62.5113C86.6938 61.9826 86.4207 61.4613 86.0122 61.0842C85.9207 60.9902 85.7854 60.9063 85.6601 60.8311C85.5248 60.7609 85.4884 60.7584 85.3218 60.6945C85.0787 60.6394 84.8306 60.6181 84.5788 60.6582C84.0688 60.7409 83.6416 61.1205 83.3672 61.5177C83.0828 61.9162 82.9136 62.3459 82.782 62.7393C82.5302 63.5375 82.4776 64.2279 82.4513 64.699C82.4337 65.1726 82.4701 65.4345 82.4701 65.4345Z" fill="#F2A57F"/>
<path d="M82.4699 65.4345C82.4699 65.4345 82.2419 64.9145 83.867 64.7917C83.867 64.7917 85.68 65.1275 84.6138 67.5495C84.3832 68.0695 84.1865 68.6095 84.0712 69.1821C83.9083 69.9941 84.199 71.0967 83.7642 71.8184C83.2004 72.7481 81.7708 72.2193 81.6868 71.1556C81.6204 70.3399 82.4599 68.9403 82.8433 68.3614C82.8433 68.3614 84.0098 66.5948 82.4699 65.4345Z" fill="#F2A57F"/>
<path d="M81.687 71.0506C81.6895 71.0531 81.6306 71.0844 81.5604 71.1821C81.4827 71.2761 81.3963 71.4315 81.3224 71.6344C81.276 71.7384 81.2597 71.8537 81.2384 71.9803C81.2158 72.1081 81.187 72.2459 81.2083 72.3837C81.2196 72.519 81.2209 72.6694 81.2472 72.8172C81.2747 72.9563 81.3336 73.0854 81.38 73.2232C81.4414 73.3485 81.4827 73.4964 81.5629 73.5928C81.6356 73.6968 81.7271 73.782 81.8035 73.8747C81.9563 74.0639 82.133 74.1729 82.2984 74.2256C82.6179 74.3659 82.8535 74.3634 82.8535 74.3634C82.8535 74.3634 82.7608 74.0689 82.5991 73.772C82.5603 73.6943 82.5177 73.6154 82.4638 73.5415C82.425 73.4563 82.3949 73.3573 82.3485 73.2733C82.3059 73.1906 82.2708 73.0954 82.2145 73.019C82.1581 72.9413 82.1468 72.8335 82.1105 72.7471C82.014 72.5779 81.9726 72.3963 81.9125 72.2158C81.8787 72.1256 81.8636 72.0366 81.8436 71.9477C81.8285 71.8562 81.7897 71.7685 81.7822 71.682C81.7195 71.3475 81.6857 71.048 81.687 71.0506Z" fill="#F2A57F"/>
<path d="M29.8632 66.7475C30.6514 71.6153 29.2831 75.9417 26.8173 76.4041C24.3514 76.874 21.7152 73.308 20.9321 68.4415C20.1502 63.5762 21.5147 59.2497 23.9831 58.7836C26.4477 58.3175 29.0826 61.8835 29.8632 66.7475Z" fill="#F4B88E"/>
<path d="M26.8963 65.4345C26.8963 65.4345 26.8599 65.1613 26.7622 64.7165C26.6682 64.2692 26.4728 63.639 26.1683 62.9674C25.8576 62.3184 25.3601 61.5691 24.7324 61.529C24.577 61.5177 24.4192 61.5478 24.2575 61.5966C24.2325 61.6154 24.0683 61.6793 24.0182 61.7219C23.9656 61.7746 23.908 61.7934 23.8428 61.8673C23.5872 62.1129 23.3817 62.4925 23.2489 62.9285C23.0998 63.3558 23.0083 63.8344 22.9582 64.3106C22.9156 64.7842 22.8868 65.2816 22.9432 65.7039C23.0184 66.1913 23.0422 66.6937 23.1299 67.1172C23.2126 67.5508 23.2915 67.9592 23.3642 68.3364C23.4644 68.7173 23.5421 69.0693 23.6097 69.3838C23.6762 69.6996 23.7726 69.9627 23.8303 70.187C23.9568 70.6318 24.0207 70.8936 24.0207 70.8936C24.0207 70.8936 23.8929 70.6719 23.6887 70.2659C23.5935 70.0567 23.4531 69.8186 23.3328 69.5179C23.2075 69.2209 23.066 68.8814 22.9244 68.5093C22.7891 68.1284 22.6688 67.6973 22.536 67.24C22.3994 66.7852 22.3367 66.3216 22.239 65.8266C22.1438 65.2641 22.1312 64.719 22.1789 64.1589C22.2252 63.6076 22.3204 63.0501 22.4934 62.5113C22.6713 61.9826 22.9457 61.4613 23.3529 61.0842C23.4444 60.9902 23.5797 60.9063 23.705 60.8311C23.8403 60.7609 23.8766 60.7584 24.0433 60.6945C24.2863 60.6394 24.5344 60.6181 24.7875 60.6582C25.2975 60.7409 25.7223 61.1205 25.9979 61.5177C26.2823 61.9162 26.4527 62.3459 26.583 62.7393C26.8361 63.5375 26.8875 64.2279 26.9138 64.699C26.9326 65.1726 26.8963 65.4345 26.8963 65.4345Z" fill="#F2A57F"/>
<path d="M26.8966 65.4345C26.8966 65.4345 27.1246 64.9145 25.4995 64.7917C25.4995 64.7917 23.6852 65.1275 24.7515 67.5495C24.9821 68.0695 25.18 68.6095 25.2953 69.1821C25.4582 69.9941 25.1675 71.0967 25.6035 71.8184C26.1661 72.7481 27.5958 72.2193 27.6797 71.1556C27.7461 70.3399 26.9091 68.9403 26.5245 68.3614C26.5245 68.3614 25.3592 66.5948 26.8966 65.4345Z" fill="#F2A57F"/>
<path d="M27.6796 71.0506C27.6771 71.0531 27.736 71.0844 27.8061 71.1821C27.8838 71.2761 27.9703 71.4315 28.0442 71.6344C28.0893 71.7384 28.1068 71.8537 28.1281 71.9803C28.1507 72.1081 28.1795 72.2459 28.1582 72.3837C28.1469 72.519 28.1457 72.6694 28.1194 72.8172C28.093 72.9563 28.0342 73.0854 27.9865 73.2232C27.9252 73.3485 27.8838 73.4964 27.8036 73.5928C27.7322 73.6968 27.6395 73.782 27.563 73.8747C27.4102 74.0639 27.2335 74.1729 27.0681 74.2256C26.7474 74.3659 26.5131 74.3634 26.5131 74.3634C26.5131 74.3634 26.6058 74.0689 26.7662 73.772C26.8075 73.6943 26.8489 73.6154 26.9027 73.5415C26.9416 73.4563 26.9716 73.3573 27.0193 73.2733C27.0619 73.1906 27.0969 73.0954 27.1533 73.019C27.211 72.9413 27.221 72.8335 27.2573 72.7471C27.3538 72.5779 27.3951 72.3963 27.4553 72.2158C27.4879 72.1256 27.5029 72.0366 27.5242 71.9477C27.5392 71.8562 27.5781 71.7685 27.5856 71.682C27.6482 71.3475 27.6808 71.048 27.6796 71.0506Z" fill="#F2A57F"/>
<path d="M54.9823 14.2458V14.2383C54.852 14.2383 54.7229 14.2408 54.5951 14.2408C54.4623 14.2408 54.3345 14.2383 54.2029 14.2383V14.2433C34.5865 14.4187 23.5641 20.0044 26.5763 55.7628L29.953 84.2465C29.953 84.2465 30.5544 89.4438 36.2529 92.5524L46.9107 100.452C46.9107 100.452 51.9726 102.7 54.6001 102.478C57.2213 102.7 62.2845 100.45 62.2845 100.45L72.9398 92.5499C78.6395 89.44 79.2397 84.244 79.2397 84.244L82.7956 56.4194C85.8052 20.661 74.5974 14.4162 54.9823 14.2458Z" fill="#F4B88E"/>
<path d="M78.0445 66.7477C77.3491 69.7799 76.8692 74.6338 74.897 77.23C73.4924 79.0819 71.4914 80.0404 69.1772 80.1657C67.6047 80.2534 66.0298 80.1143 64.4786 79.8424C63.2757 79.6344 62.1456 79.0305 60.9026 79.0042C59.5068 78.9729 58.5658 79.449 57.3856 80.0955C55.9083 80.9024 54.5902 80.816 52.9776 80.3173C50.6822 79.6006 48.5885 78.741 46.1352 78.8262C43.4325 78.9202 40.3289 79.6407 37.6814 78.8262C34.8472 77.9567 33.3687 75.4934 32.2598 72.8972C31.6622 71.4977 31.2374 68.1961 30.8114 66.7477C30.2814 64.9447 29.4519 66.1851 27.8105 66.1638L29.9531 84.2466C29.9531 84.2466 30.5545 89.4439 36.253 92.5525L46.9108 100.452C46.9108 100.452 51.9727 102.7 54.6002 102.479C57.2214 102.7 62.2847 100.45 62.2847 100.45L72.9399 92.55C78.6396 89.4401 79.2398 84.2441 79.2398 84.2441L81.5954 65.8155C79.7422 65.7716 78.5294 64.6364 78.0445 66.7477Z" fill="#E08D61"/>
<path d="M40.1438 58.102C40.1551 59.9576 41.1976 61.4612 42.4731 61.4537C43.7498 61.4461 44.7735 59.9326 44.761 58.0732C44.751 56.2163 43.7072 54.7127 42.4342 54.7215C41.16 54.729 40.1338 56.2426 40.1438 58.102Z" fill="#2F1807"/>
<path d="M41.5359 57.0297C41.5359 57.5835 41.0899 58.0296 40.5373 58.0296C39.9848 58.0296 39.5387 57.5848 39.5387 57.0297C39.5387 56.4784 39.9835 56.0286 40.5373 56.0286C41.0886 56.0286 41.5359 56.4771 41.5359 57.0297Z" fill="white"/>
<path d="M69.2254 58.102C69.2129 59.9576 68.1704 61.4612 66.8961 61.4537C65.6194 61.4461 64.5945 59.9326 64.607 58.0732C64.617 56.2163 65.6607 54.7127 66.935 54.7215C68.2093 54.729 69.2342 56.2426 69.2254 58.102Z" fill="#2F1807"/>
<path d="M67.8314 57.0297C67.8314 57.5835 68.2787 58.0296 68.83 58.0296C69.3826 58.0296 69.8299 57.5848 69.8299 57.0297C69.8299 56.4784 69.3839 56.0286 68.83 56.0286C68.2787 56.0286 67.8314 56.4771 67.8314 57.0297Z" fill="white"/>
<path d="M58.0775 76.1937C57.5487 76.6999 56.9122 77.1108 56.2256 77.4178C55.5377 77.7298 54.7897 77.9378 54.0078 78.0217C53.6169 78.0806 53.2197 78.0806 52.8175 78.0744C52.4216 78.0305 52.0106 78.0142 51.6184 77.904C51.2162 77.8275 50.8291 77.6985 50.4482 77.5469C50.0623 77.4065 49.7089 77.2023 49.3431 77.0131L48.8845 76.7788L48.7817 76.0057C48.7354 75.6612 48.7065 75.3592 48.6965 75.0397C48.6765 74.7239 48.6915 74.412 48.699 74.1C48.7329 73.476 48.8105 72.8545 48.9559 72.2443C49.0962 71.6329 49.2954 71.0289 49.5799 70.4463C49.8367 69.8599 50.2051 69.2948 50.6674 68.7673C50.9456 69.4314 51.0809 70.0516 51.1924 70.6643C51.3202 71.277 51.3716 71.8722 51.4155 72.4636C51.4405 73.0525 51.4518 73.6376 51.4292 74.2177L51.3754 75.0848C51.3528 75.3705 51.3227 75.6712 51.2877 75.9306L50.7263 74.9231C50.9769 75.0723 51.2025 75.2803 51.4643 75.4156C51.7224 75.5584 51.9793 75.7138 52.2587 75.8215C52.5293 75.9569 52.8213 76.032 53.112 76.1411C53.4102 76.2037 53.7109 76.3077 54.0254 76.3478C54.3386 76.4142 54.6606 76.4292 54.9877 76.4493C55.3172 76.4743 55.6517 76.4768 55.9913 76.463C56.6666 76.4255 57.367 76.3528 58.0775 76.1937Z" fill="#EBA17D"/>
<path d="M47.292 51.2422C47.079 52.108 46.2508 52.6255 45.4615 52.4801C42.2551 51.8925 39.0337 52.1932 36.1294 53.262C35.4114 53.5251 34.5406 53.1392 34.1359 52.3448C33.7324 51.5529 34.072 50.5869 34.9466 50.2624C38.3834 48.9844 42.1762 48.6198 45.9376 49.2901C46.8936 49.4605 47.505 50.3802 47.292 51.2422Z" fill="#E08D61"/>
<path d="M61.1898 51.2422C61.4028 52.108 62.2298 52.6255 63.0192 52.4801C66.2268 51.8925 69.4481 52.1932 72.3538 53.262C73.0692 53.5251 73.9425 53.1392 74.346 52.3448C74.7494 51.5529 74.4099 50.5869 73.5366 50.2624C70.1009 48.9844 66.307 48.6198 62.5456 49.2901C61.5883 49.4605 60.9756 50.3802 61.1898 51.2422Z" fill="#E08D61"/>
<path d="M55.6506 88.751C55.6506 88.751 54.4879 89.1093 52.8878 88.7948" stroke="#E89780" stroke-miterlimit="10" stroke-linecap="round" stroke-linejoin="round"/>
<path d="M48.0473 83.0386L49.6511 86.1923C49.6511 86.1923 56.8181 90.2193 61.875 83.1977C61.875 83.1977 54.0114 83.5623 48.0473 83.0386Z" fill="white"/>
<path d="M83.2272 15.7205C85.5264 5.68554 73.3538 4.19201 73.3538 4.19201C60.6061 3.92012 51.4094 1.27885 51.4094 1.27885C26.553 -2.21817 23.7013 10.1223 23.7013 10.1223C20.6679 18.962 21.0199 24.381 21.0199 24.381L23.9832 58.785C23.9832 58.785 26.5117 58.3665 27.3386 62.1893L27.9513 66.715L30.8106 66.7488C30.0864 52.5653 30.0864 40.9766 30.0864 40.9766C30.3119 36.8092 30.0864 30.7624 36.4352 30.0419C39.5776 30.6246 42.8366 31.0719 46.0241 31.34C51.982 31.8412 56.737 31.8199 64.3701 30.8827C68.3144 30.3978 75.1055 28.8642 77.8808 32.6368C79.8279 35.2831 79.7765 39.6008 79.8667 42.7357C79.9143 44.4536 79.754 46.1288 79.6512 47.8341C79.6475 47.8554 78.0437 66.7501 78.0437 66.7501H81.4755C82.0268 58.0884 86.5187 59.3325 86.5187 59.3325C89.0961 39.8915 91.8313 27.224 91.8313 27.219C91.8326 27.2178 92.7811 16.4974 83.2272 15.7205Z" fill="#E08D61"/>
<path d="M84.2079 11.0007C84.2079 11.0007 87.0195 13.4854 83.2268 16.6416L86.4382 20.4493C86.4382 20.4493 89.8575 15.5177 92.3396 17.5487C92.3396 17.5487 91.5427 14.6594 87.8741 15.5152C87.8741 15.5152 89.3526 11.329 84.2079 11.0007Z" fill="#E08D61"/>
<path d="M37.8679 113.815L43.9461 146.005H37.3329L23.1907 119.073L37.8679 113.815Z" fill="#0D316D"/>
<path d="M71.5268 113.969L65.9298 146.005H72.0944L84.3685 118.571L71.5268 113.969Z" fill="#0D316D"/>
<path d="M54.49 125.789L52.2584 114.375L40.4367 107.221L38.7139 114.417L54.49 125.789Z" fill="#6DB9CA"/>
<path d="M54.4901 125.789L56.7228 114.375L68.5446 107.221L70.2661 114.417L54.4901 125.789Z" fill="#6DB9CA"/>
<path d="M60.1446 115.92H54.8658H54.1391H48.8591C48.8591 115.92 46.3369 117.449 47.4157 120.103L51.0067 125.789H53.7018H55.3031H57.9982L61.588 120.103C62.668 117.448 60.1446 115.92 60.1446 115.92Z" fill="#EC524F"/>
<path d="M60.9151 116.576C61.1381 117.633 61.0905 118.763 60.6883 119.931C59.8777 122.28 58.1862 124.118 55.6752 124.566C53.4261 124.969 51.1858 123.935 50.5142 121.685C49.9178 119.683 49.5871 117.412 50.8663 115.919H48.8578C48.8578 115.919 46.3356 117.448 47.4144 120.101L51.0054 125.787H57.9982L61.588 120.101C62.252 118.47 61.5516 117.263 60.9151 116.576Z" fill="#EC524F"/>
<path d="M50.993 125.789L47.1351 146.005H61.8662L57.9858 125.789H50.993Z" fill="#EC524F"/>
<path d="M52.2584 114.375L46.6677 124.613L33.0054 115.331L40.4367 107.221L52.2584 114.375Z" fill="#BFE5E5"/>
<path d="M56.7229 114.375L62.3124 124.613L75.9747 115.331L68.5446 107.221L56.7229 114.375Z" fill="#BFE5E5"/>
</svg>
